<?xml version="1.0" encoding="utf-8"?>
<!-- Generator: Adobe Illustrator 15.0.0, SVG Export Plug-In . SVG Version: 6.00 Build 0)  -->
<!DOCTYPE svg PUBLIC "-//W3C//DTD SVG 1.1//EN" "http://www.w3.org/Graphics/SVG/1.1/DTD/svg11.dtd">
<svg version="1.1"
	 id="Layer_1" xmlns:dc="http://purl.org/dc/elements/1.1/" xmlns:cc="http://creativecommons.org/ns#" xmlns:rdf="http://www.w3.org/1999/02/22-rdf-syntax-ns#" xmlns:svg="http://www.w3.org/2000/svg" xmlns:sodipodi="http://sodipodi.sourceforge.net/DTD/sodipodi-0.dtd" xmlns:inkscape="http://www.inkscape.org/namespaces/inkscape" inkscape:version="0.48.1 " sodipodi:docname="Colorful_Animal_Tiger_black_white_line_art_coloring_book_colouring.svg"
	 xmlns="http://www.w3.org/2000/svg" xmlns:xlink="http://www.w3.org/1999/xlink" x="0px" y="0px" width="1440px" height="1440px"
	 viewBox="0 0 1440 1440" enable-background="new 0 0 1440 1440" xml:space="preserve">
<sodipodi:namedview  inkscape:cy="723.72976" inkscape:cx="832.12846" inkscape:zoom="0.40416667" borderopacity="1" bordercolor="#666666" showgrid="false" pagecolor="#ffffff" id="namedview767" inkscape:window-y="51" inkscape:window-x="716" inkscape:window-height="828" inkscape:window-width="1436" inkscape:current-layer="Layer_1" inkscape:pageshadow="2" inkscape:pageopacity="0" inkscape:window-maximized="0" objecttolerance="10" gridtolerance="10" guidetolerance="10">
	</sodipodi:namedview>
<g id="g625" transform="matrix(6.2565,0,0,6.2565,-7348.2016,-2326.6721)">
	<path id="path627" inkscape:connector-curvature="0" fill="#FFFFFF" stroke="#000000" stroke-width="3" d="M1351.214,571.15
		c0.046-0.42,0.083-0.828,0.128-1.246c0.001,0,0,0,0,0.002c0.069-0.656,0.129-1.295,0.192-1.944
		c0.066-0.653,0.134-1.312,0.195-1.959c0.083-0.884,0.158-1.753,0.231-2.624c0.054-0.609,0.109-1.224,0.159-1.825
		c0.01-0.093,0.017-0.188,0.023-0.28c0,0,0,0,0,0.002c0.175-2.21,0.321-4.366,0.447-6.485c0,0,0,0.001,0.01,0.002
		c0.021-0.352,0.036-0.695,0.058-1.044c0.021-0.404,0.044-0.81,0.064-1.212c0.063-1.209,0.12-2.407,0.165-3.588
		c0-0.037,0.01-0.076,0.01-0.115c0.048-1.229,0.084-2.438,0.114-3.634c0.01-0.344,0.015-0.686,0.023-1.027
		c0.01-0.368,0.018-0.743,0.023-1.11c0,0,0,0.002-0.01,0.004c0.047-2.734,0.049-5.385,0.01-7.954c0,0.001,0,0.001,0.01,0.001
		c0-0.245-0.015-0.478-0.02-0.723c-0.017-0.969-0.042-1.924-0.07-2.871c-0.015-0.438-0.027-0.878-0.043-1.31
		c-0.044-1.149-0.097-2.278-0.156-3.393c-0.01-0.155-0.013-0.318-0.021-0.471c-0.001,0-0.001,0,0,0
		c-0.111-1.961-0.25-3.861-0.41-5.717c0,0,0,0.001,0.01,0.001c-0.025-0.287-0.053-0.564-0.079-0.847
		c-0.022-0.254-0.046-0.507-0.069-0.759c-0.09-0.927-0.182-1.844-0.282-2.745c-0.015-0.14-0.031-0.276-0.048-0.416
		c-0.092-0.815-0.19-1.62-0.293-2.413c-0.025-0.203-0.051-0.406-0.077-0.606c-0.024-0.178-0.046-0.358-0.07-0.535
		c0,0.001,0,0.002-0.01,0.003c-0.317-2.329-0.675-4.563-1.067-6.71c0,0,0,0,0.01,0c-0.036-0.207-0.077-0.406-0.115-0.61
		c-0.063-0.333-0.126-0.664-0.19-0.992c-0.104-0.533-0.21-1.06-0.318-1.581c-0.058-0.279-0.114-0.562-0.174-0.838
		c-0.164-0.762-0.33-1.514-0.503-2.251c-0.049-0.209-0.1-0.411-0.148-0.617c-0.102-0.423-0.202-0.85-0.306-1.265
		c0,0.001,0,0.003,0,0.005c-0.723-2.882-1.511-5.574-2.351-8.083c0.001,0,0,0,0,0c-0.177-0.527-0.355-1.045-0.536-1.556
		c-0.041-0.116-0.082-0.228-0.122-0.344c-0.19-0.528-0.382-1.049-0.576-1.561c-0.083-0.22-0.167-0.435-0.251-0.651
		c-0.15-0.391-0.303-0.777-0.457-1.158c-0.086-0.211-0.171-0.423-0.256-0.631c-0.044-0.106-0.087-0.216-0.13-0.319v0.002
		c-1.361-3.262-2.804-6.151-4.279-8.708c0,0,0-0.001,0.01-0.001c-0.084-0.147-0.171-0.288-0.256-0.434
		c-0.094-0.16-0.188-0.321-0.282-0.479c-0.193-0.323-0.387-0.639-0.581-0.951c-0.067-0.107-0.134-0.218-0.201-0.325
		c-0.257-0.407-0.514-0.806-0.771-1.195c-0.078-0.117-0.156-0.229-0.232-0.344c-0.186-0.276-0.371-0.548-0.557-0.814
		c-0.1-0.143-0.198-0.284-0.299-0.424c-0.167-0.234-0.333-0.466-0.499-0.692c-0.102-0.138-0.201-0.274-0.301-0.409
		c-0.186-0.248-0.372-0.49-0.557-0.73c-0.075-0.098-0.151-0.2-0.228-0.296c-0.233-0.298-0.467-0.589-0.699-0.874l-0.001,0.001
		c-3.644-4.451-7.1-7.176-9.611-8.778c7.333-4.196,12.133-10.629,12.495-17.756c0.01-0.113,0-0.225,0-0.339h0.01
		c0.01-0.298,0.01-0.596,0-0.893c-0.001-0.031,0-0.063,0-0.095c-0.01-0.337-0.03-0.673-0.06-1.007
		c-0.01-0.109-0.02-0.219-0.032-0.329c-0.03-0.29-0.068-0.579-0.114-0.868c-0.013-0.079-0.021-0.158-0.036-0.236
		c-0.06-0.354-0.134-0.706-0.216-1.057c-0.021-0.092-0.048-0.185-0.071-0.277c-0.068-0.277-0.146-0.552-0.229-0.827
		c-0.029-0.096-0.058-0.191-0.088-0.287c-0.108-0.336-0.223-0.672-0.352-1.003l0,0c-0.308-0.797-0.67-1.581-1.087-2.348
		c0.264-1.627,0.441-3.292,0.527-4.987c0.045-0.869,0.056-1.729,0.05-2.585l0.01-0.002c-0.001-0.238-0.013-0.473-0.018-0.709
		c-0.01-0.291-0.011-0.583-0.021-0.873c-0.014-0.336-0.036-0.67-0.056-1.004c-0.019-0.287-0.033-0.573-0.056-0.858
		c-0.029-0.346-0.066-0.687-0.102-1.029c-0.029-0.268-0.053-0.537-0.085-0.802c-0.049-0.397-0.108-0.791-0.167-1.184
		c-0.032-0.207-0.056-0.414-0.09-0.619c0-0.006,0-0.013,0-0.02c0,0,0,0,0,0.001c-0.552-3.346-1.483-6.53-2.729-9.499
		c2.373-1.83,5.007-7.88,6.234-13.101l0.001,0.006c0.063-0.262,0.121-0.522,0.175-0.779c0-0.005,0-0.013,0-0.019
		c0.065-0.306,0.123-0.605,0.177-0.902c0.015-0.085,0.028-0.169,0.043-0.253c0.04-0.234,0.075-0.465,0.109-0.691
		c0.01-0.073,0.021-0.145,0.03-0.217c0.038-0.289,0.072-0.572,0.098-0.847c0-0.037,0.01-0.071,0.01-0.107
		c0.02-0.235,0.034-0.464,0.045-0.688c0-0.072,0-0.142,0.01-0.213c0.01-0.203,0.01-0.4,0-0.591c-0.001-0.048-0.001-0.099,0-0.146
		c-0.01-0.23-0.023-0.449-0.048-0.657c-0.01-0.045-0.013-0.086-0.019-0.131c-0.021-0.162-0.049-0.314-0.082-0.46
		c-0.012-0.054-0.023-0.106-0.037-0.158c-0.04-0.15-0.085-0.292-0.138-0.422c-0.01-0.022-0.016-0.048-0.025-0.069
		c-0.063-0.146-0.136-0.275-0.217-0.392c-0.022-0.031-0.047-0.059-0.069-0.087c-0.066-0.083-0.137-0.157-0.215-0.221
		c-0.029-0.024-0.058-0.049-0.089-0.07c-0.107-0.074-0.221-0.138-0.348-0.177c-0.419-0.129-0.835-0.241-1.246-0.343
		c-0.127-0.032-0.252-0.057-0.378-0.085c-0.283-0.066-0.566-0.128-0.847-0.182c-0.146-0.027-0.289-0.05-0.433-0.075
		c-0.26-0.044-0.517-0.084-0.771-0.119c-0.146-0.019-0.289-0.037-0.434-0.053c-0.254-0.029-0.507-0.052-0.758-0.072
		c-0.134-0.009-0.269-0.021-0.401-0.029c-0.268-0.017-0.53-0.025-0.792-0.031c-0.11-0.003-0.222-0.007-0.332-0.008
		c-0.335-0.002-0.664,0.003-0.99,0.017c-0.032,0.001-0.065,0.001-0.099,0.001c-0.364,0.018-0.725,0.043-1.076,0.077
		c-0.079,0.007-0.152,0.018-0.229,0.027c-0.267,0.027-0.532,0.058-0.792,0.097c-0.033,0.004-0.067,0.007-0.1,0.012
		c0,0,0.011,0.001,0.015,0.002c-5.764,0.852-9.782,3.818-11.005,4.828c-3.652-2.001-7.695-3.215-11.988-3.433
		c-2.993-0.154-5.912,0.197-8.709,0.965c-0.85-1.585-2.854-5.097-5.364-8.035l0,0c-0.651-0.761-1.337-1.484-2.046-2.125
		c-0.013-0.012-0.025-0.024-0.039-0.036c-0.091-0.082-0.182-0.161-0.273-0.24c-0.031-0.026-0.061-0.052-0.09-0.078
		c-0.084-0.07-0.167-0.138-0.251-0.207c-0.038-0.032-0.077-0.064-0.116-0.095c-0.078-0.062-0.155-0.122-0.232-0.18
		c-0.047-0.036-0.093-0.072-0.139-0.107c-0.074-0.055-0.146-0.106-0.221-0.158c-0.051-0.036-0.104-0.073-0.154-0.108
		c-0.07-0.05-0.141-0.095-0.213-0.142c-0.054-0.035-0.109-0.071-0.162-0.105c-0.068-0.044-0.139-0.084-0.209-0.125
		c-0.056-0.036-0.113-0.069-0.17-0.102c-0.068-0.038-0.135-0.074-0.203-0.11c-0.059-0.032-0.118-0.064-0.178-0.093
		c-0.066-0.034-0.133-0.066-0.199-0.097c-0.061-0.029-0.121-0.058-0.183-0.084c-0.065-0.029-0.132-0.056-0.197-0.083
		c-0.062-0.025-0.124-0.05-0.186-0.073c-0.064-0.025-0.13-0.047-0.194-0.068c-0.063-0.022-0.127-0.042-0.189-0.062
		c-0.065-0.019-0.129-0.037-0.191-0.054c-0.064-0.017-0.13-0.033-0.195-0.049c-0.062-0.014-0.126-0.027-0.188-0.039
		c-0.065-0.013-0.13-0.024-0.196-0.034c-0.063-0.009-0.123-0.018-0.187-0.025c-0.065-0.007-0.132-0.014-0.198-0.018
		c-0.062-0.005-0.123-0.008-0.184-0.01c-0.067-0.002-0.135-0.004-0.201-0.002c-0.061,0-0.122,0.001-0.182,0.004
		c-0.067,0.003-0.136,0.009-0.202,0.016c-0.06,0.005-0.12,0.012-0.181,0.02c-0.067,0.009-0.135,0.022-0.201,0.036
		c-0.06,0.01-0.12,0.021-0.18,0.035c-0.068,0.015-0.136,0.034-0.203,0.054c-0.059,0.016-0.117,0.033-0.176,0.052
		c-0.068,0.022-0.137,0.049-0.205,0.074c-0.058,0.022-0.115,0.043-0.173,0.068c-0.068,0.029-0.137,0.063-0.206,0.097
		c-0.057,0.027-0.113,0.053-0.168,0.083c-0.07,0.038-0.14,0.079-0.209,0.12c-0.055,0.033-0.109,0.064-0.165,0.099
		c-0.069,0.046-0.139,0.095-0.208,0.146c-0.055,0.038-0.107,0.075-0.162,0.116c-0.071,0.054-0.142,0.114-0.213,0.172
		c-0.051,0.043-0.102,0.083-0.153,0.129c-0.073,0.064-0.146,0.137-0.218,0.207c-0.049,0.046-0.098,0.09-0.146,0.139
		c-0.074,0.077-0.15,0.161-0.225,0.245c-0.045,0.048-0.09,0.094-0.134,0.145c-0.082,0.095-0.164,0.198-0.245,0.3
		c-0.036,0.046-0.074,0.089-0.111,0.137c-0.117,0.153-0.234,0.313-0.35,0.483c-0.09,0.128-0.177,0.27-0.264,0.42
		c-0.029,0.048-0.057,0.103-0.083,0.154c-0.06,0.106-0.118,0.213-0.176,0.33c-0.032,0.067-0.066,0.138-0.099,0.207
		c-0.052,0.109-0.104,0.219-0.154,0.333c-0.034,0.081-0.07,0.165-0.105,0.249c-0.046,0.112-0.092,0.226-0.139,0.343
		c-0.035,0.093-0.071,0.188-0.107,0.286c-0.043,0.116-0.086,0.234-0.127,0.354c-0.037,0.104-0.072,0.208-0.107,0.316
		c-0.041,0.122-0.08,0.246-0.119,0.372c-0.035,0.111-0.07,0.222-0.104,0.336c-0.039,0.133-0.077,0.268-0.115,0.402
		c-0.031,0.113-0.063,0.223-0.094,0.337c-0.01,0.033-0.018,0.065-0.026,0.099v-0.007c-1.572,5.982-1.9,14.989,1.974,17.422
		c-3.007,4.019-5.341,8.775-6.758,14.029l0,0c-0.156,0.579-0.3,1.163-0.433,1.753c-0.045,0.197-0.082,0.398-0.124,0.597
		c-0.085,0.398-0.169,0.796-0.242,1.199c-0.046,0.25-0.084,0.501-0.126,0.751c-0.061,0.36-0.12,0.719-0.172,1.083
		c-0.037,0.265-0.068,0.534-0.102,0.799c-0.03,0.256-0.068,0.507-0.095,0.764c0,0,0,0,0.01,0c-0.09,0.845-0.165,1.694-0.209,2.556
		c-0.054,1.039-0.069,2.068-0.054,3.089c-2.195,2.582-3.684,5.499-4.315,8.636c-0.01-0.001-0.01-0.003-0.015-0.005
		c-0.041,0.21-0.069,0.424-0.104,0.637c-0.025,0.155-0.056,0.309-0.076,0.465c-0.063,0.463-0.111,0.93-0.135,1.402
		c-0.033,0.65-0.037,1.291-0.025,1.925c0,0.101,0,0.203,0.01,0.306c0.018,0.611,0.06,1.214,0.121,1.811
		c0.01,0.045,0.01,0.092,0.01,0.137c0,0,0,0,0.01,0c0.798,7.199,4.892,13.198,13.739,17.198c-4.137,1.705-9.001,4.814-13.205,10.485
		c0,0,0-0.002,0-0.003c-0.284,0.384-0.565,0.786-0.844,1.194c-0.079,0.115-0.155,0.232-0.233,0.35
		c-0.262,0.393-0.521,0.797-0.775,1.211c-0.061,0.101-0.124,0.198-0.185,0.299c-0.296,0.49-0.585,1-0.869,1.521
		c-0.075,0.138-0.147,0.278-0.222,0.416c-0.243,0.459-0.482,0.929-0.717,1.413c-0.053,0.107-0.105,0.21-0.157,0.318
		c-0.269,0.565-0.528,1.15-0.784,1.748c-0.068,0.161-0.137,0.324-0.202,0.485c-0.083,0.199-0.167,0.391-0.248,0.594
		c0.01,0.002,0.01,0.003,0.012,0.004c-0.17,0.428-0.345,0.847-0.509,1.29c-0.011,0-0.021-0.003-0.035-0.004
		c0,0-0.014,0.077-0.043,0.221c-0.985,2.718-1.825,5.765-2.494,9.144c0-0.001-0.01-0.003-0.011-0.003
		c-0.058,0.295-0.115,0.59-0.171,0.89c-0.16,0.49-0.33,0.992-0.506,1.501c-0.022,0.066-0.045,0.129-0.066,0.196
		c-0.175,0.498-0.356,1.007-0.545,1.52c-0.026,0.069-0.052,0.139-0.078,0.206c-0.196,0.531-0.4,1.069-0.613,1.611
		c-0.012,0.029-0.023,0.056-0.035,0.084c-0.225,0.57-0.457,1.145-0.701,1.724l0,0c-1.775,4.22-4.063,8.65-6.951,12.574
		c-0.338,0.459-0.685,0.91-1.039,1.353c-0.051,0.063-0.101,0.128-0.15,0.191c-0.36,0.446-0.729,0.882-1.105,1.31
		c-0.06,0.066-0.119,0.132-0.179,0.199c-0.365,0.409-0.737,0.809-1.119,1.197c-0.028,0.029-0.055,0.059-0.083,0.087
		c-0.393,0.396-0.795,0.779-1.205,1.154c-1.916,1.754-4.021,3.25-6.334,4.368c-0.762,0.369-1.507,0.783-2.238,1.229
		c0-0.001,0-0.004,0-0.006c-0.04,0.025-0.079,0.054-0.121,0.079c-0.278,0.172-0.555,0.355-0.829,0.539
		c-0.148,0.1-0.299,0.193-0.445,0.295c-0.318,0.221-0.631,0.454-0.942,0.691c-0.099,0.073-0.198,0.142-0.296,0.217
		c-0.286,0.223-0.567,0.458-0.848,0.692c0.039-0.034,0.076-0.07,0.116-0.103c-3.771-0.069-6.679,4.168-6.679,4.168
		s-4.307,4.984-9.482,12.342v-0.001c-0.014,0.021-0.029,0.043-0.044,0.065c-0.424,0.603-0.853,1.22-1.285,1.853
		c-0.013,0.018-0.024,0.035-0.036,0.054c-1.29,1.884-2.611,3.895-3.918,5.996l0,0c-0.012,0.017-0.022,0.035-0.033,0.053
		c-0.206,0.331-0.411,0.665-0.615,0.999c-0.018,0.028-0.034,0.056-0.051,0.083c0,0,0,0,0,0.001
		c-1.216,1.992-2.408,4.058-3.541,6.166c-0.01,0.013-0.016,0.025-0.021,0.038c0,0,0,0,0,0.001c-0.742,1.384-1.46,2.787-2.138,4.198
		c-0.001,0-0.001,0-0.001,0c-0.01,0.014-0.013,0.029-0.02,0.043c-0.435,0.904-0.853,1.812-1.252,2.723
		c-0.01,0.02-0.016,0.037-0.025,0.056c-0.399,0.914-0.781,1.829-1.142,2.744c0,0.006,0,0.015-0.01,0.021h0.001
		c-0.64,1.627-1.208,3.251-1.69,4.86c0,0-0.001-0.001,0-0.001c-0.011,0.036-0.02,0.073-0.031,0.109
		c-0.141,0.475-0.273,0.947-0.398,1.417c-0.02,0.068-0.037,0.136-0.055,0.205c-0.127,0.487-0.247,0.973-0.355,1.455
		c-0.01,0.04-0.02,0.08-0.027,0.12c-0.229,1.021-0.416,2.031-0.559,3.027c0,0.02-0.01,0.04-0.01,0.058c0,0,0,0,0-0.001
		c-0.094,0.662-0.166,1.317-0.217,1.966l0,0c0,0.013,0,0.026,0,0.039c-0.041,0.53-0.068,1.056-0.08,1.576c0,0.016,0,0.032,0,0.05
		c-0.011,0.521-0.01,1.039,0.015,1.549c0,0.004,0,0.008,0,0.012l0,0c0.099,2.34,0.539,4.553,1.389,6.585v0.001
		c0.01,0.012,0.012,0.022,0.018,0.033c0.211,0.503,0.446,0.996,0.709,1.475c0,0.001,0,0.002,0,0.002
		c0.267,0.485,0.561,0.957,0.882,1.415c0,0.007,0.01,0.013,0.011,0.019c0,0,0,0,0-0.002c0.445,0.637,0.948,1.249,1.506,1.833
		c0,0,0,0,0,0.002c0.013,0.013,0.029,0.026,0.042,0.04c0.343,0.357,0.706,0.702,1.091,1.038c0.013,0.01,0.025,0.021,0.038,0.03
		c1.202,1.036,2.616,1.967,4.263,2.777c0.012,0.005,0.023,0.013,0.035,0.019v-0.001c0.953,0.468,1.986,0.895,3.102,1.279v0.001
		c0.026,0.009,0.057,0.016,0.082,0.025c0.605,0.207,1.232,0.403,1.887,0.584l0.01,0.002c1.916,0.53,4.049,0.945,6.406,1.237
		c0,0,0,0,0,0.002c0.038,0.004,0.079,0.007,0.117,0.012c0.676,0.083,1.365,0.155,2.079,0.218c0.021,0.001,0.042,0.003,0.063,0.005
		c0.706,0.061,1.437,0.107,2.181,0.147c0.061,0.003,0.116,0.009,0.178,0.012c0-0.001,0-0.003,0-0.003
		c1.098,0.055,2.235,0.088,3.416,0.097c0,0,0,0.001,0,0.002c0.043,0,0.088,0,0.133,0c0.553,0.004,1.115,0,1.688-0.005
		c0.061-0.001,0.119-0.001,0.181-0.002c0.644-0.009,1.299-0.025,1.967-0.048c0.017,0,0.032,0,0.05-0.001c0,0,0,0-0.001,0
		c0.942-0.033,1.911-0.081,2.901-0.141c0,0.001,0,0.001,0,0.001c0.043-0.002,0.087-0.006,0.13-0.009
		c1.768-0.108,3.613-0.262,5.538-0.462c0,0.001,0,0.002,0,0.003c0.068-0.007,0.139-0.017,0.207-0.023
		c0.672-0.07,1.354-0.147,2.045-0.228c0.091-0.011,0.178-0.02,0.269-0.031l0,0c0.088-0.011,0.173-0.02,0.261-0.031
		c0,0,0.988-0.091,2.572-0.36l0,0c0.029-0.005,0.063-0.011,0.093-0.016c0.136-0.024,0.275-0.048,0.419-0.074
		c0.074-0.013,0.148-0.027,0.224-0.041c0.171-0.032,0.346-0.064,0.525-0.1c0.049-0.009,0.097-0.019,0.146-0.029
		c0.204-0.041,0.415-0.083,0.628-0.129c0.056-0.011,0.111-0.024,0.166-0.035c0.217-0.046,0.437-0.096,0.662-0.146
		c0.014-0.004,0.027-0.007,0.041-0.009l0,0c1.205-0.277,2.538-0.627,3.932-1.069v0.002c0.022-0.007,0.045-0.016,0.067-0.022
		c0.405-0.129,0.813-0.266,1.226-0.411c0.061-0.02,0.121-0.042,0.182-0.063c0.409-0.147,0.821-0.301,1.234-0.462
		c0.031-0.012,0.061-0.022,0.09-0.033c0-0.001-0.001-0.001-0.001-0.001c1.31-0.519,2.628-1.121,3.901-1.82v0.001
		c0.013-0.007,0.023-0.014,0.036-0.021c0.4-0.221,0.796-0.454,1.187-0.694c0.051-0.031,0.102-0.062,0.151-0.094
		c0.382-0.239,0.758-0.49,1.126-0.75c0.027-0.02,0.057-0.037,0.086-0.057l0,0c0.081-0.058,0.163-0.115,0.242-0.174
		c3.542,2.477,9.997,2.382,17.374,2.382c11.188,0,20.256,0.221,20.256-8.646c0-1.999-0.465-3.911-1.306-5.676
		c5.36,0.784,12.651,1.222,20.12-0.24c-0.428,1.297-0.657,2.659-0.657,4.063c0,8.868,9.069,8.646,20.257,8.646
		s20.258,0.223,20.258-8.646c-0.01-4.936-2.809-9.343-7.215-12.289L1351.214,571.15z M1228.806,525.269
		c-0.021,0.022-0.043,0.045-0.063,0.067c0.064-0.07,0.127-0.14,0.191-0.21C1228.891,525.173,1228.848,525.221,1228.806,525.269z
		 M1214.813,558.274c-0.458,2.99-0.79,6.067-0.978,9.212c-1.364,0.399-2.654,0.918-3.863,1.529
		C1211.237,565.606,1212.92,561.952,1214.813,558.274L1214.813,558.274z M1242.034,591.534c-0.028,0.003-0.056,0.005-0.083,0.008
		c-5.091,0.482-10.527,0.311-15.533-0.369c8.398-0.167,14.568-1.265,14.684-8.419c5.794,0.54,12.043,0.854,18.27,0.698
		c-0.083,0.576-0.128,1.161-0.132,1.753C1255.641,588.867,1249.186,590.846,1242.034,591.534L1242.034,591.534z"/>
	<g id="g629">
		<path id="path631" inkscape:connector-curvature="0" fill="#FFFFFF" stroke="#000000" stroke-width="3" d="M1328.021,384.051
			c2.841-0.421,6.109-0.329,9.677,0.768c1.657,0.511,1.573,4.135,0.592,8.297l-0.497-2.112l-0.873,1.056l0.215-2.508l-0.896,1.373
			l-0.029-2.296l-1.6,1.072l0.857-1.93l-2.723,0.857l1.32-1.864c0,0-3.294,0.271-3.267,0.165c0.026-0.107,1.699-1.518,1.699-1.518
			l-2.821,0.149c0,0,2.094-1.254,2.013-1.254C1331.609,384.307,1328.021,384.051,1328.021,384.051L1328.021,384.051z"/>
		<path id="path633" inkscape:connector-curvature="0" fill="#FFFFFF" stroke="#000000" stroke-width="3" d="M1329.106,404.884
			c0,0-4.751-8.97-8.642-11.113c0,0,5.763-5.296,13.944-2.781C1337.409,391.91,1331.918,407.837,1329.106,404.884z"/>
		<path id="path635" inkscape:connector-curvature="0" fill="#FFFFFF" stroke="#000000" stroke-width="3" d="M1277.151,381.178
			c0.51-1.942,1.148-3.564,1.819-4.538c3.773-5.496,8.406-2.467,12.001,1.739l-1.828-0.688l0.164,1.682l-2.343-1.671l0.462,2.034
			l-2.409-2.013l0.133,1.815l-2.408-2.541l-0.199,2.772l-1.055-2.079l-1.188,3.299l-0.56-1.748l-1.518,3.464l-0.101-3.267
			L1277.151,381.178L1277.151,381.178z"/>
		<path id="path637" inkscape:connector-curvature="0" fill="#FFFFFF" stroke="#000000" stroke-width="3" d="M1281.652,397.409
			c0,0,6.299-6.36,10.806-7.603c0,0-7.097-16.002-12.136-7.199C1278.28,386.172,1276.889,396.345,1281.652,397.409z"/>
		<path id="path639" inkscape:connector-curvature="0" fill="#FFFFFF" stroke="#000000" stroke-width="3" d="M1273.892,578.366"/>
		<path id="path641" inkscape:connector-curvature="0" fill="#FFFFFF" stroke="#000000" stroke-width="3" d="M1306.88,404.042
			c0.116,2.759,1.727,4.936,3.597,4.857c1.865-0.083,3.289-2.381,3.176-5.141c-0.119-2.761-1.725-4.934-3.598-4.856
			C1308.186,398.979,1306.765,401.284,1306.88,404.042L1306.88,404.042z"/>
		<path id="path643" inkscape:connector-curvature="0" fill="#FFFFFF" stroke="#000000" stroke-width="3" d="M1291.645,404.38
			c0.814,2.706,3.002,4.449,4.882,3.888c1.88-0.567,2.745-3.224,1.931-5.933c-0.816-2.716-3.004-4.455-4.881-3.891
			C1291.696,399.011,1290.83,401.664,1291.645,404.38z"/>
		<path id="path645" inkscape:connector-curvature="0" fill="#FFFFFF" stroke="#000000" stroke-width="3" d="M1262.206,577.18
			c-0.161-2.368-1.025-5.065-2.747-8.116c0,0-1.502-2.248,1.019-3.855c2.519-1.607,4.406,0.896,4.406,0.896
			c2.422,4.259,3.643,7.96,3.966,11.173l-1.459-0.31l-0.668-1.902l-0.052,1.851l-0.976,0.103l-0.721-2.262v2.21l-1.079,0.206
			l-0.667-2.93l-0.154,3.032L1262.206,577.18"/>
		<path id="path647" inkscape:connector-curvature="0" fill="#FFFFFF" stroke="#000000" stroke-width="3" d="M1310.311,425.386
			c0,0,0.565-7.402-0.771-11.257c0,0,0.874,12.13-0.154,12.337"/>
		<path id="path649" inkscape:connector-curvature="0" fill="#FFFFFF" stroke="#000000" stroke-width="3" d="M1351.584,578.298
			c4.633,5.557,3.663,10.834,4.348,9.729C1356.981,582.474,1352.842,578.207,1351.584,578.298z"/>
		<path id="path651" inkscape:connector-curvature="0" fill="#FFFFFF" stroke="#000000" stroke-width="3" d="M1330.027,590.774
			c0.935,0.9-2.413-5.764,1.812-10.508C1330.6,580.491,1326.167,585.533,1330.027,590.774z"/>
		<path id="path653" inkscape:connector-curvature="0" fill="#FFFFFF" stroke="#000000" stroke-width="3" d="M1343.224,580.403
			c0,0,2.525,4.698,1.244,10.589c0,0,1.789,1.045,1.405-4.791C1345.472,580.141,1342.506,578.59,1343.224,580.403z"/>
		<path id="path655" inkscape:connector-curvature="0" fill="#FFFFFF" stroke="#000000" stroke-width="3" d="M1292.396,580.832
			c4.168,5.915,2.777,11.096,3.547,10.05C1297.316,585.432,1293.656,580.845,1292.396,580.832z"/>
		<path id="path657" inkscape:connector-curvature="0" fill="#FFFFFF" stroke="#000000" stroke-width="3" d="M1272.255,591.898
			c0.958,0.968-2.694-5.903,3.042-10.348C1273.889,581.681,1268.451,586.382,1272.255,591.898z"/>
		<path id="path659" inkscape:connector-curvature="0" fill="#FFFFFF" stroke="#000000" stroke-width="3" d="M1284.171,581.976
			c0,0,2.14,4.888,0.388,10.654c0,0,1.524,1.046,1.611-4.803C1286.261,581.754,1283.603,580.109,1284.171,581.976L1284.171,581.976z
			"/>
		<path id="path661" inkscape:connector-curvature="0" fill="#FFFFFF" stroke="#000000" stroke-width="3" d="M1234.434,578.194
			c4.633,5.559,3.664,10.834,4.35,9.73C1239.711,582.381,1235.691,578.105,1234.434,578.194z"/>
		<path id="path663" inkscape:connector-curvature="0" fill="#FFFFFF" stroke="#000000" stroke-width="3" d="M1219.345,590.031
			c0.935,0.9-2.907-5.701,1.812-10.508C1219.916,579.749,1215.484,584.79,1219.345,590.031z"/>
		<path id="path665" inkscape:connector-curvature="0" fill="#FFFFFF" stroke="#000000" stroke-width="3" d="M1227.954,579.719
			c0,0,2.526,4.698,1.244,10.589c0,0,1.518,0.999,1.133-4.838C1229.931,579.409,1227.236,577.904,1227.954,579.719L1227.954,579.719
			z"/>
		<path id="path667" inkscape:connector-curvature="0" fill="#FFFFFF" stroke="#000000" stroke-width="3" d="M1320.919,445.503
			c-0.14,1.306-1.354,3.134-3.938,3.759c-2.706,0.652-12.337,0.886-14.82-4.458c0,0-1.125-7.268-0.653-10.588
			c1.415-0.408,6.448-2.609,8.139-6.33c1.884-4.144,0.377-4.331-9.224-5.459c-9.603-1.13-1.695,9.977-1.695,9.977
			s1.372,1.371,2.125,1.772c-0.097,1.188-0.239,4.651,0.606,10.628c0,0-1.552,5.766-6.413,5.807
			c-12.195,0.103-11.966-6.831-12.104-7.67c-0.142-0.84-0.835-0.019-0.835-0.019s-1.812,8.726,13.17,8.615
			c5.128-0.04,6.604-5.056,6.604-5.056s2.789,3.326,7.352,3.822c14.507,1.573,12.568-5.397,12.568-5.397
			S1321.058,444.197,1320.919,445.503L1320.919,445.503z"/>
		<path id="path669" inkscape:connector-curvature="0" fill="#FFFFFF" stroke="#000000" stroke-width="3" d="M1295.714,424.614
			c0,0,0.308-5.859,2.003-10.075c0,0-1.9,8.79-1.079,9.51"/>
		<path id="path671" inkscape:connector-curvature="0" fill="#FFFFFF" stroke="#000000" stroke-width="3" d="M1337.084,439.606
			c0.072-2.365-0.349-4.675-1.199-6.878c-4.981,1.555-12.057,3.247-18.358,2.84C1317.526,435.568,1328.508,440.012,1337.084,439.606
			z"/>
		<path id="path673" inkscape:connector-curvature="0" fill="#FFFFFF" stroke="#000000" stroke-width="3" d="M1243.83,514.333
			c9.885,3.479,22.331,3.479,22.331,3.479c-8.041-2.449-13.632-5.942-17.285-9.139
			C1247.363,510.732,1245.686,512.655,1243.83,514.333z"/>
		<path id="path675" inkscape:connector-curvature="0" fill="#FFFFFF" stroke="#000000" stroke-width="3" d="M1285.427,476.774
			c-9.643,0.742-15.424-4.075-18.6-8.568c-1.931,2.605-3.722,5.752-5.236,9.55C1276.85,484.052,1285.427,476.774,1285.427,476.774
			L1285.427,476.774z"/>
		<path id="path677" inkscape:connector-curvature="0" fill="#FFFFFF" stroke="#000000" stroke-width="3" d="M1258.511,488.408
			c-0.058,0.295-0.115,0.59-0.171,0.89c-0.694,2.125-1.538,4.449-2.545,6.842c11.985-0.046,24.881-5.511,24.881-5.511
			C1274.859,492.131,1266.107,490.519,1258.511,488.408L1258.511,488.408z"/>
		<path id="path679" inkscape:connector-curvature="0" fill="#FFFFFF" stroke="#000000" stroke-width="3" d="M1235.388,519.795
			c-3.574,2.179-6.769,5.264-9.535,9.065c16.12,14.838,29.305,8.559,29.305,8.559
			C1244.114,535.64,1238.119,525.925,1235.388,519.795z"/>
		<path id="path681" inkscape:connector-curvature="0" fill="#FFFFFF" stroke="#000000" stroke-width="3" d="M1217.968,544.834
			c-1.369,4.188-2.43,8.696-3.157,13.43c14.346,2.301,31.637-3.159,31.637-3.159
			C1235.549,556.705,1225.132,550.624,1217.968,544.834z"/>
		<path id="path683" inkscape:connector-curvature="0" fill="#FFFFFF" stroke="#000000" stroke-width="3" d="M1271.077,419.567
			c6.923,0.4,13.58-0.305,13.58-0.305c-5.394-2.377-9.364-4.62-12.287-6.641C1271.768,414.855,1271.332,417.176,1271.077,419.567
			L1271.077,419.567z"/>
		<path id="path685" inkscape:connector-curvature="0" fill="#FFFFFF" stroke="#000000" stroke-width="3" d="M1280.28,435.209
			c-5.522,1.104-10.128,0.235-13.788-1.365c-0.165,0.819-0.271,1.654-0.314,2.504c-0.073,1.432-0.039,2.826,0.111,4.179
			C1276.367,439.773,1280.28,435.209,1280.28,435.209z"/>
		<path id="path687" inkscape:connector-curvature="0" fill="#FFFFFF" stroke="#000000" stroke-width="3" d="M1318.045,424.189
			c0,0,9.672,0.461,17.337-1.384c-0.013-2.424-0.217-4.798-0.598-7.098C1329.8,418.986,1322.28,423.538,1318.045,424.189z"/>
		<path id="path689" inkscape:connector-curvature="0" fill="#FFFFFF" stroke="#000000" stroke-width="3" d="M1281.889,541.542
			c-4.77-0.14-10.133-0.87-14.005-4.232l0.197,6.267C1277.179,545.858,1281.889,541.542,1281.889,541.542L1281.889,541.542z"/>
		<path id="path691" inkscape:connector-curvature="0" fill="#FFFFFF" stroke="#000000" stroke-width="3" d="M1284.668,507.93
			c-8.349-0.534-17.959-7.88-17.959-7.88l0.381,7.86l0.086,2.198C1273.863,510.345,1284.668,507.93,1284.668,507.93L1284.668,507.93
			z"/>
		<path id="path693" inkscape:connector-curvature="0" fill="#FFFFFF" stroke="#000000" stroke-width="3" d="M1267.353,522.27
			l0.163,7.197c12.834,0.897,16.584-3.68,16.584-3.68C1276.548,526.912,1271.37,525.329,1267.353,522.27z"/>
		<path id="path695" inkscape:connector-curvature="0" fill="#FFFFFF" stroke="#000000" stroke-width="3" d="M1268.016,554.918
			l0.563,8.03c8.786,2.105,13.706-0.688,13.706-0.688C1276.436,561.613,1272.141,557.982,1268.016,554.918L1268.016,554.918z"/>
		<path id="path697" inkscape:connector-curvature="0" fill="#FFFFFF" stroke="#000000" stroke-width="3" d="M1334.345,506.136
			c-0.093,0.003-0.186,0.006-0.279,0.006C1334.065,506.143,1334.162,506.14,1334.345,506.136z M1336.045,517.621
			c0,0,7.387,2.138,16.303,3.01c-0.251-2.897-0.559-5.669-0.919-8.32C1346.338,515.24,1340.548,517.795,1336.045,517.621z
			 M1348.607,497.451c-4.121,4.383-9.306,8.534-14.263,8.685c1.521-0.025,8.988-0.168,16.018-0.532
			C1349.838,502.728,1349.249,500.014,1348.607,497.451L1348.607,497.451z M1337.232,563.937c0,0,7.044,3.952,14.114,5.97
			c0.313-2.953,0.578-5.829,0.802-8.633C1346.526,563.371,1340.392,565.051,1337.232,563.937z M1335.648,531.081
			c0,0,8.791,2.532,17.415,4.033c-0.046-3.034-0.152-5.956-0.311-8.767C1346.726,528.977,1339.745,531.471,1335.648,531.081z
			 M1335.253,546.915c0,0,8.668,5.214,17.348,7.878c0.242-4.07,0.39-7.978,0.454-11.73
			C1346.625,545.899,1339.483,548.205,1335.253,546.915z M1346.257,489.373c-0.739-2.21-1.521-4.282-2.328-6.22
			c-2.707,2.575-7.23,4.598-14.614,5.174C1329.314,488.328,1336.878,490.272,1346.257,489.373z"/>
		<path id="path699" inkscape:connector-curvature="0" fill="#FFFFFF" stroke="#000000" stroke-width="3" d="M1339.651,474.446
			c-1.805-3.129-3.657-5.76-5.463-7.967c-3.464,2.991-9.614,7.495-15.765,8.02C1318.424,474.498,1330.969,476.381,1339.651,474.446
			L1339.651,474.446z"/>
		<path id="path701" inkscape:connector-curvature="0" fill="#FFFFFF" stroke="#000000" stroke-width="3" d="M1215.18,588.908
			c-2.141,2.964-3.23,5.701-3.775,7.885c1.262,0.435,2.626,0.814,4.104,1.133C1214.627,593.735,1215.18,588.908,1215.18,588.908z
			 M1227.82,599.135c1.289,0.01,2.627-0.009,4.018-0.057c-0.947-3.292-1.48-6.473-1.48-6.473
			C1228.596,595.01,1227.968,597.233,1227.82,599.135z M1246.916,590.835c-1.242,1.497-1.363,4.376-1.156,6.961
			c0.824-0.139,1.811-0.328,2.904-0.58c-0.666-2.574-0.942-5.435-1.029-6.529C1247.398,590.738,1247.158,590.786,1246.916,590.835z
			 M1213.148,542.687c1.869,1.81,3.153,3.395,3.153,3.395c0.388-2.614,0.091-5.171-0.44-7.366
			C1214.978,539.973,1214.066,541.302,1213.148,542.687z M1210.578,546.682c-0.234,0.377-0.467,0.754-0.699,1.135
			c1.632,1.799,2.793,3.214,2.793,3.214C1212.762,550.491,1211.838,548.748,1210.578,546.682z M1241.739,591.563
			c-1.372,2.33-1.563,4.75-1.333,6.905c0.826-0.084,1.666-0.179,2.521-0.282c-0.655-2.627-0.831-5.556-0.874-6.655
			C1241.947,591.542,1241.844,591.553,1241.739,591.563z M1259.295,593.336c0.891-0.488,1.759-1.026,2.586-1.616
			c-2.842-1.627-5.457-3.538-5.457-3.538C1256.762,590.159,1257.996,591.942,1259.295,593.336L1259.295,593.336z M1251.475,590.228
			c0.239,2.568,0.647,4.486,1.121,5.921c0.915-0.29,1.854-0.618,2.799-0.992C1253.086,593.018,1251.475,590.228,1251.475,590.228
			L1251.475,590.228z M1235.149,591.813c-0.427,2.242-0.494,4.801-0.411,7.125c0.805-0.048,1.626-0.106,2.464-0.173
			c-1.052-3.111-1.831-6.272-1.995-6.952C1235.188,591.813,1235.169,591.813,1235.149,591.813z M1202.836,591.612
			c1.43,1.495,3.236,2.809,5.469,3.902c0.041-4.528,3.576-8.189,3.576-8.189C1207.366,587.106,1204.499,589.458,1202.836,591.612
			L1202.836,591.612z M1219.787,598.645c1.452,0.181,2.989,0.313,4.617,0.395c-0.656-3.602-0.909-7.36-0.909-7.36
			C1221.375,593.426,1220.316,596.201,1219.787,598.645L1219.787,598.645z M1198.388,577.023c-0.087,1.098-0.111,2.174-0.067,3.226
			c3.514-2.193,8.016-2.725,8.016-2.725C1204.174,576.444,1200.747,576.675,1198.388,577.023L1198.388,577.023z M1260.646,586.334
			c1.734,1.305,3.219,2.091,4.475,2.533c0.708-0.786,1.344-1.636,1.883-2.557C1263.489,586.363,1260.646,586.334,1260.646,586.334z
			 M1200.039,568.667c-0.65,2.17-1.143,4.31-1.436,6.392c3.315-2.149,7.205-2.913,7.205-2.913
			C1203.742,570.42,1201.662,569.334,1200.039,568.667L1200.039,568.667z M1211.814,559.412c-0.252-2.21-1.885-5.302-3.859-8.34
			c-0.558,0.971-1.105,1.955-1.639,2.95C1209.146,556.639,1211.814,559.412,1211.814,559.412z M1207.393,568.748
			c-0.41-2.989-1.783-6.965-3.215-10.527c-0.89,1.854-1.715,3.721-2.447,5.588C1204.744,565.973,1207.393,568.748,1207.393,568.748
			L1207.393,568.748z M1206.732,582.705c-3.877-0.172-6.011,2.355-7.025,4.131c0.432,1.031,0.969,2.013,1.621,2.943
			C1203.053,586.151,1206.732,582.705,1206.732,582.705z"/>
	</g>
</g>
</svg>
