<?xml version="1.0" encoding="UTF-8" standalone="no"?>
<!-- Created with Inkscape (http://www.inkscape.org/) -->
<svg
   xmlns:dc="http://purl.org/dc/elements/1.1/"
   xmlns:cc="http://creativecommons.org/ns#"
   xmlns:rdf="http://www.w3.org/1999/02/22-rdf-syntax-ns#"
   xmlns:svg="http://www.w3.org/2000/svg"
   xmlns="http://www.w3.org/2000/svg"
   xmlns:sodipodi="http://sodipodi.sourceforge.net/DTD/sodipodi-0.dtd"
   xmlns:inkscape="http://www.inkscape.org/namespaces/inkscape"
   width="307.24173"
   height="400"
   id="svg2"
   sodipodi:version="0.32"
   inkscape:version="0.45+devel"
   sodipodi:docname="pig.svg"
   inkscape:output_extension="org.inkscape.output.svg.inkscape"
   version="1.0">
  <defs
     id="defs4">
    <inkscape:perspective
       sodipodi:type="inkscape:persp3d"
       inkscape:vp_x="-50 : 600 : 1"
       inkscape:vp_y="0 : 1000 : 0"
       inkscape:vp_z="700 : 600 : 1"
       inkscape:persp3d-origin="300 : 400 : 1"
       id="perspective28" />
    <filter
       inkscape:collect="always"
       id="filter3219">
      <feGaussianBlur
         inkscape:collect="always"
         stdDeviation="4.1464287"
         id="feGaussianBlur3221" />
    </filter>
    <filter
       inkscape:collect="always"
       id="filter3265"
       x="-0.11156756"
       width="1.2231351"
       y="-0.16159432"
       height="1.3231885">
      <feGaussianBlur
         inkscape:collect="always"
         stdDeviation="13.514286"
         id="feGaussianBlur3267" />
    </filter>
    <filter
       inkscape:collect="always"
       id="filter3307"
       x="-0.036511704"
       width="1.0730234"
       y="-0.44118312"
       height="1.8823662">
      <feGaussianBlur
         inkscape:collect="always"
         stdDeviation="4.4566226"
         id="feGaussianBlur3309" />
    </filter>
  </defs>
  <sodipodi:namedview
     id="base"
     pagecolor="#ffffff"
     bordercolor="#666666"
     borderopacity="1.0"
     gridtolerance="10000"
     guidetolerance="10"
     objecttolerance="10"
     inkscape:pageopacity="0.0"
     inkscape:pageshadow="2"
     inkscape:zoom="0.5"
     inkscape:cx="-227.40553"
     inkscape:cy="258.41523"
     inkscape:document-units="px"
     inkscape:current-layer="layer1"
     showgrid="false"
     inkscape:window-width="1280"
     inkscape:window-height="727"
     inkscape:window-x="0"
     inkscape:window-y="47" />
  <metadata
     id="metadata7">
    <rdf:RDF>
      <cc:Work
         rdf:about="">
        <dc:format>image/svg+xml</dc:format>
        <dc:type
           rdf:resource="http://purl.org/dc/dcmitype/StillImage" />
      </cc:Work>
    </rdf:RDF>
  </metadata>
  <g
     inkscape:label="Layer 1"
     inkscape:groupmode="layer"
     id="layer1"
     transform="translate(-82.620656,-313.74649)">
    <path
       sodipodi:type="arc"
       style="opacity:0.55;fill:#000000;fill-opacity:1;fill-rule:nonzero;stroke:none;stroke-width:0.80396587;stroke-linecap:round;stroke-linejoin:round;stroke-miterlimit:4;stroke-dasharray:none;stroke-opacity:1;filter:url(#filter3307)"
       id="path3293"
       sodipodi:cx="364.66507"
       sodipodi:cy="675.57526"
       sodipodi:rx="146.47212"
       sodipodi:ry="12.121831"
       d="M 511.13719,675.57526 A 146.47212,12.121831 0 1 1 218.19295,675.57526 A 146.47212,12.121831 0 1 1 511.13719,675.57526 z"
       transform="matrix(1.0488062,0,0,3.2905547,-146.22146,-1549.1584)" />
    <path
       sodipodi:type="arc"
       style="opacity:1;fill:#ff80b2;fill-opacity:1;fill-rule:nonzero;stroke:#000000;stroke-width:15;stroke-miterlimit:4;stroke-dasharray:none;stroke-opacity:1"
       id="path2388"
       sodipodi:cx="355.71429"
       sodipodi:cy="372.36218"
       sodipodi:rx="238.57143"
       sodipodi:ry="215.71429"
       d="M 594.28572,372.36218 A 238.57143,215.71429 0 1 1 117.14287,372.36218 A 238.57143,215.71429 0 1 1 594.28572,372.36218 z"
       transform="matrix(0.5756354,0,0,0.5756354,35.061281,289.73137)" />
    <path
       transform="matrix(0.5756354,0,0,0.5756354,21.903901,311.93445)"
       d="M 517.14285,466.64789 A 137.85715,92.85714 0 1 1 241.42856,466.64789 A 137.85715,92.85714 0 1 1 517.14285,466.64789 z"
       sodipodi:ry="92.85714"
       sodipodi:rx="137.85715"
       sodipodi:cy="466.64789"
       sodipodi:cx="379.28571"
       id="path3223"
       style="opacity:1;fill:#000000;fill-opacity:1;fill-rule:nonzero;stroke:#000000;stroke-width:15;stroke-miterlimit:4;stroke-dasharray:none;stroke-opacity:1;filter:url(#filter3265)"
       sodipodi:type="arc" />
    <path
       id="path3271"
       d="M 303.70484,615.30923 L 295.56412,679.85346 L 285.67897,659.79241 L 274.04938,680.1442 L 270.85124,627.5203 L 303.70484,615.30923 z"
       style="fill:#ff80b2;fill-opacity:1;fill-rule:evenodd;stroke:#000000;stroke-width:8.63453102;stroke-linecap:butt;stroke-linejoin:miter;stroke-miterlimit:4;stroke-dasharray:none;stroke-opacity:1" />
    <path
       style="fill:#ff80b2;fill-opacity:1;fill-rule:evenodd;stroke:#000000;stroke-width:8.63453102;stroke-linecap:butt;stroke-linejoin:miter;stroke-miterlimit:4;stroke-dasharray:none;stroke-opacity:1"
       d="M 177.81451,615.30923 L 185.95523,679.85346 L 195.84038,659.79241 L 207.46997,680.1442 L 210.66811,627.5203 L 177.81451,615.30923 z"
       id="path3269" />
    <path
       style="opacity:1;fill:#ff80b2;fill-opacity:1;fill-rule:nonzero;stroke:#000000;stroke-width:8.63453102;stroke-miterlimit:4;stroke-dasharray:none;stroke-opacity:1"
       d="M 241.26467,478.58346 C 217.77381,478.58346 198.70364,495.43036 198.70363,516.19764 C 198.70363,522.32652 200.38197,528.11819 203.3267,533.23285 C 214.3559,529.31872 226.91437,527.09873 240.23932,527.09873 C 254.25303,527.09873 267.4123,529.56282 278.84287,533.86245 C 282.01767,528.59592 283.82571,522.57821 283.82571,516.19764 C 283.82571,495.43036 264.75553,478.58347 241.26467,478.58346 z"
       id="path3195" />
    <path
       sodipodi:type="arc"
       style="opacity:1;fill:#ff80b2;fill-opacity:1;fill-rule:nonzero;stroke:#000000;stroke-width:15;stroke-miterlimit:4;stroke-dasharray:none;stroke-opacity:1"
       id="path3160"
       sodipodi:cx="379.28571"
       sodipodi:cy="466.64789"
       sodipodi:rx="137.85715"
       sodipodi:ry="92.85714"
       d="M 517.14285,466.64789 A 137.85715,92.85714 0 1 1 241.42856,466.64789 A 137.85715,92.85714 0 1 1 517.14285,466.64789 z"
       transform="matrix(0.5756354,0,0,0.5756354,21.903901,311.93445)" />
    <path
       sodipodi:type="arc"
       style="opacity:1;fill:#4a2232;fill-opacity:1;fill-rule:nonzero;stroke:#000000;stroke-width:15;stroke-miterlimit:4;stroke-dasharray:none;stroke-opacity:1"
       id="path3162"
       sodipodi:cx="320.71429"
       sodipodi:cy="499.50504"
       sodipodi:rx="39.285713"
       sodipodi:ry="64.285713"
       d="M 360.00001,499.50504 A 39.285713,64.285713 0 1 1 281.42858,499.50504 A 39.285713,64.285713 0 1 1 360.00001,499.50504 z"
       transform="matrix(0.4157199,0,0,0.4157199,81.930558,373.72165)" />
    <path
       transform="matrix(0.4157199,0,0,0.4157199,133.51133,373.72165)"
       d="M 360.00001,499.50504 A 39.285713,64.285713 0 1 1 281.42858,499.50504 A 39.285713,64.285713 0 1 1 360.00001,499.50504 z"
       sodipodi:ry="64.285713"
       sodipodi:rx="39.285713"
       sodipodi:cy="499.50504"
       sodipodi:cx="320.71429"
       id="path3164"
       style="opacity:1;fill:#4a2232;fill-opacity:1;fill-rule:nonzero;stroke:#000000;stroke-width:15;stroke-miterlimit:4;stroke-dasharray:none;stroke-opacity:1"
       sodipodi:type="arc" />
    <path
       style="fill:#ffffff;fill-opacity:1;fill-rule:nonzero;stroke:#000000;stroke-width:1.86256552;stroke-miterlimit:4;stroke-opacity:1"
       d="M 224.67402,492.14275 C 217.69738,492.14275 212.0435,500.77465 212.0435,511.42321 C 212.0435,517.63156 213.97412,523.15821 216.96183,526.68752 C 222.42139,525.2491 228.24024,524.31706 234.30698,523.93732 C 236.18756,520.56933 237.31909,516.19187 237.31909,511.42321 C 237.31909,500.77466 231.65066,492.14275 224.67402,492.14275 z M 256.61411,492.14275 C 249.63747,492.14275 243.96904,500.77465 243.96904,511.42321 C 243.96904,516.2146 245.12813,520.6065 247.02481,523.98098 C 253.03972,524.40226 258.80403,525.37021 264.20988,526.83303 C 267.26549,523.3108 269.24463,517.71374 269.24463,511.42321 C 269.24463,500.77466 263.59075,492.14275 256.61411,492.14275 z"
       id="path3181" />
    <path
       sodipodi:type="arc"
       style="opacity:1;fill:#000000;fill-opacity:1;fill-rule:nonzero;stroke:#000000;stroke-width:4;stroke-miterlimit:4;stroke-dasharray:none;stroke-opacity:1"
       id="path3191"
       sodipodi:cx="330.35715"
       sodipodi:cy="367.00504"
       sodipodi:rx="8.2142859"
       sodipodi:ry="16.428572"
       d="M 338.57143,367.00504 A 8.2142859,16.428572 0 1 1 322.14286,367.00504 A 8.2142859,16.428572 0 1 1 338.57143,367.00504 z"
       transform="matrix(0.5756354,0,0,0.5756354,35.061281,302.88875)" />
    <path
       sodipodi:type="arc"
       style="opacity:1;fill:#000000;fill-opacity:1;fill-rule:nonzero;stroke:#000000;stroke-width:4;stroke-miterlimit:4;stroke-dasharray:none;stroke-opacity:1"
       id="path3193"
       sodipodi:cx="330.35715"
       sodipodi:cy="367.00504"
       sodipodi:rx="8.2142859"
       sodipodi:ry="16.428572"
       d="M 338.57143,367.00504 A 8.2142859,16.428572 0 1 1 322.14286,367.00504 A 8.2142859,16.428572 0 1 1 338.57143,367.00504 z"
       transform="matrix(0.5756354,0,0,0.5756354,66.515641,303.91667)" />
    <path
       d="M 414.28571,326.6479 C 453.41855,340.45925 465.79855,287.92353 482.14286,245.21932 C 473.70399,318.23633 462.06993,378.64071 435.71429,380.93361 C 432.04407,360.9863 431.52559,339.35806 414.28571,326.6479 z M 301.07143,326.6479 C 261.93859,340.45925 249.55859,287.92353 233.21428,245.21932 C 241.65315,318.23633 253.28721,378.64071 279.64285,380.93361 C 283.31307,360.9863 283.83155,339.35806 301.07143,326.6479 z"
       style="fill:#000000;fill-opacity:1;fill-rule:evenodd;stroke:#000000;stroke-width:15;stroke-linecap:round;stroke-linejoin:round;stroke-miterlimit:4;stroke-dasharray:none;stroke-opacity:1;filter:url(#filter3219)"
       id="path3205"
       transform="matrix(0.5756354,0,0,0.5756354,35.061281,302.88875)" />
    <path
       id="path3200"
       style="fill:#ff80b2;fill-opacity:1;fill-rule:evenodd;stroke:#000000;stroke-width:8.63453102;stroke-linecap:round;stroke-linejoin:round;stroke-miterlimit:4;stroke-dasharray:none;stroke-opacity:1"
       d="M 273.5388,490.91884 C 275.58089,455.04258 291.15155,442.86802 312.59977,444.04567 C 318.90893,494.81613 307.2148,525.67621 285.87385,522.16762 C 283.76114,510.68524 283.46268,498.23526 273.5388,490.91884 z M 208.36865,490.91884 C 208.15051,463.87604 195.37676,442.49327 169.30767,444.04567 C 165.22885,492.38499 177.25345,523.39521 196.0336,522.16762 C 198.14631,510.68524 198.44477,498.23526 208.36865,490.91884 z"
       sodipodi:nodetypes="cccccccc" />
    <path
       style="fill:none;fill-rule:evenodd;stroke:#000000;stroke-width:10.27785587;stroke-linecap:round;stroke-linejoin:round;stroke-miterlimit:4;stroke-dasharray:none;stroke-opacity:1"
       d="M 239.21265,379.41071 L 239.21265,364.91874 L 221.58909,358.95146 L 252.43033,352.13171 L 218.8354,339.34467 L 252.98107,329.96751 L 216.63246,318.88542"
       id="path3311" />
  </g>
</svg>
