<?xml version="1.0" encoding="UTF-8" standalone="no"?>
<!-- Created with Inkscape (http://www.inkscape.org/) -->
<svg
   xmlns:dc="http://purl.org/dc/elements/1.1/"
   xmlns:cc="http://web.resource.org/cc/"
   xmlns:rdf="http://www.w3.org/1999/02/22-rdf-syntax-ns#"
   xmlns:svg="http://www.w3.org/2000/svg"
   xmlns="http://www.w3.org/2000/svg"
   xmlns:sodipodi="http://inkscape.sourceforge.net/DTD/sodipodi-0.dtd"
   xmlns:inkscape="http://www.inkscape.org/namespaces/inkscape"
   width="340"
   height="700"
   id="svg2"
   sodipodi:version="0.32"
   inkscape:version="0.43+devel"
   sodipodi:docbase="I:\MY_WORK\GRAPHICS  BY ME\for openclipart"
   sodipodi:docname="butterfly_3.svg"
   version="1.0">
  <defs
     id="defs4" />
  <sodipodi:namedview
     id="base"
     pagecolor="#ffffff"
     bordercolor="#666666"
     borderopacity="1.0"
     inkscape:pageopacity="0.0"
     inkscape:pageshadow="2"
     inkscape:zoom="0.73105266"
     inkscape:cx="416.0588"
     inkscape:cy="329.98256"
     inkscape:document-units="px"
     inkscape:current-layer="g3147"
     inkscape:window-width="1024"
     inkscape:window-height="712"
     inkscape:window-x="-4"
     inkscape:window-y="-4"
     showguides="true"
     inkscape:guide-bbox="true"
     width="340px"
     height="700px" />
  <metadata
     id="metadata7">
    <rdf:RDF>
      <cc:Work
         rdf:about="">
        <dc:format>image/svg+xml</dc:format>
        <dc:type
           rdf:resource="http://purl.org/dc/dcmitype/StillImage" />
      </cc:Work>
    </rdf:RDF>
  </metadata>
  <g
     inkscape:label="Layer 1"
     inkscape:groupmode="layer"
     id="layer1">
    <g
       id="g3147"
       transform="translate(-23.21387,-100.5934)">
      <g
         id="g5115"
         transform="matrix(0.721395,0,0,0.721395,-88.87141,21.74865)">
        <g
           transform="translate(-1.942029e-6,0)"
           id="g5009">
          <path
             sodipodi:nodetypes="csccss"
             id="path4079"
             d="M 396.06584,558.15177 C 443.2995,486.6536 582.00657,420.08355 597.92778,453.73668 C 642.98082,548.96671 553.87666,657.42867 401.77224,573.49099 C 433.9384,591.45179 463.83496,601.14853 495.87485,602.73644 C 513.51375,600.81532 598.80619,619.53812 568.04612,689.91374 C 515.4687,810.205 414.97784,695.21163 403.06241,582.12627"
             style="fill:#ffc870;fill-opacity:1;fill-rule:evenodd;stroke:#ff8c00;stroke-width:3.6064415;stroke-linecap:butt;stroke-linejoin:miter;stroke-miterlimit:4;stroke-dasharray:none;stroke-opacity:1" />
          <path
             style="fill:#ffc870;fill-opacity:1;fill-rule:evenodd;stroke:#ff8c00;stroke-width:3.6064415;stroke-linecap:butt;stroke-linejoin:miter;stroke-miterlimit:4;stroke-dasharray:none;stroke-opacity:1"
             d="M 382.43095,558.15177 C 335.19729,486.6536 196.49022,420.08355 180.56902,453.73668 C 135.51597,548.96671 224.62014,657.42867 376.72455,573.49099 C 344.55839,591.45179 314.66183,601.14853 282.62194,602.73644 C 264.98304,600.81532 179.6906,619.53812 210.45067,689.91374 C 263.02809,810.205 363.51895,695.21163 375.43438,582.12627"
             id="path4081"
             sodipodi:nodetypes="csccss" />
          <g
             transform="matrix(0.601074,0,0,0.601074,150.3628,297.9947)"
             id="g4083">
            <path
               style="fill:none;fill-opacity:1;fill-rule:evenodd;stroke:#000000;stroke-width:3;stroke-linecap:round;stroke-linejoin:miter;stroke-miterlimit:4;stroke-dasharray:none;stroke-opacity:1"
               d="M 480.06767,261.6886 C 471.49575,262.79827 466.06398,271.36321 467.3541,279.59832 C 468.94442,289.74968 479.25959,296.12305 489.16684,294.4066 C 500.99258,292.35772 508.3707,280.37924 506.20742,268.89256 C 503.68548,255.50144 489.92714,247.18435 476.75501,249.7773 C 461.67367,252.74612 452.33869,268.16043 455.38743,282.89567 C 458.82863,299.52799 476.0446,309.79559 492.47951,306.31791 C 510.81765,302.43753 522.11412,283.57759 518.1741,265.59525 C 513.81956,245.72078 493.34799,234.56888 473.44235,237.86599 C 458.45443,240.34853 450.16719,245.80136 442.24603,253.09284 C 436.63786,258.25518 427.46715,270.71728 422.26829,285.82652 C 410.73113,319.35636 409.44875,340.99826 414.43271,382.66288"
               id="path4085"
               sodipodi:nodetypes="cssssssssssc" />
            <path
               sodipodi:nodetypes="cssssssssssc"
               id="path4087"
               d="M 312.9465,261.6886 C 321.51842,262.79827 326.95018,271.36321 325.66006,279.59832 C 324.06974,289.74968 313.75457,296.12305 303.84733,294.4066 C 292.02158,292.35772 284.64346,280.37924 286.80675,268.89256 C 289.32869,255.50144 303.08702,247.18435 316.25915,249.7773 C 331.3405,252.74612 340.67547,268.16043 337.62673,282.89567 C 334.18553,299.52799 316.96956,309.79559 300.53464,306.31791 C 282.19651,302.43753 270.90003,283.57759 274.84006,265.59525 C 279.19461,245.72078 299.66617,234.56888 319.57181,237.86599 C 334.55974,240.34853 342.84697,245.80136 350.76813,253.09284 C 356.37631,258.25518 365.54702,270.71728 370.74587,285.82652 C 382.28303,319.35636 383.56541,340.99826 378.58145,382.66288"
               style="fill:none;fill-opacity:1;fill-rule:evenodd;stroke:#000000;stroke-width:3;stroke-linecap:round;stroke-linejoin:miter;stroke-miterlimit:4;stroke-dasharray:none;stroke-opacity:1" />
          </g>
          <path
             style="fill:#000000;fill-opacity:1;fill-rule:evenodd;stroke:none;stroke-width:2.95139623;stroke-miterlimit:4;stroke-dashoffset:21.6;stroke-opacity:1"
             d="M 403.57662,548.07796 C 418.08386,609.18613 396.90866,635.68327 388.69277,658.25199 C 380.47689,635.68327 357.48829,605.5761 373.80892,548.07796 C 353.86148,532.09521 380.47688,510.70026 388.69277,510.70026 C 396.90866,510.70026 423.52407,533.90022 403.57662,548.07796 z "
             id="path4089"
             sodipodi:nodetypes="ccczc" />
          <g
             transform="matrix(0.601074,0,0,0.601074,150.3628,297.9947)"
             id="g4091">
            <path
               id="path4093"
               d="M 391.06721,373.70171 C 391.06721,379.90545 386.00887,384.94039 379.7763,384.94039 C 373.54371,384.94039 368.48538,379.90545 368.48538,373.70171 C 368.48538,367.49795 373.54371,362.46302 379.7763,362.46302 C 386.00887,362.46302 391.06721,367.49795 391.06721,373.70171 z "
               style="fill:#ffffff;fill-opacity:1;fill-rule:evenodd;stroke:#000000;stroke-width:3;stroke-linecap:round;stroke-miterlimit:4;stroke-dasharray:none;stroke-dashoffset:21.6;stroke-opacity:1" />
            <path
               id="path4095"
               d="M 382.59902,370.42376 C 382.59902,372.75017 380.70216,374.63827 378.36494,374.63827 C 376.02772,374.63827 374.13084,372.75017 374.13084,370.42376 C 374.13084,368.09735 376.02772,366.20925 378.36494,366.20925 C 380.70216,366.20925 382.59902,368.09735 382.59902,370.42376 z "
               style="fill:#000000;fill-opacity:1;fill-rule:evenodd;stroke:none;stroke-width:3;stroke-linecap:round;stroke-miterlimit:4;stroke-dasharray:none;stroke-dashoffset:21.6;stroke-opacity:1" />
            <path
               style="fill:#ffffff;fill-opacity:1;fill-rule:evenodd;stroke:#000000;stroke-width:3;stroke-linecap:round;stroke-miterlimit:4;stroke-dasharray:none;stroke-dashoffset:21.6;stroke-opacity:1"
               d="M 401.94695,373.70171 C 401.94695,379.90545 407.00529,384.94039 413.23787,384.94039 C 419.47045,384.94039 424.52878,379.90545 424.52878,373.70171 C 424.52878,367.49795 419.47045,362.46302 413.23787,362.46302 C 407.00529,362.46302 401.94695,367.49795 401.94695,373.70171 z "
               id="path4097" />
            <path
               style="fill:#000000;fill-opacity:1;fill-rule:evenodd;stroke:none;stroke-width:3;stroke-linecap:round;stroke-miterlimit:4;stroke-dasharray:none;stroke-dashoffset:21.6;stroke-opacity:1"
               d="M 410.41514,370.42376 C 410.41514,372.75017 412.31201,374.63827 414.64923,374.63827 C 416.98645,374.63827 418.88332,372.75017 418.88332,370.42376 C 418.88332,368.09735 416.98645,366.20925 414.64923,366.20925 C 412.31201,366.20925 410.41514,368.09735 410.41514,370.42376 z "
               id="path4099" />
          </g>
        </g>
        <g
           style="stroke-width:5;stroke-miterlimit:4;stroke-dasharray:none"
           transform="translate(0.568248,0)"
           id="g5049">
          <path
             sodipodi:type="arc"
             style="fill:#d9ff70;fill-opacity:1;fill-rule:evenodd;stroke:#b1c600;stroke-width:5;stroke-linecap:round;stroke-miterlimit:4;stroke-dasharray:none;stroke-dashoffset:0;stroke-opacity:1"
             id="path5037"
             sodipodi:cx="222.46626"
             sodipodi:cy="425.58765"
             sodipodi:rx="32.886318"
             sodipodi:ry="32.886318"
             d="M 255.35258 425.58765 A 32.886318 32.886318 0 1 1  189.57994,425.58765 A 32.886318 32.886318 0 1 1  255.35258 425.58765 z"
             transform="translate(23.21387,100.5934)" />
          <path
             transform="translate(309.2139,100.5934)"
             d="M 255.35258 425.58765 A 32.886318 32.886318 0 1 1  189.57994,425.58765 A 32.886318 32.886318 0 1 1  255.35258 425.58765 z"
             sodipodi:ry="32.886318"
             sodipodi:rx="32.886318"
             sodipodi:cy="425.58765"
             sodipodi:cx="222.46626"
             id="path5039"
             style="fill:#d9ff70;fill-opacity:1;fill-rule:evenodd;stroke:#b1c600;stroke-width:5;stroke-linecap:round;stroke-miterlimit:4;stroke-dasharray:none;stroke-dashoffset:0;stroke-opacity:1"
             sodipodi:type="arc" />
        </g>
        <g
           style="stroke-width:5;stroke-miterlimit:4;stroke-dasharray:none"
           transform="translate(0.999982,0)"
           id="g5069">
          <path
             transform="matrix(0.831227,0,0,0.831227,88.2436,312.6175)"
             d="M 255.35258 425.58765 A 32.886318 32.886318 0 1 1  189.57994,425.58765 A 32.886318 32.886318 0 1 1  255.35258 425.58765 z"
             sodipodi:ry="32.886318"
             sodipodi:rx="32.886318"
             sodipodi:cy="425.58765"
             sodipodi:cx="222.46626"
             id="path5041"
             style="fill:#d9ff70;fill-opacity:1;fill-rule:evenodd;stroke:#b1c600;stroke-width:6.01520395;stroke-linecap:round;stroke-miterlimit:4;stroke-dasharray:none;stroke-dashoffset:0;stroke-opacity:1"
             sodipodi:type="arc" />
          <path
             sodipodi:type="arc"
             style="fill:#d9ff70;fill-opacity:1;fill-rule:evenodd;stroke:#b1c600;stroke-width:6.01520395;stroke-linecap:round;stroke-miterlimit:4;stroke-dasharray:none;stroke-dashoffset:0;stroke-opacity:1"
             id="path5043"
             sodipodi:cx="222.46626"
             sodipodi:cy="425.58765"
             sodipodi:rx="32.886318"
             sodipodi:ry="32.886318"
             d="M 255.35258 425.58765 A 32.886318 32.886318 0 1 1  189.57994,425.58765 A 32.886318 32.886318 0 1 1  255.35258 425.58765 z"
             transform="matrix(0.831227,0,0,0.831227,318.4133,312.6175)" />
        </g>
      </g>
      <g
         id="g5135"
         transform="matrix(0.721395,0,0,0.721395,-88.87141,21.74865)">
        <g
           id="g4996">
          <path
             style="fill:#fff970;fill-opacity:1;fill-rule:evenodd;stroke:#ffbd00;stroke-width:3.6064415;stroke-linecap:butt;stroke-linejoin:miter;stroke-miterlimit:4;stroke-dasharray:none;stroke-opacity:1"
             d="M 396.06584,238.15177 C 443.2995,166.6536 582.00657,100.08355 597.92778,133.73668 C 642.98082,228.96671 553.87666,337.42867 401.77224,253.49099 C 433.9384,271.45179 463.83496,281.14853 495.87485,282.73644 C 513.51375,280.81532 598.80619,299.53812 568.04612,369.91374 C 515.4687,490.205 414.97784,375.21163 403.06241,262.12627"
             id="path2240"
             sodipodi:nodetypes="csccss" />
          <path
             sodipodi:nodetypes="csccss"
             id="path3134"
             d="M 382.43095,238.15177 C 335.19729,166.6536 196.49022,100.08355 180.56902,133.73668 C 135.51597,228.96671 224.62014,337.42867 376.72455,253.49099 C 344.55839,271.45179 314.66183,281.14853 282.62194,282.73644 C 264.98304,280.81532 179.6906,299.53812 210.45067,369.91374 C 263.02809,490.205 363.51895,375.21163 375.43438,262.12627"
             style="fill:#fff970;fill-opacity:1;fill-rule:evenodd;stroke:#ffbd00;stroke-width:3.6064415;stroke-linecap:butt;stroke-linejoin:miter;stroke-miterlimit:4;stroke-dasharray:none;stroke-opacity:1" />
          <g
             id="g3196"
             transform="matrix(0.601074,0,0,0.601074,150.3628,-22.00534)">
            <path
               sodipodi:nodetypes="cssssssssssc"
               id="path5764"
               d="M 480.06767,261.6886 C 471.49575,262.79827 466.06398,271.36321 467.3541,279.59832 C 468.94442,289.74968 479.25959,296.12305 489.16684,294.4066 C 500.99258,292.35772 508.3707,280.37924 506.20742,268.89256 C 503.68548,255.50144 489.92714,247.18435 476.75501,249.7773 C 461.67367,252.74612 452.33869,268.16043 455.38743,282.89567 C 458.82863,299.52799 476.0446,309.79559 492.47951,306.31791 C 510.81765,302.43753 522.11412,283.57759 518.1741,265.59525 C 513.81956,245.72078 493.34799,234.56888 473.44235,237.86599 C 458.45443,240.34853 450.16719,245.80136 442.24603,253.09284 C 436.63786,258.25518 427.46715,270.71728 422.26829,285.82652 C 410.73113,319.35636 409.44875,340.99826 414.43271,382.66288"
               style="fill:none;fill-opacity:1;fill-rule:evenodd;stroke:#000000;stroke-width:3;stroke-linecap:round;stroke-linejoin:miter;stroke-miterlimit:4;stroke-dasharray:none;stroke-opacity:1" />
            <path
               style="fill:none;fill-opacity:1;fill-rule:evenodd;stroke:#000000;stroke-width:3;stroke-linecap:round;stroke-linejoin:miter;stroke-miterlimit:4;stroke-dasharray:none;stroke-opacity:1"
               d="M 312.9465,261.6886 C 321.51842,262.79827 326.95018,271.36321 325.66006,279.59832 C 324.06974,289.74968 313.75457,296.12305 303.84733,294.4066 C 292.02158,292.35772 284.64346,280.37924 286.80675,268.89256 C 289.32869,255.50144 303.08702,247.18435 316.25915,249.7773 C 331.3405,252.74612 340.67547,268.16043 337.62673,282.89567 C 334.18553,299.52799 316.96956,309.79559 300.53464,306.31791 C 282.19651,302.43753 270.90003,283.57759 274.84006,265.59525 C 279.19461,245.72078 299.66617,234.56888 319.57181,237.86599 C 334.55974,240.34853 342.84697,245.80136 350.76813,253.09284 C 356.37631,258.25518 365.54702,270.71728 370.74587,285.82652 C 382.28303,319.35636 383.56541,340.99826 378.58145,382.66288"
               id="path4870"
               sodipodi:nodetypes="cssssssssssc" />
          </g>
          <path
             sodipodi:nodetypes="ccczc"
             id="path4863"
             d="M 403.57662,228.07796 C 418.08386,289.18613 396.90866,315.68327 388.69277,338.25199 C 380.47689,315.68327 357.48829,285.5761 373.80892,228.07796 C 353.86148,212.09521 380.47688,190.70026 388.69277,190.70026 C 396.90866,190.70026 423.52407,213.90022 403.57662,228.07796 z "
             style="fill:#000000;fill-opacity:1;fill-rule:evenodd;stroke:none;stroke-width:2.95139623;stroke-miterlimit:4;stroke-dashoffset:21.6;stroke-opacity:1" />
          <g
             id="g3200"
             transform="matrix(0.601074,0,0,0.601074,150.3628,-22.00534)">
            <path
               style="fill:#ffffff;fill-opacity:1;fill-rule:evenodd;stroke:#000000;stroke-width:3;stroke-linecap:round;stroke-miterlimit:4;stroke-dasharray:none;stroke-dashoffset:21.6;stroke-opacity:1"
               d="M 391.06721,373.70171 C 391.06721,379.90545 386.00887,384.94039 379.7763,384.94039 C 373.54371,384.94039 368.48538,379.90545 368.48538,373.70171 C 368.48538,367.49795 373.54371,362.46302 379.7763,362.46302 C 386.00887,362.46302 391.06721,367.49795 391.06721,373.70171 z "
               id="path5780" />
            <path
               style="fill:#000000;fill-opacity:1;fill-rule:evenodd;stroke:none;stroke-width:3;stroke-linecap:round;stroke-miterlimit:4;stroke-dasharray:none;stroke-dashoffset:21.6;stroke-opacity:1"
               d="M 382.59902,370.42376 C 382.59902,372.75017 380.70216,374.63827 378.36494,374.63827 C 376.02772,374.63827 374.13084,372.75017 374.13084,370.42376 C 374.13084,368.09735 376.02772,366.20925 378.36494,366.20925 C 380.70216,366.20925 382.59902,368.09735 382.59902,370.42376 z "
               id="path5785" />
            <path
               id="path6661"
               d="M 401.94695,373.70171 C 401.94695,379.90545 407.00529,384.94039 413.23787,384.94039 C 419.47045,384.94039 424.52878,379.90545 424.52878,373.70171 C 424.52878,367.49795 419.47045,362.46302 413.23787,362.46302 C 407.00529,362.46302 401.94695,367.49795 401.94695,373.70171 z "
               style="fill:#ffffff;fill-opacity:1;fill-rule:evenodd;stroke:#000000;stroke-width:3;stroke-linecap:round;stroke-miterlimit:4;stroke-dasharray:none;stroke-dashoffset:21.6;stroke-opacity:1" />
            <path
               id="path6663"
               d="M 410.41514,370.42376 C 410.41514,372.75017 412.31201,374.63827 414.64923,374.63827 C 416.98645,374.63827 418.88332,372.75017 418.88332,370.42376 C 418.88332,368.09735 416.98645,366.20925 414.64923,366.20925 C 412.31201,366.20925 410.41514,368.09735 410.41514,370.42376 z "
               style="fill:#000000;fill-opacity:1;fill-rule:evenodd;stroke:none;stroke-width:3;stroke-linecap:round;stroke-miterlimit:4;stroke-dasharray:none;stroke-dashoffset:21.6;stroke-opacity:1" />
          </g>
        </g>
        <path
           sodipodi:type="arc"
           style="fill:#ffce6b;fill-opacity:1;fill-rule:evenodd;stroke:#ffa500;stroke-width:5;stroke-linecap:round;stroke-miterlimit:4;stroke-dasharray:none;stroke-dashoffset:0;stroke-opacity:1"
           id="path5055"
           sodipodi:cx="222.46626"
           sodipodi:cy="425.58765"
           sodipodi:rx="32.886318"
           sodipodi:ry="32.886318"
           d="M 255.35258 425.58765 A 32.886318 32.886318 0 1 1  189.57994,425.58765 A 32.886318 32.886318 0 1 1  255.35258 425.58765 z"
           transform="translate(23.78212,-223.4066)" />
        <path
           transform="translate(309.7821,-223.4066)"
           d="M 255.35258 425.58765 A 32.886318 32.886318 0 1 1  189.57994,425.58765 A 32.886318 32.886318 0 1 1  255.35258 425.58765 z"
           sodipodi:ry="32.886318"
           sodipodi:rx="32.886318"
           sodipodi:cy="425.58765"
           sodipodi:cx="222.46626"
           id="path5057"
           style="fill:#ffce6b;fill-opacity:1;fill-rule:evenodd;stroke:#ffa500;stroke-width:5;stroke-linecap:round;stroke-miterlimit:4;stroke-dasharray:none;stroke-dashoffset:0;stroke-opacity:1"
           sodipodi:type="arc" />
        <path
           transform="matrix(0.831227,0,0,0.831227,89.24358,-11.3825)"
           d="M 255.35258 425.58765 A 32.886318 32.886318 0 1 1  189.57994,425.58765 A 32.886318 32.886318 0 1 1  255.35258 425.58765 z"
           sodipodi:ry="32.886318"
           sodipodi:rx="32.886318"
           sodipodi:cy="425.58765"
           sodipodi:cx="222.46626"
           id="path5061"
           style="fill:#ffce6b;fill-opacity:1;fill-rule:evenodd;stroke:#ffa500;stroke-width:6.01520395;stroke-linecap:round;stroke-miterlimit:4;stroke-dasharray:none;stroke-dashoffset:0;stroke-opacity:1"
           sodipodi:type="arc" />
        <path
           sodipodi:type="arc"
           style="fill:#ffce6b;fill-opacity:1;fill-rule:evenodd;stroke:#ffa500;stroke-width:6.01520395;stroke-linecap:round;stroke-miterlimit:4;stroke-dasharray:none;stroke-dashoffset:0;stroke-opacity:1"
           id="path5063"
           sodipodi:cx="222.46626"
           sodipodi:cy="425.58765"
           sodipodi:rx="32.886318"
           sodipodi:ry="32.886318"
           d="M 255.35258 425.58765 A 32.886318 32.886318 0 1 1  189.57994,425.58765 A 32.886318 32.886318 0 1 1  255.35258 425.58765 z"
           transform="matrix(0.831227,0,0,0.831227,319.4133,-11.3825)" />
      </g>
      <g
         id="g5097"
         transform="matrix(0.721395,0,0,0.721395,-88.87141,21.74865)">
        <g
           id="g5022">
          <path
             style="fill:#d9ff70;fill-opacity:1;fill-rule:evenodd;stroke:#b1c600;stroke-width:3.6064415;stroke-linecap:butt;stroke-linejoin:miter;stroke-miterlimit:4;stroke-dasharray:none;stroke-opacity:1"
             d="M 396.06584,874.15177 C 443.2995,802.6536 582.00657,736.08355 597.92778,769.73668 C 642.98082,864.96671 553.87666,973.42867 401.77224,889.49099 C 433.9384,907.45179 463.83496,917.14853 495.87485,918.73644 C 513.51375,916.81532 598.80619,935.53812 568.04612,1005.9137 C 515.4687,1126.205 414.97784,1011.2116 403.06241,898.12627"
             id="path4101"
             sodipodi:nodetypes="csccss" />
          <path
             sodipodi:nodetypes="csccss"
             id="path4103"
             d="M 382.43095,874.15177 C 335.19729,802.6536 196.49022,736.08355 180.56902,769.73668 C 135.51597,864.96671 224.62014,973.42867 376.72455,889.49099 C 344.55839,907.45179 314.66183,917.14853 282.62194,918.73644 C 264.98304,916.81532 179.6906,935.53812 210.45067,1005.9137 C 263.02809,1126.205 363.51895,1011.2116 375.43438,898.12627"
             style="fill:#d9ff70;fill-opacity:1;fill-rule:evenodd;stroke:#b1c600;stroke-width:3.6064415;stroke-linecap:butt;stroke-linejoin:miter;stroke-miterlimit:4;stroke-dasharray:none;stroke-opacity:1" />
          <g
             id="g4105"
             transform="matrix(0.601074,0,0,0.601074,150.3628,613.9947)">
            <path
               sodipodi:nodetypes="cssssssssssc"
               id="path4107"
               d="M 480.06767,261.6886 C 471.49575,262.79827 466.06398,271.36321 467.3541,279.59832 C 468.94442,289.74968 479.25959,296.12305 489.16684,294.4066 C 500.99258,292.35772 508.3707,280.37924 506.20742,268.89256 C 503.68548,255.50144 489.92714,247.18435 476.75501,249.7773 C 461.67367,252.74612 452.33869,268.16043 455.38743,282.89567 C 458.82863,299.52799 476.0446,309.79559 492.47951,306.31791 C 510.81765,302.43753 522.11412,283.57759 518.1741,265.59525 C 513.81956,245.72078 493.34799,234.56888 473.44235,237.86599 C 458.45443,240.34853 450.16719,245.80136 442.24603,253.09284 C 436.63786,258.25518 427.46715,270.71728 422.26829,285.82652 C 410.73113,319.35636 409.44875,340.99826 414.43271,382.66288"
               style="fill:none;fill-opacity:1;fill-rule:evenodd;stroke:#000000;stroke-width:3;stroke-linecap:round;stroke-linejoin:miter;stroke-miterlimit:4;stroke-dasharray:none;stroke-opacity:1" />
            <path
               style="fill:none;fill-opacity:1;fill-rule:evenodd;stroke:#000000;stroke-width:3;stroke-linecap:round;stroke-linejoin:miter;stroke-miterlimit:4;stroke-dasharray:none;stroke-opacity:1"
               d="M 312.9465,261.6886 C 321.51842,262.79827 326.95018,271.36321 325.66006,279.59832 C 324.06974,289.74968 313.75457,296.12305 303.84733,294.4066 C 292.02158,292.35772 284.64346,280.37924 286.80675,268.89256 C 289.32869,255.50144 303.08702,247.18435 316.25915,249.7773 C 331.3405,252.74612 340.67547,268.16043 337.62673,282.89567 C 334.18553,299.52799 316.96956,309.79559 300.53464,306.31791 C 282.19651,302.43753 270.90003,283.57759 274.84006,265.59525 C 279.19461,245.72078 299.66617,234.56888 319.57181,237.86599 C 334.55974,240.34853 342.84697,245.80136 350.76813,253.09284 C 356.37631,258.25518 365.54702,270.71728 370.74587,285.82652 C 382.28303,319.35636 383.56541,340.99826 378.58145,382.66288"
               id="path4109"
               sodipodi:nodetypes="cssssssssssc" />
          </g>
          <path
             sodipodi:nodetypes="ccczc"
             id="path4111"
             d="M 403.57662,864.07796 C 418.08386,925.18613 396.90866,951.68327 388.69277,974.25199 C 380.47689,951.68327 357.48829,921.5761 373.80892,864.07796 C 353.86148,848.09521 380.47688,826.70026 388.69277,826.70026 C 396.90866,826.70026 423.52407,849.90022 403.57662,864.07796 z "
             style="fill:#000000;fill-opacity:1;fill-rule:evenodd;stroke:none;stroke-width:2.95139623;stroke-miterlimit:4;stroke-dashoffset:21.6;stroke-opacity:1" />
          <g
             id="g4113"
             transform="matrix(0.601074,0,0,0.601074,150.3628,613.9947)">
            <path
               style="fill:#ffffff;fill-opacity:1;fill-rule:evenodd;stroke:#000000;stroke-width:3;stroke-linecap:round;stroke-miterlimit:4;stroke-dasharray:none;stroke-dashoffset:21.6;stroke-opacity:1"
               d="M 391.06721,373.70171 C 391.06721,379.90545 386.00887,384.94039 379.7763,384.94039 C 373.54371,384.94039 368.48538,379.90545 368.48538,373.70171 C 368.48538,367.49795 373.54371,362.46302 379.7763,362.46302 C 386.00887,362.46302 391.06721,367.49795 391.06721,373.70171 z "
               id="path4115" />
            <path
               style="fill:#000000;fill-opacity:1;fill-rule:evenodd;stroke:none;stroke-width:3;stroke-linecap:round;stroke-miterlimit:4;stroke-dasharray:none;stroke-dashoffset:21.6;stroke-opacity:1"
               d="M 382.59902,370.42376 C 382.59902,372.75017 380.70216,374.63827 378.36494,374.63827 C 376.02772,374.63827 374.13084,372.75017 374.13084,370.42376 C 374.13084,368.09735 376.02772,366.20925 378.36494,366.20925 C 380.70216,366.20925 382.59902,368.09735 382.59902,370.42376 z "
               id="path4117" />
            <path
               id="path4119"
               d="M 401.94695,373.70171 C 401.94695,379.90545 407.00529,384.94039 413.23787,384.94039 C 419.47045,384.94039 424.52878,379.90545 424.52878,373.70171 C 424.52878,367.49795 419.47045,362.46302 413.23787,362.46302 C 407.00529,362.46302 401.94695,367.49795 401.94695,373.70171 z "
               style="fill:#ffffff;fill-opacity:1;fill-rule:evenodd;stroke:#000000;stroke-width:3;stroke-linecap:round;stroke-miterlimit:4;stroke-dasharray:none;stroke-dashoffset:21.6;stroke-opacity:1" />
            <path
               id="path4121"
               d="M 410.41514,370.42376 C 410.41514,372.75017 412.31201,374.63827 414.64923,374.63827 C 416.98645,374.63827 418.88332,372.75017 418.88332,370.42376 C 418.88332,368.09735 416.98645,366.20925 414.64923,366.20925 C 412.31201,366.20925 410.41514,368.09735 410.41514,370.42376 z "
               style="fill:#000000;fill-opacity:1;fill-rule:evenodd;stroke:none;stroke-width:3;stroke-linecap:round;stroke-miterlimit:4;stroke-dasharray:none;stroke-dashoffset:21.6;stroke-opacity:1" />
          </g>
        </g>
        <path
           transform="translate(23.78212,414.5934)"
           d="M 255.35258 425.58765 A 32.886318 32.886318 0 1 1  189.57994,425.58765 A 32.886318 32.886318 0 1 1  255.35258 425.58765 z"
           sodipodi:ry="32.886318"
           sodipodi:rx="32.886318"
           sodipodi:cy="425.58765"
           sodipodi:cx="222.46626"
           id="path5079"
           style="fill:#fffa65;fill-opacity:1;fill-rule:evenodd;stroke:#ffc200;stroke-width:5;stroke-linecap:round;stroke-miterlimit:4;stroke-dasharray:none;stroke-dashoffset:0;stroke-opacity:1"
           sodipodi:type="arc" />
        <path
           sodipodi:type="arc"
           style="fill:#fffa65;fill-opacity:1;fill-rule:evenodd;stroke:#ffc200;stroke-width:5;stroke-linecap:round;stroke-miterlimit:4;stroke-dasharray:none;stroke-dashoffset:0;stroke-opacity:1"
           id="path5081"
           sodipodi:cx="222.46626"
           sodipodi:cy="425.58765"
           sodipodi:rx="32.886318"
           sodipodi:ry="32.886318"
           d="M 255.35258 425.58765 A 32.886318 32.886318 0 1 1  189.57994,425.58765 A 32.886318 32.886318 0 1 1  255.35258 425.58765 z"
           transform="translate(309.7821,414.5934)" />
        <path
           sodipodi:type="arc"
           style="fill:#fffa65;fill-opacity:1;fill-rule:evenodd;stroke:#ffc200;stroke-width:6.01520395;stroke-linecap:round;stroke-miterlimit:4;stroke-dasharray:none;stroke-dashoffset:0;stroke-opacity:1"
           id="path5085"
           sodipodi:cx="222.46626"
           sodipodi:cy="425.58765"
           sodipodi:rx="32.886318"
           sodipodi:ry="32.886318"
           d="M 255.35258 425.58765 A 32.886318 32.886318 0 1 1  189.57994,425.58765 A 32.886318 32.886318 0 1 1  255.35258 425.58765 z"
           transform="matrix(0.831227,0,0,0.831227,89.24358,626.6175)" />
        <path
           transform="matrix(0.831227,0,0,0.831227,319.4133,626.6175)"
           d="M 255.35258 425.58765 A 32.886318 32.886318 0 1 1  189.57994,425.58765 A 32.886318 32.886318 0 1 1  255.35258 425.58765 z"
           sodipodi:ry="32.886318"
           sodipodi:rx="32.886318"
           sodipodi:cy="425.58765"
           sodipodi:cx="222.46626"
           id="path5087"
           style="fill:#fffa65;fill-opacity:1;fill-rule:evenodd;stroke:#ffc200;stroke-width:6.01520395;stroke-linecap:round;stroke-miterlimit:4;stroke-dasharray:none;stroke-dashoffset:0;stroke-opacity:1"
           sodipodi:type="arc" />
      </g>
    </g>
  </g>
</svg>
