<?xml version="1.0" encoding="UTF-8" standalone="no"?>
<!-- Created with Inkscape (http://www.inkscape.org/) -->
<svg
   xmlns:dc="http://purl.org/dc/elements/1.1/"
   xmlns:cc="http://creativecommons.org/ns#"
   xmlns:rdf="http://www.w3.org/1999/02/22-rdf-syntax-ns#"
   xmlns:svg="http://www.w3.org/2000/svg"
   xmlns="http://www.w3.org/2000/svg"
   xmlns:sodipodi="http://sodipodi.sourceforge.net/DTD/sodipodi-0.dtd"
   xmlns:inkscape="http://www.inkscape.org/namespaces/inkscape"
   width="696.88361"
   height="304.11624"
   id="svg2438"
   sodipodi:version="0.32"
   inkscape:version="0.46"
   sodipodi:docname="bratac_Butterfly.svg"
   inkscape:output_extension="org.inkscape.output.svg.inkscape"
   version="1.0">
  <defs
     id="defs2440">
    <inkscape:perspective
       sodipodi:type="inkscape:persp3d"
       inkscape:vp_x="0 : 526.18109 : 1"
       inkscape:vp_y="0 : 1000 : 0"
       inkscape:vp_z="744.09448 : 526.18109 : 1"
       inkscape:persp3d-origin="372.04724 : 350.78739 : 1"
       id="perspective2446" />
  </defs>
  <sodipodi:namedview
     id="base"
     pagecolor="#ffffff"
     bordercolor="#666666"
     borderopacity="1.0"
     gridtolerance="10000"
     guidetolerance="10"
     objecttolerance="10"
     inkscape:pageopacity="0.0"
     inkscape:pageshadow="2"
     inkscape:zoom="1.9384012"
     inkscape:cx="210.23689"
     inkscape:cy="130.50187"
     inkscape:document-units="px"
     inkscape:current-layer="capa1"
     showgrid="false"
     inkscape:window-width="1144"
     inkscape:window-height="800"
     inkscape:window-x="-5"
     inkscape:window-y="25"
     showguides="true"
     inkscape:guide-bbox="true" />
  <metadata
     id="metadata2443">
    <rdf:RDF>
      <cc:Work
         rdf:about="">
        <dc:format>image/svg+xml</dc:format>
        <dc:type
           rdf:resource="http://purl.org/dc/dcmitype/StillImage" />
      </cc:Work>
    </rdf:RDF>
  </metadata>
  <g
     inkscape:label="Capa 1"
     inkscape:groupmode="layer"
     id="capa1"
     transform="translate(-27.222784,-216.48773)">
    <g
       id="g3448"
       transform="translate(-127.40615,-247.89122)">
      <g
         id="g3410">
        <path
           style="fill:#d42aff;fill-opacity:1;fill-rule:evenodd;stroke:none;stroke-width:0.44498900000000002px;stroke-linecap:butt;stroke-linejoin:miter;stroke-opacity:1"
           d="M 323.52564,574.20014 C 338.55245,554.65331 385.89663,512.15875 448.60145,499.45137 C 482.0132,496.14241 462.44614,529.05574 464.4827,535.86292 C 465.26069,554.95336 452.25383,570.79771 468.66854,593.56774 C 478.52547,613.74036 463.15543,619.33213 450.92914,622.21848 C 454.70831,633.84656 467.453,638.32829 464.86994,657.45775 C 461.20299,666.61727 458.66241,674.84387 464.4827,682.2414 C 469.05262,693.59868 462.15151,701.39475 460.61025,705.08884 C 460.97739,723.26074 449.5399,718.22208 450.15465,725.22556 C 449.08089,734.02974 453.68822,743.27091 466.03168,753.10718 C 474.45424,762.77213 459.08572,768.92439 455.57607,758.14136 C 452.5322,748.073 449.41791,738.00464 439.3118,727.93627 C 399.24082,718.01652 359.5247,724.42045 318.49146,670.23682 L 323.52564,574.20014 z"
           id="path3378"
           sodipodi:nodetypes="cccccccccccccc" />
        <path
           style="fill:#d42aff;fill-rule:evenodd;stroke:none;stroke-width:0.44498900000000002px;stroke-linecap:butt;stroke-linejoin:miter;stroke-opacity:1;fill-opacity:1"
           d="M 302.91722,578.85974 C 287.8904,559.31291 240.54622,516.81835 177.84141,504.11097 C 144.42965,500.80201 163.99672,533.71534 161.96016,540.52252 C 161.18217,559.61296 174.18902,575.45731 157.77431,598.22734 C 147.91739,618.39996 163.28742,623.99173 175.51372,626.87808 C 171.73454,638.50616 158.98985,642.98789 161.57291,662.11735 C 165.23987,671.27687 167.78045,679.50347 161.96016,686.901 C 157.39024,698.25828 164.29135,706.05435 165.83261,709.74844 C 165.46547,727.92034 176.90295,722.88168 176.28821,729.88516 C 177.36197,738.68934 172.75464,747.93051 160.41118,757.76678 C 151.98862,767.43173 167.35714,773.584 170.86678,762.80096 C 173.91066,752.7326 177.02495,742.66424 187.13106,732.59587 C 227.20204,722.67612 266.91816,729.08005 307.9514,674.89642 L 302.91722,578.85974 z"
           id="path3380"
           sodipodi:nodetypes="cccccccccccccc" />
        <path
           style="fill:#ffffff;fill-rule:evenodd;stroke:none;stroke-width:0.444989px;stroke-linecap:butt;stroke-linejoin:miter;stroke-opacity:1"
           d="M 301.655,597.73567 C 291.10963,584.01829 246.56453,545.25975 202.56018,536.34209 C 179.11281,534.01996 192.8444,557.11755 191.4152,561.89462 C 190.86923,575.29172 199.99704,586.41081 188.47769,602.39014 C 181.56041,616.54668 192.34663,620.47081 200.92668,622.49637 C 198.27457,630.6566 189.33072,633.80175 191.14344,647.22622 C 193.7168,653.6541 195.4997,659.42728 191.4152,664.61865 C 188.20817,672.58885 193.05116,678.05989 194.13277,680.6523 C 193.87512,693.40479 201.9016,689.86881 201.4702,694.78364 C 202.22373,700.96215 198.99044,707.44732 190.32817,714.35012 C 184.41747,721.1327 195.20263,725.45017 197.66559,717.88295 C 199.8017,710.81728 201.98722,703.75161 209.07938,696.68593 C 237.19999,689.72455 275.20032,693.62282 303.99622,655.59838 L 301.655,597.73567 z"
           id="path3390"
           sodipodi:nodetypes="cccccccccccccc" />
        <path
           style="fill:#ffffff;fill-rule:evenodd;stroke:none;stroke-width:0.444989px;stroke-linecap:butt;stroke-linejoin:miter;stroke-opacity:1"
           d="M 322.42847,597.73567 C 332.97384,584.01829 377.51894,545.25975 421.52329,536.34209 C 444.97066,534.01996 431.23907,557.11755 432.66827,561.89462 C 433.21424,575.29172 424.08643,586.41081 435.60578,602.39014 C 442.52306,616.54668 431.73684,620.47081 423.15679,622.49637 C 425.8089,630.6566 434.75275,633.80175 432.94003,647.22622 C 430.36667,653.6541 428.58377,659.42728 432.66827,664.61865 C 435.8753,672.58885 431.03231,678.05989 429.9507,680.6523 C 430.20835,693.40479 422.18187,689.86881 422.61327,694.78364 C 421.85974,700.96215 425.09303,707.44732 433.7553,714.35012 C 439.666,721.1327 428.88084,725.45017 426.41788,717.88295 C 424.28177,710.81728 422.09625,703.75161 415.00409,696.68593 C 386.88348,689.72455 348.88315,693.62282 320.08725,655.59838 L 322.42847,597.73567 z"
           id="path3392"
           sodipodi:nodetypes="cccccccccccccc" />
        <path
           style="fill:#803300;fill-rule:evenodd;stroke:none;stroke-width:0.444989px;stroke-linecap:butt;stroke-linejoin:miter;stroke-opacity:1"
           d="M 299.12923,574.97463 C 299.38739,551.74166 324.04197,555.20442 324.30013,574.58739 L 319.6532,703.15262 C 318.83208,717.30886 306.66442,713.34856 306.09963,702.76537 L 299.12923,574.97463 z"
           id="path3376"
           sodipodi:nodetypes="ccccc" />
        <g
           id="g3400">
          <path
             sodipodi:nodetypes="cc"
             id="path3394"
             d="M 319.05111,563.23837 C 322.02006,537.04054 328.46168,513.25585 343.44138,500.6147"
             style="fill:none;fill-rule:evenodd;stroke:#803300;stroke-width:1px;stroke-linecap:butt;stroke-linejoin:miter;stroke-opacity:1" />
          <rect
             transform="matrix(0.6483997,-0.7613001,0.7341624,0.6789739,0,0)"
             ry="1.7925388"
             rx="4.5891919"
             y="584.12274"
             x="-143.97664"
             height="4.0785236"
             width="12.588288"
             id="rect3398"
             style="opacity:1;fill:#803300;fill-opacity:1;stroke:#803300;stroke-width:1.32905495;stroke-linecap:round;stroke-linejoin:round;stroke-miterlimit:4;stroke-dasharray:none;stroke-dashoffset:0;stroke-opacity:1" />
        </g>
        <g
           id="g3404"
           transform="matrix(-1,0,0,1,622.36769,0.3192129)">
          <path
             sodipodi:nodetypes="cc"
             id="path3406"
             d="M 319.05111,563.23837 C 322.02006,537.04054 328.46168,513.25585 343.44138,500.6147"
             style="fill:none;fill-rule:evenodd;stroke:#803300;stroke-width:1px;stroke-linecap:butt;stroke-linejoin:miter;stroke-opacity:1" />
          <rect
             transform="matrix(0.6483997,-0.7613001,0.7341624,0.6789739,0,0)"
             ry="1.7925388"
             rx="4.5891919"
             y="584.12274"
             x="-143.97664"
             height="4.0785236"
             width="12.588288"
             id="rect3408"
             style="opacity:1;fill:#803300;fill-opacity:1;stroke:#803300;stroke-width:1.32905495;stroke-linecap:round;stroke-linejoin:round;stroke-miterlimit:4;stroke-dasharray:none;stroke-dashoffset:0;stroke-opacity:1" />
        </g>
      </g>
    </g>
    <g
       id="g2691"
       transform="matrix(1.2389468,0,0,1.2389468,-252.26371,-313.19364)">
      <g
         transform="translate(383.17567,-34.448887)"
         id="g3477">
        <path
           sodipodi:type="arc"
           style="opacity:1;fill:#eeaaff;fill-opacity:1;stroke:none;stroke-width:3;stroke-linecap:round;stroke-linejoin:round;stroke-miterlimit:4;stroke-dasharray:none;stroke-dashoffset:0;stroke-opacity:1"
           id="path3473"
           sodipodi:cx="383.07379"
           sodipodi:cy="623.9129"
           sodipodi:rx="70.681046"
           sodipodi:ry="70.681046"
           d="M 453.75484,623.9129 A 70.681046,70.681046 0 1 1 312.39275,623.9129 A 70.681046,70.681046 0 1 1 453.75484,623.9129 z"
           transform="translate(-48.865906,-64.572804)" />
        <path
           sodipodi:type="arc"
           style="opacity:1;fill:#f6d5ff;fill-opacity:1;stroke:none;stroke-width:3;stroke-linecap:round;stroke-linejoin:round;stroke-miterlimit:4;stroke-dasharray:none;stroke-dashoffset:0;stroke-opacity:1"
           id="path3475"
           sodipodi:cx="383.07379"
           sodipodi:cy="623.9129"
           sodipodi:rx="70.681046"
           sodipodi:ry="70.681046"
           d="M 453.75484,623.9129 A 70.681046,70.681046 0 1 1 312.39275,623.9129 A 70.681046,70.681046 0 1 1 453.75484,623.9129 z"
           transform="matrix(0.7407408,0,0,0.7407408,27.76178,166.99083)" />
      </g>
      <g
         transform="matrix(-1,0,0,1,902.37592,-34.448887)"
         id="g3481">
        <path
           sodipodi:type="arc"
           style="opacity:1;fill:#eeaaff;fill-opacity:1;stroke:none;stroke-width:3;stroke-linecap:round;stroke-linejoin:round;stroke-miterlimit:4;stroke-dasharray:none;stroke-dashoffset:0;stroke-opacity:1"
           id="path3483"
           sodipodi:cx="383.07379"
           sodipodi:cy="623.9129"
           sodipodi:rx="70.681046"
           sodipodi:ry="70.681046"
           d="M 453.75484,623.9129 A 70.681046,70.681046 0 1 1 312.39275,623.9129 A 70.681046,70.681046 0 1 1 453.75484,623.9129 z"
           transform="translate(-48.865906,-64.572804)" />
        <path
           sodipodi:type="arc"
           style="opacity:1;fill:#f6d5ff;fill-opacity:1;stroke:none;stroke-width:3;stroke-linecap:round;stroke-linejoin:round;stroke-miterlimit:4;stroke-dasharray:none;stroke-dashoffset:0;stroke-opacity:1"
           id="path3485"
           sodipodi:cx="383.07379"
           sodipodi:cy="623.9129"
           sodipodi:rx="70.681046"
           sodipodi:ry="70.681046"
           d="M 453.75484,623.9129 A 70.681046,70.681046 0 1 1 312.39275,623.9129 A 70.681046,70.681046 0 1 1 453.75484,623.9129 z"
           transform="matrix(0.7407408,0,0,0.7407408,27.76178,166.99083)" />
      </g>
      <path
         sodipodi:nodetypes="ccccc"
         id="path3433"
         d="M 629.1199,505.52563 C 629.37806,482.29265 654.03264,485.75541 654.2908,505.13838 L 649.64387,633.70361 C 648.82275,647.85985 636.65509,643.89955 636.0903,633.31636 L 629.1199,505.52563 z"
         style="fill:#803300;fill-rule:evenodd;stroke:none;stroke-width:0.444989px;stroke-linecap:butt;stroke-linejoin:miter;stroke-opacity:1" />
      <g
         transform="translate(329.99067,-69.449009)"
         id="g3435">
        <path
           style="fill:none;fill-rule:evenodd;stroke:#803300;stroke-width:1px;stroke-linecap:butt;stroke-linejoin:miter;stroke-opacity:1"
           d="M 319.05111,563.23837 C 322.02006,537.04054 328.46168,513.25585 343.44138,500.6147"
           id="path3437"
           sodipodi:nodetypes="cc" />
        <rect
           style="opacity:1;fill:#803300;fill-opacity:1;stroke:#803300;stroke-width:1.32905495;stroke-linecap:round;stroke-linejoin:round;stroke-miterlimit:4;stroke-dasharray:none;stroke-dashoffset:0;stroke-opacity:1"
           id="rect3439"
           width="12.588288"
           height="4.0785236"
           x="-143.97664"
           y="584.12274"
           rx="4.5891919"
           ry="1.7925388"
           transform="matrix(0.6483997,-0.7613001,0.7341624,0.6789739,0,0)" />
      </g>
      <g
         transform="matrix(-1,0,0,1,952.35836,-69.129796)"
         id="g3441">
        <path
           style="fill:none;fill-rule:evenodd;stroke:#803300;stroke-width:1px;stroke-linecap:butt;stroke-linejoin:miter;stroke-opacity:1"
           d="M 319.05111,563.23837 C 322.02006,537.04054 328.46168,513.25585 343.44138,500.6147"
           id="path3443"
           sodipodi:nodetypes="cc" />
        <rect
           style="opacity:1;fill:#803300;fill-opacity:1;stroke:#803300;stroke-width:1.32905495;stroke-linecap:round;stroke-linejoin:round;stroke-miterlimit:4;stroke-dasharray:none;stroke-dashoffset:0;stroke-opacity:1"
           id="rect3446"
           width="12.588288"
           height="4.0785236"
           x="-143.97664"
           y="584.12274"
           rx="4.5891919"
           ry="1.7925388"
           transform="matrix(0.6483997,-0.7613001,0.7341624,0.6789739,0,0)" />
      </g>
      <g
         transform="translate(380.36579,-37.125983)"
         id="g3538">
        <g
           id="g3497"
           transform="translate(3.3718613,16.29733)">
          <path
             transform="translate(5.4419281,-32.182069)"
             d="M 197.20883,559.34009 A 21.815136,21.815136 0 1 1 153.57856,559.34009 A 21.815136,21.815136 0 1 1 197.20883,559.34009 z"
             sodipodi:ry="21.815136"
             sodipodi:rx="21.815136"
             sodipodi:cy="559.34009"
             sodipodi:cx="175.39369"
             id="path3487"
             style="opacity:1;fill:#d42aff;fill-opacity:1;stroke:none;stroke-width:3;stroke-linecap:round;stroke-linejoin:round;stroke-miterlimit:4;stroke-dasharray:none;stroke-dashoffset:0;stroke-opacity:1"
             sodipodi:type="arc" />
          <path
             transform="matrix(0.3302173,0,0,0.3302173,92.129784,343.33393)"
             d="M 197.20883,559.34009 A 21.815136,21.815136 0 1 1 153.57856,559.34009 A 21.815136,21.815136 0 1 1 197.20883,559.34009 z"
             sodipodi:ry="21.815136"
             sodipodi:rx="21.815136"
             sodipodi:cy="559.34009"
             sodipodi:cx="175.39369"
             id="path3489"
             style="opacity:1;fill:#d42aff;fill-opacity:1;stroke:none;stroke-width:3;stroke-linecap:round;stroke-linejoin:round;stroke-miterlimit:4;stroke-dasharray:none;stroke-dashoffset:0;stroke-opacity:1"
             sodipodi:type="arc" />
          <path
             transform="matrix(0.2400543,0,0,0.2400543,113.2826,408.65813)"
             d="M 197.20883,559.34009 A 21.815136,21.815136 0 1 1 153.57856,559.34009 A 21.815136,21.815136 0 1 1 197.20883,559.34009 z"
             sodipodi:ry="21.815136"
             sodipodi:rx="21.815136"
             sodipodi:cy="559.34009"
             sodipodi:cx="175.39369"
             id="path3491"
             style="opacity:1;fill:#d42aff;fill-opacity:1;stroke:none;stroke-width:3;stroke-linecap:round;stroke-linejoin:round;stroke-miterlimit:4;stroke-dasharray:none;stroke-dashoffset:0;stroke-opacity:1"
             sodipodi:type="arc" />
          <path
             transform="matrix(0.1885326,0,0,0.1885326,132.99674,445.90596)"
             d="M 197.20883,559.34009 A 21.815136,21.815136 0 1 1 153.57856,559.34009 A 21.815136,21.815136 0 1 1 197.20883,559.34009 z"
             sodipodi:ry="21.815136"
             sodipodi:rx="21.815136"
             sodipodi:cy="559.34009"
             sodipodi:cx="175.39369"
             id="path3493"
             style="opacity:1;fill:#d42aff;fill-opacity:1;stroke:none;stroke-width:3;stroke-linecap:round;stroke-linejoin:round;stroke-miterlimit:4;stroke-dasharray:none;stroke-dashoffset:0;stroke-opacity:1"
             sodipodi:type="arc" />
          <path
             transform="matrix(0.1370109,0,0,0.1370109,153.55385,476.12907)"
             d="M 197.20883,559.34009 A 21.815136,21.815136 0 1 1 153.57856,559.34009 A 21.815136,21.815136 0 1 1 197.20883,559.34009 z"
             sodipodi:ry="21.815136"
             sodipodi:rx="21.815136"
             sodipodi:cy="559.34009"
             sodipodi:cx="175.39369"
             id="path3495"
             style="opacity:1;fill:#d42aff;fill-opacity:1;stroke:none;stroke-width:3;stroke-linecap:round;stroke-linejoin:round;stroke-miterlimit:4;stroke-dasharray:none;stroke-dashoffset:0;stroke-opacity:1"
             sodipodi:type="arc" />
        </g>
        <g
           id="g3532"
           transform="matrix(0.9995531,-2.9895281e-2,2.9895281e-2,0.9995531,47.334612,85.956284)">
          <path
             transform="matrix(-0.3302173,0,0,-0.3302173,211.55826,642.75703)"
             d="M 197.20883,559.34009 A 21.815136,21.815136 0 1 1 153.57856,559.34009 A 21.815136,21.815136 0 1 1 197.20883,559.34009 z"
             sodipodi:ry="21.815136"
             sodipodi:rx="21.815136"
             sodipodi:cy="559.34009"
             sodipodi:cx="175.39369"
             id="path3508"
             style="fill:#d42aff;fill-opacity:1;stroke:none;stroke-width:3;stroke-linecap:round;stroke-linejoin:round;stroke-miterlimit:4;stroke-dasharray:none;stroke-dashoffset:0;stroke-opacity:1"
             sodipodi:type="arc" />
          <path
             transform="matrix(-0.2400543,0,0,-0.2400543,190.40544,577.43283)"
             d="M 197.20883,559.34009 A 21.815136,21.815136 0 1 1 153.57856,559.34009 A 21.815136,21.815136 0 1 1 197.20883,559.34009 z"
             sodipodi:ry="21.815136"
             sodipodi:rx="21.815136"
             sodipodi:cy="559.34009"
             sodipodi:cx="175.39369"
             id="path3510"
             style="fill:#d42aff;fill-opacity:1;stroke:none;stroke-width:3;stroke-linecap:round;stroke-linejoin:round;stroke-miterlimit:4;stroke-dasharray:none;stroke-dashoffset:0;stroke-opacity:1"
             sodipodi:type="arc" />
          <path
             transform="matrix(-0.1885326,0,0,-0.1885326,170.6913,540.185)"
             d="M 197.20883,559.34009 A 21.815136,21.815136 0 1 1 153.57856,559.34009 A 21.815136,21.815136 0 1 1 197.20883,559.34009 z"
             sodipodi:ry="21.815136"
             sodipodi:rx="21.815136"
             sodipodi:cy="559.34009"
             sodipodi:cx="175.39369"
             id="path3512"
             style="fill:#d42aff;fill-opacity:1;stroke:none;stroke-width:3;stroke-linecap:round;stroke-linejoin:round;stroke-miterlimit:4;stroke-dasharray:none;stroke-dashoffset:0;stroke-opacity:1"
             sodipodi:type="arc" />
          <path
             transform="matrix(-0.1370109,0,0,-0.1370109,150.13419,509.96189)"
             d="M 197.20883,559.34009 A 21.815136,21.815136 0 1 1 153.57856,559.34009 A 21.815136,21.815136 0 1 1 197.20883,559.34009 z"
             sodipodi:ry="21.815136"
             sodipodi:rx="21.815136"
             sodipodi:cy="559.34009"
             sodipodi:cx="175.39369"
             id="path3514"
             style="fill:#d42aff;fill-opacity:1;stroke:none;stroke-width:3;stroke-linecap:round;stroke-linejoin:round;stroke-miterlimit:4;stroke-dasharray:none;stroke-dashoffset:0;stroke-opacity:1"
             sodipodi:type="arc" />
        </g>
      </g>
      <g
         transform="matrix(-1,0,0,1,913.3632,-34.949384)"
         id="g3551">
        <g
           id="g3553"
           transform="translate(3.3718613,16.29733)">
          <path
             transform="translate(5.4419281,-32.182069)"
             d="M 197.20883,559.34009 A 21.815136,21.815136 0 1 1 153.57856,559.34009 A 21.815136,21.815136 0 1 1 197.20883,559.34009 z"
             sodipodi:ry="21.815136"
             sodipodi:rx="21.815136"
             sodipodi:cy="559.34009"
             sodipodi:cx="175.39369"
             id="path3555"
             style="opacity:1;fill:#d42aff;fill-opacity:1;stroke:none;stroke-width:3;stroke-linecap:round;stroke-linejoin:round;stroke-miterlimit:4;stroke-dasharray:none;stroke-dashoffset:0;stroke-opacity:1"
             sodipodi:type="arc" />
          <path
             transform="matrix(0.3302173,0,0,0.3302173,92.129784,343.33393)"
             d="M 197.20883,559.34009 A 21.815136,21.815136 0 1 1 153.57856,559.34009 A 21.815136,21.815136 0 1 1 197.20883,559.34009 z"
             sodipodi:ry="21.815136"
             sodipodi:rx="21.815136"
             sodipodi:cy="559.34009"
             sodipodi:cx="175.39369"
             id="path3557"
             style="opacity:1;fill:#d42aff;fill-opacity:1;stroke:none;stroke-width:3;stroke-linecap:round;stroke-linejoin:round;stroke-miterlimit:4;stroke-dasharray:none;stroke-dashoffset:0;stroke-opacity:1"
             sodipodi:type="arc" />
          <path
             transform="matrix(0.2400543,0,0,0.2400543,113.2826,408.65813)"
             d="M 197.20883,559.34009 A 21.815136,21.815136 0 1 1 153.57856,559.34009 A 21.815136,21.815136 0 1 1 197.20883,559.34009 z"
             sodipodi:ry="21.815136"
             sodipodi:rx="21.815136"
             sodipodi:cy="559.34009"
             sodipodi:cx="175.39369"
             id="path3559"
             style="opacity:1;fill:#d42aff;fill-opacity:1;stroke:none;stroke-width:3;stroke-linecap:round;stroke-linejoin:round;stroke-miterlimit:4;stroke-dasharray:none;stroke-dashoffset:0;stroke-opacity:1"
             sodipodi:type="arc" />
          <path
             transform="matrix(0.1885326,0,0,0.1885326,132.99674,445.90596)"
             d="M 197.20883,559.34009 A 21.815136,21.815136 0 1 1 153.57856,559.34009 A 21.815136,21.815136 0 1 1 197.20883,559.34009 z"
             sodipodi:ry="21.815136"
             sodipodi:rx="21.815136"
             sodipodi:cy="559.34009"
             sodipodi:cx="175.39369"
             id="path3561"
             style="opacity:1;fill:#d42aff;fill-opacity:1;stroke:none;stroke-width:3;stroke-linecap:round;stroke-linejoin:round;stroke-miterlimit:4;stroke-dasharray:none;stroke-dashoffset:0;stroke-opacity:1"
             sodipodi:type="arc" />
          <path
             transform="matrix(0.1370109,0,0,0.1370109,153.55385,476.12907)"
             d="M 197.20883,559.34009 A 21.815136,21.815136 0 1 1 153.57856,559.34009 A 21.815136,21.815136 0 1 1 197.20883,559.34009 z"
             sodipodi:ry="21.815136"
             sodipodi:rx="21.815136"
             sodipodi:cy="559.34009"
             sodipodi:cx="175.39369"
             id="path3563"
             style="opacity:1;fill:#d42aff;fill-opacity:1;stroke:none;stroke-width:3;stroke-linecap:round;stroke-linejoin:round;stroke-miterlimit:4;stroke-dasharray:none;stroke-dashoffset:0;stroke-opacity:1"
             sodipodi:type="arc" />
        </g>
        <g
           id="g3565"
           transform="matrix(0.9995531,-2.9895281e-2,2.9895281e-2,0.9995531,47.334612,85.956284)">
          <path
             transform="matrix(-0.3302173,0,0,-0.3302173,211.55826,642.75703)"
             d="M 197.20883,559.34009 A 21.815136,21.815136 0 1 1 153.57856,559.34009 A 21.815136,21.815136 0 1 1 197.20883,559.34009 z"
             sodipodi:ry="21.815136"
             sodipodi:rx="21.815136"
             sodipodi:cy="559.34009"
             sodipodi:cx="175.39369"
             id="path3567"
             style="fill:#d42aff;fill-opacity:1;stroke:none;stroke-width:3;stroke-linecap:round;stroke-linejoin:round;stroke-miterlimit:4;stroke-dasharray:none;stroke-dashoffset:0;stroke-opacity:1"
             sodipodi:type="arc" />
          <path
             transform="matrix(-0.2400543,0,0,-0.2400543,190.40544,577.43283)"
             d="M 197.20883,559.34009 A 21.815136,21.815136 0 1 1 153.57856,559.34009 A 21.815136,21.815136 0 1 1 197.20883,559.34009 z"
             sodipodi:ry="21.815136"
             sodipodi:rx="21.815136"
             sodipodi:cy="559.34009"
             sodipodi:cx="175.39369"
             id="path3569"
             style="fill:#d42aff;fill-opacity:1;stroke:none;stroke-width:3;stroke-linecap:round;stroke-linejoin:round;stroke-miterlimit:4;stroke-dasharray:none;stroke-dashoffset:0;stroke-opacity:1"
             sodipodi:type="arc" />
          <path
             transform="matrix(-0.1885326,0,0,-0.1885326,170.6913,540.185)"
             d="M 197.20883,559.34009 A 21.815136,21.815136 0 1 1 153.57856,559.34009 A 21.815136,21.815136 0 1 1 197.20883,559.34009 z"
             sodipodi:ry="21.815136"
             sodipodi:rx="21.815136"
             sodipodi:cy="559.34009"
             sodipodi:cx="175.39369"
             id="path3571"
             style="fill:#d42aff;fill-opacity:1;stroke:none;stroke-width:3;stroke-linecap:round;stroke-linejoin:round;stroke-miterlimit:4;stroke-dasharray:none;stroke-dashoffset:0;stroke-opacity:1"
             sodipodi:type="arc" />
          <path
             transform="matrix(-0.1370109,0,0,-0.1370109,150.13419,509.96189)"
             d="M 197.20883,559.34009 A 21.815136,21.815136 0 1 1 153.57856,559.34009 A 21.815136,21.815136 0 1 1 197.20883,559.34009 z"
             sodipodi:ry="21.815136"
             sodipodi:rx="21.815136"
             sodipodi:cy="559.34009"
             sodipodi:cx="175.39369"
             id="path3573"
             style="fill:#d42aff;fill-opacity:1;stroke:none;stroke-width:3;stroke-linecap:round;stroke-linejoin:round;stroke-miterlimit:4;stroke-dasharray:none;stroke-dashoffset:0;stroke-opacity:1"
             sodipodi:type="arc" />
        </g>
      </g>
      <g
         transform="translate(92.143836,-9.1490333)"
         id="g2660">
        <path
           sodipodi:type="arc"
           style="fill:#e580ff;fill-opacity:1;stroke:none;stroke-width:3;stroke-linecap:round;stroke-linejoin:round;stroke-miterlimit:4;stroke-dasharray:none;stroke-dashoffset:0;stroke-opacity:1"
           id="path2600"
           sodipodi:cx="175.39369"
           sodipodi:cy="559.34009"
           sodipodi:rx="21.815136"
           sodipodi:ry="21.815136"
           d="M 197.20883,559.34009 A 21.815136,21.815136 0 1 1 153.57856,559.34009 A 21.815136,21.815136 0 1 1 197.20883,559.34009 z"
           transform="translate(318.31968,63.665562)" />
        <path
           sodipodi:type="arc"
           style="fill:#ffffff;fill-opacity:1;stroke:none;stroke-width:3;stroke-linecap:round;stroke-linejoin:round;stroke-miterlimit:4;stroke-dasharray:none;stroke-dashoffset:0;stroke-opacity:1"
           id="path2602"
           sodipodi:cx="175.39369"
           sodipodi:cy="559.34009"
           sodipodi:rx="21.815136"
           sodipodi:ry="21.815136"
           d="M 197.20883,559.34009 A 21.815136,21.815136 0 1 1 153.57856,559.34009 A 21.815136,21.815136 0 1 1 197.20883,559.34009 z"
           transform="matrix(0.2398885,0,0,0.2398885,438.1771,484.18331)" />
        <path
           sodipodi:type="arc"
           style="fill:#ffffff;fill-opacity:1;stroke:none;stroke-width:3;stroke-linecap:round;stroke-linejoin:round;stroke-miterlimit:4;stroke-dasharray:none;stroke-dashoffset:0;stroke-opacity:1"
           id="path2604"
           sodipodi:cx="175.39369"
           sodipodi:cy="559.34009"
           sodipodi:rx="21.815136"
           sodipodi:ry="21.815136"
           d="M 197.20883,559.34009 A 21.815136,21.815136 0 1 1 153.57856,559.34009 A 21.815136,21.815136 0 1 1 197.20883,559.34009 z"
           transform="matrix(0.174389,0,0,0.174389,450.9297,533.59901)" />
        <path
           sodipodi:type="arc"
           style="fill:#ffffff;fill-opacity:1;stroke:none;stroke-width:3;stroke-linecap:round;stroke-linejoin:round;stroke-miterlimit:4;stroke-dasharray:none;stroke-dashoffset:0;stroke-opacity:1"
           id="path2606"
           sodipodi:cx="175.39369"
           sodipodi:cy="559.34009"
           sodipodi:rx="21.815136"
           sodipodi:ry="21.815136"
           d="M 197.20883,559.34009 A 21.815136,21.815136 0 1 1 153.57856,559.34009 A 21.815136,21.815136 0 1 1 197.20883,559.34009 z"
           transform="matrix(0.1369607,0,0,0.1369607,465.90466,561.47481)" />
        <path
           sodipodi:type="arc"
           style="fill:#ffffff;fill-opacity:1;stroke:none;stroke-width:3;stroke-linecap:round;stroke-linejoin:round;stroke-miterlimit:4;stroke-dasharray:none;stroke-dashoffset:0;stroke-opacity:1"
           id="path2608"
           sodipodi:cx="175.39369"
           sodipodi:cy="559.34009"
           sodipodi:rx="21.815136"
           sodipodi:ry="21.815136"
           d="M 197.20883,559.34009 A 21.815136,21.815136 0 1 1 153.57856,559.34009 A 21.815136,21.815136 0 1 1 197.20883,559.34009 z"
           transform="matrix(9.9532459e-2,0,0,9.9532459e-2,483.12577,582.28696)" />
        <path
           sodipodi:type="arc"
           style="fill:#ffffff;fill-opacity:1;stroke:none;stroke-width:3;stroke-linecap:round;stroke-linejoin:round;stroke-miterlimit:4;stroke-dasharray:none;stroke-dashoffset:0;stroke-opacity:1"
           id="path2644"
           sodipodi:cx="175.39369"
           sodipodi:cy="559.34009"
           sodipodi:rx="21.815136"
           sodipodi:ry="21.815136"
           d="M 197.20883,559.34009 A 21.815136,21.815136 0 1 1 153.57856,559.34009 A 21.815136,21.815136 0 1 1 197.20883,559.34009 z"
           transform="matrix(-0.2398885,0,0,-0.2398885,548.75304,762.40041)" />
        <path
           sodipodi:type="arc"
           style="fill:#ffffff;fill-opacity:1;stroke:none;stroke-width:3;stroke-linecap:round;stroke-linejoin:round;stroke-miterlimit:4;stroke-dasharray:none;stroke-dashoffset:0;stroke-opacity:1"
           id="path2646"
           sodipodi:cx="175.39369"
           sodipodi:cy="559.34009"
           sodipodi:rx="21.815136"
           sodipodi:ry="21.815136"
           d="M 197.20883,559.34009 A 21.815136,21.815136 0 1 1 153.57856,559.34009 A 21.815136,21.815136 0 1 1 197.20883,559.34009 z"
           transform="matrix(-0.174389,0,0,-0.174389,537.22343,712.92636)" />
        <path
           sodipodi:type="arc"
           style="fill:#ffffff;fill-opacity:1;stroke:none;stroke-width:3;stroke-linecap:round;stroke-linejoin:round;stroke-miterlimit:4;stroke-dasharray:none;stroke-dashoffset:0;stroke-opacity:1"
           id="path2648"
           sodipodi:cx="175.39369"
           sodipodi:cy="559.34009"
           sodipodi:rx="21.815136"
           sodipodi:ry="21.815136"
           d="M 197.20883,559.34009 A 21.815136,21.815136 0 1 1 153.57856,559.34009 A 21.815136,21.815136 0 1 1 197.20883,559.34009 z"
           transform="matrix(-0.1369607,0,0,-0.1369607,522.41184,685.54068)" />
        <path
           sodipodi:type="arc"
           style="fill:#ffffff;fill-opacity:1;stroke:none;stroke-width:3;stroke-linecap:round;stroke-linejoin:round;stroke-miterlimit:4;stroke-dasharray:none;stroke-dashoffset:0;stroke-opacity:1"
           id="path2650"
           sodipodi:cx="175.39369"
           sodipodi:cy="559.34009"
           sodipodi:rx="21.815136"
           sodipodi:ry="21.815136"
           d="M 197.20883,559.34009 A 21.815136,21.815136 0 1 1 153.57856,559.34009 A 21.815136,21.815136 0 1 1 197.20883,559.34009 z"
           transform="matrix(-9.9532459e-2,0,0,-9.9532459e-2,505.84423,664.89191)" />
      </g>
      <g
         transform="translate(202.26666,-9.143565)"
         id="g2671">
        <path
           sodipodi:type="arc"
           style="fill:#e580ff;fill-opacity:1;stroke:none;stroke-width:3;stroke-linecap:round;stroke-linejoin:round;stroke-miterlimit:4;stroke-dasharray:none;stroke-dashoffset:0;stroke-opacity:1"
           id="path2673"
           sodipodi:cx="175.39369"
           sodipodi:cy="559.34009"
           sodipodi:rx="21.815136"
           sodipodi:ry="21.815136"
           d="M 197.20883,559.34009 A 21.815136,21.815136 0 1 1 153.57856,559.34009 A 21.815136,21.815136 0 1 1 197.20883,559.34009 z"
           transform="translate(318.31968,63.665562)" />
        <path
           sodipodi:type="arc"
           style="fill:#ffffff;fill-opacity:1;stroke:none;stroke-width:3;stroke-linecap:round;stroke-linejoin:round;stroke-miterlimit:4;stroke-dasharray:none;stroke-dashoffset:0;stroke-opacity:1"
           id="path2675"
           sodipodi:cx="175.39369"
           sodipodi:cy="559.34009"
           sodipodi:rx="21.815136"
           sodipodi:ry="21.815136"
           d="M 197.20883,559.34009 A 21.815136,21.815136 0 1 1 153.57856,559.34009 A 21.815136,21.815136 0 1 1 197.20883,559.34009 z"
           transform="matrix(0.2398885,0,0,0.2398885,438.1771,484.18331)" />
        <path
           sodipodi:type="arc"
           style="fill:#ffffff;fill-opacity:1;stroke:none;stroke-width:3;stroke-linecap:round;stroke-linejoin:round;stroke-miterlimit:4;stroke-dasharray:none;stroke-dashoffset:0;stroke-opacity:1"
           id="path2677"
           sodipodi:cx="175.39369"
           sodipodi:cy="559.34009"
           sodipodi:rx="21.815136"
           sodipodi:ry="21.815136"
           d="M 197.20883,559.34009 A 21.815136,21.815136 0 1 1 153.57856,559.34009 A 21.815136,21.815136 0 1 1 197.20883,559.34009 z"
           transform="matrix(0.174389,0,0,0.174389,450.9297,533.59901)" />
        <path
           sodipodi:type="arc"
           style="fill:#ffffff;fill-opacity:1;stroke:none;stroke-width:3;stroke-linecap:round;stroke-linejoin:round;stroke-miterlimit:4;stroke-dasharray:none;stroke-dashoffset:0;stroke-opacity:1"
           id="path2679"
           sodipodi:cx="175.39369"
           sodipodi:cy="559.34009"
           sodipodi:rx="21.815136"
           sodipodi:ry="21.815136"
           d="M 197.20883,559.34009 A 21.815136,21.815136 0 1 1 153.57856,559.34009 A 21.815136,21.815136 0 1 1 197.20883,559.34009 z"
           transform="matrix(0.1369607,0,0,0.1369607,465.90466,561.47481)" />
        <path
           sodipodi:type="arc"
           style="fill:#ffffff;fill-opacity:1;stroke:none;stroke-width:3;stroke-linecap:round;stroke-linejoin:round;stroke-miterlimit:4;stroke-dasharray:none;stroke-dashoffset:0;stroke-opacity:1"
           id="path2681"
           sodipodi:cx="175.39369"
           sodipodi:cy="559.34009"
           sodipodi:rx="21.815136"
           sodipodi:ry="21.815136"
           d="M 197.20883,559.34009 A 21.815136,21.815136 0 1 1 153.57856,559.34009 A 21.815136,21.815136 0 1 1 197.20883,559.34009 z"
           transform="matrix(9.9532459e-2,0,0,9.9532459e-2,483.12577,582.28696)" />
        <path
           sodipodi:type="arc"
           style="fill:#ffffff;fill-opacity:1;stroke:none;stroke-width:3;stroke-linecap:round;stroke-linejoin:round;stroke-miterlimit:4;stroke-dasharray:none;stroke-dashoffset:0;stroke-opacity:1"
           id="path2683"
           sodipodi:cx="175.39369"
           sodipodi:cy="559.34009"
           sodipodi:rx="21.815136"
           sodipodi:ry="21.815136"
           d="M 197.20883,559.34009 A 21.815136,21.815136 0 1 1 153.57856,559.34009 A 21.815136,21.815136 0 1 1 197.20883,559.34009 z"
           transform="matrix(-0.2398885,0,0,-0.2398885,548.75304,762.40041)" />
        <path
           sodipodi:type="arc"
           style="fill:#ffffff;fill-opacity:1;stroke:none;stroke-width:3;stroke-linecap:round;stroke-linejoin:round;stroke-miterlimit:4;stroke-dasharray:none;stroke-dashoffset:0;stroke-opacity:1"
           id="path2685"
           sodipodi:cx="175.39369"
           sodipodi:cy="559.34009"
           sodipodi:rx="21.815136"
           sodipodi:ry="21.815136"
           d="M 197.20883,559.34009 A 21.815136,21.815136 0 1 1 153.57856,559.34009 A 21.815136,21.815136 0 1 1 197.20883,559.34009 z"
           transform="matrix(-0.174389,0,0,-0.174389,537.22343,712.92636)" />
        <path
           sodipodi:type="arc"
           style="fill:#ffffff;fill-opacity:1;stroke:none;stroke-width:3;stroke-linecap:round;stroke-linejoin:round;stroke-miterlimit:4;stroke-dasharray:none;stroke-dashoffset:0;stroke-opacity:1"
           id="path2687"
           sodipodi:cx="175.39369"
           sodipodi:cy="559.34009"
           sodipodi:rx="21.815136"
           sodipodi:ry="21.815136"
           d="M 197.20883,559.34009 A 21.815136,21.815136 0 1 1 153.57856,559.34009 A 21.815136,21.815136 0 1 1 197.20883,559.34009 z"
           transform="matrix(-0.1369607,0,0,-0.1369607,522.41184,685.54068)" />
        <path
           sodipodi:type="arc"
           style="fill:#ffffff;fill-opacity:1;stroke:none;stroke-width:3;stroke-linecap:round;stroke-linejoin:round;stroke-miterlimit:4;stroke-dasharray:none;stroke-dashoffset:0;stroke-opacity:1"
           id="path2689"
           sodipodi:cx="175.39369"
           sodipodi:cy="559.34009"
           sodipodi:rx="21.815136"
           sodipodi:ry="21.815136"
           d="M 197.20883,559.34009 A 21.815136,21.815136 0 1 1 153.57856,559.34009 A 21.815136,21.815136 0 1 1 197.20883,559.34009 z"
           transform="matrix(-9.9532459e-2,0,0,-9.9532459e-2,505.84423,664.89191)" />
      </g>
    </g>
  </g>
</svg>
