<?xml version="1.0" encoding="UTF-8" standalone="no"?>
<!-- Created with Inkscape (http://www.inkscape.org/) -->

<svg
   xmlns:dc="http://purl.org/dc/elements/1.1/"
   xmlns:cc="http://creativecommons.org/ns#"
   xmlns:rdf="http://www.w3.org/1999/02/22-rdf-syntax-ns#"
   xmlns:svg="http://www.w3.org/2000/svg"
   xmlns="http://www.w3.org/2000/svg"
   xmlns:sodipodi="http://sodipodi.sourceforge.net/DTD/sodipodi-0.dtd"
   xmlns:inkscape="http://www.inkscape.org/namespaces/inkscape"
   width="210mm"
   height="297mm"
   id="svg4898"
   version="1.1"
   inkscape:version="0.48.4 r9939"
   sodipodi:docname="catandfish.svg">
  <defs
     id="defs3" />
  <sodipodi:namedview
     inkscape:document-units="mm"
     id="base"
     pagecolor="#ffffff"
     bordercolor="#666666"
     borderopacity="1.0"
     inkscape:pageopacity="0.0"
     inkscape:pageshadow="2"
     inkscape:zoom="0.70710678"
     inkscape:cx="296.0641"
     inkscape:cy="520.65474"
     inkscape:current-layer="layer2"
     showgrid="false"
     inkscape:window-width="1440"
     inkscape:window-height="838"
     inkscape:window-x="-8"
     inkscape:window-y="-8"
     inkscape:window-maximized="1"
     showguides="true"
     inkscape:guide-bbox="true" />
  <metadata
     id="metadata4">
    <rdf:RDF>
      <cc:Work
         rdf:about="">
        <dc:format>image/svg+xml</dc:format>
        <dc:type
           rdf:resource="http://purl.org/dc/dcmitype/StillImage" />
        <dc:title></dc:title>
      </cc:Work>
    </rdf:RDF>
  </metadata>
  <g
     inkscape:label="Layer 1"
     inkscape:groupmode="layer"
     id="layer1"
     style="display:inline" />
  <g
     inkscape:groupmode="layer"
     id="layer2"
     inkscape:label="Layer2"
     style="display:inline">
    <path
       style="color:#000000;fill:#ff7f2a;fill-opacity:1;fill-rule:nonzero;stroke:#000000;stroke-width:3.54330707;stroke-linecap:butt;stroke-linejoin:miter;stroke-miterlimit:4;stroke-opacity:1;stroke-dasharray:none;stroke-dashoffset:0;marker:none;visibility:visible;display:inline;overflow:visible;enable-background:accumulate"
       d="m 194,453.36218 c -29.01386,-25.35682 -52.34207,-106.40304 -49,-157 1.60198,-24.25307 32.52367,-41.74188 31,-66 -1.48404,-23.62715 -34.12293,-36.64593 -38,-60 -1.40351,-8.45426 -1.76895,-21.38229 6,-25 30.26809,1.8696 67.62562,66.50215 70,89 0.29634,24.23773 -35.24144,37.91793 -38,62 -4.55849,39.79528 40.31373,93.44521 34,133 -2.02813,12.70599 -6.3117,32.46714 -16,24 z"
       id="path5622"
       inkscape:connector-curvature="0"
       sodipodi:nodetypes="ssssccsss" />
    <path
       style="color:#000000;fill:#000000;fill-opacity:1;fill-rule:nonzero;stroke:#000000;stroke-width:3.54330707;stroke-linecap:butt;stroke-linejoin:miter;stroke-miterlimit:4;stroke-opacity:1;stroke-dasharray:none;stroke-dashoffset:0;marker:none;visibility:visible;display:inline;overflow:visible;enable-background:accumulate"
       d="M 170.89739,212.25977 C 162.06752,203.13243 139.93853,182.03922 138,170.36218 c -1.40351,-8.45426 -1.76895,-21.38229 6,-25 15.13405,0.9348 48.04045,37.56034 53.46014,48.76441 25.34951,53.0675 -27.29209,-11.50791 -26.56275,18.13318 z"
       id="path5622-8"
       inkscape:connector-curvature="0"
       sodipodi:nodetypes="csccc" />
    <path
       style="fill:#ff7f2a;fill-opacity:1;stroke:#000000;stroke-width:4.19341183;stroke-linecap:butt;stroke-linejoin:miter;stroke-miterlimit:4;stroke-opacity:1;stroke-dasharray:none"
       d="m 225.1197,515.99342 c 0,0 13.79639,90.51035 14.41746,128.88953 0.9007,55.65789 -21.06348,106.21919 0,143.68013 8.82881,15.70183 28.20056,20.643 41.43395,13.46551 2.86275,-1.55268 4.92112,-6.3386 5.29852,-10.64826 0.56836,-6.49021 -1.80574,-13.5523 -4.97154,-18.31217 -2.74636,-4.12924 -7.06201,-5.61267 -10.93738,-7.04314 -3.86208,-1.42558 -9.39054,7.17706 -11.9317,2.81725 -16.76773,-28.76801 6.30656,-68.98852 4.97154,-114.09892 -1.13586,-38.38066 5.67186,-108.18094 -5.46869,-112.6903"
       id="path5661"
       inkscape:connector-curvature="0"
       sodipodi:nodetypes="csaasssssc" />
    <path
       style="fill:#ff7f2a;fill-opacity:1;stroke:#000000;stroke-width:4.3431654;stroke-linecap:butt;stroke-linejoin:miter;stroke-miterlimit:4;stroke-opacity:1;stroke-dasharray:none;display:inline"
       d="m 455.33381,555.74773 c 0,0 82.29677,26.27147 116.75336,43.13051 49.96924,24.44909 -13.56499,80.60627 4.16205,114.39552 4.0589,7.7366 13.25457,15.61045 21.00981,15.6702 41.42702,-7.55165 18.106,-26.77028 10.97795,-34.033 C 588.6719,674.70355 639.1317,590.63513 598.2304,571.50741 563.47164,555.25227 490.12488,523.72074 480.67054,532.31864"
       id="path5661-3-8"
       inkscape:connector-curvature="0"
       sodipodi:nodetypes="csaccsc" />
    <path
       sodipodi:type="arc"
       style="fill:#ff7f2a;fill-opacity:1;fill-rule:evenodd;stroke:#000000;stroke-width:3.54330707;stroke-miterlimit:4;stroke-opacity:1;stroke-dasharray:none;stroke-dashoffset:0"
       id="path5620"
       sodipodi:cx="315"
       sodipodi:cy="539.36218"
       sodipodi:rx="209"
       sodipodi:ry="107"
       d="m 118.12619,503.44558 a 209,107 0 1 1 -0.18391,0.26533"
       sodipodi:start="3.4839082"
       sodipodi:end="9.7644623"
       sodipodi:open="true"
       transform="translate(79,-77)" />
    <path
       style="fill:#ff7f2a;fill-opacity:1;stroke:#000000;stroke-width:4.19341183;stroke-linecap:butt;stroke-linejoin:miter;stroke-miterlimit:4;stroke-opacity:1;stroke-dasharray:none;display:inline"
       d="m 443.14438,527.30893 c 0,0 13.79639,90.51035 14.41746,128.88954 0.9007,55.65789 -21.06348,106.21919 0,143.68013 8.82881,15.70183 28.20056,20.643 41.43395,13.46551 2.86275,-1.55268 4.92112,-6.3386 5.29852,-10.64826 0.56836,-6.49021 -1.80574,-13.5523 -4.97154,-18.31217 -2.74636,-4.12924 -7.06201,-5.61267 -10.93738,-7.04314 -3.86208,-1.42558 -9.39054,7.17706 -11.9317,2.81725 -16.76773,-28.76801 6.30656,-68.98852 4.97154,-114.09892 -1.13586,-38.38066 5.67186,-108.18095 -5.46869,-112.69031"
       id="path5661-6"
       inkscape:connector-curvature="0"
       sodipodi:nodetypes="csaasssssc" />
    <g
       id="g5606"
       transform="matrix(0.43381838,0,0,0.45557723,342.97771,231.57423)">
      <path
         inkscape:connector-curvature="0"
         id="path4933"
         d="M 291.4375,149.5 C 224.80171,261.37667 210,350.9375 210,350.9375 l 0.15625,0.625 c -50.58902,28.8783 -89.2958,57.11549 -105.71875,121.375 l -0.21875,0.625 c -40.021421,109.369 35.7091,185.28322 189.8125,217.5625 136.66082,28.62567 278.68431,-44.01663 320.09375,-169.34375 12.83139,-38.83466 4.09219,-74.01033 -5.34375,-109.03125 -8.43966,-31.32332 -39.65359,-59.30006 -77.6875,-78.9375 L 518.5625,295.21875 c 0,0 -25.45973,-57.81199 -37.125,-87.15625 -8.62351,-21.69266 -23.87702,-72.93959 -28.5625,-48.53125 -7.87929,41.04599 -22.35713,48.60242 -35.71875,74.25 -27.45971,52.70881 -36.58087,91.93669 -33.15625,95.5 C 359.00957,329.38025 335.90969,187.8527 291.4375,149.5 z"
         style="fill:#ff7f2a;fill-opacity:1;fill-rule:evenodd;stroke:#000000;stroke-width:6.67487049;stroke-miterlimit:4;stroke-opacity:1;stroke-dasharray:none;stroke-dashoffset:0" />
      <path
         sodipodi:nodetypes="ssassssssssss"
         inkscape:connector-curvature="0"
         id="path5449"
         d="m 308.57143,370.93361 c -16.73304,6.21286 -28.2246,22.59854 -38.57143,37.14286 -11.85679,16.66685 -21.09973,35.78759 -25.71429,55.71428 -4.72822,20.41747 -4.09945,42.07024 -1.42857,62.85715 1.3254,10.31536 2.87115,21.30115 8.57143,30 5.74789,8.7715 14.41475,16.45864 24.28572,20 6.72327,2.41207 14.57057,1.99705 21.42857,0 11.92232,-3.47179 21.61058,-9.4165 30,-18.57143 9.06541,-9.8926 9.38836,-22.75231 12.85714,-35.71429 5.66807,-21.18015 4.65351,-39.57683 2.85714,-61.42857 -1.51505,-18.42973 -1.00799,-41.80092 -4.28571,-60 -1.707,-9.47787 -5.73701,-13.5156 -12.85715,-20 -6.34699,-5.78029 -9.09503,-12.9881 -17.14285,-10 z"
         style="fill:#ffffff;fill-opacity:1;stroke:#000000;stroke-width:7.08661413;stroke-linecap:butt;stroke-linejoin:miter;stroke-miterlimit:4;stroke-opacity:1;stroke-dasharray:none" />
      <path
         sodipodi:nodetypes="ssssssssccsssss"
         inkscape:connector-curvature="0"
         id="path5451"
         d="m 385.71429,386.6479 c 9.98701,-6.90303 24.09468,-10.66099 35.71428,-7.14286 14.82441,4.48847 28.43354,28.62009 37.14286,41.42857 8.75448,12.87489 7.57769,36.04884 10,51.42857 2.30742,14.65027 1.76344,12.4172 0,27.14286 -1.60147,13.37315 -2.61982,26.8916 -5.71429,40 -1.72986,7.32782 -12.57266,21.15933 -17.14285,27.14286 -6.25299,8.18673 -6.36409,7.10466 -15.71429,11.42857 -9.43968,4.36529 -19.64932,6.84392 -30,7.85715 -23.23431,-2.06914 -19.65888,2.08134 -39.28572,-21.42858 -6.35385,-8.01022 -10.72473,-15.18004 -13.57142,-25 -3.32517,-11.47056 -3.40848,-23.78422 -2.85715,-35.71429 0.51319,-11.10493 3.23141,-22.02118 5.71429,-32.85714 3.87138,-16.89574 7.2423,-34.16195 14.28571,-50 5.47635,-12.31431 10.34206,-26.6227 21.42858,-34.28571 z"
         style="fill:#ffffff;fill-opacity:1;stroke:#000000;stroke-width:7.08661413;stroke-linecap:butt;stroke-linejoin:miter;stroke-miterlimit:4;stroke-opacity:1;stroke-dasharray:none" />
      <path
         sodipodi:nodetypes="cac"
         inkscape:connector-curvature="0"
         id="path5456"
         d="m 37.044964,673.40986 c 0,0 65.843236,-19.72047 96.299876,-35.23692 31.04212,-15.81473 86.75305,-58.28702 86.75305,-58.28702"
         style="fill:none;stroke:#000000;stroke-width:10.62992096;stroke-linecap:butt;stroke-linejoin:miter;stroke-miterlimit:4;stroke-opacity:1;stroke-dasharray:none" />
      <path
         sodipodi:nodetypes="cac"
         inkscape:connector-curvature="0"
         id="path5458"
         d="m 73.295416,732.29972 c 0,0 75.512774,-22.88093 108.880134,-43.14593 33.86749,-20.56878 89.81475,-77.87201 89.81475,-77.87201"
         style="fill:none;stroke:#000000;stroke-width:10.62992096;stroke-linecap:butt;stroke-linejoin:miter;stroke-miterlimit:4;stroke-opacity:1;stroke-dasharray:none" />
      <path
         sodipodi:nodetypes="cac"
         inkscape:connector-curvature="0"
         id="path5460"
         d="m 505.1126,541.22767 c 0,0 69.4398,21.96521 105.32528,27.11615 37.07613,5.32185 112.30666,3.72431 112.30666,3.72431"
         style="fill:none;stroke:#000000;stroke-width:10.62992096;stroke-linecap:butt;stroke-linejoin:miter;stroke-miterlimit:4;stroke-opacity:1;stroke-dasharray:none" />
      <path
         sodipodi:nodetypes="cac"
         inkscape:connector-curvature="0"
         id="path5462"
         d="m 489.47784,569.60551 c 0,0 74.05307,41.03266 113.73978,55.21406 39.0096,13.93945 120.87596,28.87071 120.87596,28.87071"
         style="fill:none;stroke:#000000;stroke-width:10.62992096;stroke-linecap:butt;stroke-linejoin:miter;stroke-miterlimit:4;stroke-opacity:1;stroke-dasharray:none" />
      <path
         sodipodi:nodetypes="cac"
         inkscape:connector-curvature="0"
         id="path5464"
         d="m 466.44142,600.37101 c 0,0 62.10988,53.57696 97.30259,74.19508 35.53403,20.81809 113.386,49.07297 113.386,49.07297"
         style="fill:none;stroke:#000000;stroke-width:10.62992096;stroke-linecap:butt;stroke-linejoin:miter;stroke-miterlimit:4;stroke-opacity:1;stroke-dasharray:none" />
      <path
         transform="translate(-7.8571429,-3.5714286)"
         sodipodi:open="true"
         sodipodi:end="9.7644623"
         sodipodi:start="3.4839082"
         d="m 318.14847,593.25369 c 5.49534,-13.56343 22.45173,-20.64064 37.87317,-15.80739 15.42143,4.83325 23.46812,19.74671 17.97278,33.31014 -5.49534,13.56343 -22.45174,20.64064 -37.87317,15.80739 -15.39275,-4.82426 -23.44347,-19.69464 -17.99887,-33.24549"
         sodipodi:ry="26.071428"
         sodipodi:rx="29.642857"
         sodipodi:cy="602.00507"
         sodipodi:cx="346.07144"
         id="path5470"
         style="fill:#ff2a2a;fill-opacity:1;fill-rule:evenodd;stroke:#000000;stroke-width:7.08661413;stroke-miterlimit:4;stroke-opacity:1;stroke-dasharray:none"
         sodipodi:type="arc" />
      <path
         transform="matrix(0.99905009,-0.04357654,0.04357654,0.99905009,-514.86232,28.819917)"
         sodipodi:open="true"
         sodipodi:end="9.7644623"
         sodipodi:start="3.4839082"
         d="m 775.63261,505.57872 c 4.30358,-26.01205 17.58268,-39.58478 29.65971,-30.31553 12.07703,9.26924 18.37865,37.87039 14.07507,63.88245 -4.30358,26.01206 -17.58268,39.58479 -29.65971,30.31554 -12.05456,-9.25201 -18.35934,-37.77054 -14.0955,-63.75847"
         sodipodi:ry="50"
         sodipodi:rx="23.214287"
         sodipodi:cy="522.36218"
         sodipodi:cx="797.5"
         id="path5472"
         style="fill:#000000;fill-opacity:1;fill-rule:evenodd;stroke:#000000;stroke-width:7.08661413;stroke-miterlimit:4;stroke-opacity:1;stroke-dasharray:none;stroke-dashoffset:0"
         sodipodi:type="arc" />
      <path
         transform="translate(-506.42857,-7.1428571)"
         sodipodi:open="true"
         sodipodi:end="9.7644623"
         sodipodi:start="3.4839082"
         d="m 874.28692,511.0382 c 4.56842,-29.72806 18.6647,-45.23975 31.48493,-34.64632 12.82023,10.59342 19.50964,43.28045 14.94123,73.00852 -4.56842,29.72806 -18.6647,45.23975 -31.48493,34.64632 C 876.43177,573.473 869.73901,540.88039 874.26524,511.1799"
         sodipodi:ry="57.142857"
         sodipodi:rx="24.642857"
         sodipodi:cy="530.2193"
         sodipodi:cx="897.5"
         id="path5474"
         style="fill:#000000;fill-opacity:1;fill-rule:evenodd;stroke:#000000;stroke-width:7.08661413;stroke-miterlimit:4;stroke-opacity:1;stroke-dasharray:none;stroke-dashoffset:0"
         sodipodi:type="arc" />
      <path
         sodipodi:nodetypes="cac"
         inkscape:connector-curvature="0"
         id="path5456-8"
         d="m 7.0418072,607.84036 c 0,0 68.5345968,-4.55116 101.5577428,-13.20186 33.79798,-8.85368 97.21578,-39.1831 97.21578,-39.1831"
         style="fill:none;stroke:#000000;stroke-width:10.62992096;stroke-linecap:butt;stroke-linejoin:miter;stroke-miterlimit:4;stroke-opacity:1;stroke-dasharray:none" />
    </g>
    <g
       id="g5590"
       transform="matrix(-1,0,0,1,2497.9287,-176)">
      <path
         sodipodi:nodetypes="azzaccczaaacaaaca"
         inkscape:connector-curvature="0"
         id="path5502"
         d="m 1328.3506,782.65145 c 4.019,-14.21226 9.9004,-27.59363 18.1828,-40.4061 8.2823,-12.81246 21.0626,-27.98838 31.3147,-35.35534 10.2521,-7.36696 17.2883,-7.98109 26.2639,-11.11167 5.9395,-2.07162 18.1828,-5.05077 18.1828,-5.05077 0,0 -17.4284,20.38532 -23.2335,30.30458 -5.8051,9.91926 -9.6245,18.7357 -12.1219,28.28427 -2.4974,9.54857 -2.6945,18.83216 -3.0304,28.28427 -0.3359,9.45211 -1.6492,19.23273 1.0101,28.28427 3.5323,12.02299 10.9844,22.85649 19.1929,32.32488 10.1962,11.76125 24.1349,19.66615 36.3655,29.29443 4.3393,3.41604 15.8461,1.55638 13.132,10.10152 -22.279,5.11569 -34.4151,0.57425 -51.5178,-1.01015 -14.2761,-1.32255 -29.6249,-0.61533 -42.4264,-7.07107 -12.9699,-6.54064 -24.6041,-17.4218 -31.3147,-30.30458 -3.9383,-7.56076 -3.3672,-27.09632 -4.0406,-25.25381 0,0 1.1767,-21.1871 4.0406,-31.31473 z"
         style="fill:#d35f5f;fill-opacity:1;stroke:#000000;stroke-width:7.08661413;stroke-linecap:butt;stroke-linejoin:miter;stroke-miterlimit:4;stroke-opacity:1;stroke-dasharray:none;display:inline" />
      <path
         sodipodi:nodetypes="cac"
         inkscape:connector-curvature="0"
         id="path5504"
         d="m 1029.3454,791.74283 c 23.2336,-3.03046 88.8041,-7.98252 133.3402,-9.09138 55.2138,-1.37472 165.665,3.03046 165.665,3.03046"
         style="fill:none;stroke:#000000;stroke-width:7.08661413;stroke-linecap:butt;stroke-linejoin:miter;stroke-miterlimit:4;stroke-opacity:1;stroke-dasharray:none;display:inline" />
      <path
         sodipodi:nodetypes="csc"
         inkscape:connector-curvature="0"
         id="path5506"
         d="m 1125.3099,691.73772 c 0,0 -57.9375,67.01387 -58.5888,96.97465 -0.7341,33.77135 47.4772,108.08632 47.4772,108.08632"
         style="fill:none;stroke:#000000;stroke-width:7.08661413;stroke-linecap:butt;stroke-linejoin:miter;stroke-miterlimit:4;stroke-opacity:1;stroke-dasharray:none;display:inline" />
      <path
         sodipodi:nodetypes="csc"
         inkscape:connector-curvature="0"
         id="path5506-2"
         d="m 1170.5602,707.18301 c 0,0 -50.8664,50.85143 -51.5177,80.81221 -0.7341,33.77135 49.4975,93.94418 49.4975,93.94418"
         style="fill:none;stroke:#000000;stroke-width:7.08661413;stroke-linecap:butt;stroke-linejoin:miter;stroke-miterlimit:4;stroke-opacity:1;stroke-dasharray:none;display:inline" />
      <path
         sodipodi:nodetypes="csc"
         inkscape:connector-curvature="0"
         id="path5506-4"
         d="m 1220.269,711.94078 c 0,0 -44.8055,41.76006 -45.4568,71.72084 -0.7341,33.77135 22.2234,81.82235 22.2234,81.82235"
         style="fill:none;stroke:#000000;stroke-width:7.08661413;stroke-linecap:butt;stroke-linejoin:miter;stroke-miterlimit:4;stroke-opacity:1;stroke-dasharray:none;display:inline" />
      <path
         sodipodi:nodetypes="csc"
         inkscape:connector-curvature="0"
         id="path5506-5"
         d="m 1263.5515,728.45945 c 0,0 -41.728,36.59197 -42.3212,63.49569 -0.6686,30.32548 27.6008,72.5665 27.6008,72.5665"
         style="fill:none;stroke:#000000;stroke-width:7.08661413;stroke-linecap:butt;stroke-linejoin:miter;stroke-miterlimit:4;stroke-opacity:1;stroke-dasharray:none;display:inline" />
      <path
         sodipodi:nodetypes="csc"
         inkscape:connector-curvature="0"
         id="path5506-29"
         d="m 1295.0203,741.66139 c 0,0 -26.7654,23.53299 -27.1572,43.946 -0.4416,23.00924 12.5426,53.79252 12.5426,53.79252"
         style="fill:none;stroke:#000000;stroke-width:7.08661413;stroke-linecap:butt;stroke-linejoin:miter;stroke-miterlimit:4;stroke-opacity:1;stroke-dasharray:none;display:inline" />
      <path
         inkscape:connector-curvature="0"
         id="path5494"
         d="m 1026.6054,693.35846 c 0,0 -52.79381,8.53928 -75.75,21.21875 -25.45762,14.0611 -49.60147,33.71086 -64.65625,58.59375 -9.72355,16.07131 -13.21366,35.76948 -14.125,54.53125 -0.62848,12.93852 0.37124,26.73842 6.0625,38.375 6.48904,13.26775 20.1511,20.57914 33.3125,27.28125 19.3529,9.85497 39.90903,4.79444 61.625,5.0625 20.30227,0.25061 56.56255,0 56.56255,0 l -3.0313,-205.0625 z"
         style="fill:#d35f5f;fill-opacity:1;stroke:#000000;stroke-width:7.08661413;stroke-linecap:butt;stroke-linejoin:miter;stroke-miterlimit:4;stroke-opacity:1;stroke-dasharray:none" />
      <g
         id="g5551"
         style="display:inline"
         transform="translate(-5.5558381,-14.041124)">
        <path
           style="fill:none;stroke:#000000;stroke-width:7.08661413;stroke-linecap:butt;stroke-linejoin:miter;stroke-miterlimit:4;stroke-opacity:1;stroke-dasharray:none;display:inline"
           d="m 934.39111,759.41794 46.46701,34.34519"
           id="path5498"
           inkscape:connector-curvature="0" />
        <path
           style="fill:none;stroke:#000000;stroke-width:7.08661413;stroke-linecap:butt;stroke-linejoin:miter;stroke-miterlimit:4;stroke-opacity:1;stroke-dasharray:none;display:inline"
           d="m 920.24897,904.87991 c 0,0 22.38397,-42.38012 38.3858,-56.56854 9.57713,-8.4918 34.34518,-17.1726 34.34518,-17.1726"
           id="path5500"
           inkscape:connector-curvature="0"
           sodipodi:nodetypes="csc" />
        <path
           style="fill:none;stroke:#000000;stroke-width:7.08661413;stroke-linecap:butt;stroke-linejoin:miter;stroke-miterlimit:4;stroke-opacity:1;stroke-dasharray:none"
           d="m 931.36065,818.00679 c 19.57348,-36.87057 13.25708,-28.89001 24.74874,-41.28998 10.95813,-11.82427 35.86041,-32.45115 35.86041,-32.45115"
           id="path5496"
           inkscape:connector-curvature="0"
           sodipodi:nodetypes="csc" />
      </g>
    </g>
    <path
       style="fill:#ff7f2a;fill-opacity:1;stroke:#000000;stroke-width:4.3431654;stroke-linecap:butt;stroke-linejoin:miter;stroke-miterlimit:4;stroke-opacity:1;stroke-dasharray:none;display:inline"
       d="m 265.66444,517.25951 c 0,0 14.05436,85.23745 14.72102,123.59158 0.96681,55.62148 -77.95015,24.59987 -99.97198,55.76075 -5.04226,7.1348 -7.86929,18.9062 -4.39355,25.8392 25.57549,33.45325 32.07712,3.94131 35.30081,-5.71084 9.09121,-26.61732 106.91293,-19.93885 105.33387,-65.06415 -1.34191,-38.34841 -6.63973,-118.00968 -18.59801,-122.5161"
       id="path5661-3"
       inkscape:connector-curvature="0"
       sodipodi:nodetypes="csaccsc" />
  </g>
</svg>
