<?xml version="1.0" encoding="utf-8"?>
<!-- Generator: Adobe Illustrator 15.0.0, SVG Export Plug-In . SVG Version: 6.00 Build 0)  -->
<!DOCTYPE svg PUBLIC "-//W3C//DTD SVG 1.1//EN" "http://www.w3.org/Graphics/SVG/1.1/DTD/svg11.dtd">
<svg version="1.1"
	 id="svg2" inkscape:version="0.48.4 r9939" sodipodi:docname="cat_my.svg" xmlns:dc="http://purl.org/dc/elements/1.1/" xmlns:svg="http://www.w3.org/2000/svg" xmlns:inkscape="http://www.inkscape.org/namespaces/inkscape" xmlns:rdf="http://www.w3.org/1999/02/22-rdf-syntax-ns#" xmlns:cc="http://creativecommons.org/ns#" xmlns:sodipodi="http://sodipodi.sourceforge.net/DTD/sodipodi-0.dtd"
	 xmlns="http://www.w3.org/2000/svg" xmlns:xlink="http://www.w3.org/1999/xlink" x="0px" y="0px" width="744.094px"
	 height="1052.363px" viewBox="0 0 744.094 1052.363" enable-background="new 0 0 744.094 1052.363" xml:space="preserve">
<sodipodi:namedview  inkscape:window-x="75" inkscape:window-height="658" inkscape:window-width="1267" inkscape:document-units="px" inkscape:pageshadow="2" inkscape:pageopacity="0.0" inkscape:window-y="12" id="base" inkscape:current-layer="layer1" inkscape:window-maximized="0" showgrid="false" pagecolor="#ffffff" inkscape:cy="904.88761" bordercolor="#666666" inkscape:zoom="1" borderopacity="1.0" inkscape:cx="344.40767">
	</sodipodi:namedview>
<g>
	
		<path id="path3849" sodipodi:nodetypes="ccsscccssssssszzzssssssccsssssccsccccsssssssssssssscssssssccccsccsssssssscsssssssssssc" inkscape:connector-curvature="0" fill="#F79320" d="
		M671.547,756.245c4.69,21.117,10.761,21.802,11.087,43.147c1.94,20.185-16.495,16.633-26.678,8.472
		c-5.689-4.559-11.41-26.066-16.803-36.065c-9.177-17.011-29.088-83.376-38.354-92.75c-0.244,10.279,5.633,46.872,1.539,78.523
		c-0.892,15.936-1.058,30.77-3.728,47.517c1.063,14.405-6.966,19.852-12.668,26.706c-3.941,4.742-21.458,5.064-27.157-10.541
		c-6.234-17.07,0-35.28,0.764-57.152c0.408-11.694,16.271-80.178,1.842-76.296c-40.063,10.795-141.305,41.396-229.362,34.647
		c-30.117-2.307-51.829-4.237-73.492-14.351c-8.288-3.869-12.538-2.091-22.718,14.503c-12.529,20.41-13.419,42.154-14.39,54.799
		c-0.972,12.646,8.117,23.297-2.684,34.967c-10.803,11.677-24.752,15.955-31.916,11.383c-7.167-4.567-11.987-16.313-11.998-25.364
		c-0.012-8.285-1.164-43.073,2.068-51.216c3.288-8.281,3.223-30.358,16.546-58.751c4.946-10.536,19.152-29.267,20.43-30.636
		c1.771-1.902,1.364-20.53-4.9-20.847c-8.652-0.436-33.699,0.253-47.268,10.647l-21.376,16.379
		c-24.304,13.735-27.264,10.68-39.963-0.702c-4.393-14.451-3.906-34.923,27.055-43.097c25.84-6.818,36.487-10.195,65.315-19.523
		c15.27-4.941,13.14-15.825,15.139-16.873c2.546-1.328,7.345-21.433,7.777-28.625c0.977-16.271-1.02-19.988-11.889-22.15
		l-9.464-1.879c0.699,0.813-11.8-4.035-9.833-3.156l-14.625-3.517c-8.043-1.937-15.377-4.646-16.296-6.022
		c-3.269-1.705-12.558-5.098-12.558-5.098c-3.403-0.675-16.844-10.47-17.769-12.946c-0.397,1.149-6.277-3.392-11.471-6.679
		l-9.137-9.385c-18.788-19.299-26.807-48.654-21.887-80.112c2.294-14.669,10.228-34.14,17.894-43.924
		c3.749-4.783,4.711-9.059,5.496-24.445c0.523-10.258,3.28-28.465,6.127-40.466c4.587-19.335,5.946-22.367,11.953-26.653
		c3.727-2.663,8.988-4.4,11.691-3.863c6.944,1.379,21.214,15.891,31.895,32.43c5.006,7.755,10.392,14.353,11.97,14.668
		c1.579,0.312,7.209-1.267,12.517-3.511c5.305-2.243,12.753-3.462,16.551-2.706c3.798,0.755,11.127-0.219,16.285-2.161
		c6.52-2.456,15.12-2.945,28.188-1.605c10.344,1.059,25.163,2.385,32.93,2.945l14.122,1.02l12.935-15.418
		c23.214-27.677,38.22-34.397,47.756-21.384c6.064,8.276,11.886,32.113,13.577,55.578c0.897,12.427,2.666,19.151,5.841,22.196
		c9.263,8.877,23.204,32.681,26.183,44.709c8.527,34.423-3.91,77.23-29.28,100.754l-8.639,8.009
		c-2.545,0.487-9.861,4.818-10.981,6.26c-0.699,3.501-14.158,10.573-18.485,9.714c-1.001,1.306-1.875,1.627-10.905,5.395
		c-0.206,1.034-5.982,3.446-12.833,5.364c-6.855,1.919-13.141,4.676-13.969,6.127c-0.951,3.111-2.407,8.164-0.941,6.813
		c1.387-1.491,3.506-1.795,4.705-0.675c1.204,1.12,10.242,1.062,20.085-0.13c9.843-1.189,23.65-1.242,30.68-0.116
		c9.246,1.481,17.365,0.749,29.312-2.647c18.386-5.227,37.413-6.222,46.62-2.438c4.349,1.787,9.577,1.146,18.441-2.261
		c15.798-6.067,21.467-6.593,38.528-3.577c12.002,2.123,15.825,1.627,27.974-3.632c7.739-3.35,16.308-5.732,19.043-5.298
		c21.025,3.356,24.196,1.551,45.05-25.631c17.615-22.972,31.999-51.538,38.418-76.318c6.786-26.187,6.037-38.083-3.254-51.617
		c-9.632-14.036-12.135-24.375-9.333-38.5c1.991-9.999,3.607-12.666,10.441-17.233c22.326-14.925,55.911,12.537,62.298,50.944
		c1.982,11.887,1.42,17.178-4.337,41.113c-8.019,33.313-15.908,49.794-46.294,96.67c-24.037,37.086-30.71,43.881-24.976,66.763
		c6.544,26.1,8.847,29.797,13.345,40.775c2.643,6.455,5.964,22.962,16.522,53.721c7.5,21.845,10.648,20.355,23.092,47.543"/>
	<path id="path3847" inkscape:connector-curvature="0" fill="#262D28" d="M334.642,629.533
		c-7.182-20.701-17.866-71.716-16.481-78.688c1.01-5.071,3.138-7.237,8.675-8.836c7.518-2.171,28.063,0.997,29.38,4.53
		c0.888,2.373-1.843,46.845-4.314,70.271C348.906,645.202,341.875,650.383,334.642,629.533L334.642,629.533z"/>
	<path id="path3845" inkscape:connector-curvature="0" fill="#262D28" d="M397.369,635.788
		c-7.297-21.653-19.718-84.555-17.782-90.071c1.204-3.432,5.639-6.061,14.065-8.34c12.832-3.469,34.09-2.739,35.569,1.223
		c1.888,5.049-11.368,94.37-15.22,102.572C408.106,653.729,402.846,652.025,397.369,635.788z"/>
	<path id="path3843" inkscape:connector-curvature="0" fill="#262D28" d="M465.939,622.686
		c-7.471-15.255-22.869-72.737-21.431-79.991c1.736-8.736,15.472-14.251,31.481-12.639c13.232,1.332,12.658-0.875,9.381,36.122
		c-3.068,34.673-8.647,64.746-12.097,65.233C471.697,631.637,468.398,627.708,465.939,622.686L465.939,622.686z"/>
	<path id="path3841" inkscape:connector-curvature="0" fill="#262D28" d="M527.026,613.111
		c-7.223-12.489-21.072-65.772-19.351-74.443c2.479-12.455,29.202-21.315,38.295-12.7c3.783,3.582,3.033,28.309-2.003,66.275
		c-2.861,21.561-4.075,26.098-7.49,27.948C533.064,622.038,531.52,620.88,527.026,613.111L527.026,613.111z"/>
	<path id="path3839" inkscape:connector-curvature="0" fill="#625145" d="M228.263,550.591c-5.103-2.473-9.369-7.17-8.855-9.758
		c0.198-0.994,5.687-1.49,12.2-1.102c6.512,0.388,21.31,0.018,32.882-0.818c11.572-0.838,21.823-0.797,22.782,0.094
		C298.159,549.146,246.307,559.324,228.263,550.591L228.263,550.591z"/>
	
		<radialGradient id="path3837_1_" cx="138.6284" cy="459.4155" r="13.5527" gradientTransform="matrix(1 0 0 -1.3823 -28.5 1063.151)" gradientUnits="userSpaceOnUse">
		<stop  offset="0" style="stop-color:#6ED798"/>
		<stop  offset="1" style="stop-color:#217844"/>
	</radialGradient>
	<path id="path3837" inkscape:connector-curvature="0" fill="url(#path3837_1_)" d="M101.589,442.528
		c-7.747-8.739-6.224-27.271,2.558-31.138c12.961-5.707,20.452,0.754,19.443,16.776
		C122.573,444.341,110.296,452.355,101.589,442.528L101.589,442.528z"/>
	<path id="path3835" inkscape:connector-curvature="0" opacity="0.99" fill="#262D28" enable-background="new    " d="
		M235.091,453.908c-0.883-5.123,2.678-7.269,12.073-7.28c6.036-0.007,7.846,0.93,8.439,4.376c0.491,2.854-0.96,5.186-4.145,6.665
		C244.844,460.746,235.914,458.691,235.091,453.908L235.091,453.908z"/>
	
		<radialGradient id="path3833_1_" cx="406.8208" cy="463.7925" r="13.6704" gradientTransform="matrix(1 0 0 -1.3254 -28.5 1043.7454)" gradientUnits="userSpaceOnUse">
		<stop  offset="0" style="stop-color:#6ED798"/>
		<stop  offset="1" style="stop-color:#217844"/>
	</radialGradient>
	<path id="path3833" inkscape:connector-curvature="0" fill="url(#path3833_1_)" d="M366.177,441.665
		c-3.341-6.171-0.785-26.077,3.644-28.342c11.797-6.038,21.506-0.23,22.158,13.254c0.322,6.695-5.717,17.978-10.646,19.892
		C376.196,448.463,368.55,446.037,366.177,441.665L366.177,441.665z"/>
	<path id="path3831" inkscape:connector-curvature="0" fill="#262D28" d="M193.251,357.604
		c-6.253-13.495-12.241-33.91-11.315-38.574c1.493-7.511,26.565-14.157,30.607-8.11c2.831,4.233-2.42,49.968-6.274,54.662
		C201.35,371.571,199.077,370.178,193.251,357.604L193.251,357.604z"/>
	<path id="path3829" inkscape:connector-curvature="0" fill="#625145" d="M111.456,342.066
		c-3.247-11.247,3.748-43.283,11.946-54.713c10.108-14.088,16.985-10.235,40.527,22.706c11.542,16.149,11.445,22.456-0.463,30.417
		c-8.355,5.584-15.226,5.695-21.732,0.352c-3.069-2.521-5.045-1.82-10.798,3.834C121.965,353.48,114.462,352.48,111.456,342.066
		L111.456,342.066z"/>
	<path id="path3827" inkscape:connector-curvature="0" fill="#CFA9A9" d="M130.178,339.672c6.29-7.039,11.648-8.35,13.533-3.309
		c1.773,4.754,11.349,4.729,18.033-0.047c9.243-6.606,7.557-13.082-8.859-34.044c-20.455-26.118-25.629-24.607-33.945,9.923
		c-5.554,23.055-5.155,32.615,1.411,33.919C122.251,346.492,126.674,343.594,130.178,339.672L130.178,339.672z"/>
	<path id="path3825" inkscape:connector-curvature="0" fill="#262D28" d="M229.195,352.099
		c-7.554-19.308-11.004-36.594-8.287-41.527c3.202-5.813,16.074-8.833,25.778-6.049c8.091,2.325,8.321,2.734,7.997,14.32
		c-0.181,6.56-2.731,20.354-5.665,30.656c-4.678,16.436-5.875,18.621-9.77,17.847C236.394,366.779,232.814,361.352,229.195,352.099
		L229.195,352.099z"/>
	<path id="path3823" inkscape:connector-curvature="0" fill="#262D28" d="M265.484,346.027c-1.486-6.975-2.309-17.698-1.829-23.832
		c1.032-13.138,4.554-16.037,18.415-15.166c12.826,0.808,13.983,4.342,7.675,23.423
		C278.849,363.396,270.353,368.852,265.484,346.027z"/>
	<path id="path3821" inkscape:connector-curvature="0" fill="#625145" d="M343.754,341.239c-6.154-7.2-6.263-7.237-9.663-3.092
		c-6.777,8.248-29.215-2.3-29.794-14.008c-0.437-8.724,28.806-43.175,39.375-46.39c9.962-3.028,20.127,18.743,22.729,48.693
		C368.484,350.413,357.644,357.493,343.754,341.239L343.754,341.239z"/>
	<path id="path3819" inkscape:connector-curvature="0" fill="#CFA9A9" d="M332.07,333.714l5.802-5.348l8.121,8.396
		c10.945,11.32,16.196,10.425,16.697-2.844c0.681-18.152-8.767-51.721-14.905-52.941c-7.059-1.403-40.399,35.678-39.062,43.448
		c0.624,3.648,11.106,12.963,16.026,14.245c0.838,0.218,4.132-2.013,7.322-4.954V333.714z"/>
	<path id="path3817" inkscape:connector-curvature="0" fill="#DEADAD" d="M119.57,636.507c-15.334-4.973-24.597,23.865-7.826,26.927
		c9.395,2.752,27.686,3.602,27.988-9.953C138.02,643.951,128.568,637.926,119.57,636.507L119.57,636.507z"/>
	<path id="path3887" sodipodi:nodetypes="cccccccc" inkscape:connector-curvature="0" fill="#B8B3AC" d="M286.656,459.818
		c0.771,6.213,12.136,11.335,17.709,12.7c11.948,4.922,26.048,10.895,35.447,19.986c13.821,9.967,14.404,7.338,27.035,18.803
		c0.513,4.698,19.116,16.115,20.031,12.141c-0.178-3.941-20.19-19.732-23.021-21.944c-13.951-15.191-19.521-14.201-33.122-25.597
		C319.079,467.442,301.195,461.855,286.656,459.818L286.656,459.818z"/>
	<path id="path3887-1" sodipodi:nodetypes="cccccc" inkscape:connector-curvature="0" fill="#B8B3AC" d="M284.418,474.537
		c-0.896,6.195,8.718,14.135,13.731,16.921c10.224,7.897,22.253,17.379,28.921,28.626c8.238,7.917,16.21,17.821,19.501,13.852
		c-8.68-23.54-13.84-18.049-23.88-32.255C313.68,490.445,297.905,480.338,284.418,474.537z"/>
	<path id="path3887-7" sodipodi:nodetypes="cccccc" inkscape:connector-curvature="0" fill="#B8B3AC" d="M264.608,481.657
		c-2.542,5.719,4.55,15.973,8.619,20.017c7.694,10.38,16.692,22.773,20.056,35.409c6.916,12.005,7.637,16.73,12.83,12.22
		c-1.177-21.408-7.278-17.66-12.044-31.121C288.45,504.917,276.012,490.904,264.608,481.657z"/>
	<path id="path3887-0" sodipodi:nodetypes="cccccccc" inkscape:connector-curvature="0" fill="#B8B3AC" d="M199.666,454.841
		c-1.121,6.157-12.761,10.626-18.401,11.674c-12.206,4.233-26.623,9.399-36.523,17.941c-14.365,9.167-14.801,6.508-28.061,17.238
		c-0.775,4.662-19.997,15.001-20.688,10.984c0.403-3.924,21.277-18.552,24.23-20.602c14.793-14.375,20.296-13.071,34.524-23.675
		C166.864,460.612,185.035,456.049,199.666,454.841L199.666,454.841z"/>
	<path id="path3887-1-9" sodipodi:nodetypes="cccccc" inkscape:connector-curvature="0" fill="#B8B3AC" d="M201.064,469.665
		c0.543,6.233-9.504,13.615-14.669,16.115c-10.656,7.304-23.202,16.086-30.5,26.938c-8.676,7.435-17.195,16.871-20.252,12.722
		c10.001-23.009,14.837-17.234,25.67-30.847C170.947,483.884,187.271,474.689,201.064,469.665z"/>
	<path id="path3887-7-4" sodipodi:nodetypes="cccccc" inkscape:connector-curvature="0" fill="#B8B3AC" d="M220.437,477.896
		c2.217,5.854-5.447,15.688-9.739,19.496c-8.271,9.925-17.959,21.786-22.032,34.211c-7.588,11.593-8.574,16.271-13.503,11.471
		c2.387-21.304,8.271-17.217,13.792-30.384C195.316,499.766,208.529,486.482,220.437,477.896z"/>
	<path id="path3837-9" sodipodi:nodetypes="ccc" inkscape:connector-curvature="0" fill="#280B0B" d="M111.284,415.91
		c-6.912,7.27-4.893,19.363-0.082,23.944C116.182,434.591,115.849,421.585,111.284,415.91z"/>
	<path id="path3833-2" sodipodi:nodetypes="ccc" inkscape:connector-curvature="0" fill="#280B0B" d="M377.633,416.695
		c-5.082,4.926-5.95,16.627-0.33,24.005C382.651,434.058,383.212,422.4,377.633,416.695z"/>
</g>
</svg>
