<?xml version="1.0" encoding="UTF-8" standalone="no"?>
<!-- Created with Inkscape (http://www.inkscape.org/) -->

<svg
   xmlns:dc="http://purl.org/dc/elements/1.1/"
   xmlns:cc="http://creativecommons.org/ns#"
   xmlns:rdf="http://www.w3.org/1999/02/22-rdf-syntax-ns#"
   xmlns:svg="http://www.w3.org/2000/svg"
   xmlns="http://www.w3.org/2000/svg"
   xmlns:sodipodi="http://sodipodi.sourceforge.net/DTD/sodipodi-0.dtd"
   xmlns:inkscape="http://www.inkscape.org/namespaces/inkscape"
   width="822.52466"
   height="684.80377"
   id="svg2"
   version="1.1"
   inkscape:version="0.48.1 "
   sodipodi:docname="Cartoon_Cows_3.svg">
  <defs
     id="defs4">
    <inkscape:path-effect
       effect="spiro"
       id="path-effect4075"
       is_visible="true" />
    <inkscape:path-effect
       effect="spiro"
       id="path-effect4051"
       is_visible="true" />
    <inkscape:path-effect
       effect="spiro"
       id="path-effect4047"
       is_visible="true" />
    <inkscape:path-effect
       effect="spiro"
       id="path-effect4043"
       is_visible="true" />
    <inkscape:path-effect
       effect="spiro"
       id="path-effect4035"
       is_visible="true" />
    <inkscape:path-effect
       effect="spiro"
       id="path-effect4031"
       is_visible="true" />
    <inkscape:path-effect
       effect="spiro"
       id="path-effect4027"
       is_visible="true" />
    <inkscape:path-effect
       effect="spiro"
       id="path-effect4020"
       is_visible="true" />
    <inkscape:path-effect
       effect="spiro"
       id="path-effect3210"
       is_visible="true" />
    <inkscape:path-effect
       effect="spiro"
       id="path-effect3198"
       is_visible="true" />
    <inkscape:path-effect
       effect="spiro"
       id="path-effect3196"
       is_visible="true" />
    <inkscape:path-effect
       is_visible="true"
       id="path-effect3194"
       effect="spiro" />
    <inkscape:path-effect
       is_visible="true"
       id="path-effect3192"
       effect="spiro" />
    <inkscape:path-effect
       effect="spiro"
       id="path-effect4049"
       is_visible="true" />
    <inkscape:path-effect
       effect="spiro"
       id="path-effect4045"
       is_visible="true" />
    <inkscape:path-effect
       effect="spiro"
       id="path-effect4041"
       is_visible="true" />
    <inkscape:path-effect
       effect="spiro"
       id="path-effect4037"
       is_visible="true" />
    <inkscape:path-effect
       effect="spiro"
       id="path-effect4033"
       is_visible="true" />
    <inkscape:path-effect
       effect="spiro"
       id="path-effect4029"
       is_visible="true" />
    <inkscape:path-effect
       effect="spiro"
       id="path-effect4025"
       is_visible="true" />
    <inkscape:path-effect
       effect="spiro"
       id="path-effect4021"
       is_visible="true" />
    <inkscape:path-effect
       effect="spiro"
       id="path-effect3144"
       is_visible="true" />
    <inkscape:path-effect
       effect="spiro"
       id="path-effect3140"
       is_visible="true" />
    <inkscape:path-effect
       effect="spiro"
       id="path-effect3136"
       is_visible="true" />
    <inkscape:path-effect
       effect="spiro"
       id="path-effect3132"
       is_visible="true" />
    <inkscape:path-effect
       effect="spiro"
       id="path-effect3128"
       is_visible="true" />
    <inkscape:path-effect
       effect="spiro"
       id="path-effect3124"
       is_visible="true" />
    <inkscape:path-effect
       effect="spiro"
       id="path-effect3969"
       is_visible="true" />
    <inkscape:path-effect
       effect="spiro"
       id="path-effect3932"
       is_visible="true" />
    <inkscape:path-effect
       is_visible="true"
       id="path-effect3928"
       effect="spiro" />
    <inkscape:path-effect
       effect="spiro"
       id="path-effect3924"
       is_visible="true" />
    <inkscape:path-effect
       is_visible="true"
       id="path-effect3151"
       effect="spiro" />
    <inkscape:path-effect
       effect="spiro"
       id="path-effect4212"
       is_visible="true" />
    <inkscape:path-effect
       effect="spiro"
       id="path-effect4208"
       is_visible="true" />
    <inkscape:path-effect
       effect="spiro"
       id="path-effect4200"
       is_visible="true" />
    <inkscape:path-effect
       effect="spiro"
       id="path-effect4196"
       is_visible="true" />
    <inkscape:path-effect
       effect="spiro"
       id="path-effect4184"
       is_visible="true" />
    <inkscape:path-effect
       effect="spiro"
       id="path-effect4180"
       is_visible="true" />
    <inkscape:path-effect
       effect="spiro"
       id="path-effect4018"
       is_visible="true" />
    <inkscape:path-effect
       effect="spiro"
       id="path-effect3054"
       is_visible="true" />
    <inkscape:path-effect
       effect="spiro"
       id="path-effect3050"
       is_visible="true" />
    <inkscape:path-effect
       effect="spiro"
       id="path-effect3042"
       is_visible="true" />
    <inkscape:path-effect
       effect="spiro"
       id="path-effect3038"
       is_visible="true" />
    <inkscape:path-effect
       effect="spiro"
       id="path-effect3978"
       is_visible="true" />
    <inkscape:path-effect
       effect="spiro"
       id="path-effect3974"
       is_visible="true" />
    <inkscape:path-effect
       effect="spiro"
       id="path-effect3970"
       is_visible="true" />
    <inkscape:path-effect
       effect="spiro"
       id="path-effect3962"
       is_visible="true" />
    <inkscape:path-effect
       effect="spiro"
       id="path-effect3958"
       is_visible="true" />
    <inkscape:path-effect
       effect="spiro"
       id="path-effect3954"
       is_visible="true" />
    <inkscape:path-effect
       effect="spiro"
       id="path-effect3950"
       is_visible="true" />
    <inkscape:path-effect
       effect="spiro"
       id="path-effect3946"
       is_visible="true" />
    <inkscape:path-effect
       effect="spiro"
       id="path-effect3978-2"
       is_visible="true" />
    <inkscape:path-effect
       effect="spiro"
       id="path-effect3974-8"
       is_visible="true" />
    <inkscape:path-effect
       effect="spiro"
       id="path-effect3970-2"
       is_visible="true" />
    <inkscape:path-effect
       effect="spiro"
       id="path-effect3962-0"
       is_visible="true" />
    <inkscape:path-effect
       effect="spiro"
       id="path-effect3958-6"
       is_visible="true" />
    <inkscape:path-effect
       effect="spiro"
       id="path-effect3954-5"
       is_visible="true" />
    <inkscape:path-effect
       effect="spiro"
       id="path-effect3950-6"
       is_visible="true" />
    <inkscape:path-effect
       effect="spiro"
       id="path-effect3946-8"
       is_visible="true" />
    <inkscape:path-effect
       effect="spiro"
       id="path-effect4049-2"
       is_visible="true" />
    <inkscape:path-effect
       effect="spiro"
       id="path-effect4045-0"
       is_visible="true" />
    <inkscape:path-effect
       effect="spiro"
       id="path-effect4037-9"
       is_visible="true" />
    <inkscape:path-effect
       effect="spiro"
       id="path-effect4025-7"
       is_visible="true" />
    <inkscape:path-effect
       effect="spiro"
       id="path-effect4021-7"
       is_visible="true" />
    <inkscape:path-effect
       effect="spiro"
       id="path-effect4041-5"
       is_visible="true" />
    <inkscape:path-effect
       effect="spiro"
       id="path-effect4033-9"
       is_visible="true" />
  </defs>
  <sodipodi:namedview
     id="base"
     pagecolor="#ffffff"
     bordercolor="#666666"
     borderopacity="1.0"
     inkscape:pageopacity="0.0"
     inkscape:pageshadow="2"
     inkscape:zoom="0.7893227"
     inkscape:cx="431.31756"
     inkscape:cy="444.57629"
     inkscape:document-units="px"
     inkscape:current-layer="layer2"
     showgrid="false"
     inkscape:window-width="1161"
     inkscape:window-height="905"
     inkscape:window-x="155"
     inkscape:window-y="36"
     inkscape:window-maximized="0"
     fit-margin-top="10"
     fit-margin-right="10"
     fit-margin-bottom="10"
     fit-margin-left="10" />
  <metadata
     id="metadata7">
    <rdf:RDF>
      <cc:Work
         rdf:about="">
        <dc:format>image/svg+xml</dc:format>
        <dc:type
           rdf:resource="http://purl.org/dc/dcmitype/StillImage" />
        <dc:title></dc:title>
      </cc:Work>
    </rdf:RDF>
  </metadata>
  <g
     inkscape:groupmode="layer"
     id="layer2"
     inkscape:label="Ebene"
     style="display:inline"
     transform="translate(-193.35508,-9.430823)">
    <g
       id="g4277"
       transform="matrix(1.89,0,0,1.89,-833.7049,-660.13829)">
      <path
         inkscape:transform-center-x="-17.818343"
         style="fill:#000000;stroke:#000000;stroke-width:1px;stroke-linecap:butt;stroke-linejoin:miter;stroke-opacity:1"
         d="m 765.0816,675.19129 c -0.005,-3.08496 14.54365,-6.89873 22.38967,-8.10715 7.84603,-1.20843 15.6694,1.27577 16.4719,5.72823 1.25178,6.94511 -8.09467,8.72512 -13.56695,9.66019 -8.64857,1.47782 -25.28948,-4.19631 -25.29462,-7.28127 z"
         id="path3934"
         inkscape:connector-curvature="0"
         sodipodi:nodetypes="zzsaz" />
      <path
         inkscape:connector-curvature="0"
         inkscape:original-d="m 770.71659,601.66298 c -4.14846,16.89733 -3.9594,33.03089 -4.04061,40.91117 -0.0812,7.88027 1.66926,33.26312 -0.50507,31.81981"
         inkscape:path-effect="#path-effect3924"
         id="path3922"
         d="m 770.71659,601.66298 c -1.98066,13.56451 -3.32948,27.22127 -4.04061,40.91117 -0.55041,10.59595 -0.71892,21.21173 -0.50507,31.81981"
         style="fill:#e9c6af;stroke:#e9c6af;stroke-width:5;stroke-linecap:round;stroke-linejoin:round;stroke-miterlimit:4;stroke-opacity:1;stroke-dasharray:none;marker-end:none"
         sodipodi:nodetypes="czc" />
      <path
         sodipodi:nodetypes="zzsaz"
         inkscape:connector-curvature="0"
         id="path3936"
         d="m 655.48005,667.61514 c -0.005,-3.08496 14.54365,-6.89873 22.38967,-8.10715 7.84603,-1.20843 15.6694,1.27577 16.4719,5.72823 1.25178,6.94511 -8.09467,8.72512 -13.56695,9.66019 -8.64857,1.47782 -25.28948,-4.19631 -25.29462,-7.28127 z"
         style="fill:#000000;stroke:#000000;stroke-width:1px;stroke-linecap:butt;stroke-linejoin:miter;stroke-opacity:1"
         inkscape:transform-center-x="-17.818343" />
      <path
         inkscape:connector-curvature="0"
         inkscape:original-d="m 660.60996,598.63251 c 1.40738,6.29073 -3.03046,13.47588 -3.03046,19.69796 0,12.88558 1.58713,20.27663 -0.50507,32.82996 -0.33569,2.01414 1.63191,17.28928 0.50508,16.16245"
         inkscape:path-effect="#path-effect3932"
         id="path3930"
         d="m 660.60996,598.63251 c -1.4279,6.49259 -2.4408,13.07641 -3.03046,19.69796 -0.97136,10.90777 -0.7933,21.88282 -0.50507,32.82996 0.14187,5.38827 0.31023,10.77584 0.50508,16.16245"
         style="fill:#e9c6af;stroke:#e9c6af;stroke-width:5;stroke-linecap:round;stroke-linejoin:round;stroke-miterlimit:4;stroke-opacity:1;stroke-dasharray:none;marker-end:none"
         sodipodi:nodetypes="cssc" />
      <g
         transform="translate(213.82582,185.00166)"
         id="g3940">
        <path
           sodipodi:nodetypes="czcc"
           inkscape:connector-curvature="0"
           id="path3945"
           d="m 453.59681,417.39543 c 0,0 1.12476,14.57367 19.97462,15.63813 18.84986,1.06446 25.06574,-6.6229 25.47969,-14.1229 z"
           style="fill:#f4d7d7;stroke:#000000;stroke-width:1px;stroke-linecap:butt;stroke-linejoin:miter;stroke-opacity:1" />
        <path
           sodipodi:nodetypes="zszsz"
           inkscape:connector-curvature="0"
           id="path3942"
           d="m 470.65472,430.01956 c -3.69391,-0.38864 -3.16086,1.3013 -3.47714,3.13699 -1.18829,6.89666 -3.46196,14.26381 0.83082,15.24037 4.29278,0.97655 4.3056,-7.57219 5.15121,-14.46047 0.21781,-1.77414 1.18902,-3.52824 -2.50489,-3.91689 z"
           style="fill:#ffe6d5;stroke:#000000;stroke-width:1px;stroke-linecap:butt;stroke-linejoin:miter;stroke-opacity:1" />
        <path
           sodipodi:nodetypes="cszszc"
           inkscape:connector-curvature="0"
           id="path3947"
           d="m 461.55484,426.82535 c -3.31559,-1.67418 -4.11941,1.08511 -5.06653,2.68909 -3.55832,6.02615 -5.70293,10.66967 -2.81381,11.94262 2.88912,1.27296 4.7447,-1.85621 7.97969,-7.9961 0.8332,-1.58139 3.21624,-4.96143 -0.0994,-6.63561 z"
           style="fill:#ffe6d5;stroke:#000000;stroke-width:1px;stroke-linecap:butt;stroke-linejoin:miter;stroke-opacity:1" />
        <path
           style="fill:#ffe6d5;stroke:#000000;stroke-width:1px;stroke-linecap:butt;stroke-linejoin:miter;stroke-opacity:1"
           d="m 480.73833,430.52688 c -3.58319,0.97814 -1.68701,3.52451 -1.49813,5.37764 0.6808,6.67926 0.73498,12.11747 4.41208,11.78657 3.6771,-0.3309 2.51961,-5.43686 1.52253,-12.16254 -0.26213,-1.76813 -0.85329,-5.97981 -4.43648,-5.00167 z"
           id="path3949"
           inkscape:connector-curvature="0"
           sodipodi:nodetypes="zszsz" />
        <path
           sodipodi:nodetypes="cszszc"
           inkscape:connector-curvature="0"
           id="path3951"
           d="m 490.15368,426.92879 c -3.0572,2.10939 -0.98393,3.92066 -0.0292,5.5201 3.58707,6.00907 5.2881,9.45383 7.93393,8.45978 2.64584,-0.99404 1.77932,-4.94964 -2.06244,-10.7293 -0.98947,-1.4886 -2.78512,-5.35997 -5.84233,-3.25058 z"
           style="fill:#ffe6d5;stroke:#000000;stroke-width:1px;stroke-linecap:butt;stroke-linejoin:miter;stroke-opacity:1" />
      </g>
      <g
         id="g3091">
        <path
           style="fill:#ffffff;stroke:#000000;stroke-width:1px;stroke-linecap:butt;stroke-linejoin:miter;stroke-opacity:1"
           d="m 659.2857,495.52306 c -17.255,6.4587 -28.21027,87.58926 -19.28571,97.14286 19.01312,20.35322 108.89992,4.89051 189.28571,13.57142 17.62672,1.90352 11.20764,-112.04737 -21.42857,-107.14286 -63.56872,9.55301 -112.18375,-17.19166 -148.57143,-3.57142 z"
           id="path3065"
           inkscape:connector-curvature="0"
           sodipodi:nodetypes="sssss" />
        <path
           style="fill:#000000;stroke:#000000;stroke-width:1px;stroke-linecap:butt;stroke-linejoin:miter;stroke-opacity:1"
           d="m 674.62946,492.49107 c 0,0 -3.47396,10.02932 -3.41071,23.63393 5.12432,0.40477 11.22465,0.60296 18.375,0.4375 1.29427,-13.92106 5.75,-24.25 5.75,-24.25 z m 14.96429,24.07143 c -0.44189,4.75294 -0.50788,9.92489 0.0937,15.25 4.68291,-0.0671 9.63992,-0.21587 14.78125,-0.5 -1.11407,-5.71896 -0.77718,-10.9548 0.3125,-15.5625 -5.51151,0.45192 -10.58869,0.70608 -15.1875,0.8125 z m 15.1875,-0.8125 c 3.80804,-0.31224 7.82643,-0.73819 12.09375,-1.25 1.28327,-12.97183 9.36607,-17.5625 9.36607,-17.5625 l -10,-1.76339 c 0,0 -8.52293,8.1573 -11.45982,20.57589 z M 716.875,514.5 c -0.42366,4.28252 -0.10294,9.50389 1.4375,15.75 5.64288,-0.53671 11.4636,-1.2095 17.40625,-2.09375 -1.34744,-6.46432 -1.4989,-11.86829 -1.0625,-16.21875 -6.33393,1.05202 -12.25474,1.89967 -17.78125,2.5625 z m 17.78125,-2.5625 c 2.66877,-0.44326 5.37011,-0.88614 8.1875,-1.40625 6.91441,-1.27646 13.35088,-2.11781 19.34375,-2.59375 2.08593,-4.23835 3.875,-6.6875 3.875,-6.6875 l -27.125,-2.875 c 0,0 -3.37332,4.51131 -4.28125,13.5625 z m 27.53125,-4 c -2.02291,4.1103 -4.31213,9.89377 -5.5625,16.875 8.37948,-0.96602 16.19297,-1.06255 23.40625,-0.5625 0.22905,-6.69714 0.32812,-12.56924 0.34375,-16.6875 -5.53228,-0.23498 -11.58169,-0.14962 -18.1875,0.375 z m 18.1875,-0.375 c 6.04684,0.25684 11.48766,0.89627 16.3125,1.78125 -0.38687,-5.20374 -0.96875,-8.46875 -0.96875,-8.46875 l -15.375,0.375 c 0,0 0.046,2.4353 0.0312,6.3125 z m 16.3125,1.78125 c 0.33612,4.52115 0.5109,10.52807 0,17.25 4.56881,0.96835 8.7788,2.10837 12.59375,3.375 0.57953,-6.71713 0.69992,-12.52563 0.625,-17.21875 -3.7825,-1.28758 -8.16802,-2.47983 -13.21875,-3.40625 z m 13.21875,3.40625 c 3.58666,1.22092 6.61515,2.52871 9.125,3.78125 0.88885,-7.64872 3.74258,-8.35096 1.85268,-11.88839 -2.06904,-3.87272 -11.94643,-5.54911 -11.94643,-5.54911 0,0 0.82967,4.94409 0.96875,13.65625 z m 9.125,3.78125 c -0.55883,4.80878 -1.01989,10.59042 -1.03125,16.75 10.97261,4.68928 17.53571,9.91071 17.53571,9.91071 0,0 -1.57739,-15.53902 -6.25446,-21.25446 -2.44631,-2.98943 -9.95892,-5.25877 -10.25,-5.40625 z M 818,533.28125 c -2.6294,-1.12371 -5.53239,-2.25457 -8.71875,-3.3125 -0.46912,5.43741 -1.25113,11.44559 -2.4375,18 4.73315,1.0422 8.89076,2.12505 12.625,3.1875 -1.08221,-5.90886 -1.4795,-12.05084 -1.46875,-17.875 z m 1.46875,17.875 c 0.75642,4.13005 1.84118,8.15658 3.375,11.875 1.66786,4.04338 3.03276,7.92992 4.15625,11.625 7.34026,2.77906 11.5625,4.78125 11.5625,4.78125 0,0 0.85445,-17.09528 -0.87946,-21.95982 -0.94049,-2.63857 -6.21649,-2.90786 -18.21429,-6.32143 z m 7.53125,23.5 c -5.30971,-2.01028 -12.30699,-4.40566 -20.5,-6.75 0.56005,3.98689 1.45987,7.77839 2.53125,11.34375 9.72905,3.68864 17.01878,7.93675 21.6875,11.0625 -0.76055,-4.50703 -1.94601,-9.82581 -3.71875,-15.65625 z m 3.71875,15.65625 c 0.85737,5.08077 1.20483,9.10594 1.34375,11.75 1.41175,0.79531 2.21875,1.3125 2.21875,1.3125 l 2.5,-8.5625 c 0,0 -2.10663,-1.85151 -6.0625,-4.5 z m 1.34375,11.75 c -2.91047,-1.63963 -8.64867,-4.58332 -16.84375,-7.46875 3.46204,6.78864 6.5625,10.9375 6.5625,10.9375 l 10.375,0 c 0,0 0.0221,-1.26366 -0.0937,-3.46875 z m -16.84375,-7.46875 c -2.1445,-4.20511 -4.41032,-9.42961 -6.1875,-15.34375 -5.12971,-1.94486 -10.91062,-3.71089 -17.34375,-5.09375 1.73463,5.6433 4.33408,11.07826 7.09375,15.8125 6.21424,1.3231 11.72176,2.96462 16.4375,4.625 z m -16.4375,-4.625 c -5.10853,-1.08768 -10.67936,-1.91497 -16.6875,-2.4375 4.26465,10.52444 8.97321,16.01786 8.97321,16.01786 l 17.6875,0.90178 c 0,0 -4.28167,-4.71827 -9.97321,-14.48214 z m -16.6875,-2.4375 c -1.87617,-4.63007 -3.52333,-9.91761 -4.375,-15.5625 -4.13013,-0.40807 -8.45236,-0.60041 -12.96875,-0.59375 2.02795,5.82241 3.94585,11.06143 5.65625,15.625 4.05145,0.011 7.95185,0.20636 11.6875,0.53125 z M 770.40625,587 c -4.3215,-0.0118 -8.81677,0.1624 -13.46875,0.59375 2.04396,9.48272 2,14.71875 2,14.71875 l 17.84375,1.0625 c 0,0 -2.6407,-6.41141 -6.375,-16.375 z m -13.46875,0.59375 c -0.93888,-4.35582 -2.3385,-9.62429 -4.375,-15.6875 -4.28573,0.3899 -8.71134,1.00011 -13.28125,1.84375 -0.91357,0.16865 -1.7874,0.30993 -2.6875,0.46875 2.40888,6.20554 4.13166,11.35017 5.34375,15.53125 0.54412,-0.0999 1.07911,-0.21035 1.625,-0.3125 4.58648,-0.85824 9.04942,-1.44267 13.375,-1.84375 z m -15,2.15625 c -5.93841,1.08983 -11.75803,2.04798 -17.4375,2.875 0.62189,6.40256 0.5,10.40625 0.5,10.40625 l 19.28125,0.34375 c 0.54303,0.5732 0.49721,-3.82517 -2.34375,-13.625 z M 724.5,592.625 c -0.42769,-4.40321 -1.238,-9.95009 -2.65625,-16.15625 -6.3507,0.82088 -12.3264,1.39483 -17.90625,1.75 2.12884,6.62419 3.83016,11.99346 5.1875,16.40625 4.97084,-0.55626 10.10927,-1.23322 15.375,-2 z m -15.375,2 c -4.98018,0.5573 -9.79197,0.98288 -14.40625,1.34375 0.89457,4.50093 1.34375,7.40625 1.34375,7.40625 l 15.71875,0 c 0,0 -1.10785,-3.71608 -2.65625,-8.75 z m -14.40625,1.34375 c -0.88037,-4.42948 -2.18021,-10.4389 -3.96875,-17.28125 -6.32236,0.0445 -12.05022,-0.17007 -17.1875,-0.59375 2.80297,7.61146 5.53291,14.22408 7.4375,18.6875 4.34593,-0.17924 8.89469,-0.43522 13.71875,-0.8125 z M 681,596.78125 c -6.79548,0.28026 -12.99906,0.36935 -18.375,0.21875 1.16563,2.5607 2.03125,4.25 2.03125,4.25 l 18.90625,1.40625 c 0,0 -1.01307,-2.2439 -2.5625,-5.875 z M 662.625,597 c -2.07022,-4.54793 -5.34401,-12.36983 -8.25,-21.75 -11.77347,-2.63207 -17.21875,-5.8125 -17.21875,-5.8125 0,0 0.93951,19.28722 2.48214,21.80357 1.54263,2.51636 8.93924,5.3654 22.98661,5.75893 z m -8.25,-21.75 c 5.154,1.15223 11.52542,2.21185 19.1875,2.84375 -2.11231,-5.73596 -4.23229,-11.97916 -6.0625,-18.21875 -6.72774,0.25266 -12.2223,0.50522 -16.84375,0.71875 0.97722,5.06295 2.28131,10.01638 3.71875,14.65625 z m -3.71875,-14.65625 c -1.06318,-5.50832 -1.74401,-11.11191 -1.71875,-16.5 0.004,-0.89754 0.005,-1.79888 0.0312,-2.6875 -5.98924,-0.8612 -8.625,-1.59375 -8.625,-1.59375 l -2.5,21.4375 c 0,0 4.9168,-0.29143 12.8125,-0.65625 z m -1.6875,-19.1875 c 3.55833,0.51165 8.35358,1.06916 14.5,1.53125 -0.64102,-3.90988 -1.06636,-7.86136 -1.34375,-11.78125 -4.97232,-0.32269 -9.06804,-0.71099 -12.21875,-1.0625 -0.46435,3.63985 -0.82067,7.41999 -0.9375,11.3125 z m 0.9375,-11.3125 c 0.79322,-6.21779 1.94858,-11.98157 3.21875,-16.9375 -3.63538,-1.03914 -5.28125,-1.90625 -5.28125,-1.90625 l -5,17.84375 c -0.009,0.0655 2.57962,0.49986 7.0625,1 z m 3.21875,-16.9375 c 2.1343,0.61007 4.94705,1.25645 8.59375,1.84375 0.22855,-12.21447 2.21429,-20.71429 2.21429,-20.71429 l -5.17411,1.06697 c 0,0 -2.90214,7.14472 -5.63393,17.80357 z M 661.71875,515 c -0.0933,4.98477 0.007,10.51525 0.40625,16.15625 3.38295,0.21955 7.12018,0.40322 11.21875,0.53125 -1.49481,-5.41465 -2.1024,-10.70211 -2.125,-15.5625 -3.6519,-0.28847 -6.78158,-0.6872 -9.5,-1.125 z m 11.625,16.6875 c 0.97032,3.51479 2.29779,7.0929 4.15625,10.625 0.23752,0.45142 0.48602,0.91509 0.71875,1.375 4.30572,0.1454 8.95028,0.2883 14.125,0.3125 -1.3532,-4.07915 -2.20202,-8.167 -2.65625,-12.1875 -5.89007,0.0843 -11.34694,0.0311 -16.34375,-0.125 z m 19,12.3125 c 0.16776,0.50569 0.31617,1.02664 0.5,1.53125 1.59307,4.37285 3.1951,8.91832 4.75,13.46875 5.9741,-0.14302 12.20348,-0.27612 18.71875,-0.375 -1.82203,-4.55939 -3.99284,-9.21753 -6.65625,-13.8125 -0.19279,-0.3326 -0.34927,-0.66937 -0.53125,-1 -6.01903,0.13264 -11.66325,0.21144 -16.78125,0.1875 z m 16.78125,-0.1875 c 4.34817,-0.0958 8.90883,-0.24298 13.75,-0.4375 -2.09428,-4.81364 -3.59016,-9.18239 -4.5625,-13.125 -4.74892,0.45169 -9.37475,0.81553 -13.84375,1.0625 0.77129,3.95937 2.25616,8.13934 4.65625,12.5 z m 13.75,-0.4375 c 0.65738,1.51098 1.34007,3.05501 2.125,4.65625 1.80677,3.68577 3.4063,7.10624 4.90625,10.40625 4.02,-0.0337 8.11322,-0.0545 12.25,-0.0625 1.7685,-0.003 3.50118,0.0187 5.25,0.0625 -1.36504,-3.21497 -2.85331,-6.55226 -4.5625,-10.0625 -0.97714,-2.0068 -1.84502,-3.92754 -2.625,-5.8125 -0.79256,0.0382 -1.57512,0.048 -2.375,0.0937 -5.27173,0.30157 -10.19487,0.52693 -14.96875,0.71875 z m 17.34375,-0.8125 c 5.49942,-0.26516 10.83837,-0.34377 15.96875,-0.28125 -0.8291,-6.32661 -0.50241,-12.22094 0.4375,-17.46875 -3.0855,0.35571 -6.23613,0.8326 -9.46875,1.4375 -3.8547,0.72131 -7.66927,1.34555 -11.4375,1.90625 0.90146,4.32471 2.3167,9.1299 4.5,14.40625 z m 15.96875,-0.28125 c 0.39515,3.01524 1.0425,6.13044 2.03125,9.3125 0.79916,2.57191 1.59485,5.10562 2.40625,7.59375 5.70951,0.50661 11.23272,1.25699 16.5625,2.125 0.067,-1.20884 0.14686,-2.4368 0.3125,-3.65625 0.61751,-4.54623 1.11668,-9.32657 1.5,-14.125 -7.0845,-0.71574 -14.71636,-1.15134 -22.8125,-1.25 z m 22.8125,1.25 c 5.07814,0.51304 9.86663,1.15232 14.375,1.875 1.87943,-6.45561 2.86254,-12.89246 3.3125,-18.8125 -5.11101,-1.08327 -10.66615,-1.92849 -16.65625,-2.34375 -0.20596,6.02214 -0.49704,12.59405 -1.03125,19.28125 z m 14.375,1.875 c -0.56793,1.95077 -1.19602,3.9093 -1.9375,5.84375 -1.53017,3.99209 -2.00347,8.18205 -1.75,12.40625 6.04637,1.30542 11.65059,2.77298 16.8125,4.25 -0.86872,-6.18426 -0.95263,-12.79356 0.28125,-19.53125 0.0254,-0.1385 0.0375,-0.2682 0.0625,-0.40625 -4.13174,-0.90977 -8.63115,-1.78705 -13.46875,-2.5625 z m -3.6875,18.25 c -4.00701,-0.86512 -8.17795,-1.63986 -12.5,-2.34375 -0.20181,3.63938 0.011,7.20786 0.53125,10.65625 4.9378,0.48787 9.60352,1.24916 13.96875,2.1875 -1.06211,-3.45538 -1.78863,-6.97746 -2,-10.5 z M 760.625,559.1875 c -4.31455,-0.38283 -8.74236,-0.63789 -13.21875,-0.75 2.05551,4.84116 3.77133,9.34545 5.15625,13.46875 4.20463,-0.38253 8.26502,-0.52547 12.1875,-0.53125 -1.34574,-3.86373 -2.74663,-7.96075 -4.125,-12.1875 z m -30.71875,-0.75 c -4.67188,0.0391 -9.12151,0.11963 -13.59375,0.1875 2.49482,6.24293 4.26151,12.28747 5.53125,17.84375 4.70041,-0.60757 9.61673,-1.34423 14.75,-2.25 -1.8088,-4.65967 -4.03243,-9.93989 -6.6875,-15.78125 z M 697.59375,559 c -4.39484,0.10521 -8.77594,0.19278 -12.8125,0.3125 2.36158,6.59522 4.36703,13.24734 5.96875,19.375 4.14396,-0.0292 8.51799,-0.17153 13.1875,-0.46875 -1.93958,-6.03529 -4.07377,-12.57561 -6.34375,-19.21875 z m -12.8125,0.3125 c -1.93793,-5.41209 -4.09465,-10.7481 -6.5625,-15.625 -5.6026,-0.1892 -10.51666,-0.43173 -14.75,-0.75 0.24041,1.46635 0.51097,2.93598 0.8125,4.375 0.85089,4.0608 1.96957,8.30376 3.21875,12.5625 5.24724,-0.19706 10.99207,-0.37597 17.28125,-0.5625 z"
           id="path3068"
           inkscape:connector-curvature="0"
           sodipodi:nodetypes="cccccccccccccccccccccscccccccccccccccccccccacccccacccccccsccsccccccccccccccccccccccccccccccccccccccsccsccccccccccccccccccccccccccccczcccccccscccccccccccccccccccccccccscccccsccsccccccccscscscsccccscccsccsccccccccsccccccccccccccccccccccccccccscc" />
      </g>
      <path
         sodipodi:nodetypes="aasaaaa"
         inkscape:connector-curvature="0"
         id="path3096"
         d="m 808.30059,470.52172 c -15.99723,20.37867 3.05347,52.50296 12.12183,76.77159 4.44757,11.90253 8.68085,22.92795 20.20305,32.32488 11.0708,9.02878 32.37847,4.09391 42.42641,-6.06092 12.66111,-12.7958 7.34903,-35.53922 7.07107,-53.53808 -0.28976,-18.76353 5.70199,-44.01237 -9.09138,-55.55838 -19.17792,-14.9681 -57.70927,-13.07505 -72.73098,6.06091 z"
         style="fill:#000000;stroke:#000000;stroke-width:1px;stroke-linecap:butt;stroke-linejoin:miter;stroke-opacity:1" />
      <path
         style="fill:#e9c6af;stroke:#000000;stroke-width:1px;stroke-linecap:butt;stroke-linejoin:miter;stroke-opacity:1"
         d="m 830.52316,547.18613 c 22.91974,2.59748 41.70619,-7.12224 55.2166,-5.73511 22.99152,2.36055 15.52381,42.68973 -2.20893,52.15916 -16.78234,8.96188 -37.38993,9.71531 -53.08452,-0.63655 -15.14351,-9.98837 -19.47123,-48.00289 0.0768,-45.7875 z"
         id="path3098"
         inkscape:connector-curvature="0"
         sodipodi:nodetypes="sssss" />
      <path
         transform="matrix(0.97072832,-0.2401802,0.2401802,0.97072832,-111.61786,211.80745)"
         d="m 848.52815,575.90411 c 0,5.85787 -2.37436,10.60661 -5.3033,10.60661 -2.92893,0 -5.3033,-4.74874 -5.3033,-10.60661 0,-5.85786 2.37437,-10.6066 5.3033,-10.6066 2.92894,0 5.3033,4.74874 5.3033,10.6066 z"
         sodipodi:ry="10.606602"
         sodipodi:rx="5.3033009"
         sodipodi:cy="575.90411"
         sodipodi:cx="843.22485"
         id="path3100"
         style="fill:#ffffff"
         sodipodi:type="arc" />
      <path
         d="m 845.49764,581.71246 c 0,0.13948 -0.45226,0.25254 -1.01015,0.25254 -0.55789,0 -1.01015,-0.11306 -1.01015,-0.25254 0,-0.13947 0.45226,-0.25253 1.01015,-0.25253 0.55789,0 1.01015,0.11306 1.01015,0.25253 z"
         sodipodi:ry="0.25253814"
         sodipodi:rx="1.0101526"
         sodipodi:cy="581.71246"
         sodipodi:cx="844.48749"
         id="path3102"
         style="fill:#000000"
         sodipodi:type="arc" />
      <path
         sodipodi:type="arc"
         style="fill:#ffffff"
         id="path3104"
         sodipodi:cx="843.22485"
         sodipodi:cy="575.90411"
         sodipodi:rx="5.3033009"
         sodipodi:ry="10.606602"
         d="m 848.52815,575.90411 c 0,5.85787 -2.37436,10.60661 -5.3033,10.60661 -2.92893,0 -5.3033,-4.74874 -5.3033,-10.60661 0,-5.85786 2.37437,-10.6066 5.3033,-10.6066 2.92894,0 5.3033,4.74874 5.3033,10.6066 z"
         transform="matrix(0.9996238,0.02742742,-0.02742742,0.9996238,44.397052,-34.527583)" />
      <g
         id="g3112">
        <path
           style="fill:#ffffff;stroke:#000000;stroke-width:1px;stroke-linecap:butt;stroke-linejoin:miter;stroke-opacity:1"
           d="m 827.31492,479.9396 c -6.48957,0.62309 -9.11904,11.52452 -7.84137,17.91751 1.01288,5.06811 5.28051,12.11134 11.19834,10.7239 5.91047,-1.38571 6.39477,-10.04461 5.70377,-15.50943 -0.66715,-5.27615 -3.76692,-13.64026 -9.06074,-13.13198 z"
           id="path3106"
           inkscape:connector-curvature="0"
           sodipodi:nodetypes="aasaa" />
        <path
           style="fill:#e9c6af"
           d="m 827.14285,481.95163 c -4.98585,0.57054 -6.21201,8.93492 -5.71429,13.92857 0.46828,4.69828 3.16308,12.2945 7.85714,11.78571 5.20894,-0.56459 6.35484,-9.44271 5.71429,-14.64285 -0.55325,-4.49143 -3.36111,-11.58593 -7.85714,-11.07143 z"
           id="path3108"
           inkscape:connector-curvature="0"
           sodipodi:nodetypes="aaaaa" />
        <path
           sodipodi:type="arc"
           style="fill:#000000"
           id="path3110"
           sodipodi:cx="824.375"
           sodipodi:cy="492.93378"
           sodipodi:rx="3.6607144"
           sodipodi:ry="5.0892854"
           d="m 828.03571,492.93378 c 0,2.81073 -1.63895,5.08928 -3.66071,5.08928 -2.02176,0 -3.66071,-2.27855 -3.66071,-5.08928 0,-2.81074 1.63895,-5.08929 3.66071,-5.08929 2.02176,0 3.66071,2.27855 3.66071,5.08929 z"
           transform="matrix(0.9998487,-0.01739497,0.01739497,0.9998487,-7.5569804,16.200276)" />
      </g>
      <g
         transform="translate(35.607877,-3.2829957)"
         id="g3117">
        <path
           sodipodi:nodetypes="aassa"
           inkscape:connector-curvature="0"
           id="path3119"
           d="m 827.22563,481.54674 c -5.95762,0.70882 -8.38499,10.60422 -7.21637,16.48894 0.92056,4.63553 4.29837,11.21848 10.2162,9.83104 5.91047,-1.38571 6.25623,-9.34477 5.61449,-14.97371 -0.53532,-4.69543 -3.89896,-11.90729 -8.61432,-11.34627 z"
           style="fill:#ffffff;stroke:#000000;stroke-width:1px;stroke-linecap:butt;stroke-linejoin:miter;stroke-opacity:1" />
        <path
           sodipodi:nodetypes="aaaaa"
           inkscape:connector-curvature="0"
           id="path3121"
           d="m 827.14285,483.46686 c -4.54156,0.35152 -6.18249,7.88232 -5.71429,12.41334 0.43785,4.23723 3.39601,10.92899 7.6046,10.27048 4.56508,-0.71428 5.04824,-8.54568 4.4516,-13.12762 -0.49365,-3.79104 -2.53027,-9.85122 -6.34191,-9.5562 z"
           style="fill:#e9c6af" />
        <path
           transform="matrix(0.9998487,-0.01739497,0.01739497,0.9998487,-7.5569804,16.200276)"
           d="m 827.792,492.93378 c 0,2.53183 -1.52984,4.58428 -3.417,4.58428 -1.88716,0 -3.417,-2.05245 -3.417,-4.58428 0,-2.53183 1.52984,-4.58429 3.417,-4.58429 1.88716,0 3.417,2.05246 3.417,4.58429 z"
           sodipodi:ry="4.5842857"
           sodipodi:rx="3.4170003"
           sodipodi:cy="492.93378"
           sodipodi:cx="824.375"
           id="path3123"
           style="fill:#000000"
           sodipodi:type="arc" />
      </g>
      <g
         id="g3086">
        <path
           style="fill:#e9c6af;stroke:#000000;stroke-width:1px;stroke-linecap:butt;stroke-linejoin:miter;stroke-opacity:1"
           d="m 887.85714,471.23734 c 0,0 24.53812,-10.73584 37.14286,-8.92857 9.23767,1.3245 24.84297,4.61307 24.28571,13.92857 -0.50966,8.51974 -15.13199,8.72649 -23.57142,10 -11.59597,1.74983 -35,-3.57143 -35,-3.57143 z"
           id="path3082"
           inkscape:connector-curvature="0"
           sodipodi:nodetypes="caaacc" />
        <path
           sodipodi:nodetypes="cacc"
           inkscape:connector-curvature="0"
           id="path3084"
           d="m 925,462.30877 c 0,0 24.84297,4.61307 24.28571,13.92857 -0.50966,8.51974 -23.57142,10 -23.57142,10 z"
           style="fill:#000000;stroke:#000000;stroke-width:1px;stroke-linecap:butt;stroke-linejoin:miter;stroke-opacity:1" />
      </g>
      <g
         id="g3101">
        <path
           sodipodi:nodetypes="caaacc"
           inkscape:connector-curvature="0"
           id="path3092"
           d="m 801.70272,487.34785 c 0,0 -25.97315,-0.6999 -37.06109,-6.57091 -8.24407,-4.3652 -21.85143,-11.01064 -19.52857,-20.04524 1.9921,-7.74814 15.02488,-7.97803 22.96266,-6.98111 13.9279,1.74922 36.01074,21.83215 36.01074,21.83215 z"
           style="fill:#e9c6af;stroke:#000000;stroke-width:1px;stroke-linecap:butt;stroke-linejoin:miter;stroke-opacity:1" />
        <path
           style="fill:#000000;stroke:#000000;stroke-width:1px;stroke-linecap:butt;stroke-linejoin:miter;stroke-opacity:1"
           d="m 761.42734,478.99123 c 0,0 -18.66244,-10.44259 -16.31428,-18.25953 2.48996,-8.28898 13.12088,-9.11221 25.10552,-6.62397 -1.94394,9.98824 -8.79124,24.8835 -8.79124,24.8835 z"
           id="path3099"
           inkscape:connector-curvature="0"
           sodipodi:nodetypes="cacc" />
      </g>
      <path
         style="fill:#ac9d93;stroke:#000000;stroke-width:1px;stroke-linecap:butt;stroke-linejoin:miter;stroke-opacity:1"
         d="m 867.7589,457.09606 c -1.32213,-2.20276 10.61103,-10.77647 8.57886,-31.40013 -2.03217,-20.62365 10.20138,-47.51606 12.26541,-47.32667 2.06403,0.18939 -2.88022,27.5319 1.34191,45.32124 4.22213,17.78934 -10.13647,41.02961 -12.79586,38.98986 -2.65938,-2.03976 -8.06818,-3.38154 -9.39032,-5.5843 z"
         id="path3105"
         inkscape:connector-curvature="0"
         sodipodi:nodetypes="zzzzzz" />
      <path
         style="fill:#ac9d93;stroke:#000000;stroke-width:1px;stroke-linecap:butt;stroke-linejoin:miter;stroke-opacity:1"
         d="m 795.03174,382.29784 c -1.31098,-0.905 0.38508,20.37251 -4.28571,43.92856 -4.6708,23.55606 18.30425,43.23934 21.45023,40.27421 3.14598,-2.96514 5.93757,-4.33892 8.97191,-5.56637 3.03435,-1.22745 -18.65239,-12.68509 -16.49358,-37.20785 2.15881,-24.52276 -6.78336,-39.45459 -9.64285,-41.42855 z"
         id="path3107"
         inkscape:connector-curvature="0"
         sodipodi:nodetypes="szzzzs" />
      <path
         inkscape:transform-center-y="3.6461087"
         sodipodi:nodetypes="zzsaz"
         inkscape:connector-curvature="0"
         id="path3146"
         d="m 805.94141,673.00753 c 0.45918,-3.05058 16.59254,-6.1416 24.53106,-6.15551 7.93854,-0.0139 14.17508,6.70276 14.2984,11.22528 0.19237,7.05438 -10.3945,5.64014 -16.01356,5.34166 -8.34795,-0.44343 -23.27506,-7.36082 -22.8159,-10.41143 z"
         style="fill:#000000;stroke:#000000;stroke-width:1px;stroke-linecap:butt;stroke-linejoin:miter;stroke-opacity:1"
         inkscape:transform-center-x="-15.674165" />
      <path
         sodipodi:nodetypes="cssc"
         style="fill:#e9c6af;stroke:#e9c6af;stroke-width:5;stroke-linecap:round;stroke-linejoin:round;stroke-miterlimit:4;stroke-opacity:1;stroke-dasharray:none;marker-end:none"
         d="m 810.11254,603.17821 c 0.79,6.19371 1.12791,12.44503 1.01015,18.68781 -0.21683,11.49462 -1.97276,22.89729 -3.03045,34.34519 -0.48122,5.20846 -0.81811,10.43025 -1.01015,15.65737"
         id="path3148"
         inkscape:path-effect="#path-effect3151"
         inkscape:original-d="m 810.11254,603.17821 c 1.40738,6.29073 1.01015,12.46573 1.01015,18.68781 0,12.88558 -0.93825,21.79186 -3.03045,34.34519 -0.33569,2.01414 0.11668,16.7842 -1.01015,15.65737"
         inkscape:connector-curvature="0" />
      <path
         inkscape:transform-center-x="-15.839076"
         style="fill:#000000;stroke:#000000;stroke-width:1px;stroke-linecap:butt;stroke-linejoin:miter;stroke-opacity:1"
         d="m 718.12107,670.64397 c 0.32558,-3.06773 16.30864,-6.86003 24.23899,-7.22046 7.93037,-0.36045 14.45415,6.07762 14.77476,10.59044 0.50012,7.03927 -10.13839,6.0885 -15.76513,6.03558 -8.35934,-0.0786 -23.57418,-6.33782 -23.24862,-9.40556 z"
         id="path3938"
         inkscape:connector-curvature="0"
         sodipodi:nodetypes="zzsaz"
         inkscape:transform-center-y="2.6429133" />
      <path
         sodipodi:nodetypes="cssc"
         style="fill:#e9c6af;stroke:#e9c6af;stroke-width:5;stroke-linecap:round;stroke-linejoin:round;stroke-miterlimit:4;stroke-opacity:1;stroke-dasharray:none;marker-end:none"
         d="m 722.73434,601.1579 c 0.92211,6.17916 1.26082,12.44525 1.01015,18.68781 -0.37385,9.31002 -2.05099,18.5133 -3.03045,27.7792 -0.77998,7.37876 -1.1175,14.80427 -1.01015,22.22336"
         id="path3926"
         inkscape:path-effect="#path-effect3928"
         inkscape:original-d="m 722.73434,601.1579 c 1.40738,6.29073 -0.18652,12.58189 1.01015,18.68781 2.52538,12.88558 -3.46363,14.21571 -3.03045,27.7792 0.0652,2.04088 0.11668,23.35019 -1.01015,22.22336"
         inkscape:connector-curvature="0" />
      <path
         sodipodi:nodetypes="cssssc"
         inkscape:connector-curvature="0"
         inkscape:original-d="m 605.08137,456.20101 c 3.26425,13.62924 -7.02572,23.58534 -20.20305,19.1929 -18.44742,-6.14914 -17.43971,-34.07807 -6.06091,-45.45687 2.07884,-2.07884 3.96238,-6.03484 7.07107,-7.07107 9.65746,-3.21915 19.27103,2.74583 27.27411,8.08122 9.28753,6.19169 43.1407,59.46779 43.1407,65.4866"
         inkscape:path-effect="#path-effect3969"
         id="path3967"
         d="m 605.08137,456.20101 c 0.9583,5.40852 -0.96114,11.24292 -4.9434,15.02606 -3.98225,3.78314 -9.90734,5.40106 -15.25965,4.16684 -4.4137,-1.01778 -8.31606,-3.86501 -10.91634,-7.57381 -2.60027,-3.70879 -3.93658,-8.22999 -4.11878,-12.75585 -0.3644,-9.05171 3.72627,-17.74307 8.97421,-25.12721 1.94728,-2.73993 4.14073,-5.42418 7.07107,-7.07107 2.21211,-1.24323 4.76377,-1.83354 7.30126,-1.84755 2.53749,-0.014 5.0613,0.53553 7.42675,1.45408 4.73088,1.83711 8.76608,5.0883 12.5461,8.47469 19.68682,17.63674 34.70681,40.43675 43.1407,65.4866"
         style="fill:none;stroke:#e9c6af;stroke-width:4;stroke-linecap:round;stroke-linejoin:miter;stroke-miterlimit:4;stroke-opacity:1;stroke-dasharray:none" />
    </g>
  </g>
</svg>
