<?xml version="1.0" encoding="UTF-8" standalone="no"?>
<!-- Created with Inkscape (http://www.inkscape.org/) -->

<svg
   xmlns:dc="http://purl.org/dc/elements/1.1/"
   xmlns:cc="http://creativecommons.org/ns#"
   xmlns:rdf="http://www.w3.org/1999/02/22-rdf-syntax-ns#"
   xmlns:svg="http://www.w3.org/2000/svg"
   xmlns="http://www.w3.org/2000/svg"
   xmlns:sodipodi="http://sodipodi.sourceforge.net/DTD/sodipodi-0.dtd"
   xmlns:inkscape="http://www.inkscape.org/namespaces/inkscape"
   width="822.52466"
   height="684.80377"
   id="svg2"
   version="1.1"
   inkscape:version="0.48.1 "
   sodipodi:docname="Cartoon_Cows_2.svg">
  <defs
     id="defs4">
    <inkscape:path-effect
       effect="spiro"
       id="path-effect4075"
       is_visible="true" />
    <inkscape:path-effect
       effect="spiro"
       id="path-effect4051"
       is_visible="true" />
    <inkscape:path-effect
       effect="spiro"
       id="path-effect4047"
       is_visible="true" />
    <inkscape:path-effect
       effect="spiro"
       id="path-effect4043"
       is_visible="true" />
    <inkscape:path-effect
       effect="spiro"
       id="path-effect4035"
       is_visible="true" />
    <inkscape:path-effect
       effect="spiro"
       id="path-effect4031"
       is_visible="true" />
    <inkscape:path-effect
       effect="spiro"
       id="path-effect4027"
       is_visible="true" />
    <inkscape:path-effect
       effect="spiro"
       id="path-effect4020"
       is_visible="true" />
    <inkscape:path-effect
       effect="spiro"
       id="path-effect3210"
       is_visible="true" />
    <inkscape:path-effect
       effect="spiro"
       id="path-effect3198"
       is_visible="true" />
    <inkscape:path-effect
       effect="spiro"
       id="path-effect3196"
       is_visible="true" />
    <inkscape:path-effect
       is_visible="true"
       id="path-effect3194"
       effect="spiro" />
    <inkscape:path-effect
       is_visible="true"
       id="path-effect3192"
       effect="spiro" />
    <inkscape:path-effect
       effect="spiro"
       id="path-effect4049"
       is_visible="true" />
    <inkscape:path-effect
       effect="spiro"
       id="path-effect4045"
       is_visible="true" />
    <inkscape:path-effect
       effect="spiro"
       id="path-effect4041"
       is_visible="true" />
    <inkscape:path-effect
       effect="spiro"
       id="path-effect4037"
       is_visible="true" />
    <inkscape:path-effect
       effect="spiro"
       id="path-effect4033"
       is_visible="true" />
    <inkscape:path-effect
       effect="spiro"
       id="path-effect4029"
       is_visible="true" />
    <inkscape:path-effect
       effect="spiro"
       id="path-effect4025"
       is_visible="true" />
    <inkscape:path-effect
       effect="spiro"
       id="path-effect4021"
       is_visible="true" />
    <inkscape:path-effect
       effect="spiro"
       id="path-effect3144"
       is_visible="true" />
    <inkscape:path-effect
       effect="spiro"
       id="path-effect3140"
       is_visible="true" />
    <inkscape:path-effect
       effect="spiro"
       id="path-effect3136"
       is_visible="true" />
    <inkscape:path-effect
       effect="spiro"
       id="path-effect3132"
       is_visible="true" />
    <inkscape:path-effect
       effect="spiro"
       id="path-effect3128"
       is_visible="true" />
    <inkscape:path-effect
       effect="spiro"
       id="path-effect3124"
       is_visible="true" />
    <inkscape:path-effect
       effect="spiro"
       id="path-effect3969"
       is_visible="true" />
    <inkscape:path-effect
       effect="spiro"
       id="path-effect3932"
       is_visible="true" />
    <inkscape:path-effect
       is_visible="true"
       id="path-effect3928"
       effect="spiro" />
    <inkscape:path-effect
       effect="spiro"
       id="path-effect3924"
       is_visible="true" />
    <inkscape:path-effect
       is_visible="true"
       id="path-effect3151"
       effect="spiro" />
    <inkscape:path-effect
       effect="spiro"
       id="path-effect4212"
       is_visible="true" />
    <inkscape:path-effect
       effect="spiro"
       id="path-effect4208"
       is_visible="true" />
    <inkscape:path-effect
       effect="spiro"
       id="path-effect4200"
       is_visible="true" />
    <inkscape:path-effect
       effect="spiro"
       id="path-effect4196"
       is_visible="true" />
    <inkscape:path-effect
       effect="spiro"
       id="path-effect4184"
       is_visible="true" />
    <inkscape:path-effect
       effect="spiro"
       id="path-effect4180"
       is_visible="true" />
    <inkscape:path-effect
       effect="spiro"
       id="path-effect4018"
       is_visible="true" />
    <inkscape:path-effect
       effect="spiro"
       id="path-effect3054"
       is_visible="true" />
    <inkscape:path-effect
       effect="spiro"
       id="path-effect3050"
       is_visible="true" />
    <inkscape:path-effect
       effect="spiro"
       id="path-effect3042"
       is_visible="true" />
    <inkscape:path-effect
       effect="spiro"
       id="path-effect3038"
       is_visible="true" />
    <inkscape:path-effect
       effect="spiro"
       id="path-effect3978"
       is_visible="true" />
    <inkscape:path-effect
       effect="spiro"
       id="path-effect3974"
       is_visible="true" />
    <inkscape:path-effect
       effect="spiro"
       id="path-effect3970"
       is_visible="true" />
    <inkscape:path-effect
       effect="spiro"
       id="path-effect3962"
       is_visible="true" />
    <inkscape:path-effect
       effect="spiro"
       id="path-effect3958"
       is_visible="true" />
    <inkscape:path-effect
       effect="spiro"
       id="path-effect3954"
       is_visible="true" />
    <inkscape:path-effect
       effect="spiro"
       id="path-effect3950"
       is_visible="true" />
    <inkscape:path-effect
       effect="spiro"
       id="path-effect3946"
       is_visible="true" />
    <inkscape:path-effect
       effect="spiro"
       id="path-effect3978-2"
       is_visible="true" />
    <inkscape:path-effect
       effect="spiro"
       id="path-effect3974-8"
       is_visible="true" />
    <inkscape:path-effect
       effect="spiro"
       id="path-effect3970-2"
       is_visible="true" />
    <inkscape:path-effect
       effect="spiro"
       id="path-effect3962-0"
       is_visible="true" />
    <inkscape:path-effect
       effect="spiro"
       id="path-effect3958-6"
       is_visible="true" />
    <inkscape:path-effect
       effect="spiro"
       id="path-effect3954-5"
       is_visible="true" />
    <inkscape:path-effect
       effect="spiro"
       id="path-effect3950-6"
       is_visible="true" />
    <inkscape:path-effect
       effect="spiro"
       id="path-effect3946-8"
       is_visible="true" />
    <inkscape:path-effect
       effect="spiro"
       id="path-effect4049-2"
       is_visible="true" />
    <inkscape:path-effect
       effect="spiro"
       id="path-effect4045-0"
       is_visible="true" />
    <inkscape:path-effect
       effect="spiro"
       id="path-effect4037-9"
       is_visible="true" />
    <inkscape:path-effect
       effect="spiro"
       id="path-effect4025-7"
       is_visible="true" />
    <inkscape:path-effect
       effect="spiro"
       id="path-effect4021-7"
       is_visible="true" />
    <inkscape:path-effect
       effect="spiro"
       id="path-effect4041-5"
       is_visible="true" />
    <inkscape:path-effect
       effect="spiro"
       id="path-effect4033-9"
       is_visible="true" />
  </defs>
  <sodipodi:namedview
     id="base"
     pagecolor="#ffffff"
     bordercolor="#666666"
     borderopacity="1.0"
     inkscape:pageopacity="0.0"
     inkscape:pageshadow="2"
     inkscape:zoom="0.7893227"
     inkscape:cx="399.22919"
     inkscape:cy="444.57629"
     inkscape:document-units="px"
     inkscape:current-layer="layer2"
     showgrid="false"
     inkscape:window-width="1161"
     inkscape:window-height="905"
     inkscape:window-x="415"
     inkscape:window-y="21"
     inkscape:window-maximized="0"
     fit-margin-top="10"
     fit-margin-right="10"
     fit-margin-bottom="10"
     fit-margin-left="10" />
  <metadata
     id="metadata7">
    <rdf:RDF>
      <cc:Work
         rdf:about="">
        <dc:format>image/svg+xml</dc:format>
        <dc:type
           rdf:resource="http://purl.org/dc/dcmitype/StillImage" />
        <dc:title />
      </cc:Work>
    </rdf:RDF>
  </metadata>
  <g
     inkscape:groupmode="layer"
     id="layer2"
     inkscape:label="Ebene"
     style="display:inline"
     transform="translate(-193.35508,-9.430823)">
    <g
       id="g4318"
       transform="matrix(1.91,0,0,1.91,-140.38384,-320.93839)">
      <g
         id="g4028"
         transform="translate(-1.0714332,-2.5908398)">
        <path
           style="fill:#ffe6d5;stroke:#000000;stroke-width:1px;stroke-linecap:butt;stroke-linejoin:miter;stroke-opacity:1"
           d="m 471.54758,431.09099 c -3.69391,-0.38864 -3.69657,2.37273 -4.01285,4.20842 -1.18829,6.89666 -3.46198,18.69221 1.00939,19.31161 4.47135,0.61941 4.66274,-11.822 5.50835,-18.71028 0.21781,-1.77414 1.18902,-4.4211 -2.50489,-4.80975 z"
           id="path4026"
           inkscape:connector-curvature="0"
           sodipodi:nodetypes="zszsz" />
        <path
           style="fill:#e9afaf;stroke:#000000;stroke-width:1px;stroke-linecap:butt;stroke-linejoin:miter;stroke-opacity:1"
           d="m 451.07143,415.8802 c 0,0 3.65014,22.14982 22.5,23.21428 18.84986,1.06446 27.08605,-15.71428 27.5,-23.21428 z"
           id="path4020"
           inkscape:connector-curvature="0"
           sodipodi:nodetypes="czcc" />
        <path
           style="fill:#ffe6d5;stroke:#000000;stroke-width:1px;stroke-linecap:butt;stroke-linejoin:miter;stroke-opacity:1"
           d="m 462.98341,431.46821 c -3.31559,-1.67418 -4.29798,0.90653 -5.2451,2.51051 -3.55832,6.02615 -9.23847,14.85822 -5.27791,17.02403 3.96055,2.16581 7.92308,-8.00904 11.15807,-14.14893 0.8332,-1.58139 2.68053,-3.71143 -0.63506,-5.38561 z"
           id="path4022"
           inkscape:connector-curvature="0"
           sodipodi:nodetypes="zszsz" />
        <path
           sodipodi:nodetypes="zszsz"
           inkscape:connector-curvature="0"
           id="path4024"
           d="m 481.98833,433.38402 c -3.58319,0.97814 -2.58374,3.55229 -2.21241,5.37764 1.39508,6.85783 2.041,16.78047 6.43239,15.73527 4.39139,-1.04519 1.57073,-10.81413 -0.14064,-17.53981 -0.44077,-1.73226 -0.49615,-4.55124 -4.07934,-3.5731 z"
           style="fill:#ffe6d5;stroke:#000000;stroke-width:1px;stroke-linecap:butt;stroke-linejoin:miter;stroke-opacity:1" />
      </g>
      <path
         sodipodi:nodetypes="aasasssa"
         inkscape:connector-curvature="0"
         id="path3984"
         d="m 319.59709,338.86444 c 12.9084,-14.82551 37.15054,-13.60737 56.56854,-16.66752 19.13172,-3.01503 38.32281,0.52823 58.08377,-1.51523 34.19068,-3.53562 57.52189,-15.16631 76.26651,2.0203 21.98093,20.15394 22.12081,79.62097 10.10153,88.89343 -11.66615,9.00003 -65.76502,6.08822 -110.61171,2.52538 -48.5724,-3.85883 -84.39477,-0.075 -100.00509,-11.11167 -19.73314,-13.95153 -4.60025,-47.83956 9.59645,-64.14469 z"
         style="fill:#deaa87;stroke:#000000;stroke-width:1px;stroke-linecap:butt;stroke-linejoin:miter;stroke-opacity:1" />
      <path
         sodipodi:nodetypes="aaaaaaa"
         inkscape:connector-curvature="0"
         id="path3050"
         d="m 245.94324,362.47156 c 4.92853,-20.88086 3.78874,-49.71173 22.43257,-60.32814 16.0481,-9.13832 42.63916,-4.25258 54.51234,9.89231 13.33564,15.88717 3.1251,41.67259 0.33176,62.22591 -1.88252,13.85156 0.65149,33.28502 -11.40754,40.35534 -20.60769,12.08248 -55.93249,2.85438 -69.70053,-16.66752 -6.85546,-9.72045 1.09897,-23.90127 3.8314,-35.4779 z"
         style="fill:#deaa87;stroke:#000000;stroke-width:1px;stroke-linecap:butt;stroke-linejoin:miter;stroke-opacity:1" />
      <path
         sodipodi:nodetypes="sssss"
         inkscape:connector-curvature="0"
         id="path3072"
         d="m 252.69549,383.72414 c 28.18638,7.52805 14.13371,8.30589 53.032,7.7425 24.70564,-0.35783 14.91791,47.7942 -16.5094,56.67107 -18.30895,5.17149 -33.89535,3.28511 -46.2463,-11.18609 -25.06018,-29.36217 -9.28329,-58.30388 9.7237,-53.22748 z"
         style="fill:#e9c6af;stroke:#000000;stroke-width:1px;stroke-linecap:butt;stroke-linejoin:miter;stroke-opacity:1" />
      <path
         transform="matrix(1.1403833,0.18604943,-0.20305971,1.0448535,25.991835,-68.447374)"
         d="m 282.85713,340.61234 c 0,5.7694 -2.59835,10.44642 -5.80357,10.44642 -3.20523,0 -5.80357,-4.67702 -5.80357,-10.44642 0,-5.76941 2.59834,-10.44643 5.80357,-10.44643 3.20522,0 5.80357,4.67702 5.80357,10.44643 z"
         sodipodi:ry="10.446428"
         sodipodi:rx="5.8035712"
         sodipodi:cy="340.61234"
         sodipodi:cx="277.05356"
         id="path3087"
         style="fill:#000000"
         sodipodi:type="arc" />
      <path
         transform="matrix(0.93202171,0.2272389,-0.22352555,0.94750506,99.780423,-52.433976)"
         d="m 311.07144,344.71948 c 0,6.95287 -3.23794,12.58929 -7.23215,12.58929 -3.9942,0 -7.23214,-5.63642 -7.23214,-12.58929 0,-6.95287 3.23794,-12.58928 7.23214,-12.58928 3.99421,0 7.23215,5.63641 7.23215,12.58928 z"
         sodipodi:ry="12.589286"
         sodipodi:rx="7.2321429"
         sodipodi:cy="344.71948"
         sodipodi:cx="303.83929"
         id="path3089"
         style="fill:#000000"
         sodipodi:type="arc" />
      <path
         sodipodi:nodetypes="zzasasz"
         inkscape:connector-curvature="0"
         id="path3091"
         d="m 331.78571,339.27305 c -3.09311,-1.37366 -0.26471,-7.35503 2.14286,-9.46428 2.40758,-2.10926 17.27003,-6.69493 25.17858,-11.42858 10.09262,-6.04092 15.91708,-22.40407 28.03571,-21.42857 8.37757,0.67436 14.48171,12.89477 13.57143,21.25 -1.21259,11.13 -16.35478,21.96972 -23.75,23.75 -16.67861,4.01511 -42.08547,-1.30491 -45.17858,-2.67857 z"
         style="fill:#000000;stroke:#000000;stroke-width:1px;stroke-linecap:butt;stroke-linejoin:miter;stroke-opacity:1" />
      <path
         sodipodi:nodetypes="zzaaaaz"
         inkscape:connector-curvature="0"
         id="path3093"
         d="m 255.17857,316.23734 c -1.25161,2.56476 -5.46585,15.55239 -5,18.21428 0.46585,2.6619 -13.79093,-1.90337 -20.53571,-3.57143 -8.07681,-1.99748 -20.14337,-0.18077 -23.75,-7.67857 -5.76511,-11.98504 1.25494,-33.90107 14.10714,-37.32143 9.31673,-2.47946 15.06895,12.04063 22.32143,18.39286 4.40387,3.85723 14.10876,9.39952 12.85714,11.96429 z"
         style="fill:#000000;stroke:#000000;stroke-width:1px;stroke-linecap:butt;stroke-linejoin:miter;stroke-opacity:1" />
      <path
         transform="matrix(0.59031858,0.80717035,-0.80717035,0.59031858,420.06232,-30.708842)"
         d="m 255.64106,393.02304 c 0,2.36694 -3.32508,4.28571 -7.42678,4.28571 -4.1017,0 -7.42678,-1.91877 -7.42678,-4.28571 0,-2.36693 3.32508,-4.28571 7.42678,-4.28571 4.1017,0 7.42678,1.91878 7.42678,4.28571 z"
         sodipodi:ry="4.2857141"
         sodipodi:rx="7.4267774"
         sodipodi:cy="393.02304"
         sodipodi:cx="248.21428"
         id="path3095"
         style="fill:#000000"
         sodipodi:type="arc" />
      <path
         transform="matrix(0.79330931,-0.60881881,0.60881881,0.79330931,-133.57796,247.73174)"
         sodipodi:type="arc"
         style="fill:#000000"
         id="path3097"
         sodipodi:cx="248.21428"
         sodipodi:cy="393.02304"
         sodipodi:rx="8.1482868"
         sodipodi:ry="4.5031495"
         d="m 256.36257,393.02304 c 0,2.48702 -3.64812,4.50315 -8.14829,4.50315 -4.50018,0 -8.14829,-2.01613 -8.14829,-4.50315 0,-2.48702 3.64811,-4.50315 8.14829,-4.50315 4.50017,0 8.14829,2.01613 8.14829,4.50315 z" />
      <path
         sodipodi:nodetypes="ccscscscc"
         inkscape:connector-curvature="0"
         id="path3115"
         d="m 234.03337,418.08699 c -0.58008,0.10585 -0.91445,0.88017 -0.59375,1.375 7.91653,12.37409 18.22971,20.87219 30.51602,23.48906 12.28631,2.61687 26.5471,-0.59603 36.54648,-3.45781 0.49537,-0.0885 0.8466,-0.65432 0.70604,-1.1375 -0.14056,-0.48317 -0.74052,-0.77233 -1.20604,-0.58125 -9.73463,2.78601 -23.23759,3.41064 -35.1664,0.86992 -11.92881,-2.54072 -22.26428,-8.2221 -29.8961,-20.15117 -0.18775,-0.29617 -0.56023,-0.46315 -0.90625,-0.40625 z"
         style="font-size:medium;font-style:normal;font-variant:normal;font-weight:normal;font-stretch:normal;text-indent:0;text-align:start;text-decoration:none;line-height:normal;letter-spacing:normal;word-spacing:normal;text-transform:none;direction:ltr;block-progression:tb;writing-mode:lr-tb;text-anchor:start;baseline-shift:baseline;color:#000000;fill:#000000;fill-opacity:1;stroke:none;stroke-width:1.79999995;marker:none;visibility:visible;display:inline;overflow:visible;enable-background:accumulate;font-family:Sans;-inkscape-font-specification:Sans" />
      <path
         sodipodi:nodetypes="szcczs"
         inkscape:connector-curvature="0"
         id="path3904"
         d="m 259.33553,207.81584 c -1.48915,-0.56579 -20.68725,26.43388 -19.59832,50.42383 1.08893,23.98997 14.84677,45.2766 22.56879,49.26069 5.25845,-1.16699 7.19335,-2.49572 10.0708,-6.65179 -0.92987,-6.17171 -14.86028,-15.10735 -18.61936,-39.43625 -3.75908,-24.32891 8.8262,-52.3624 5.57809,-53.59648 z"
         style="fill:#ac9d93;stroke:#000000;stroke-width:1px;stroke-linecap:butt;stroke-linejoin:miter;stroke-opacity:1" />
      <path
         sodipodi:nodetypes="zzzzcz"
         inkscape:connector-curvature="0"
         id="path3906"
         d="m 320.56346,310.32509 c -0.67509,-2.4788 26.25294,-12.00297 45.6067,-27.60489 19.35374,-15.60192 28.70093,-40.53663 30.63622,-39.79449 1.93528,0.74213 -4.8179,32.8123 -19.67312,47.10826 -14.85522,14.29597 -42.43139,29.62906 -49.59511,30.20486 -3.3564,-3.45548 -6.29958,-7.43495 -6.97469,-9.91374 z"
         style="fill:#ac9d93;stroke:#000000;stroke-width:1px;stroke-linecap:butt;stroke-linejoin:miter;stroke-opacity:1" />
      <path
         inkscape:connector-curvature="0"
         inkscape:original-d="m 293.83821,301.48879 c 0.27031,-3.34025 2.45782,-6.3633 3.53553,-9.59645 1.15775,-3.47324 1.66589,-14.34589 0,-17.67767 -2.23196,-4.46392 -7.09465,-9.09137 -12.12183,-9.09137 -3.53055,0 -9.00517,9.63955 -6.06091,11.11168 3.84859,1.9243 7.25045,-1.84092 6.06091,-3.03046"
         inkscape:path-effect="#path-effect3946-8"
         id="path3944"
         d="m 293.83821,301.48879 c 1.43638,-3.09578 2.62011,-6.30874 3.53553,-9.59645 0.80573,-2.89374 1.40558,-5.86118 1.50073,-8.86349 0.0952,-3.00232 -0.32752,-6.04895 -1.50073,-8.81418 -1.03905,-2.44901 -2.67205,-4.65824 -4.77804,-6.28369 -2.10599,-1.62545 -4.68802,-2.65213 -7.34379,-2.80768 -1.49048,-0.0873 -3.00924,0.10028 -4.39289,0.66124 -1.38365,0.56097 -2.6267,1.50765 -3.4391,2.76032 -0.8124,1.25266 -1.17048,2.81656 -0.87161,4.27938 0.14944,0.7314 0.45937,1.43125 0.91262,2.02443 0.45324,0.59318 1.0502,1.07799 1.73007,1.38631 1.17782,0.53414 2.59579,0.50728 3.75253,-0.0711 1.15674,-0.57837 2.02901,-1.69663 2.30838,-2.95937"
         style="fill:none;stroke:#000000;stroke-width:2.5;stroke-linecap:round;stroke-linejoin:round;stroke-miterlimit:4;stroke-opacity:1;stroke-dasharray:none" />
      <path
         inkscape:connector-curvature="0"
         inkscape:original-d="m 286.76714,301.48879 c 0.0776,-6.76999 1.00621,-14.6551 -2.02031,-20.70812 -2.23931,-4.47864 -6.86047,-6.27151 -9.59645,-3.53554 -2.07967,2.07967 3.39247,5.19383 4.04061,4.54569"
         inkscape:path-effect="#path-effect3950-6"
         id="path3948"
         d="m 286.76714,301.48879 c 1.77724,-6.85326 1.04803,-14.3276 -2.02031,-20.70812 -0.45726,-0.95085 -0.96734,-1.88244 -1.61663,-2.71407 -0.64928,-0.83164 -1.44445,-1.56361 -2.38358,-2.04448 -0.93913,-0.48086 -2.02928,-0.69903 -3.06702,-0.50857 -1.03775,0.19047 -2.01003,0.81309 -2.52922,1.73158 -0.32716,0.57877 -0.4684,1.26079 -0.39801,1.92189 0.0704,0.6611 0.35208,1.29809 0.79377,1.79499 0.4417,0.49691 1.04126,0.85133 1.68955,0.99875 0.64829,0.14741 1.34216,0.0871 1.9553,-0.16994"
         style="fill:none;stroke:#000000;stroke-width:2.5;stroke-linecap:round;stroke-linejoin:round;stroke-miterlimit:4;stroke-opacity:1;stroke-dasharray:none" />
      <path
         inkscape:connector-curvature="0"
         inkscape:original-d="m 300.90928,303.00402 c 1.30716,-1.79745 1.69708,-4.28309 3.03045,-6.06091 4.26023,-5.6803 4.8999,-10.30486 7.57615,-15.65737 0.87236,-1.74473 0.12067,-4.28196 1.01015,-6.06091 0.4714,-0.94281 -0.4714,-2.59273 0,-3.53553 2.9721,-5.94421 -1.43886,-10.89733 -7.07107,-8.08122 -4.38599,2.19299 -4.71796,12.2941 1.01016,6.56599"
         inkscape:path-effect="#path-effect3954-5"
         id="path3952"
         d="m 300.90928,303.00402 c 0.94358,-2.05269 1.95445,-4.07444 3.03045,-6.06091 2.76831,-5.11076 5.99974,-10.06287 7.57615,-15.65737 0.55663,-1.9754 0.89896,-4.0116 1.01015,-6.06091 0.0639,-1.17725 0.0517,-2.35768 0,-3.53553 -0.0933,-2.12734 -0.35022,-4.34938 -1.5452,-6.11185 -0.59749,-0.88124 -1.42936,-1.62041 -2.41977,-2.01113 -0.99041,-0.39071 -2.14234,-0.41073 -3.1061,0.0418 -0.67099,0.31504 -1.23562,0.85178 -1.58422,1.50597 -0.34859,0.65419 -0.47922,1.42219 -0.3665,2.15484 0.11272,0.73266 0.46815,1.42588 0.99726,1.94504 0.52911,0.51915 1.22896,0.86136 1.96362,0.96014"
         style="fill:none;stroke:#000000;stroke-width:2.5;stroke-linecap:round;stroke-linejoin:round;stroke-miterlimit:4;stroke-opacity:1;stroke-dasharray:none" />
      <path
         inkscape:connector-curvature="0"
         inkscape:original-d="m 307.47527,302.49894 c 4.11216,-0.0982 9.59645,-9.00573 9.59645,-18.18274 0,-1.3189 0.91072,-2.82368 0.50507,-4.04061 -0.89684,-2.69052 -2.81239,-12.55796 -2.0203,-14.14214 0.83329,-1.66659 5.12668,-6.02295 8.08122,-4.54568 2.45836,1.22917 2.85992,3.19445 4.04061,5.55583 3.6763,7.35263 -7.07107,13.83755 -7.07107,7.07107"
         inkscape:path-effect="#path-effect3958-6"
         id="path3956"
         d="m 307.47527,302.49894 c 4.7216,-5.07701 8.06919,-11.41983 9.59645,-18.18274 0.29974,-1.32731 0.53159,-2.68014 0.50507,-4.04061 -0.047,-2.40801 -0.89502,-4.7158 -1.55798,-7.03123 -0.66296,-2.31543 -1.14493,-4.8012 -0.46232,-7.11091 0.48958,-1.65657 1.59444,-3.13889 3.08626,-4.00973 1.49183,-0.87085 3.36215,-1.09972 4.99496,-0.53595 1.14829,0.39647 2.15864,1.16946 2.86532,2.15757 0.70668,0.98812 1.11031,2.18519 1.17529,3.39826 0.10054,1.87681 -0.62996,3.7831 -1.95896,5.11211 -1.32901,1.329 -3.2353,2.0595 -5.11211,1.95896"
         style="fill:none;stroke:#000000;stroke-width:2.5;stroke-linecap:round;stroke-linejoin:round;stroke-miterlimit:4;stroke-opacity:1;stroke-dasharray:none" />
      <path
         inkscape:connector-curvature="0"
         inkscape:original-d="m 314.54633,304.51925 c 3.81833,-8.29905 10.98765,-15.91439 14.64721,-23.23351 1.20637,-2.41276 4.37599,-2.86077 5.55583,-4.04061 0.7662,-0.7662 3.72353,3.21846 4.04061,3.53553 1.09238,1.09238 -0.78608,4.37856 -1.01015,5.05077 -0.16664,0.4999 -0.11034,1.62556 -0.50508,2.0203 -1.26269,1.26269 -4.29315,0.75761 -5.55584,2.02031"
         inkscape:path-effect="#path-effect3962-0"
         id="path3960"
         d="m 314.54633,304.51925 c 4.3532,-8.06175 9.25038,-15.8297 14.64721,-23.23351 0.70063,-0.96118 1.41845,-1.92571 2.32755,-2.69269 0.90911,-0.76698 2.039,-1.32953 3.22828,-1.34792 0.9788,-0.0151 1.95706,0.35063 2.6918,0.99751 0.73474,0.64687 1.22055,1.56754 1.34881,2.53802 0.11333,0.85756 -0.0438,1.72904 -0.27556,2.56243 -0.23177,0.83339 -0.53851,1.64584 -0.73459,2.48834 -0.15757,0.67703 -0.2445,1.37587 -0.50508,2.0203 -0.41638,1.02974 -1.2843,1.8674 -2.32816,2.24699 -1.04387,0.37958 -2.24711,0.29508 -3.22768,-0.22668"
         style="fill:none;stroke:#000000;stroke-width:2.5;stroke-linecap:round;stroke-linejoin:round;stroke-miterlimit:4;stroke-opacity:1;stroke-dasharray:none" />
      <path
         inkscape:connector-curvature="0"
         inkscape:original-d="m 321.11233,309.57002 c 4.59203,-8.67422 13.15818,-13.66327 19.69796,-20.20306 0.52873,-0.52872 4.28036,-2.7907 5.05077,-2.0203 3.25455,3.25455 6.91651,10.25608 2.52538,14.64721 -0.99353,0.99353 -6.15117,4.96051 -8.08122,3.03046 -1.56091,-1.56091 -0.36103,-4.68974 -2.02031,-3.03046"
         inkscape:path-effect="#path-effect3970-2"
         id="path3968"
         d="m 321.11233,309.57002 c 5.07659,-7.99803 11.831,-14.92563 19.69796,-20.20306 0.76459,-0.51292 1.5432,-1.01245 2.38288,-1.3901 0.83968,-0.37765 1.74719,-0.63159 2.66789,-0.6302 1.5549,0.002 3.06692,0.75772 4.10242,1.91766 1.03549,1.15994 1.60853,2.69501 1.72053,4.24587 0.112,1.55086 -0.21943,3.11513 -0.82602,4.54683 -0.6066,1.43169 -1.48207,2.73742 -2.47155,3.93685 -0.99543,1.20664 -2.14193,2.33638 -3.56012,2.9964 -0.70909,0.33002 -1.48045,0.5366 -2.26228,0.55812 -0.78183,0.0215 -1.574,-0.14625 -2.25882,-0.52406 -1.10471,-0.60946 -1.88262,-1.77631 -2.02031,-3.03046"
         style="fill:none;stroke:#000000;stroke-width:2.5;stroke-linecap:round;stroke-linejoin:round;stroke-miterlimit:4;stroke-opacity:1;stroke-dasharray:none" />
      <path
         inkscape:connector-curvature="0"
         inkscape:original-d="m 277.67577,299.97357 c -0.11988,-6.84318 -5.9892,-14.43104 -11.61676,-18.18275 -0.77248,-0.51499 -3.25511,-2.80581 -4.54569,-1.51523 -1.03749,1.0375 -4.17436,2.7929 -5.05076,4.54569 -1.84964,3.69928 1.88708,10.16814 6.06092,8.08122 1.92185,-0.96093 4.26489,-5.05076 1.01015,-5.05076"
         inkscape:path-effect="#path-effect3974-8"
         id="path3972"
         d="m 277.67577,299.97357 c -1.00323,-7.35387 -5.36551,-14.18178 -11.61676,-18.18275 -0.68499,-0.43842 -1.39474,-0.84619 -2.15603,-1.13232 -0.76128,-0.28613 -1.57899,-0.44805 -2.38966,-0.38291 -1.19277,0.0958 -2.31554,0.68611 -3.17269,1.52108 -0.85716,0.83497 -1.46295,1.90231 -1.87807,3.02461 -0.38411,1.03846 -0.61387,2.14214 -0.58851,3.24907 0.0254,1.10693 0.31328,2.21779 0.90304,3.15487 0.58976,0.93707 1.49083,1.69062 2.54574,2.02691 1.05492,0.3363 2.25875,0.2324 3.20065,-0.34963 0.81902,-0.50609 1.41373,-1.36182 1.60254,-2.30589 0.18881,-0.94407 -0.031,-1.9627 -0.59239,-2.74487"
         style="fill:none;stroke:#000000;stroke-width:2.5;stroke-linecap:round;stroke-linejoin:round;stroke-miterlimit:4;stroke-opacity:1;stroke-dasharray:none" />
      <path
         inkscape:connector-curvature="0"
         inkscape:original-d="m 266.05901,305.02433 c -2.61156,-3.03419 -8.57776,-6.56599 -11.11168,-6.56599"
         inkscape:path-effect="#path-effect3978-2"
         id="path3976"
         d="m 266.05901,305.02433 -11.11168,-6.56599"
         style="fill:none;stroke:#000000;stroke-width:2.5;stroke-linecap:round;stroke-linejoin:round;stroke-miterlimit:4;stroke-opacity:1;stroke-dasharray:none" />
      <g
         id="g3113">
        <g
           id="g3109">
          <path
             sodipodi:nodetypes="zzsaz"
             inkscape:connector-curvature="0"
             id="path4064"
             d="m 343.82397,489.66083 c -0.97482,-2.9269 -18.85748,-2.55774 -26.68111,-1.21192 -7.82363,1.34581 -13.97191,7.62269 -13.31889,12.09952 1.0186,6.98311 11.13857,5.47758 16.89032,4.53082 9.13738,-1.50405 24.0845,-12.49152 23.10968,-15.41842 z"
             style="fill:#e6e6e6;stroke:#000000;stroke-width:1px;stroke-linecap:butt;stroke-linejoin:miter;stroke-opacity:1" />
          <path
             sodipodi:nodetypes="cssc"
             inkscape:connector-curvature="0"
             inkscape:original-d="m 338.90618,408.21876 c -0.82954,5.37115 -0.19411,34.50168 1.51523,46.46702 0.9266,6.48622 -0.27448,13.27485 1.01015,19.69797 0.69099,3.45494 -1.83242,13.31987 0.50507,15.65737"
             inkscape:path-effect="#path-effect3038"
             id="path3036"
             d="m 338.90618,408.21876 c 0.22048,15.49654 0.72567,30.98903 1.51523,46.46702 0.33495,6.5661 0.72107,13.12969 1.01015,19.69797 0.2296,5.21691 0.39798,10.43651 0.50507,15.65737"
             style="fill:none;stroke:#000000;stroke-width:5;stroke-linecap:round;stroke-linejoin:round;stroke-miterlimit:4;stroke-opacity:1;stroke-dasharray:none;marker-end:none" />
        </g>
      </g>
      <g
         id="g3118">
        <path
           sodipodi:nodetypes="zzsaz"
           inkscape:connector-curvature="0"
           id="path4070"
           d="m 386.55947,488.01108 c -0.37232,-3.06243 -17.97023,-6.2624 -25.90515,-6.5018 -7.93494,-0.23941 -15.21021,4.68714 -15.46194,9.20434 -0.39268,7.04608 9.82441,7.58633 15.64949,7.80414 9.25388,0.34599 26.08992,-7.44427 25.7176,-10.50668 z"
           style="fill:#e6e6e6;stroke:#000000;stroke-width:1px;stroke-linecap:butt;stroke-linejoin:miter;stroke-opacity:1"
           inkscape:transform-center-x="19.105222"
           inkscape:transform-center-y="2.8021847" />
        <path
           style="fill:none;stroke:#000000;stroke-width:5;stroke-linecap:round;stroke-linejoin:round;stroke-miterlimit:4;stroke-opacity:1;stroke-dasharray:none;marker-end:none"
           d="m 384.36304,413.26952 c 0.82414,9.06458 1.1615,18.17341 1.01015,27.27412 -0.098,5.89422 -0.40082,11.78355 -0.50507,17.67767 -0.0923,5.21844 -0.0289,10.43819 0,15.65737 0.0243,4.37728 0.0243,8.7547 0,13.13198"
           id="path3040"
           inkscape:path-effect="#path-effect3042"
           inkscape:original-d="m 384.36304,413.26952 c -0.58654,2.79401 -0.10532,18.35035 1.01015,27.27412 0.69566,5.56525 0.27363,12.22677 -0.50507,17.67767 -0.70838,4.95861 0,10.6286 0,15.65737 0,2.60236 -0.9582,12.17379 0,13.13198"
           inkscape:connector-curvature="0"
           sodipodi:nodetypes="csssc" />
      </g>
      <g
         id="g3122">
        <path
           sodipodi:nodetypes="zzsaz"
           inkscape:connector-curvature="0"
           id="path4072"
           d="m 438.87073,491.3029 c -0.68248,-3.00852 -18.51487,-4.39841 -26.43288,-3.8279 -7.91802,0.5705 -14.65334,6.21284 -14.4434,10.73217 0.32746,7.04941 10.5464,6.54561 16.36334,6.16864 9.24096,-0.59888 25.19543,-10.06438 24.51294,-13.07291 z"
           style="fill:#e6e6e6;stroke:#000000;stroke-width:1px;stroke-linecap:butt;stroke-linejoin:miter;stroke-opacity:1"
           inkscape:transform-center-x="18.2392"
           inkscape:transform-center-y="4.2851967" />
        <path
           style="fill:none;stroke:#000000;stroke-width:5;stroke-linecap:round;stroke-linejoin:round;stroke-miterlimit:4;stroke-opacity:1;stroke-dasharray:none;marker-end:none"
           d="m 433.86052,413.26953 c -0.12053,6.39687 -0.12053,12.79602 0,19.19289 0.26674,14.15688 1.12353,28.29545 2.0203,42.42641 0.33123,5.21948 0.66795,10.4386 1.01015,15.65737"
           id="path3048"
           inkscape:path-effect="#path-effect3050"
           inkscape:original-d="m 433.86052,413.26953 c -1.40738,6.29073 0,12.97081 0,19.19289 0,12.88558 -0.0719,29.87308 2.0203,42.42641 0.33569,2.01414 -0.11668,16.7842 1.01015,15.65737"
           inkscape:connector-curvature="0" />
      </g>
      <g
         id="g3126">
        <path
           style="fill:#e6e6e6;stroke:#000000;stroke-width:1px;stroke-linecap:butt;stroke-linejoin:miter;stroke-opacity:1"
           d="m 511.45537,491.3792 c -0.27216,-3.07294 -17.75624,-6.84562 -25.67913,-7.34389 -7.92288,-0.49828 -15.35509,4.18817 -15.75413,8.69475 -0.62243,7.0295 9.57155,7.90297 15.38642,8.31079 9.23765,0.64787 26.31901,-6.58871 26.04684,-9.66165 z"
           id="path4074"
           inkscape:connector-curvature="0"
           sodipodi:nodetypes="zzsaz"
           inkscape:transform-center-x="18.159699"
           inkscape:transform-center-y="1.4936614" />
        <path
           style="fill:none;stroke:#000000;stroke-width:5;stroke-linecap:round;stroke-linejoin:round;stroke-miterlimit:4;stroke-opacity:1;stroke-dasharray:none;marker-end:none"
           d="m 505.58135,414.78476 c 0.53165,12.45745 1.03673,24.91603 1.51522,37.37564 0.29748,7.74621 0.58471,15.49328 1.01016,23.23351 0.27782,5.05446 0.61457,10.10568 1.01015,15.15229"
           id="path3052"
           inkscape:path-effect="#path-effect3054"
           inkscape:original-d="m 505.58135,414.78476 c -0.62974,5.47694 1.51522,25.61733 1.51522,37.37564 0,7.31646 -1.23891,16.48631 1.01016,23.23351 0.64053,1.92158 -0.0659,16.2283 1.01015,15.15229"
           inkscape:connector-curvature="0" />
      </g>
      <path
         inkscape:connector-curvature="0"
         inkscape:original-d="m 508.10673,317.81011 c -0.73436,-2.56084 4.41274,-2.89751 9.09137,-7.57614 3.05174,-3.05174 6.81819,-2.27273 10.6066,-3.53554 11.4296,-3.80986 19.17585,5.99274 21.71828,16.16244 3.25934,13.03737 -3.89709,36.00947 -6.06091,48.9924 -0.92328,5.53963 -0.31648,10.35086 1.01015,15.65737 1.14208,4.56832 2.69205,11.22279 7.07107,14.14213 1.90089,1.26727 3.6977,2.60647 5.55583,3.53554 2.08458,1.04229 4.22187,-1.63607 5.55584,-2.52539 11.09831,-7.39887 9.77225,-13.33008 12.62691,-24.74873 0.75953,-3.03813 1.81942,-7.87462 1.01015,-11.11168 -1.10572,-4.42288 -4.57323,-6.59354 -7.07106,-9.09137 -1.81032,-1.81032 -6.13766,0.0767 -7.57615,1.51523 -7.76076,7.76075 6.56599,18.08291 6.56599,9.09137"
         inkscape:path-effect="#path-effect4018"
         id="path4016"
         d="m 508.10673,317.81011 c 2.58368,-3.00489 5.66983,-5.57669 9.09137,-7.57614 3.24692,-1.89741 6.8538,-3.29237 10.6066,-3.53554 4.84629,-0.31403 9.74139,1.35686 13.5759,4.33707 3.83452,2.98021 6.6226,7.21284 8.14238,11.82537 2.60759,7.91403 1.53085,16.56655 -0.42838,24.66549 -1.95923,8.09893 -4.77915,16.03818 -5.63253,24.32691 -0.53837,5.22911 -0.27573,10.56032 1.01015,15.65737 1.30015,5.15358 3.66227,10.06416 7.07107,14.14213 0.72483,0.86712 1.50287,1.70239 2.42507,2.35572 0.9222,0.65333 2.0022,1.11959 3.13076,1.17982 1.0425,0.0556 2.083,-0.23726 3.01322,-0.71115 0.93022,-0.4739 1.75968,-1.12366 2.54262,-1.81424 3.52867,-3.1124 6.20284,-7.10836 8.19152,-11.37259 1.98868,-4.26424 3.31762,-8.80568 4.43539,-13.37614 0.89012,-3.63963 1.6544,-7.42058 1.01015,-11.11168 -0.34614,-1.98317 -1.10664,-3.90681 -2.31038,-5.52044 -1.20375,-1.61362 -2.86023,-2.90678 -4.76068,-3.57093 -1.28672,-0.44967 -2.68559,-0.60798 -4.02759,-0.36947 -1.342,0.23851 -2.62194,0.88508 -3.54856,1.8847 -0.88965,0.95973 -1.43431,2.2328 -1.51411,3.53901 -0.0798,1.30621 0.30584,2.63611 1.07204,3.697 0.7662,1.06089 1.90742,1.8451 3.17248,2.18002 1.26506,0.33492 2.64481,0.21813 3.83558,-0.32466"
         style="fill:none;stroke:#000000;stroke-width:4;stroke-linecap:round;stroke-linejoin:miter;stroke-miterlimit:4;stroke-opacity:1;stroke-dasharray:none" />
      <path
         sodipodi:nodetypes="zcczsczaczzcz"
         inkscape:connector-curvature="0"
         inkscape:original-d="m 484.39512,318.71197 c -2.29623,-2.06945 -17.36748,10.7475 -14.64023,12.22951 2.72725,1.48201 6.08149,3.55612 6.08149,3.55612 0,0 -3.15067,2.98095 -5.27791,4.21174 -2.12725,1.23078 -2.89682,10.31249 -0.17857,11.69643 4.99598,2.5436 13.64539,-1.37519 13.64539,-1.37519 0,0 0.17004,1.09589 0.7296,4.05376 0.55956,2.95787 6.72929,7.63966 10.71429,6.42857 4.67495,-1.42078 6.24737,-13.26025 6.24737,-13.26025 0,0 5.65477,0.0283 8.75263,-3.16832 3.09786,-3.19661 0.22786,-17.07347 -3.90319,-19.66562 -4.13105,-2.59216 -14.20912,4.19118 -14.20912,4.19118 0,0 -5.66552,-6.82848 -7.96175,-8.89793 z"
         inkscape:path-effect="#path-effect4196"
         id="path4194"
         d="m 484.39512,318.71197 c -1.93409,-0.87385 -4.07135,-1.32436 -6.19004,-1.19989 -2.11868,0.12447 -4.21421,0.83582 -5.91035,2.11154 -1.69613,1.27572 -2.97479,3.12347 -3.47229,5.18668 -0.49751,2.0632 -0.18742,4.32834 0.93245,6.13118 1.28922,2.07547 3.6405,3.45036 6.08149,3.55612 -2.10827,0.87047 -3.96131,2.34919 -5.27791,4.21174 -1.20715,1.70771 -1.96515,3.75063 -2.03857,5.84063 -0.0734,2.09 0.55894,4.21851 1.86,5.8558 1.68981,2.1265 4.49576,3.311 7.19823,3.03865 2.70246,-0.27236 5.21564,-1.99292 6.44716,-4.41384 -0.0152,1.3811 0.23378,2.76464 0.7296,4.05376 0.80984,2.10558 2.29761,3.9564 4.21943,5.1379 1.92181,1.18149 4.27164,1.67354 6.49486,1.29067 2.8214,-0.48589 5.35506,-2.41409 6.57524,-5.00397 1.22019,-2.58989 1.09385,-5.77131 -0.32787,-8.25628 3.18497,0.1968 6.43161,-0.97843 8.75263,-3.16832 1.44684,-1.36509 2.53647,-3.10493 3.1364,-5.00147 0.59993,-1.89655 0.70921,-3.9456 0.31787,-5.8959 -0.39135,-1.9503 -1.28213,-3.79782 -2.56166,-5.32085 -1.27952,-1.52303 -2.94491,-2.7187 -4.7958,-3.4474 -2.47416,-0.97408 -5.2742,-1.09769 -7.82457,-0.34542 -2.55037,0.75227 -4.8351,2.3757 -6.38455,4.5366 -1.26329,-3.89782 -4.22775,-7.21086 -7.96175,-8.89793"
         style="fill:#e9c6af;stroke:#000000;stroke-width:1px;stroke-linecap:butt;stroke-linejoin:miter;stroke-opacity:1" />
      <path
         sodipodi:nodetypes="szczcscsss"
         inkscape:connector-curvature="0"
         inkscape:original-d="m 525.67095,359.83722 c -1.3054,-7.5302 -11.59272,-9.99929 -13.14557,-9.17059 -1.55286,0.8287 0.59173,7.10696 0.59173,7.10696 0,0 -12.48238,3.78844 -10.0582,6.42857 2.42418,2.64014 7.9079,9.08394 7.9079,9.08394 -0.52013,-0.40455 -9.66013,5.48567 -8.16044,10.81581 3.3241,11.81434 16.40012,8.13815 16.40012,8.13815 0,0 0.88596,7.35786 3.62219,7.06363 3.88426,-0.41768 4.08985,-4.10269 4.61004,-9.17803 0.95325,-9.30054 -0.46237,-22.75824 -1.76777,-30.28844 z"
         inkscape:path-effect="#path-effect4208"
         id="path4206"
         d="m 525.67095,359.83722 c -0.347,-1.62331 -0.75652,-3.24168 -1.40748,-4.76869 -0.65097,-1.52702 -1.55395,-2.96704 -2.78173,-4.08422 -1.22778,-1.11717 -2.79782,-1.89595 -4.45356,-2.01458 -0.82786,-0.0593 -1.66967,0.0466 -2.44912,0.33184 -0.77944,0.28522 -1.49501,0.75125 -2.05368,1.36506 -0.89765,0.98626 -1.36235,2.35333 -1.25169,3.68233 0.11065,1.329 0.79502,2.6004 1.84342,3.42463 -2.16253,-0.63436 -4.59272,-0.28772 -6.49165,0.92596 -1.89894,1.21368 -3.23409,3.27361 -3.56655,5.50261 -0.33648,2.25593 0.3613,4.64542 1.85892,6.36577 1.49762,1.72034 3.7682,2.74065 6.04898,2.71817 -2.39227,0.54584 -4.57668,1.95951 -6.05456,3.91828 -1.47788,1.95877 -2.23765,4.44732 -2.10588,6.89753 0.0994,1.84868 0.69801,3.66814 1.71562,5.21474 1.0176,1.54661 2.45161,2.81639 4.11001,3.63933 1.65839,0.82294 3.53692,1.19692 5.38405,1.07186 1.84712,-0.12505 3.6581,-0.74882 5.19044,-1.78778 -0.65022,0.60718 -1.09569,1.4299 -1.24873,2.30627 -0.15305,0.87638 -0.0128,1.80139 0.39313,2.59301 0.40594,0.79162 1.07526,1.44533 1.87623,1.83248 0.80098,0.38716 1.72904,0.50555 2.60156,0.33187 0.91146,-0.18143 1.74732,-0.67361 2.4029,-1.33231 0.65559,-0.6587 1.13662,-1.47845 1.46432,-2.3481 0.6554,-1.7393 0.70402,-3.63934 0.74282,-5.49762 0.2116,-10.13508 0.3513,-20.37511 -1.76777,-30.28844"
         style="fill:#e9c6af;stroke:#000000;stroke-width:1px;stroke-linecap:butt;stroke-linejoin:miter;stroke-opacity:1" />
      <path
         sodipodi:nodetypes="zczczczczcz"
         inkscape:connector-curvature="0"
         id="path3059"
         d="m 427.7996,332.45732 c 13.04408,1.25715 10.85913,22.4759 10.85913,22.4759 0,0 22.09045,-2.14273 22.98098,12.37437 0.89054,14.5171 -19.69798,13.63705 -19.69798,13.63705 0,0 4.81858,20.50033 -9.09137,22.72843 -13.90995,2.22811 -17.42513,-18.18274 -17.42513,-18.18274 0,0 -16.76549,13.55739 -23.48605,2.02031 -6.72056,-11.53708 10.10153,-20.20305 10.10153,-20.20305 0,0 -14.31049,-6.73436 -10.85914,-16.66752 3.45135,-9.93317 21.46574,-4.54569 21.46574,-4.54569 0,0 2.10822,-14.89421 15.15229,-13.63706 z"
         style="fill:#e9c6af;stroke:#000000;stroke-width:1px;stroke-linecap:butt;stroke-linejoin:miter;stroke-opacity:1" />
      <path
         sodipodi:nodetypes="czczccczczc"
         inkscape:connector-curvature="0"
         id="path3061"
         d="m 473.00392,385.74287 c 0,0 7.52555,-17.59428 18.18275,-11.11168 10.6572,6.4826 0,20.20306 0,20.20306 0,0 12.68156,1.74406 10.35407,11.11167 -2.32749,9.36761 -15.40483,5.3033 -15.40483,5.3033 0,0 5.48812,2.29935 4.32378,6.12219 -12.95004,0.0728 -17.47971,-0.41375 -27.59318,-0.4311 -8.86347,-0.91021 -18.74547,-1.75063 -18.08558,-10.35933 0.65988,-8.60869 13.82832,-7.95866 13.82832,-7.95866 0,0 -10.60185,-8.84152 -3.28299,-16.66752 7.31886,-7.826 17.67766,3.78807 17.67766,3.78807 z"
         style="fill:#e9c6af;stroke:#000000;stroke-width:1px;stroke-linecap:butt;stroke-linejoin:miter;stroke-opacity:1" />
      <path
         sodipodi:nodetypes="ccczcc"
         inkscape:connector-curvature="0"
         id="path3067"
         d="m 428.57143,321.23734 c 18.72485,-1.59024 26.62263,-3.62587 38.92857,-5.71428 1.9488,6.66159 -11.07143,8.03571 -11.07143,8.03571 0,0 5.74219,12.17378 -2.67857,14.64286 -8.42076,2.46908 -12.5,-11.60715 -12.5,-11.60715 0,0 -12.4131,1.65437 -12.67857,-5.35714 z"
         style="fill:#e9c6af;stroke:#000000;stroke-width:1px;stroke-linecap:butt;stroke-linejoin:miter;stroke-opacity:1" />
      <path
         style="fill:#e9c6af;stroke:#000000;stroke-width:1px;stroke-linecap:butt;stroke-linejoin:miter;stroke-opacity:1"
         d="m 384.40743,354.89785 c 8.4216,8.49817 -6.74109,19.74699 -6.74109,19.74699 0,0 15.49675,6.22207 7.24511,18.19912 -8.25162,11.97706 -19.98762,0.37312 -19.98762,0.37312 0,0 -8.67073,17.6809 -19.03043,11.39235 -10.35971,-6.28856 -1.96811,-19.88093 -1.96811,-19.88093 0,0 -14.0586,-0.024 -13.30557,-11.10768 0.75303,-11.08369 15.41109,-7.70997 15.41109,-7.70997 0,0 -7.11216,-12.69795 2.80193,-17.31748 9.91409,-4.61953 16.30829,8.40949 16.30829,8.40949 0,0 10.84481,-10.60317 19.2664,-2.10501 z"
         id="path3069"
         inkscape:connector-curvature="0"
         sodipodi:nodetypes="zczczczczcz" />
      <path
         transform="translate(2.6785714,0.35714285)"
         d="m 361.06081,375.38879 c 0,2.61204 -2.11747,4.72952 -4.72951,4.72952 -2.61204,0 -4.72952,-2.11748 -4.72952,-4.72952 0,-2.61203 2.11748,-4.72951 4.72952,-4.72951 2.61204,0 4.72951,2.11748 4.72951,4.72951 z"
         sodipodi:ry="4.7295146"
         sodipodi:rx="4.7295146"
         sodipodi:cy="375.38879"
         sodipodi:cx="356.3313"
         id="path3073"
         style="fill:#000000"
         sodipodi:type="arc" />
      <path
         sodipodi:type="arc"
         style="fill:#000000"
         id="path3075"
         sodipodi:cx="356.3313"
         sodipodi:cy="375.38879"
         sodipodi:rx="6.1580858"
         sodipodi:ry="6.1580858"
         d="m 362.48938,375.38879 c 0,3.40102 -2.75706,6.15809 -6.15808,6.15809 -3.40102,0 -6.15809,-2.75707 -6.15809,-6.15809 0,-3.40101 2.75707,-6.15808 6.15809,-6.15808 3.40102,0 6.15808,2.75707 6.15808,6.15808 z"
         transform="translate(66.964285,-7.3214285)" />
      <path
         transform="translate(133.75,-38.035714)"
         d="m 360.16796,375.38879 c 0,2.11893 -1.71773,3.83666 -3.83666,3.83666 -2.11893,0 -3.83666,-1.71773 -3.83666,-3.83666 0,-2.11892 1.71773,-3.83665 3.83666,-3.83665 2.11893,0 3.83666,1.71773 3.83666,3.83665 z"
         sodipodi:ry="3.8366573"
         sodipodi:rx="3.8366573"
         sodipodi:cy="375.38879"
         sodipodi:cx="356.3313"
         id="path3077"
         style="fill:#000000"
         sodipodi:type="arc" />
      <path
         transform="translate(116.60714,26.607143)"
         d="m 361.06081,375.38879 c 0,2.61204 -2.11747,4.72952 -4.72951,4.72952 -2.61204,0 -4.72952,-2.11748 -4.72952,-4.72952 0,-2.61203 2.11748,-4.72951 4.72952,-4.72951 2.61204,0 4.72951,2.11748 4.72951,4.72951 z"
         sodipodi:ry="4.7295146"
         sodipodi:rx="4.7295146"
         sodipodi:cy="375.38879"
         sodipodi:cx="356.3313"
         id="path3079"
         style="fill:#000000"
         sodipodi:type="arc" />
      <path
         sodipodi:type="arc"
         style="fill:#000000"
         id="path3083"
         sodipodi:cx="356.3313"
         sodipodi:cy="375.38879"
         sodipodi:rx="3.8366573"
         sodipodi:ry="2.0509429"
         d="m 360.16796,375.38879 c 0,1.13271 -1.71773,2.05095 -3.83666,2.05095 -2.11893,0 -3.83666,-0.91824 -3.83666,-2.05095 0,-1.1327 1.71773,-2.05094 3.83666,-2.05094 2.11893,0 3.83666,0.91824 3.83666,2.05094 z"
         transform="matrix(0.98921303,-0.14648409,0.14648409,0.98921303,40.283824,2.1390309)" />
      <path
         transform="matrix(0.99900137,-0.04467957,0.04467957,0.99900137,151.44077,16.474174)"
         d="m 358.38224,375.38879 c 0,2.71066 -0.91824,4.90809 -2.05094,4.90809 -1.13271,0 -2.05094,-2.19743 -2.05094,-4.90809 0,-2.71066 0.91823,-4.90808 2.05094,-4.90808 1.1327,0 2.05094,2.19742 2.05094,4.90808 z"
         sodipodi:ry="4.9080858"
         sodipodi:rx="2.0509429"
         sodipodi:cy="375.38879"
         sodipodi:cx="356.3313"
         id="path3081"
         style="fill:#000000"
         sodipodi:type="arc" />
    </g>
  </g>
</svg>
