<?xml version="1.0" encoding="UTF-8" standalone="no"?>
<!-- Generator: Adobe Illustrator 15.0.0, SVG Export Plug-In . SVG Version: 6.00 Build 0)  -->

<svg
   xmlns:dc="http://purl.org/dc/elements/1.1/"
   xmlns:cc="http://creativecommons.org/ns#"
   xmlns:rdf="http://www.w3.org/1999/02/22-rdf-syntax-ns#"
   xmlns:svg="http://www.w3.org/2000/svg"
   xmlns="http://www.w3.org/2000/svg"
   xmlns:sodipodi="http://sodipodi.sourceforge.net/DTD/sodipodi-0.dtd"
   xmlns:inkscape="http://www.inkscape.org/namespaces/inkscape"
   version="1.1"
   x="0px"
   y="0px"
   width="1404.0997"
   height="363.51276"
   viewBox="0 0 1404.0997 363.51276"
   enable-background="new 0 0 1543 768"
   xml:space="preserve"
   id="svg2"
   inkscape:version="0.48.3.1 r9886"
   sodipodi:docname="Cute_Robots_Vector_Fibers.svg"><metadata
   id="metadata319"><rdf:RDF><cc:Work
       rdf:about=""><dc:format>image/svg+xml</dc:format><dc:type
         rdf:resource="http://purl.org/dc/dcmitype/StillImage" /><dc:title></dc:title></cc:Work></rdf:RDF></metadata><defs
   id="defs317">
		
		
		
		
		
		
		
		
		
		
		
		
		
			
		
			
		
		
		
		
		
		
		
		
		
	
	

		
		
		
	
			
			
			
			
			
			
			
			
			
			
			
			
			
			
			
			
			
			
			
			
			
		
	

		
		
		
		
		
		
		
		
		
		
		
	
	

		
		
		
		
		
		
		
		
		
		
		
		
		
		
		
		
		
		
		
		
		
		
		
		
		
		
		
		
		
		
		
		
		
		
		
		
		
	
	

		
		
		
		
		
		
		
		
		
		
		
		
		
		
		
		
		
		
		
		
		
		
		
		
		
		
	
	

		
		
		
		
		
		
		
		
		
		
		
		
		
	
	
</defs><sodipodi:namedview
   pagecolor="#ffffff"
   bordercolor="#666666"
   borderopacity="1"
   objecttolerance="10"
   gridtolerance="10"
   guidetolerance="10"
   inkscape:pageopacity="0"
   inkscape:pageshadow="2"
   inkscape:window-width="1920"
   inkscape:window-height="1181"
   id="namedview315"
   showgrid="false"
   fit-margin-top="0"
   fit-margin-left="0"
   fit-margin-right="0"
   fit-margin-bottom="0"
   inkscape:zoom="0.85237758"
   inkscape:cx="962.89911"
   inkscape:cy="156.84544"
   inkscape:window-x="0"
   inkscape:window-y="0"
   inkscape:window-maximized="0"
   inkscape:current-layer="svg2" />
<g
   id="g5430"
   style="fill:none;stroke:#333333;stroke-width:12;stroke-miterlimit:4;stroke-opacity:1;stroke-dasharray:none"
   transform="translate(-71.75,-238)"><path
     style="fill:none;stroke:#333333;stroke-width:12;stroke-miterlimit:4;stroke-opacity:1;stroke-dasharray:none"
     d="m 197.46875,244 c -2.76142,0 -5,2.36717 -5,5.3125 0,2.94533 2.23858,5.34375 5,5.34375 2.76142,0 5,-2.39842 5,-5.34375 0,-2.94533 -2.23858,-5.3125 -5,-5.3125 z m -0.0312,11 c -0.482,4 -0.658,7.334 -0.75,11 -0.006,0.608 -0.0213,1.2045 -0.0312,1.8125 -0.642,-10e-4 -1.28725,-0.005 -1.90625,0 -23.1,0.215 -57,5.15625 -57,5.15625 -6.923,-0.006 -12.64925,5.6 -12.65625,12.5 l 2.03125,55.1875 c -0.006,6.9 3.60725,12.493 10.53125,12.5 0,0 21.26175,2.93575 38.59375,5.09375 l 0,21.25 c -14.151,2.423 -28.87325,5.63525 -37.53125,9.03125 -3.146,-2.855 -7.2125,-4.58975 -11.6875,-4.59375 -9.941,-0.009 -18.02125,8.47575 -18.03125,18.96875 -0.003,3.894 1.13025,7.51625 3.03125,10.53125 -1.214,1.638 -2.14175,3.60025 -2.59375,5.78125 l -8.40625,40.59375 c -0.945,4.557 0.2865,9.01525 2.9375,12.03125 C 91.93775,471.75575 81.123,480.409 78.75,492.875 l 17.9375,3.4375 c 0.547,-4.05 3.64,-7.49425 7.875,-8.28125 5.281,-0.982 10.36075,2.49925 11.34375,7.78125 0.262,1.408 0.199,2.819 -0.125,4.125 L 128.5,502.34375 c 1.916,-10.059 -2.16975,-19.818 -9.71875,-25.5 5.438,-0.333 10.339,-4.7405 11.625,-10.9375 l 8.40625,-40.59375 c 0.556,-2.68 0.3575,-5.32225 -0.4375,-7.65625 0.1,-0.086 0.18325,-0.19225 0.28125,-0.28125 0.24194,-0.2175 0.48805,-0.42579 0.71875,-0.65625 -0.23064,0.23051 -0.44563,0.46994 -0.6875,0.6875 l 26.25,79.5625 c 0,0.587 0.5535,1.10975 1.5625,1.59375 l -0.0625,59.40625 30.5,0.0312 0.0625,-56.0312 c 5.804,0.097 11.82525,0.0305 17.53125,-0.1875 L 214.46875,558 214,558 l 0,19 0,4 0,3 62,0 0,-7 -7,0 0,-19 -26.125,0 0.0625,-60.53125 c 0.328,-0.299 0.5,-0.6105 0.5,-0.9375 L 263.25,416.625 c 0.385,0.398 0.7695,0.79425 1.1875,1.15625 -0.8,2.332 -0.9875,4.97625 -0.4375,7.65625 l 8.34375,40.59375 c 1.275,6.199 6.15675,10.5965 11.59375,10.9375 -7.559,5.67 -11.647,15.46925 -9.75,25.53125 l 12.71875,-2.40625 c -0.321,-1.307 -0.39,-2.717 -0.125,-4.125 0.992,-5.28 6.096,-8.742 11.375,-7.75 4.234,0.795 7.30375,4.23225 7.84375,8.28125 l 17.9375,-3.40625 C 321.5865,480.62375 310.81225,471.932 298.78125,472 c 2.657,-3.011 3.8745,-7.44 2.9375,-12 L 293.375,419.375 c -0.449,-2.183 -1.3525,-4.14125 -2.5625,-5.78125 1.906,-3.012 3.02725,-6.607 3.03125,-10.5 0.009,-10.493 -8.059,-19.02225 -18,-19.03125 -3.872,-0.003 -7.438,1.307 -10.375,3.5 -7.775,-3.754 -25.57975,-7.25825 -43.21875,-9.28125 l 0,-20.15625 c 17.962,-2.107 38.6875,-4.875 38.6875,-4.875 6.923,0.006 10.33675,-5.56875 10.34375,-12.46875 l 2.125,-55.1875 c 0.006,-6.9 -5.48325,-12.494 -12.40625,-12.5 0,0 -37.962,-4.933 -62.375,-5.25 -0.007,-0.614 -0.0263,-1.23075 -0.0312,-1.84375 -0.085,-3.667 -0.274,-7 -0.75,-11 l -0.40625,0 z m -0.5,303 -54.9375,0 0,19 -7,0 0,7 62,0 0,-3 0,-4 0,-19 -0.0625,0 z m -38.7188,-265.40625 c -0.26355,0.26119 -0.50975,0.56025 -0.75,0.84375 -0.24075,0.28175 -0.49916,0.54573 -0.71875,0.84375 0.21967,-0.29794 0.44675,-0.562 0.6875,-0.84375 0.24025,-0.2835 0.5177,-0.58259 0.78125,-0.84375 z m 15.71875,27 c 0.10644,0.0268 0.20318,0.0312 0.3125,0.0312 0.10932,10e-5 0.20601,-0.005 0.3125,-0.0312 -0.10648,0.0267 -0.20319,0.0626 -0.3125,0.0625 -0.10931,-1.3e-4 -0.20606,-0.0356 -0.3125,-0.0625 z"
     id="path3298"
     inkscape:connector-curvature="0" /><path
     id="path3374"
     d="m 462.5,270 c -6.627,0 -12,17 -12,17 0,1.1 0.1595,2.14425 0.4375,3.15625 C 425.2865,295.79725 397,310.7735 397,314.5625 l 0,30.875 c 0,4.795 29.558,23.31275 54.25,30.59375 l 5.09375,18.75 c -4.452,0.141 -8.36375,0.394 -9.46875,0.875 -0.729,0.316 -3.64025,6.695 -7.78125,16.375 -0.989,-4.54 -3.3165,-8.22125 -6.9375,-10.28125 -8.955,-5.094 -22.40525,1.62325 -30.03125,15.03125 l 5.21875,2.96875 c -0.84368,0.77972 -1.60208,1.71849 -2.25,2.75 l -28.75,45.71875 c -0.421,0.671 -3.50725,5.62025 -4.78125,9.53125 -2.721,1.071 -5.15175,2.9275 -6.84375,5.5625 l -4.59375,4.3125 c -8.086,12.591 -2.5365,16.35425 4.1875,14.78125 l 9.03125,5.125 c -0.761,6.116 8.0165,8.6135 14.3125,-1.1875 l 1.625,-4.90625 c 2.435,-3.791 4.04425,-8.266 3.78125,-12.25 3.146,-3.054 5.56125,-6.49375 5.78125,-6.84375 L 427.5625,436.625 c 0.875,-1.391 1.46925,-2.886 1.78125,-4.375 l 1.03125,0.59375 C 416.658,465.96975 398.61975,510.489 393.21875,519 389.03175,525.597 405.737,530.02525 425.25,532.53125 425.083,533.32925 425,534.152 425,535 l 0,18 c 0,0.062 -10e-4,0.1255 0,0.1875 -4.002,0.99 -7.25325,2.2105 -8.40625,3.3125 C 413.79775,559.177 408,571.13 408,574.375 l 0,0.25 c 0,3.245 3.13,6.375 6.375,6.375 L 411,581 c -1.657,0 -3,1.343 -3,3 0,1.657 1.343,3 3,3 l 55,0 c 1.657,0 3,-1.343 3,-3 0,-1.657 -1.343,-3 -3,-3 l -2.71875,0 C 465.26652,580.93089 466,580.49125 466,577.875 l 0,-3.5 c 0,-3.244 -0.5665,-16.125 -5.5625,-18.125 -0.831,-0.332 -1.72325,-0.6985 -2.65625,-1.0625 C 457.91325,554.4745 458,553.752 458,553 l 0,-18 c 4.406,0.104 8.312,0.0715 11.375,-0.0625 3.554,0.014 8.28125,-0.13675 13.65625,-0.46875 C 483.02325,534.64975 483,534.817 483,535 l 0,18 c 0,0.802 0.0688,1.58575 0.21875,2.34375 -0.81,0.312 -1.56125,0.61825 -2.28125,0.90625 -4.995,2 -5.9375,14.881 -5.9375,18.125 l 0,3.5 c 0,2.61625 1.38784,3.05589 3.625,3.125 L 476,581 c -1.657,0 -3,1.343 -3,3 0,1.657 1.343,3 3,3 l 55,0 c 1.657,0 3,-1.343 3,-3 0,-1.657 -1.343,-3 -3,-3 l -3.375,0 c 3.244,0 5.375,-3.13 5.375,-6.375 l 0,-0.25 c 0,-3.245 -5.29775,-15.198 -8.09375,-17.875 -1.212,-1.16 -4.68225,-2.45375 -8.90625,-3.46875 0,-0.01 0,-0.0213 0,-0.0312 l 0,-18 c 0,-1.395 -0.2495,-2.72375 -0.6875,-3.96875 19.551,-3.031 36.0695,-7.77775 31.6875,-14.09375 -5.74,-8.273 -25.551,-52.27175 -40.625,-85.09375 l 1.03125,-0.59375 c 0.312,1.488 0.90725,2.985 1.78125,4.375 l 28.75,45.71875 c 0.22,0.35 2.604,3.78875 5.75,6.84375 -0.263,3.982 1.34625,8.459 3.78125,12.25 l 1.625,4.90625 c 6.297,9.801 15.0735,7.3035 14.3125,1.1875 l 9.03125,-5.125 c 6.723,1.574 12.2735,-2.2215 4.1875,-14.8125 l -4.59375,-4.28125 c -1.691,-2.635 -4.0925,-4.4915 -6.8125,-5.5625 -1.274,-3.911 -4.3915,-8.86125 -4.8125,-9.53125 l -28.75,-45.7188 c -0.652,-1.038 -1.401,-1.967 -2.25,-2.75 l 5.21875,-2.96875 c -7.625,-13.407 -21.07625,-20.1555 -30.03125,-15.0625 -4.001,2.276 -6.4065,6.544 -7.1875,11.75 -4.909,-10.416 -8.37825,-17.323 -9.15625,-17.625 -1.124,-0.436 -4.5025,-0.55825 -8.4375,-0.53125 l 3.34375,-17.21875 C 508.32425,371.35975 540,354.4025 540,349.4375 l 0,-34.875 c 0,-3.789 -28.2855,-18.76525 -53.9375,-24.40625 0.277,-1.012 0.4375,-2.05625 0.4375,-3.15625 0,0 -5.373,-17 -12,-17 l -12,0 z m 37.21875,45.625 c -0.7365,0.1125 -1.45775,0.1525 -2.15625,0.125 0.6985,0.0274 1.41975,-0.013 2.15625,-0.125 z M 389.9375,491.8125 c -0.72125,0.51439 -1.45382,0.98817 -2.1875,1.34375 0.73368,-0.35558 1.46625,-0.82936 2.1875,-1.34375 z"
     style="fill:none;stroke:#333333;stroke-width:12;stroke-miterlimit:4;stroke-opacity:1;stroke-dasharray:none"
     inkscape:connector-curvature="0" /><path
     id="path4121"
     d="m 866.8125,296.53125 c -1.686,0.139 -2.70325,3.269 -2.28125,7 0.421,3.729 2.1265,6.64 3.8125,6.5 1.493,-0.122 1.27025,-2.57675 0.90625,-5.71875 1.993,0.808 3.95,1.6415 5.875,2.5625 1.007,0.483 1.9855,1.033 2.9375,1.625 0.472,0.302 0.94325,0.64975 1.40625,0.96875 0.469,0.31 0.864,0.65825 1.25,1.03125 1.486,1.473 2.53925,3.5855 3.28125,5.6875 0.097,0.277 0.19125,0.5455 0.28125,0.8125 l -30.875,0 C 841.21525,317 831,332.16275 827,342.59375 l 0,38.65625 c 4,10.431 14.21425,19.75 26.40625,24.75 L 868,406 l 0,15.03125 c -0.02,-10e-4 -0.0467,-0.0312 -0.0937,-0.0312 -13.562,0 -29.122,1.109 -38.625,8.125 -11.478,8.473 -15.09575,24.138 -15.21875,38.125 -4.774,0.266 -8.5625,3.724 -8.5625,7.875 0,4.324 4.10225,7.875 9.15625,7.875 l 22.5625,0 c 0,-1 0.454,-16.59975 1,-21.59375 1.768,-16.129 11.12525,-16.75 27.15625,-16.75 0.867,0 1.625,0.057 2.625,0.125 L 868,484 l -24.78125,0 -29.3125,90.84375 13.625,8.15625 13.5,0 c 0.473,6.146 6.07825,11 12.90625,11 l 95.125,0 c 6.828,0 12.43325,-4.854 12.90625,-11 l 12.71875,0 12.09375,-8.15625 L 952.40625,484 925,484 l 0,-39.21875 c 2.002,-0.069 3.04225,-0.125 3.90625,-0.125 16.034,0 26.07675,0.621 27.84375,16.75 0.551,4.994 1.625,20.59375 1.625,21.59375 l 22.59375,0 c 5.055,0 9.125,-3.55 9.125,-7.875 0,-4.151 -3.75725,-7.61 -8.53125,-7.875 -0.123,-13.987 -3.74075,-29.653 -15.21875,-38.125 -9.504,-7.016 -26.3755,-8.125 -39.9375,-8.125 -0.218,0 -1.40625,0.0292 -1.40625,0.0312 L 925,406 l 14.5625,0 C 951.7555,401 961,391.682 965,381.25 l 0,-38.65625 C 961,332.16375 951.7555,317 939.5625,317 l -30.625,0 c 0.088,-0.267 0.18425,-0.5365 0.28125,-0.8125 0.741,-2.102 1.8255,-4.3405 3.3125,-5.8125 0.386,-0.373 0.74875,-0.65875 1.21875,-0.96875 0.462,-0.318 0.93525,-0.6355 1.40625,-0.9375 0.952,-0.591 1.9305,-1.141 2.9375,-1.625 1.925,-0.923 3.88,-1.72425 5.875,-2.53125 -0.362,3.146 -0.58775,5.59575 0.90625,5.71875 1.686,0.14 3.3885,-2.77 3.8125,-6.5 0.422,-3.73 -0.59625,-6.861 -2.28125,-7 -1.687,-0.139 -1.85725,2.771 -2.28125,6.5 -0.011,0.096 -0.0203,0.18525 -0.0312,0.28125 -2.457,-0.061 -4.747,0.716 -6.875,1.75 -1.069,0.527 -2.12,1.14325 -3.125,1.78125 -0.5,0.321 -0.99175,0.646 -1.46875,1 -0.486,0.34 -1.0095,0.83325 -1.4375,1.28125 -1.775,1.836 -2.7525,4.19975 -3.4375,6.46875 -0.135,0.449 -0.2095,0.92825 -0.3125,1.40625 l -0.0312,0 -21.5625,0 c -0.107,-0.532 -0.232,-1.05625 -0.375,-1.53125 -0.686,-2.269 -1.6605,-4.57025 -3.4375,-6.40625 -0.429,-0.447 -0.9515,-0.911 -1.4375,-1.25 -0.477,-0.354 -0.96775,-0.679 -1.46875,-1 -1.004,-0.638 -2.055,-1.223 -3.125,-1.75 -2.128,-1.034 -4.418,-1.811 -6.875,-1.75 -0.011,-0.094 -0.0203,-0.18725 -0.0312,-0.28125 -0.422,-3.729 -0.59525,-6.639 -2.28125,-6.5 z"
     style="fill:none;stroke:#333333;stroke-width:12;stroke-miterlimit:4;stroke-opacity:1;stroke-dasharray:none"
     inkscape:connector-curvature="0" /><path
     id="path4171"
     d="m 1143.9688,326.71875 c -31.3641,0 -69.4063,10.84375 -69.4063,10.84375 -7.994,0 -14.5625,6.47375 -14.5625,14.46875 l 0,37.15625 c -0.691,-7.82146 -3.1847,-13.21875 -12.1875,-13.21875 -12.537,0 -22.6875,10.44275 -22.6875,23.34375 0,0.595 0.051,1.15375 0.094,1.71875 0.067,0.886 0.1464,1.7475 0.3124,2.5625 0.2505,1.22691 0.6356,2.3719 1.0938,3.4375 -3.6535,-0.0959 -6.2378,0.75054 -7.3125,2.4375 -1.0636,1.67069 -0.5018,3.86396 1.5313,6.25 -3.0389,0.26304 -5.1644,1.21728 -6,2.75 -1.0055,1.8444 -0.065,4.2601 2.5312,6.6875 -2.7569,0.53133 -4.5415,1.60392 -5.1875,3.125 -0.7631,1.79291 0.1855,3.87704 2.6563,5.96875 -2.4459,0.69536 -4.002,1.82608 -4.5,3.28125 -0.6368,1.86539 0.5671,3.92863 3.3124,5.90625 -2.2112,0.89171 -3.5315,2.10316 -3.8437,3.53125 -0.3547,1.6178 0.5845,3.27603 2.7187,4.8125 -1.5963,0.92357 -2.539,2.03114 -2.7187,3.25 -0.327,2.23855 1.8696,4.48264 6.0313,6.15625 -3.6405,1.3965 -6.3438,4.68625 -6.3438,9.8125 l 1.0625,19.03125 c 1.87,7.768 24.5313,10.59375 24.5313,10.59375 4.8179,0 8.9497,-4.25125 9.9687,-9.90625 -5.219,-1.691 -8.7188,-5.6105 -8.7187,-10.1875 0,-4.641 3.7537,-8.599 9.0937,-10.25 -0.184,-4.17275 -1.1435,-6.97782 -3.1563,-8.5 2.4003,-1.03111 3.777,-2.3788 4,-3.90625 0.1975,-1.34442 -0.497,-2.67322 -2.0312,-3.90625 0.8753,-0.67704 1.44,-1.46369 1.625,-2.3125 0.312,-1.42398 -0.4273,-2.88771 -2.0938,-4.28125 0.8843,-0.58691 1.5073,-1.26727 1.7813,-2.0625 0.3658,-1.07103 0.2768,-2.74644 -1.875,-4.78125 1.5622,-0.60134 2.5758,-1.45734 3.0313,-2.53125 0.636,-1.49962 0.053,-3.26564 -1.625,-5.03125 1.4231,-0.48364 2.4142,-1.22667 2.9374,-2.1875 0.7555,-1.38627 0.4432,-3.12346 -0.9062,-4.9375 2.0886,-0.3289 3.5679,-1.08188 4.3125,-2.25 0.651,-1.024 1.037,-2.81275 -0.875,-5.46875 l -0.062,-0.0937 c 2.5191,-0.21901 4.3949,-0.75186 5.7812,-1.65625 1.3461,-0.879 2.2225,-2.10525 2.8126,-3.65625 0.1973,-0.51881 0.3637,-1.0924 0.5,-1.6875 0.2438,-0.46159 0.3867,-0.99822 0.4062,-1.59375 l 0,83.75 c 0,6.471 22.547,35.7615 35.375,46.6875 -0.02,2.678 0.375,5.8635 0.375,9.0625 L 1086.7188,589 c 0,7 42.2812,7 42.2812,0 l 0,-42.75 c 0,-0.782 -0.066,-1.522 -0.1875,-2.25 l 36.4063,0 c -0.128,0.728 -0.2188,1.468 -0.2188,2.25 l 0,42.75 c 0,7 42.75,7 42.75,0 l -9.0625,-40.0625 c 0,-3.456 0.477,-6.8885 0.375,-9.6875 C 1211.2075,527.865 1231,499.5375 1231,493.1875 l 0,-82.84375 c 0.044,0.23638 0.073,0.49325 0.125,0.71875 0.136,0.591 0.304,1.14025 0.5,1.65625 0.591,1.551 1.4665,2.77725 2.8125,3.65625 1.387,0.90431 3.2624,1.43719 5.7813,1.65625 l -0.063,0.0937 c -1.913,2.655 -1.526,4.44375 -0.875,5.46875 0.7455,1.16812 2.224,1.9211 4.3126,2.25 -1.3496,1.81404 -1.6626,3.55123 -0.9063,4.9375 0.5253,0.96397 1.5403,1.70409 2.9687,2.1875 -1.6805,1.76717 -2.2622,3.5318 -1.625,5.03125 0.4547,1.07391 1.4685,1.92991 3.0313,2.53125 -2.1572,2.03643 -2.242,3.70941 -1.875,4.78125 0.2732,0.79523 0.8647,1.47613 1.75,2.0625 -1.6679,1.39354 -2.3754,2.85817 -2.0625,4.28125 0.1863,0.85684 0.7389,1.63199 1.625,2.3125 -1.5357,1.23374 -2.2592,2.56177 -2.0625,3.90625 0.2252,1.53013 1.626,2.87469 4.0313,3.90625 -2.0128,1.52218 -3.0036,4.32725 -3.1876,8.5 5.341,1.65 9.125,5.609 9.125,10.25 0,4.577 -3.53,8.4965 -8.75,10.1875 1.021,5.655 5.183,9.90625 10,9.90625 0,0 22.6603,-2.82575 24.5313,-10.59375 L 1281.2188,471 c 0,-5.12531 -2.7041,-8.41672 -6.3438,-9.8125 4.1617,-1.67354 6.3583,-3.91674 6.0312,-6.15625 -0.1802,-1.22261 -1.0818,-2.35602 -2.6874,-3.28125 2.114,-1.52889 3.0405,-3.1701 2.6874,-4.78125 -0.31,-1.42233 -1.6171,-2.6404 -3.8124,-3.53125 2.7452,-1.9784 3.9179,-4.03995 3.2812,-5.90625 -0.4981,-1.45428 -2.0541,-2.58642 -4.5,-3.28125 2.4715,-2.09111 3.4506,-4.17584 2.6875,-5.96875 -0.6454,-1.52178 -2.4588,-2.59393 -5.2187,-3.125 2.5996,-2.42964 3.5363,-4.84291 2.5312,-6.6875 -0.8369,-1.53677 -2.948,-2.48999 -6,-2.75 2.0421,-2.39011 2.5975,-4.5765 1.5312,-6.25 -1.0701,-1.68286 -3.6274,-2.53125 -7.2812,-2.4375 0.459,-1.0656 0.813,-2.21059 1.0625,-3.4375 0.166,-0.814 0.2768,-1.6765 0.3437,-2.5625 0.042,-0.564 0.094,-1.12375 0.094,-1.71875 0,-12.901 -10.1818,-23.34375 -22.7188,-23.34375 -8.0989,0 -10.9161,4.3666 -11.9062,10.9375 l 0,-34.875 c 10e-4,-7.992 -6.256,-14.46875 -14.25,-14.46875 0,0 -41.4172,-10.84375 -72.7812,-10.84375 z m -50.4688,38.25 c -0.7361,0.31133 -1.4078,0.68275 -2.0625,1.125 0.6547,-0.44225 1.3264,-0.81367 2.0625,-1.125 z m 104.9688,0 c 0.7361,0.31133 1.439,0.68275 2.0937,1.125 -0.6547,-0.44225 -1.3576,-0.81367 -2.0937,-1.125 z m -138.4688,43.5 0,0.6875 c 0,-0.1197 -0.022,-0.25209 -0.031,-0.375 0.011,-0.10122 0.021,-0.20959 0.031,-0.3125 z"
     style="fill:none;stroke:#333333;stroke-width:12;stroke-miterlimit:4;stroke-opacity:1;stroke-dasharray:none"
     inkscape:connector-curvature="0" /><path
     sodipodi:nodetypes="sscsccccccssssssccccscccccccccccccccsccsccccsccsccccccccccccccsccccssssscccccccscssccccccccccccccc"
     inkscape:connector-curvature="0"
     id="path4329"
     d="m 696.28125,253.1875 c -1.762,0 -3.21875,1.05675 -3.21875,2.34375 0,0.565 0.292,1.06575 0.75,1.46875 -5.422,0.228 -9.625,2.00625 -9.625,4.15625 0,2.085 3.96725,3.78475 9.15625,4.09375 -0.529,1.16 -0.9005,1.90725 -1.1875,2.90625 -0.368,1.317 -0.5865,2.807 -0.6875,4.125 -0.082,1.212 -0.10975,2.38875 0.15625,3.59375 -22.073,0.115 -38.71875,8.78125 -38.71875,14.15625 0,0 0.1465,7.0285 0.6875,17.0625 -0.379,-0.063 -0.7845,-0.0937 -1.1875,-0.0937 l -0.8125,0 C 648.51175,307 646,308.92325 646,311.28125 l 0,6.4375 c 0,2.357 2.51175,4.28125 5.59375,4.28125 l 0.8125,0 c 0.753,0 1.47,-0.1065 2.125,-0.3125 1.811,23.393 5.5185,51.61925 12.8125,54.28125 4.378,1.598 10.22925,2.635 16.65625,3.125 L 684,393 l -30.5625,0 c -6.127,0 -11.3415,2.78775 -13.4375,6.71875 l 0,-0.0937 c -14.434,-0.293 -25.70975,2.32575 -31.96875,11.21875 -1.479,1.416 -3.6155,6.886 -3.6875,8.75 l -0.28125,6.84375 c -0.1,2.611 1.452,5.00375 4,6.71875 -3.303,6.523 -4.4655,15.8155 -5.1875,26.1875 -0.811,11.618 3.34525,22.13475 10.15625,29.09375 -1.371,1.132 -2.03375,2.556 -2.09375,4.125 l 0,0.21875 c -0.143,3.819 4.02225,7.008 9.78125,7.125 l 9.59375,0.1875 c 3.815,0.078 7.19975,-1.23075 9.09375,-3.21875 1.396,4.318 6.41175,7.6145 12.59375,8.0625 l 0,62.71875 c -7.676,1.959 -12.84375,5.584 -12.84375,9.75 0,0.09 0.375,13.59375 0.375,13.59375 l 50.9375,0 c 0,0 0.375,-12.97 0.375,-13.625 0,-3.596 -3.85875,-6.78575 -9.84375,-8.84375 L 681,505 l 27,0 0,63.625 c -5.853,2.057 -9.59375,5.199 -9.59375,8.75 0,0.655 0.40625,13.625 0.40625,13.625 l 51.1875,0 0,-13.53125 c 0,-3.83 -4.346,-7.23225 -11,-9.28125 l 0,-64.71875 c 3.362,-1.481 5.8435,-3.9215 6.6875,-6.8125 1.875,2.042 5.28125,3.3925 9.15625,3.3125 l 9.59375,-0.1875 c 5.758,-0.116 9.92425,-3.306 9.78125,-7.125 l 0,-0.21875 c -0.061,-1.571 -0.72275,-2.994 -2.09375,-4.125 6.812,-6.958 10.96525,-17.47375 10.15625,-29.09375 -0.767,-11.039 -2.02575,-20.85125 -5.84375,-27.40625 2.351,-1.694 3.75125,-4.003 3.65625,-6.5 l -0.25,-6.8125 c -0.072,-1.865 -2.2075,-7.61525 -3.6875,-9.03125 C 769.90825,400.59275 758.647,398 744.25,398 c -2.451,-3 -7.2175,-5 -12.6875,-5 L 702,393 l 0,-13.90625 c 6.631,-0.498 13.02625,-1.545 18.28125,-3.125 8.821,-2.652 12.25475,-30.665 13.59375,-54 0.229,0.023 0.4515,0.0312 0.6875,0.0312 l 0.875,0 c 3.081,0 5.5625,-1.92325 5.5625,-4.28125 l 0,-6.4375 C 741,308.92425 738.5185,307 735.4375,307 l -0.875,0 -0.0625,0 c 0.275,-9.983 0.21875,-16.96875 0.21875,-16.96875 0,-5.005 -16.4405,-12.89825 -37.5625,-14.03125 0.317,-1.274 0.2735,-2.473 0.1875,-3.75 -0.102,-1.318 -0.35075,-2.7455 -0.71875,-4.0625 -0.283,-0.988 -0.63625,-1.728 -1.15625,-2.875 5.76,-0.096 10.375,-1.91325 10.375,-4.15625 0,-1.836 -3.101,-3.41075 -7.375,-3.96875 0.604,-0.424 1,-0.99625 1,-1.65625 0,-1.287 -1.4225,-2.34375 -3.1875,-2.34375 z M 639,425.75 l 0,63.15625 c -1.595,-1.449 -4.0135,-2.48425 -6.8125,-2.78125 -2.536,-6.228 -2.5765,-14.223 -1.9375,-23.375 0.581,-8.378 3.54775,-20.276 4.34375,-29.125 2.603,-1.607 4.24675,-3.88875 4.34375,-6.46875 z m 107,3.125 c 0.89133,1.67323 2.47972,3.11008 4.53125,4.15625 0.29313,0.14963 0.59518,0.30399 0.90625,0.4375 -0.3111,-0.13327 -0.61312,-0.25662 -0.90625,-0.40625 0.731,8.895 3.784,21.0375 4.375,29.5625 0.64,9.151 0.5965,17.145 -1.9375,23.375 -2.893,0.308 -5.37875,1.4105 -6.96875,2.9375 z"
     style="fill:none;stroke:#333333;stroke-width:12;stroke-miterlimit:4;stroke-opacity:1;stroke-dasharray:none" /><path
     id="path4522"
     d="M 1394.8438,415 C 1384.4887,415 1377,427.665 1377,429 l 0,20.65625 c -6.797,0.312 -13.6537,0.70975 -16.8438,1.21875 -7.4729,1.189 -10.2702,8.2905 -11.6562,12.8125 -1.386,4.521 -18.4815,41.80475 -18.3125,46.96875 0.167,5.096 0.1298,5.49825 3.8437,13.90625 2.0381,4.612 6.7853,15.18225 10.6563,23.78125 0.8975,0.12025 1.7926,0.30015 2.6875,0.5625 -0.8948,-0.26228 -1.7901,-0.44237 -2.6875,-0.5625 -0.538,-0.072 -1.088,-0.108 -1.625,-0.125 -0.336,-0.012 -1.742,0 -2.125,0 -11.873,0 -19.5937,8.60575 -19.5937,19.21875 0,3.651 -0.3531,13.6975 5.5,16.4375 0.303,0.142 0.971,0.25825 1.875,0.40625 0.409,2.394 1.4672,6.88475 3.7812,8.21875 3.501,2.018 6.969,1.883 10.5,2 4.114,0.137 10.501,-0.5 13.5,-2 2.491,-1.246 3.6013,-7.12975 3.9062,-9.09375 5.4961,-1.009 10.5043,-2.23625 11.7813,-3.40625 l 46.375,0 c 0.071,0.598 0.2333,1.10475 0.5313,1.46875 0.9809,1.198 6.2585,2.36825 12.0624,3.28125 0.4091,2.215 1.6648,7.83075 4.0938,8.96875 3.036,1.424 9.4525,1.89725 13.5625,1.65625 3.526,-0.207 6.9895,-0.144 10.4375,-2.25 2.216,-1.353 3.1623,-5.76025 3.5312,-8.28125 0.9191,-0.172 1.6033,-0.349 1.9063,-0.5 5.783,-2.887 5.1867,-12.9125 5.0937,-16.5625 -0.269,-10.609 -8.2247,-19.02075 -20.0937,-18.71875 -0.383,0.01 -1.789,0.0415 -2.125,0.0625 -0.025,10e-4 -0.037,-10e-4 -0.062,0 3.748,-9.205 8.6273,-21.196 10.6562,-26.125 3.5,-8.5 3.463,-8.901 3.5,-14 0.038,-5.166 -18,-42.015 -19.5,-46.5 -1.5,-4.485 -4.5,-11.5 -12,-12.5 -3.2509,-0.434 -10.2592,-0.6735 -17.1562,-0.8125 l 0,-21.0625 C 1414,427.049 1405.1987,415 1394.8438,415 z"
     style="fill:none;stroke:#333333;stroke-width:12;stroke-miterlimit:4;stroke-opacity:1;stroke-dasharray:none"
     inkscape:connector-curvature="0" /></g><g
   id="g5"
   transform="translate(-71.75,-238)">
		<path
   style="fill:#fee361"
   inkscape:connector-curvature="0"
   id="path7"
   d="m 166.448,557.969 30.495,0.026 0.049,-56.032 c -13.72,-0.229 -26.217,-1.349 -30.492,-3.393 l -0.052,59.399 z" />
		<path
   style="fill:#fee361"
   inkscape:connector-curvature="0"
   id="path9"
   d="M 214.521,501.779 214.471,558 h 28.405 l 0.053,-60.523 c -2.553,2.326 -14.556,3.773 -28.408,4.302 z" />
		<path
   style="fill:#fee361"
   inkscape:connector-curvature="0"
   id="path11"
   d="m 222.236,378.275 0.018,-20.16 c -11.553,1.357 -21.96,2.449 -24.967,2.379 -2.767,-0.064 -11.276,-1.035 -21.032,-2.25 l -0.019,21.245 c 7.196,-1.232 14.251,-2.258 20.3,-2.993 7.585,0.089 16.617,0.738 25.7,1.779 z" />
		<path
   style="fill:#0066a6"
   inkscape:connector-curvature="0"
   id="path13"
   d="m 257.842,403.05 c 0.006,-6.406 3.024,-12.058 7.629,-15.495 -7.775,-3.754 -25.596,-7.256 -43.235,-9.279 -9.083,-1.041 -18.116,-1.69 -25.701,-1.779 -6.049,0.735 -13.104,1.761 -20.3,2.993 -14.151,2.423 -28.843,5.647 -37.501,9.043 3.843,3.488 6.284,8.648 6.278,14.418 -0.005,5.788 -2.47,10.96 -6.34,14.441 l 26.257,79.576 c 0,0.587 0.561,1.119 1.57,1.603 4.275,2.044 16.772,3.163 30.492,3.393 5.804,0.097 11.822,0.034 17.528,-0.184 13.852,-0.529 25.855,-1.977 28.409,-4.303 0.328,-0.299 0.5,-0.612 0.5,-0.939 l 19.817,-79.909 c -3.334,-3.453 -5.408,-8.259 -5.403,-13.579 z m -57.847,18.448 c -9.113,-0.008 -16.493,-8.014 -16.486,-16.014 l 33.001,0.029 c -0.007,8.001 -7.402,15.994 -16.515,15.985 z" />
		<path
   style="fill:#fee361"
   inkscape:connector-curvature="0"
   id="path15"
   d="m 112.021,413.446 c -1.214,1.638 -2.122,3.591 -2.574,5.772 l -8.42,40.601 c -0.945,4.557 0.29,9.001 2.941,12.017 1.484,0.011 2.985,0.146 4.494,0.434 3.868,0.736 7.358,2.334 10.317,4.562 5.438,-0.333 10.338,-4.724 11.624,-10.921 l 8.42,-40.599 c 0.556,-2.68 0.354,-5.318 -0.441,-7.652 -3.104,2.674 -7.066,4.278 -11.384,4.274 -6.254,-0.005 -11.755,-3.377 -14.977,-8.488 z" />
		<path
   style="fill:#bdccd4"
   inkscape:connector-curvature="0"
   id="path17"
   d="m 103.967,471.836 c -12.031,-0.088 -22.83,8.588 -25.203,21.054 l 17.935,3.415 c 0.547,-4.05 3.621,-7.474 7.856,-8.261 5.281,-0.982 10.359,2.501 11.342,7.783 0.262,1.408 0.198,2.801 -0.126,4.107 l 12.732,2.424 c 1.916,-10.059 -2.177,-19.844 -9.726,-25.526 -2.959,-2.229 -6.449,-3.826 -10.317,-4.562 -1.508,-0.288 -3.009,-0.423 -4.493,-0.434 z" />
		<path
   style="fill:#ed1c24"
   inkscape:connector-curvature="0"
   id="path19"
   d="m 145.012,402.95 c 0.005,-5.77 -2.436,-10.93 -6.278,-14.418 -3.146,-2.855 -7.23,-4.594 -11.705,-4.598 -9.941,-0.009 -18.007,8.491 -18.017,18.984 -0.003,3.894 1.107,7.512 3.008,10.527 3.222,5.11 8.723,8.482 14.975,8.488 4.318,0.004 8.28,-1.601 11.384,-4.274 0.1,-0.086 0.194,-0.18 0.292,-0.269 3.871,-3.48 6.336,-8.652 6.341,-14.44 z" />
		<path
   style="fill:#fee361"
   inkscape:connector-curvature="0"
   id="path21"
   d="m 298.766,472.008 c 2.657,-3.011 3.899,-7.453 2.962,-12.013 l -8.349,-40.614 c -0.449,-2.183 -1.353,-4.137 -2.563,-5.777 -3.231,5.104 -8.738,8.468 -14.99,8.462 -4.318,-0.004 -8.277,-1.616 -11.376,-4.294 -0.8,2.332 -1.006,4.97 -0.456,7.65 l 8.349,40.614 c 1.275,6.199 6.168,10.599 11.605,10.94 2.963,-2.223 6.456,-3.813 10.325,-4.543 1.507,-0.284 3.009,-0.417 4.493,-0.425 z" />
		<path
   style="fill:#bdccd4"
   inkscape:connector-curvature="0"
   id="path23"
   d="m 298.766,472.008 c -1.483,0.008 -2.985,0.142 -4.494,0.426 -3.869,0.729 -7.362,2.32 -10.325,4.543 -7.559,5.67 -11.668,15.448 -9.771,25.51 l 12.736,-2.401 c -0.321,-1.307 -0.383,-2.699 -0.118,-4.107 0.992,-5.28 6.076,-8.756 11.355,-7.764 4.234,0.795 7.302,4.225 7.842,8.274 l 17.941,-3.384 c -2.351,-12.47 -13.135,-21.165 -25.166,-21.097 z" />
		<path
   style="fill:#ed1c24"
   inkscape:connector-curvature="0"
   id="path25"
   d="m 290.815,413.604 c 1.906,-3.012 3.023,-6.629 3.027,-10.522 0.009,-10.493 -8.042,-19.007 -17.983,-19.016 -3.872,-0.003 -7.45,1.296 -10.387,3.489 -4.605,3.438 -7.624,9.089 -7.629,15.495 -0.005,5.32 2.069,10.126 5.404,13.578 0.385,0.398 0.784,0.782 1.202,1.144 3.099,2.678 7.059,4.29 11.376,4.294 6.252,0.005 11.759,-3.358 14.99,-8.462 z" />
		<path
   inkscape:connector-curvature="0"
   id="path27"
   d="M 198.589,265.997 C 198.504,262.33 198.318,259 197.842,255 h -0.4 c -0.482,4 -0.674,7.331 -0.766,10.997 -0.006,0.608 -0.016,1.216 -0.026,1.824 0.643,10e-4 1.297,0.007 1.961,0.016 -0.007,-0.614 -0.017,-1.227 -0.022,-1.84 z" />
		<path
   style="fill:#fee361"
   inkscape:connector-curvature="0"
   id="path29"
   d="m 222.254,358.115 c 17.962,-2.107 38.694,-4.854 38.694,-4.854 6.923,0.006 10.32,-5.584 10.327,-12.484 l 2.138,-55.182 c 0.006,-6.9 -5.503,-12.5 -12.426,-12.506 0,0 -37.962,-4.936 -62.375,-5.253 -0.665,-0.009 -1.318,-0.014 -1.961,-0.016 -0.642,-10e-4 -1.275,0 -1.894,0.005 -23.1,0.215 -57,5.156 -57,5.156 -6.923,-0.006 -12.67,5.582 -12.677,12.482 l 2.041,55.186 c -0.006,6.9 3.609,12.497 10.533,12.504 0,0 21.269,2.932 38.601,5.09 9.756,1.215 18.266,2.186 21.032,2.25 3.006,0.071 13.414,-1.02 24.967,-2.378 z m 14.32,-68.034 c 1.532,0.457 2.982,1.342 4.192,2.445 1.217,1.11 2.203,2.45 3.003,3.867 0.799,1.423 1.417,2.929 1.891,4.468 0.495,1.526 0.895,3.115 0.412,4.795 l -0.615,0.102 c -0.993,-1.398 -1.275,-2.861 -1.688,-4.32 -0.437,-1.443 -0.955,-2.857 -1.606,-4.199 -0.65,-1.342 -1.437,-2.607 -2.398,-3.736 -0.959,-1.136 -2.103,-2.096 -3.449,-2.853 l 0.258,-0.569 z m -16.308,13.937 c 1.749,0.002 3.164,3.51 3.16,7.836 -0.004,4.326 -1.424,7.832 -3.173,7.83 -1.749,-0.001 -3.164,-3.51 -3.16,-7.836 0.004,-4.326 1.424,-7.832 3.173,-7.83 z m -37.461,37.431 c 2.25,0.485 4.505,0.749 6.773,0.934 2.268,0.17 4.539,0.269 6.812,0.284 2.272,0.005 4.544,-0.031 6.812,-0.16 2.269,-0.127 4.526,-0.312 6.796,-0.7 l 0.139,0.404 c -2.111,1.086 -4.443,1.636 -6.756,2.004 -2.325,0.347 -4.673,0.483 -7.016,0.43 -2.342,-0.049 -4.685,-0.25 -6.994,-0.678 -2.301,-0.431 -4.61,-1.038 -6.708,-2.115 l 0.142,-0.403 z m -25.351,-48.024 c -0.963,1.127 -1.752,2.392 -2.405,3.732 -0.654,1.34 -1.175,2.753 -1.614,4.196 -0.416,1.458 -0.701,2.921 -1.696,4.317 l -0.615,-0.104 c -0.48,-1.68 -0.078,-3.268 0.42,-4.793 0.477,-1.539 1.097,-3.044 1.899,-4.465 0.803,-1.416 1.792,-2.754 3.011,-3.862 1.212,-1.102 2.663,-1.983 4.196,-2.438 l 0.258,0.568 c -1.348,0.756 -2.493,1.715 -3.454,2.849 z m 16.798,26.216 c -1.749,-0.002 -3.164,-3.51 -3.16,-7.837 0.004,-4.326 1.424,-7.831 3.173,-7.83 1.749,0.001 3.164,3.51 3.16,7.836 -0.003,4.327 -1.424,7.832 -3.173,7.831 z" />
		
			<ellipse
   style="fill:#ffffff"
   sodipodi:ry="3.1670001"
   sodipodi:rx="7.8330002"
   sodipodi:cy="311.80701"
   sodipodi:cx="174.259"
   d="m 182.092,311.80701 c 0,1.74908 -3.50695,3.167 -7.833,3.167 -4.32604,0 -7.833,-1.41792 -7.833,-3.167 0,-1.74909 3.50696,-3.167 7.833,-3.167 4.32605,0 7.833,1.41791 7.833,3.167 z"
   id="ellipse31"
   ry="3.1670001"
   rx="7.8330002"
   cy="311.80701"
   cx="174.259"
   transform="matrix(8.726874e-4,-1,1,8.726874e-4,-137.6998,485.7943)" />
		
			<ellipse
   style="fill:#ffffff"
   sodipodi:ry="3.1670001"
   sodipodi:rx="7.8330002"
   sodipodi:cy="311.85101"
   sodipodi:cx="220.259"
   d="m 228.092,311.85101 c 0,1.74909 -3.50695,3.167 -7.833,3.167 -4.32604,0 -7.833,-1.41791 -7.833,-3.167 0,-1.74908 3.50696,-3.167 7.833,-3.167 4.32605,0 7.833,1.41792 7.833,3.167 z"
   id="ellipse33"
   ry="3.1670001"
   rx="7.8330002"
   cy="311.85101"
   cx="220.259"
   transform="matrix(-8.726556e-4,1,-1,-8.726556e-4,532.3019,91.8635)" />
		<path
   inkscape:connector-curvature="0"
   id="path35"
   d="m 196.363,344.645 c 2.343,0.054 4.691,-0.083 7.016,-0.43 2.313,-0.368 4.645,-0.918 6.756,-2.004 l -0.139,-0.404 c -2.27,0.389 -4.527,0.573 -6.796,0.7 -2.267,0.129 -4.539,0.165 -6.812,0.16 -2.273,-0.016 -4.544,-0.114 -6.812,-0.284 -2.268,-0.185 -4.522,-0.448 -6.773,-0.934 l -0.144,0.402 c 2.098,1.077 4.407,1.685 6.708,2.115 2.312,0.429 4.654,0.63 6.996,0.679 z" />
		<path
   inkscape:connector-curvature="0"
   id="path37"
   d="m 156.453,292.447 c -1.219,1.108 -2.208,2.446 -3.011,3.862 -0.802,1.421 -1.422,2.926 -1.899,4.465 -0.498,1.525 -0.9,3.113 -0.42,4.793 l 0.615,0.104 c 0.996,-1.396 1.28,-2.859 1.696,-4.317 0.439,-1.443 0.959,-2.856 1.614,-4.196 0.652,-1.341 1.442,-2.605 2.405,-3.732 0.961,-1.134 2.106,-2.093 3.454,-2.847 l -0.258,-0.568 c -1.533,0.453 -2.983,1.335 -4.196,2.436 z" />
		<path
   inkscape:connector-curvature="0"
   id="path39"
   d="m 239.764,293.502 c 0.961,1.129 1.748,2.395 2.398,3.736 0.652,1.342 1.17,2.756 1.606,4.199 0.413,1.459 0.695,2.922 1.688,4.32 l 0.615,-0.102 c 0.483,-1.68 0.083,-3.269 -0.412,-4.795 -0.474,-1.539 -1.091,-3.045 -1.891,-4.468 -0.8,-1.417 -1.787,-2.757 -3.003,-3.867 -1.21,-1.104 -2.66,-1.988 -4.192,-2.445 l -0.259,0.568 c 1.347,0.758 2.49,1.718 3.45,2.854 z" />
		<ellipse
   style="fill:#bdccd4"
   sodipodi:ry="5.3330002"
   sodipodi:rx="5"
   sodipodi:cy="249.325"
   sodipodi:cx="197.481"
   d="m 202.481,249.325 c 0,2.94533 -2.23857,5.333 -5,5.333 -2.76142,0 -5,-2.38767 -5,-5.333 0,-2.94534 2.23858,-5.333 5,-5.333 2.76143,0 5,2.38766 5,5.333 z"
   id="ellipse41"
   ry="5.3330002"
   rx="5"
   cy="249.325"
   cx="197.481" />
		<path
   style="fill:#fee361"
   inkscape:connector-curvature="0"
   id="path43"
   d="m 183.509,405.484 c -0.007,8 7.374,16.006 16.486,16.014 9.113,0.009 16.508,-7.984 16.515,-15.984 l -33.001,-0.03 z" />
		<rect
   style="fill:#ed1c24"
   id="rect45"
   height="19"
   width="55"
   y="558"
   x="142" />
		<polygon
   style="fill:#0066a6"
   id="polygon47"
   points="142,577 135,577 135,584 197,584 197,581 197,577 " />
		<polygon
   style="fill:#ed1c24"
   id="polygon49"
   points="214.471,558 214,558 214,577 269,577 269,558 242.876,558 " />
		<polygon
   style="fill:#0066a6"
   id="polygon51"
   points="214,577 214,581 214,584 276,584 276,577 269,577 " />
	</g>
<g
   id="Layer_3"
   transform="translate(-71.75,-238)">
	<g
   id="g54">
		<g
   id="g56">
			<path
   d="m 486.062,290.171 c 0.277,-1.012 0.438,-2.071 0.438,-3.171 0,0 -5.373,-17 -12,-17 h -12 c -6.627,0 -12,17 -12,17 0,1.1 0.16,2.159 0.438,3.171 6.146,-1.352 12.144,-2.171 17.562,-2.171 5.418,0 11.416,0.819 17.562,2.171 z"
   id="path58"
   inkscape:connector-curvature="0"
   style="fill:#61559f" />
			<path
   d="m 425,535 v 18 c 0,0.062 0.008,0.122 0.009,0.184 4.47,-1.105 9.874,-1.92 14.366,-1.934 7.339,-0.023 13.56,2.059 18.415,3.947 0.132,-0.713 0.21,-1.445 0.21,-2.197 v -18 c 0,-0.004 0,-0.009 0,-0.013 -9.604,-0.228 -21.629,-1.031 -32.743,-2.458 C 425.09,533.327 425,534.152 425,535 z"
   id="path60"
   inkscape:connector-curvature="0"
   style="fill:#ba9bc9" />
			<path
   d="m 425.009,553.184 c -4.002,0.99 -7.258,2.215 -8.411,3.317 -2.796,2.677 -8.599,14.629 -8.599,17.874 v 0.25 c 0,3.245 3.13,6.375 6.375,6.375 h 47.25 0.723 c 2.688,-0.003 3.652,-0.14 3.652,-3.13 v -3.495 c 0,-3.244 -0.562,-16.125 -5.558,-18.125 -0.831,-0.332 -1.719,-0.689 -2.652,-1.053 -4.855,-1.889 -11.076,-3.971 -18.415,-3.947 -4.491,0.014 -9.895,0.828 -14.365,1.934 z"
   id="path62"
   inkscape:connector-curvature="0"
   style="fill:#61559f" />
			<path
   d="M 414.375,581 H 411 c -1.657,0 -3,1.343 -3,3 0,1.657 1.343,3 3,3 h 55 c 1.657,0 3,-1.343 3,-3 0,-1.657 -1.343,-3 -3,-3 h -3.652 -0.723 -47.25 z"
   id="path64"
   inkscape:connector-curvature="0"
   style="fill:#ba9bc9" />
			<path
   d="m 483,535 v 18 c 0,0.802 0.082,1.585 0.232,2.343 4.985,-1.925 11.615,-4.116 19.143,-4.093 4.285,0.014 9.344,0.752 13.623,1.78 0,-0.01 0.002,-0.02 0.002,-0.03 v -18 c 0,-1.395 -0.25,-2.729 -0.688,-3.974 -10.84,1.681 -22.611,2.833 -32.284,3.433 C 483.02,534.64 483,534.817 483,535 z"
   id="path66"
   inkscape:connector-curvature="0"
   style="fill:#ba9bc9" />
			<path
   d="m 483.232,555.343 c -0.81,0.312 -1.58,0.619 -2.3,0.907 -4.995,2 -5.933,14.881 -5.933,18.125 v 3.495 c 0,2.99 1.811,3.127 4.633,3.13 h 0.742 47.25 c 3.244,0 5.375,-3.13 5.375,-6.375 v -0.25 c 0,-3.245 -5.303,-15.197 -8.099,-17.874 -1.212,-1.16 -4.679,-2.456 -8.903,-3.471 -4.279,-1.028 -9.338,-1.767 -13.623,-1.78 -7.526,-0.023 -14.156,2.168 -19.142,4.093 z"
   id="path68"
   inkscape:connector-curvature="0"
   style="fill:#61559f" />
			<path
   d="M 479.633,581 H 476 c -1.657,0 -3,1.343 -3,3 0,1.657 1.343,3 3,3 h 55 c 1.657,0 3,-1.343 3,-3 0,-1.657 -1.343,-3 -3,-3 h -3.375 -47.25 -0.742 z"
   id="path70"
   inkscape:connector-curvature="0"
   style="fill:#ba9bc9" />
			<path
   d="m 497.393,412.473 c -4.909,-10.416 -8.375,-17.33 -9.153,-17.632 -1.124,-0.436 -4.503,-0.554 -8.438,-0.527 L 479.667,395 h -23.263 l -0.06,-0.219 c -4.452,0.141 -8.354,0.404 -9.459,0.885 -0.729,0.316 -3.646,6.671 -7.787,16.351 1.456,6.685 0.003,15.231 -4.538,23.216 l -4.191,-2.384 c -13.717,33.126 -31.735,77.64 -37.136,86.151 -4.187,6.597 12.511,11.023 32.024,13.529 11.114,1.427 23.139,2.23 32.743,2.458 4.406,0.104 8.306,0.087 11.369,-0.047 3.554,0.014 8.283,-0.149 13.658,-0.481 9.673,-0.6 21.444,-1.752 32.284,-3.433 19.551,-3.031 36.056,-7.779 31.674,-14.095 -5.74,-8.273 -25.531,-52.258 -40.605,-85.08 l -4.187,2.381 c -4.217,-7.417 -5.767,-15.316 -4.8,-21.759 z"
   id="path72"
   inkscape:connector-curvature="0"
   style="fill:#61559f" />
			<path
   d="m 479.667,395 0.134,-0.687 3.352,-17.229 c -5.29,1.205 -10.293,1.916 -14.652,1.916 -5.07,0 -11.011,-1.125 -17.262,-2.969 l 5.106,18.75 0.06,0.219 h 23.262 z"
   id="path74"
   inkscape:connector-curvature="0"
   style="fill:#61559f" />
			<path
   d="M 483.152,377.084 C 508.32,371.35 540,354.412 540,349.447 c 0,-8.724 0,-26.171 0,-34.895 0,-3.789 -28.286,-18.741 -53.938,-24.382 -6.146,-1.351 -12.143,-2.17 -17.562,-2.17 -5.419,0 -11.416,0.819 -17.562,2.171 -25.651,5.641 -53.938,20.593 -53.938,24.382 0,7.724 0,23.171 0,30.895 0,4.795 29.546,23.303 54.238,30.584 6.251,1.843 12.192,2.968 17.262,2.968 4.359,0 9.362,-0.711 14.652,-1.916 z m -8.463,-19.192 0.59,1.912 c -3.27,0.986 -6.65,1.202 -9.951,1.131 -3.309,-0.067 -6.576,-0.415 -9.804,-0.791 l 0.236,-1.986 c 3.219,0.396 6.417,0.783 9.605,0.845 3.18,0.048 6.366,-0.193 9.324,-1.111 z m 14.424,-48.788 c 1.362,0.187 2.684,0.5 3.971,0.885 1.288,0.385 2.539,0.855 3.739,1.455 1.2,0.605 2.364,1.289 3.456,2.262 l -0.561,1.92 c -1.473,0.225 -2.858,0.107 -4.203,-0.102 -1.343,-0.216 -2.632,-0.576 -3.887,-1.009 -1.256,-0.434 -2.482,-0.925 -3.681,-1.502 -1.21,-0.6 -2.345,-1.201 -3.527,-2.045 l 0.49,-1.939 c 1.414,-0.209 2.852,-0.089 4.203,0.075 z m -55.168,6.521 -0.561,-1.92 c 1.092,-0.973 2.256,-1.656 3.456,-2.263 1.201,-0.599 2.451,-1.069 3.739,-1.454 1.288,-0.385 2.609,-0.698 3.972,-0.885 1.351,-0.163 2.788,-0.283 4.202,-0.075 l 0.49,1.939 c -1.183,0.844 -2.318,1.445 -3.527,2.045 -1.198,0.577 -2.426,1.068 -3.682,1.502 -1.255,0.433 -2.544,0.793 -3.887,1.009 -1.343,0.208 -2.729,0.327 -4.202,0.102 z"
   id="path76"
   inkscape:connector-curvature="0"
   style="fill:#ba9bc9" />
			<path
   d="m 375.795,490.811 c -2.29,3.117 -5.303,4.727 -7.099,3.636 -2.002,-1.218 -1.73,-5.323 0.608,-9.169 0.576,-0.947 1.223,-1.788 1.902,-2.503 -0.126,-0.741 -0.206,-1.498 -0.206,-2.274 0,-0.786 0.214,-1.741 0.547,-2.764 -2.721,1.071 -5.138,2.955 -6.83,5.59 l -4.591,4.283 c -8.086,12.591 -2.542,16.381 4.182,14.808 l 9.042,5.101 c -0.761,6.116 8.021,8.638 14.317,-1.163 l 1.604,-4.907 c 2.435,-3.791 4.054,-8.277 3.791,-12.261 -2.617,2.541 -5.746,4.813 -8.562,4.813 -3.319,-10e-4 -6.354,-1.204 -8.705,-3.19 z"
   id="path78"
   inkscape:connector-curvature="0"
   style="fill:#92278f" />
			<path
   stroke-miterlimit="10"
   d="m 368.696,494.446 c 1.795,1.091 4.809,-0.519 7.099,-3.636 -2.38,-2.012 -4.044,-4.832 -4.589,-8.036 -0.679,0.715 -1.326,1.556 -1.902,2.503 -2.338,3.846 -2.61,7.952 -0.608,9.169 z"
   id="path80"
   inkscape:connector-curvature="0"
   style="fill:#92278f;stroke:#b3b3b3;stroke-miterlimit:10" />
			<path
   d="m 405.089,422.494 -28.736,45.719 c -0.421,0.671 -3.531,5.612 -4.805,9.523 -0.333,1.022 -0.547,1.978 -0.547,2.764 0,0.776 0.08,1.533 0.206,2.274 0.545,3.204 2.209,6.024 4.589,8.036 2.351,1.986 5.386,3.189 8.705,3.189 2.816,0 5.945,-2.272 8.562,-4.813 3.146,-3.054 5.55,-6.495 5.77,-6.845 l 28.736,-45.719 c 0.875,-1.391 1.458,-2.872 1.77,-4.361 L 407.36,419.76 c -0.85,0.783 -1.619,1.696 -2.271,2.734 z"
   id="path82"
   inkscape:connector-curvature="0"
   style="fill:#ba9bc9" />
			<path
   d="m 439.099,412.017 c -0.989,-4.54 -3.321,-8.222 -6.942,-10.282 -8.955,-5.094 -22.396,1.647 -30.022,15.055 l 5.224,2.972 21.979,12.501 1.031,0.587 4.191,2.384 c 4.542,-7.986 5.995,-16.533 4.539,-23.217 z"
   id="path84"
   inkscape:connector-curvature="0"
   style="fill:#92278f" />
			<path
   d="m 576.627,486.609 -4.591,-4.283 c -1.691,-2.635 -4.109,-4.519 -6.829,-5.59 0.333,1.022 0.547,1.978 0.547,2.764 0,0.776 -0.08,1.533 -0.206,2.274 0.679,0.715 1.326,1.556 1.901,2.503 2.338,3.846 2.61,7.951 0.608,9.169 -1.795,1.091 -4.81,-0.519 -7.099,-3.636 -2.351,1.986 -5.386,3.189 -8.705,3.189 -2.816,0 -5.945,-2.272 -8.562,-4.812 -0.263,3.982 1.356,8.469 3.791,12.26 l 1.604,4.907 c 6.297,9.801 15.078,7.279 14.317,1.163 l 9.042,-5.101 c 6.723,1.574 12.268,-2.216 4.182,-14.807 z"
   id="path86"
   inkscape:connector-curvature="0"
   style="fill:#92278f" />
			<path
   stroke-miterlimit="10"
   d="m 560.959,489.811 c 2.289,3.117 5.304,4.727 7.099,3.636 2.002,-1.218 1.729,-5.323 -0.608,-9.169 -0.575,-0.947 -1.223,-1.788 -1.901,-2.503 -0.546,3.204 -2.21,6.024 -4.59,8.036 z"
   id="path88"
   inkscape:connector-curvature="0"
   style="fill:#92278f;stroke:#b3b3b3;stroke-miterlimit:10" />
			<path
   d="m 560.959,489.811 c 2.38,-2.012 4.044,-4.832 4.589,-8.036 0.126,-0.741 0.206,-1.498 0.206,-2.274 0,-0.786 -0.214,-1.741 -0.547,-2.764 -1.274,-3.911 -4.385,-8.853 -4.806,-9.523 l -28.736,-45.719 c -0.652,-1.038 -1.421,-1.951 -2.27,-2.734 l -21.979,12.502 c 0.312,1.488 0.896,2.971 1.77,4.361 l 28.736,45.719 c 0.22,0.35 2.624,3.791 5.77,6.846 2.617,2.54 5.746,4.812 8.562,4.812 3.319,-10e-4 6.354,-1.204 8.705,-3.19 z"
   id="path90"
   inkscape:connector-curvature="0"
   style="fill:#ba9bc9" />
			<path
   d="m 534.619,415.789 c -7.625,-13.407 -21.066,-20.148 -30.021,-15.055 -4.001,2.276 -6.424,6.532 -7.205,11.738 -0.967,6.443 0.583,14.343 4.801,21.76 l 4.187,-2.381 1.036,-0.59 21.979,-12.502 5.223,-2.97 z"
   id="path92"
   inkscape:connector-curvature="0"
   style="fill:#92278f" />
			<path
   d="m 445.717,313.013 c 1.209,-0.6 2.345,-1.201 3.527,-2.045 l -0.49,-1.939 c -1.414,-0.208 -2.852,-0.088 -4.202,0.075 -1.362,0.187 -2.684,0.5 -3.972,0.885 -1.288,0.385 -2.538,0.855 -3.739,1.454 -1.2,0.606 -2.364,1.29 -3.456,2.263 l 0.561,1.92 c 1.473,0.225 2.858,0.106 4.203,-0.102 1.343,-0.216 2.632,-0.576 3.887,-1.009 1.255,-0.434 2.483,-0.925 3.681,-1.502 z"
   id="path94"
   inkscape:connector-curvature="0" />
			<path
   d="m 484.421,310.968 c 1.183,0.844 2.317,1.445 3.527,2.045 1.198,0.577 2.425,1.068 3.681,1.502 1.255,0.433 2.544,0.793 3.887,1.009 1.345,0.209 2.73,0.326 4.203,0.102 l 0.561,-1.92 c -1.092,-0.973 -2.256,-1.656 -3.456,-2.262 -1.2,-0.6 -2.451,-1.07 -3.739,-1.455 -1.287,-0.385 -2.608,-0.698 -3.971,-0.885 -1.352,-0.163 -2.789,-0.283 -4.202,-0.075 l -0.491,1.939 z"
   id="path96"
   inkscape:connector-curvature="0" />
			<path
   d="m 455.524,360.144 c 3.228,0.376 6.495,0.724 9.804,0.791 3.301,0.071 6.682,-0.145 9.951,-1.131 l -0.59,-1.912 c -2.958,0.918 -6.145,1.159 -9.323,1.11 -3.188,-0.062 -6.387,-0.448 -9.605,-0.845 l -0.237,1.987 z"
   id="path98"
   inkscape:connector-curvature="0" />
		</g>
		<ellipse
   cx="447.62201"
   cy="333.01401"
   rx="4.3779998"
   ry="11.37"
   id="ellipse100"
   sodipodi:cx="447.62201"
   sodipodi:cy="333.01401"
   sodipodi:rx="4.3779998"
   sodipodi:ry="11.37"
   style="fill:#ffffff"
   d="m 452.00001,333.01401 c 0,6.27948 -1.9601,11.37 -4.378,11.37 -2.4179,0 -4.378,-5.09052 -4.378,-11.37 0,-6.27948 1.9601,-11.37 4.378,-11.37 2.4179,0 4.378,5.09052 4.378,11.37 z" />
		<ellipse
   cx="486.62201"
   cy="333.01401"
   rx="4.3779998"
   ry="11.37"
   id="ellipse102"
   sodipodi:cx="486.62201"
   sodipodi:cy="333.01401"
   sodipodi:rx="4.3779998"
   sodipodi:ry="11.37"
   style="fill:#ffffff"
   d="m 491.00001,333.01401 c 0,6.27948 -1.9601,11.37 -4.378,11.37 -2.4179,0 -4.378,-5.09052 -4.378,-11.37 0,-6.27948 1.9601,-11.37 4.378,-11.37 2.4179,0 4.378,5.09052 4.378,11.37 z" />
	</g>
</g>
<g
   id="Layer_4"
   transform="translate(-71.75,-238)">
	<g
   id="g105">
		<path
   d="m 746,428.87 v 60.068 c 1.59,-1.526 4.078,-2.617 6.971,-2.925 2.534,-6.229 2.585,-14.233 1.945,-23.385 -0.591,-8.525 -3.644,-20.685 -4.375,-29.579 -2.061,-1.051 -3.652,-2.496 -4.541,-4.179 z"
   id="path107"
   inkscape:connector-curvature="0"
   style="fill:none" />
		<path
   d="m 634.579,433.632 c -0.796,8.85 -3.756,20.74 -4.337,29.118 -0.639,9.151 -0.589,17.158 1.947,23.386 2.799,0.297 5.216,1.33 6.811,2.779 v -63.15 l -0.053,1.387 c -0.097,2.579 -1.765,4.872 -4.368,6.48 z"
   id="path109"
   inkscape:connector-curvature="0"
   style="fill:none" />
		<path
   d="m 697.155,276 c 0.317,-1.274 0.26,-2.488 0.174,-3.765 -0.102,-1.318 -0.321,-2.745 -0.689,-4.062 -0.283,-0.988 -0.64,-1.716 -1.16,-2.863 -0.158,0.003 -0.314,0.009 -0.475,0.009 -0.566,0 -1.119,-0.022 -1.662,-0.054 -0.529,1.16 -0.891,1.877 -1.178,2.876 -0.368,1.317 -0.588,2.824 -0.689,4.142 -0.082,1.212 -0.13,2.375 0.136,3.58 0.13,0 0.257,-0.005 0.387,-0.005 1.745,-0.002 3.464,0.051 5.156,0.142 z"
   id="path111"
   inkscape:connector-curvature="0" />
		<path
   d="m 702,379.088 c -6.017,0.451 -12.236,0.456 -18,0.017 V 393 h 18 v -13.912 z"
   id="path113"
   inkscape:connector-curvature="0"
   style="fill:#00a651" />
		<path
   d="m 652.42,307 h -0.84 c -3.082,0 -5.58,1.911 -5.58,4.269 v 6.463 c 0,2.357 2.498,4.269 5.58,4.269 h 0.84 c 0.753,0 1.47,-0.116 2.125,-0.322 -0.404,-5.215 -0.715,-10.186 -0.951,-14.582 C 653.215,307.034 652.823,307 652.42,307 z"
   id="path115"
   inkscape:connector-curvature="0"
   style="fill:#00a651" />
		<path
   d="m 734.578,322 h 0.844 c 3.081,0 5.578,-1.911 5.578,-4.269 v -6.463 c 0,-2.357 -2.497,-4.269 -5.578,-4.269 h -0.844 c -0.023,0 -0.046,0.002 -0.068,0.002 -0.125,4.499 -0.321,9.605 -0.629,14.961 0.229,0.023 0.461,0.038 0.697,0.038 z"
   id="path117"
   inkscape:connector-curvature="0"
   style="fill:#00a651" />
		<path
   d="m 702,379.088 c 6.631,-0.498 13.016,-1.535 18.271,-3.115 8.821,-2.652 12.271,-30.674 13.61,-54.009 0.308,-5.356 0.504,-10.462 0.629,-14.961 0.275,-9.983 0.199,-16.966 0.199,-16.966 0,-5.005 -16.432,-12.904 -37.554,-14.037 -1.692,-0.09 -3.411,-0.143 -5.157,-0.142 -0.13,0 -0.257,0.004 -0.387,0.005 -22.073,0.115 -38.715,8.799 -38.715,14.174 0,0 0.156,7.026 0.697,17.06 0.236,4.396 0.547,9.367 0.951,14.582 1.811,23.393 5.495,51.633 12.789,54.295 4.378,1.598 10.239,2.642 16.666,3.132 5.765,0.438 11.984,0.433 18.001,-0.018 z m 5.175,-85.415 c 0.854,0.003 1.598,0.197 2.331,0.408 0.73,0.217 1.411,0.54 2.104,0.839 0.691,0.305 1.377,0.631 2.059,0.976 0.668,0.354 1.359,0.719 2.026,1.181 l -0.305,0.953 c -1.599,-0.013 -3.174,-0.395 -4.654,-0.913 -0.739,-0.274 -1.481,-0.554 -2.161,-0.967 -0.673,-0.426 -1.322,-0.897 -1.85,-1.584 l 0.45,-0.893 z m -35.646,2.223 c 0.682,-0.345 1.367,-0.671 2.058,-0.976 0.693,-0.299 1.373,-0.623 2.104,-0.839 0.733,-0.211 1.477,-0.405 2.331,-0.408 l 0.449,0.893 c -0.526,0.687 -1.177,1.158 -1.849,1.584 -0.68,0.413 -1.421,0.692 -2.161,0.967 -1.479,0.519 -3.055,0.9 -4.652,0.913 l -0.305,-0.953 c 0.667,-0.463 1.358,-0.827 2.025,-1.181 z M 674.871,325 C 669.42,325 665,321.773 665,317.795 v -3.59 c 0,-2.646 1.96,-4.952 4.872,-6.205 H 658 v -2 h 70 v 2 h -10.871 c 2.912,1.253 4.871,3.56 4.871,6.205 v 3.59 c 0,3.979 -4.418,7.205 -9.868,7.205 h -4.264 c -5.45,0 -9.868,-3.227 -9.868,-7.205 v -3.59 c 0,-2.646 1.959,-4.952 4.871,-6.205 h -18.743 c 2.912,1.253 4.872,3.56 4.872,6.205 v 3.59 c 0,3.979 -4.42,7.205 -9.871,7.205 h -4.258 z m 7.177,20.898 c 1.954,0.229 3.741,0.322 5.622,0.35 1.864,0.03 3.754,0.008 5.678,-0.018 1.924,-0.027 3.876,-0.095 5.863,-0.062 1.985,0.023 4.008,0.076 6.052,0.427 l 0.092,1.998 c -1.928,0.539 -3.864,0.956 -5.841,1.298 -1.974,0.355 -3.987,0.581 -6.037,0.673 -2.049,0.089 -4.144,0.016 -6.233,-0.379 -2.063,-0.404 -4.214,-1.116 -5.932,-2.427 l 0.736,-1.86 z"
   id="path119"
   inkscape:connector-curvature="0"
   style="fill:#d9e021" />
		<path
   d="m 689,317.795 v -3.59 c 0,-2.646 -1.96,-4.952 -4.872,-6.205 h -14.256 c -2.912,1.253 -4.872,3.56 -4.872,6.205 v 3.59 c 0,3.979 4.42,7.205 9.871,7.205 h 4.258 c 5.451,0 9.871,-3.227 9.871,-7.205 z m -11.44,0.655 c -2.326,0 -4.211,-1.376 -4.211,-3.074 0,-1.697 1.885,-3.073 4.211,-3.073 2.324,0 4.211,1.376 4.211,3.073 0,1.698 -1.887,3.074 -4.211,3.074 z"
   id="path121"
   inkscape:connector-curvature="0"
   style="fill:#ffffff" />
		<path
   d="m 698,314.205 v 3.59 c 0,3.979 4.418,7.205 9.868,7.205 h 4.264 c 5.45,0 9.868,-3.227 9.868,-7.205 v -3.59 c 0,-2.646 -1.959,-4.952 -4.871,-6.205 h -14.258 c -2.912,1.253 -4.871,3.56 -4.871,6.205 z m 12.044,-1.902 c 2.326,0 4.21,1.376 4.21,3.073 0,1.698 -1.884,3.074 -4.21,3.074 -2.325,0 -4.211,-1.376 -4.211,-3.074 0,-1.697 1.886,-3.073 4.211,-3.073 z"
   id="path123"
   inkscape:connector-curvature="0"
   style="fill:#ffffff" />
		<polygon
   points="728,306 658,306 658,308 669.872,308 684.128,308 702.871,308 717.129,308 728,308 "
   id="polygon125" />
		<ellipse
   stroke-miterlimit="10"
   cx="677.56"
   cy="315.37601"
   rx="4.211"
   ry="3.0739999"
   id="ellipse127"
   sodipodi:cx="677.56"
   sodipodi:cy="315.37601"
   sodipodi:rx="4.211"
   sodipodi:ry="3.0739999"
   style="fill:#ffffff;stroke:#000000;stroke-miterlimit:10"
   d="m 681.771,315.37601 c 0,1.69772 -1.88533,3.074 -4.211,3.074 -2.32567,0 -4.211,-1.37628 -4.211,-3.074 0,-1.69773 1.88533,-3.074 4.211,-3.074 2.32567,0 4.211,1.37627 4.211,3.074 z" />
		<ellipse
   stroke-miterlimit="10"
   cx="710.04401"
   cy="315.37601"
   rx="4.21"
   ry="3.0739999"
   id="ellipse129"
   sodipodi:cx="710.04401"
   sodipodi:cy="315.37601"
   sodipodi:rx="4.21"
   sodipodi:ry="3.0739999"
   style="fill:#ffffff;stroke:#000000;stroke-miterlimit:10"
   d="m 714.25401,315.37601 c 0,1.69772 -1.88488,3.074 -4.21,3.074 -2.32512,0 -4.21,-1.37628 -4.21,-3.074 0,-1.69773 1.88488,-3.074 4.21,-3.074 2.32512,0 4.21,1.37627 4.21,3.074 z" />
		<path
   d="m 708,505 v 63.629 c 4.43,-1.558 10.068,-2.488 16.215,-2.488 5.508,0 10.602,0.76 14.785,2.048 v -64.707 c -2.175,0.957 -4.714,1.519 -7.439,1.519 H 708 z"
   id="path131"
   inkscape:connector-curvature="0"
   style="fill:#a1cd43" />
		<path
   d="m 708,568.629 c -5.853,2.057 -9.595,5.207 -9.595,8.758 0,0.655 0.402,13.613 0.402,13.613 H 750 c 0,0 0,-13.451 0,-13.541 0,-3.83 -4.346,-7.222 -11,-9.271 -4.184,-1.288 -9.277,-2.048 -14.785,-2.048 -6.147,10e-4 -11.785,0.931 -16.215,2.489 z"
   id="path133"
   inkscape:connector-curvature="0"
   style="fill:#00a651" />
		<path
   d="m 652,504.947 v 62.709 c 3.818,-0.975 8.257,-1.535 12.997,-1.535 6.046,0 11.602,0.903 16.003,2.416 V 505 h -27.561 c -0.486,0 -0.965,-0.019 -1.439,-0.053 z"
   id="path135"
   inkscape:connector-curvature="0"
   style="fill:#a1cd43" />
		<path
   d="m 652,567.656 c -7.676,1.959 -12.838,5.597 -12.838,9.763 0,0.09 0.379,13.581 0.379,13.581 h 50.913 c 0,0 0.377,-12.968 0.377,-13.623 0,-3.596 -3.846,-6.782 -9.831,-8.84 -4.401,-1.513 -9.957,-2.416 -16.003,-2.416 -4.74,0 -9.179,0.561 -12.997,1.535 z"
   id="path137"
   inkscape:connector-curvature="0"
   style="fill:#00a651" />
		<path
   d="m 744.79,495.456 c -0.378,-0.686 -0.604,-1.42 -0.631,-2.189 l -0.008,-0.22 c -0.058,-1.521 0.634,-2.942 1.849,-4.108 V 428.87 c -0.47,-0.89 -0.75,-1.843 -0.788,-2.841 l -0.146,-3.799 -0.114,-3.285 L 744.163,398 c 0.025,0 0.05,0 0.075,0 -2.451,-3 -7.208,-5 -12.678,-5 H 702 684 653.439 c -6.127,0 -11.351,2.791 -13.447,6.722 l -0.785,20.593 -0.115,3.037 -0.092,2.413 v 63.15 c 1.312,1.193 2.07,2.668 2.01,4.255 l -0.01,0.219 c -0.028,0.77 -0.254,1.502 -0.63,2.188 0.168,0.099 -0.039,0.435 -0.305,0.506 -0.193,0.28 -0.421,0.547 -0.666,0.805 1.396,4.318 6.419,7.613 12.601,8.061 0.474,0.034 0.953,0.053 1.439,0.053 H 681 h 27 23.561 c 2.726,0 5.265,-0.562 7.439,-1.519 3.362,-1.481 5.835,-3.925 6.679,-6.816 -0.21,-0.229 -0.415,-0.46 -0.585,-0.706 -0.266,-0.071 -0.473,-0.409 -0.304,-0.505 z"
   id="path139"
   inkscape:connector-curvature="0"
   style="fill:#00a651" />
		<path
   d="m 693.477,350.563 c 2.05,-0.092 4.063,-0.317 6.037,-0.673 1.977,-0.342 3.913,-0.759 5.841,-1.298 l -0.092,-1.998 c -2.044,-0.351 -4.066,-0.403 -6.052,-0.427 -1.987,-0.032 -3.939,0.035 -5.863,0.062 -1.924,0.025 -3.813,0.048 -5.678,0.018 -1.881,-0.027 -3.668,-0.121 -5.622,-0.35 l -0.736,1.859 c 1.718,1.311 3.868,2.022 5.932,2.427 2.089,0.396 4.184,0.469 6.233,0.38 z"
   id="path141"
   inkscape:connector-curvature="0" />
		<path
   d="m 674.461,297.116 c 0.74,-0.274 1.481,-0.554 2.161,-0.967 0.672,-0.426 1.322,-0.897 1.849,-1.584 l -0.449,-0.893 c -0.854,0.003 -1.598,0.197 -2.331,0.408 -0.73,0.216 -1.41,0.54 -2.104,0.839 -0.69,0.305 -1.376,0.631 -2.058,0.976 -0.667,0.354 -1.358,0.719 -2.025,1.181 l 0.305,0.953 c 1.597,-0.012 3.172,-0.394 4.652,-0.913 z"
   id="path143"
   inkscape:connector-curvature="0" />
		<path
   d="m 708.575,296.149 c 0.68,0.413 1.422,0.692 2.161,0.967 1.48,0.519 3.056,0.9 4.654,0.913 l 0.305,-0.953 c -0.667,-0.462 -1.358,-0.826 -2.026,-1.181 -0.682,-0.345 -1.367,-0.671 -2.059,-0.976 -0.693,-0.299 -1.374,-0.622 -2.104,-0.839 -0.733,-0.211 -1.477,-0.405 -2.331,-0.408 l -0.449,0.893 c 0.527,0.687 1.176,1.159 1.849,1.584 z"
   id="path145"
   inkscape:connector-curvature="0" />
		<path
   d="m 640.37,495.576 c 0.376,-0.686 0.602,-1.418 0.63,-2.188 l 0.01,-0.219 c 0.061,-1.587 -0.697,-3.062 -2.01,-4.255 -1.595,-1.449 -4.012,-2.482 -6.811,-2.779 -2.536,-6.228 -2.586,-14.234 -1.947,-23.386 0.581,-8.378 3.541,-20.269 4.337,-29.118 -2.475,1.527 -5.794,2.435 -9.436,2.36 l -7.893,-0.16 c -3.596,-0.072 -6.819,-1.09 -9.184,-2.682 -3.303,6.523 -4.459,15.82 -5.181,26.192 -0.811,11.618 3.335,22.128 10.146,29.087 -1.371,1.132 -2.029,2.562 -2.089,4.131 l -0.011,0.219 c -0.143,3.819 4.023,7 9.782,7.117 l 9.598,0.194 c 3.815,0.078 7.192,-1.216 9.086,-3.204 0.245,-0.258 0.473,-0.524 0.666,-0.805 0.268,-0.069 0.475,-0.405 0.307,-0.504 z"
   id="path147"
   inkscape:connector-curvature="0"
   style="fill:#d9e021" />
		<path
   d="m 625.144,435.992 c 3.642,0.074 6.961,-0.833 9.436,-2.36 2.603,-1.607 4.271,-3.9 4.368,-6.48 l 0.053,-1.387 0.092,-2.413 0.115,-3.037 0.785,-20.593 0.004,-0.106 c -14.434,-0.293 -25.721,2.328 -31.98,11.221 -1.479,1.416 -3.615,6.907 -3.687,8.771 l -0.259,6.836 c -0.1,2.611 1.449,4.992 3.997,6.707 2.364,1.592 5.588,2.609 9.184,2.682 l 7.892,0.159 z"
   id="path149"
   inkscape:connector-curvature="0"
   style="fill:#a1cd43" />
		<path
   d="m 772.126,488.308 c 6.812,-6.958 10.955,-17.467 10.146,-29.087 -0.767,-11.039 -2.027,-20.861 -5.845,-27.416 -2.39,1.724 -5.754,2.83 -9.521,2.906 l -7.891,0.16 c -3.188,0.065 -6.13,-0.624 -8.475,-1.821 0.731,8.895 3.784,21.054 4.375,29.579 0.64,9.151 0.589,17.155 -1.945,23.385 -2.893,0.308 -5.381,1.398 -6.971,2.925 -1.215,1.166 -1.906,2.587 -1.849,4.108 l 0.008,0.22 c 0.027,0.77 0.253,1.504 0.631,2.189 -0.169,0.096 0.038,0.434 0.304,0.503 0.17,0.246 0.375,0.478 0.585,0.706 1.875,2.042 5.292,3.383 9.167,3.303 l 9.599,-0.193 c 5.758,-0.116 9.924,-3.298 9.781,-7.117 l -0.009,-0.219 c -0.061,-1.571 -0.719,-3 -2.09,-4.131 z"
   id="path151"
   inkscape:connector-curvature="0"
   style="fill:#d9e021" />
		<path
   d="m 744.952,418.945 0.114,3.162 0.146,3.86 c 0.038,0.998 0.318,1.981 0.788,2.871 0.889,1.683 2.48,3.144 4.541,4.195 2.345,1.197 5.286,1.895 8.475,1.829 l 7.891,-0.156 c 3.767,-0.076 7.131,-1.181 9.521,-2.904 2.351,-1.694 3.757,-3.984 3.662,-6.481 l -0.259,-6.835 c -0.072,-1.865 -2.207,-7.602 -3.687,-9.018 C 769.896,400.592 758.635,398 744.238,398 c -0.025,0 -0.05,0 -0.075,0 l 0.789,20.945 z"
   id="path153"
   inkscape:connector-curvature="0"
   style="fill:#a1cd43" />
		<path
   d="m 695.479,265.309 c 5.76,-0.096 10.354,-1.92 10.354,-4.163 0,-1.836 -3.08,-3.39 -7.354,-3.948 -0.574,0.404 -1.352,0.655 -2.213,0.655 -0.988,0 -1.861,-0.335 -2.447,-0.852 -5.422,0.228 -9.642,1.995 -9.642,4.145 0,2.085 3.977,3.809 9.166,4.118 0.543,0.032 1.096,0.054 1.662,0.054 0.16,0 0.316,-0.006 0.474,-0.009 z"
   id="path155"
   inkscape:connector-curvature="0"
   style="fill:#d9e021" />
		<path
   d="m 698.479,257.199 c 0.604,-0.424 0.981,-1.017 0.981,-1.677 0,-1.287 -1.429,-2.33 -3.194,-2.33 -1.762,0 -3.191,1.043 -3.191,2.33 0,0.565 0.286,1.077 0.744,1.48 0.586,0.516 1.459,0.852 2.447,0.852 0.861,0 1.638,-0.251 2.213,-0.655 z"
   id="path157"
   inkscape:connector-curvature="0"
   style="fill:#d9e021" />
	</g>
</g>
<g
   id="Layer_6"
   transform="translate(-71.75,-238)">
	<g
   id="g160">
		<path
   d="m 1095.361,539.87 c -0.02,2.678 0.39,5.867 0.39,9.066 L 1086.704,589 c 0,7 42.296,7 42.296,0 v -42.742 c 0,-0.782 -0.08,-1.53 -0.201,-2.258 h -26.413 c -1.524,0 -4.006,-1.558 -7.025,-4.13 z"
   id="path162"
   inkscape:connector-curvature="0"
   style="fill:#3fa9f5" />
		<path
   d="m 1165.214,544 c -0.128,0.728 -0.214,1.476 -0.214,2.258 V 589 c 0,7 42.747,7 42.747,0 l -9.047,-40.063 c 0,-3.456 0.479,-6.901 0.377,-9.7 -3.146,2.948 -5.779,4.764 -7.424,4.764 h -26.439 z"
   id="path164"
   inkscape:connector-curvature="0"
   style="fill:#3fa9f5" />
		<path
   d="m 1216.735,337.566 c 0,0 -41.409,-10.857 -72.773,-10.857 -31.364,0 -69.403,10.857 -69.403,10.857 -7.994,0 -14.559,6.48 -14.559,14.475 v 57.107 c 0,0.101 0,0.199 0,0.297 v 83.735 c 0,6.471 22.533,35.763 35.361,46.689 3.019,2.572 5.501,4.13 7.024,4.13 h 26.413 36.415 26.439 c 1.645,0 4.278,-1.815 7.424,-4.764 12.145,-11.385 31.923,-39.706 31.923,-46.056 v -141.14 c 10e-4,-7.992 -6.27,-14.473 -14.264,-14.473 z M 1146,466.649 c -3.95,0.052 -7.961,-0.285 -11.859,-1.243 -3.88,-0.961 -7.688,-2.524 -10.85,-4.943 l 0.41,-0.912 c 3.797,0.798 7.441,1.298 11.122,1.524 3.672,0.233 7.345,0.235 11.048,0.107 l 11.213,-0.519 c 3.785,-0.143 7.618,-0.277 11.562,0.057 l 0.172,0.984 c -3.6,1.653 -7.325,2.773 -11.138,3.606 -3.811,0.829 -7.724,1.286 -11.68,1.339 z m 60,-54.954 c 0,6.796 -5.51,12.305 -12.306,12.305 h -95.389 c -6.796,0 -12.306,-5.509 -12.306,-12.305 v -35.391 c 0,-6.796 5.51,-12.305 12.306,-12.305 h 95.389 c 6.796,0 12.306,5.509 12.306,12.305 v 35.391 z"
   id="path166"
   inkscape:connector-curvature="0"
   style="fill:#999999" />
		<path
   d="m 1193.694,364 h -95.389 c -6.796,0 -12.306,5.509 -12.306,12.305 v 35.391 c 0,6.796 5.51,12.305 12.306,12.305 h 95.389 c 6.796,0 12.306,-5.509 12.306,-12.305 V 376.305 C 1206,369.509 1200.49,364 1193.694,364 z m -67.483,35.716 c -2.499,0 -4.523,-5.542 -4.523,-12.377 0,-6.836 2.024,-8.759 4.523,-8.759 2.498,0 4.523,1.923 4.523,8.759 0,6.835 -2.025,12.377 -4.523,12.377 z m 42.221,0 c -2.499,0 -4.524,-5.542 -4.524,-12.377 0,-6.836 2.025,-8.759 4.524,-8.759 2.498,0 4.523,1.923 4.523,8.759 0,6.835 -2.025,12.377 -4.523,12.377 z"
   id="path168"
   inkscape:connector-curvature="0"
   style="fill:#3fa9f5" />
		<path
   d="m 1126.211,378.58 c -2.499,0 -4.523,1.923 -4.523,8.759 0,6.835 2.024,12.377 4.523,12.377 2.498,0 4.523,-5.542 4.523,-12.377 0,-6.836 -2.025,-8.759 -4.523,-8.759 z"
   id="path170"
   inkscape:connector-curvature="0"
   style="fill:#ffffff" />
		<path
   d="m 1168.432,378.58 c -2.499,0 -4.524,1.923 -4.524,8.759 0,6.835 2.025,12.377 4.524,12.377 2.498,0 4.523,-5.542 4.523,-12.377 0,-6.836 -2.025,-8.759 -4.523,-8.759 z"
   id="path172"
   inkscape:connector-curvature="0"
   style="fill:#ffffff" />
		<path
   d="m 1168.646,460.721 c -3.944,-0.334 -7.777,-0.199 -11.562,-0.057 l -11.213,0.519 c -3.703,0.128 -7.376,0.126 -11.048,-0.107 -3.681,-0.227 -7.325,-0.727 -11.122,-1.524 l -0.41,0.912 c 3.161,2.419 6.97,3.982 10.85,4.943 3.898,0.958 7.909,1.295 11.859,1.243 3.956,-0.054 7.869,-0.511 11.681,-1.338 3.812,-0.833 7.538,-1.953 11.138,-3.606 l -0.173,-0.985 z"
   id="path174"
   inkscape:connector-curvature="0" />
		<path
   d="m 1027.079,463.088 c -4.019,-0.306 -7.637,-1.09 -10.488,-2.156 -4.007,1.222 -7.091,4.586 -7.091,10.054 l 1.059,19.046 c 1.87,7.768 24.52,10.581 24.52,10.581 4.818,0 8.979,-4.227 9.998,-9.882 -5.219,-1.691 -8.748,-5.616 -8.748,-10.193 0,-4.641 3.771,-8.609 9.111,-10.26 -0.198,-4.491 -1.3,-7.399 -3.64,-8.827 -3.47,1.402 -8.831,2.082 -14.721,1.637 z"
   id="path176"
   inkscape:connector-curvature="0"
   style="fill:#0066a6" />
		<path
   d="m 1060,409.148 c -0.01,-0.28 -0.026,-0.566 -0.08,-0.871 -0.171,1.295 -0.429,2.439 -0.811,3.443 0.578,-0.579 0.861,-1.357 0.891,-2.275 0,-0.097 0,-0.196 0,-0.297 z"
   id="path178"
   inkscape:connector-curvature="0"
   style="fill:#ffffff" />
		<path
   d="m 1026.403,455.875 c -5.381,-0.688 -9.991,-2.209 -12.897,-4.046 -1.842,0.885 -3.012,2.004 -3.2,3.287 -0.315,2.159 2.182,4.281 6.285,5.815 2.852,1.066 6.47,1.851 10.488,2.156 5.89,0.445 11.251,-0.235 14.721,-1.638 2.303,-0.933 3.781,-2.179 3.994,-3.638 0.198,-1.345 -0.698,-2.677 -2.39,-3.86 -3.187,2.002 -9.759,2.85 -17.001,1.924 z"
   id="path180"
   inkscape:connector-curvature="0"
   style="fill:#bdccd4" />
		<path
   d="m 1030.628,463.724 c -1.179,0 -2.386,-0.046 -3.587,-0.137 -3.925,-0.299 -7.599,-1.055 -10.625,-2.187 -4.54,-1.697 -6.947,-4.015 -6.605,-6.356 0.207,-1.404 1.409,-2.672 3.479,-3.666 l 0.25,-0.119 0.234,0.147 c 2.96,1.871 7.587,3.319 12.693,3.973 1.922,0.246 3.835,0.37 5.686,0.37 4.733,0 8.738,-0.81 10.986,-2.221 l 0.28,-0.176 0.272,0.19 c 1.92,1.343 2.818,2.845 2.598,4.343 -0.232,1.589 -1.72,2.982 -4.302,4.028 -2.887,1.168 -6.921,1.811 -11.359,1.811 z M 1013.479,452.4 c -1.605,0.818 -2.53,1.779 -2.678,2.788 -0.265,1.808 1.966,3.779 5.965,5.274 2.94,1.1 6.52,1.835 10.352,2.126 1.176,0.089 2.356,0.135 3.511,0.135 4.312,0 8.214,-0.617 10.984,-1.737 2.202,-0.892 3.512,-2.045 3.687,-3.246 0.189,-1.279 -0.883,-2.413 -1.92,-3.189 -2.443,1.4 -6.503,2.198 -11.227,2.198 -1.894,0 -3.849,-0.127 -5.812,-0.378 -5.113,-0.654 -9.778,-2.097 -12.862,-3.971 z"
   id="path182"
   inkscape:connector-curvature="0"
   style="fill:#b3b3b3" />
		<path
   d="m 1025.758,447.845 c -4.506,-0.979 -8.365,-2.525 -11.058,-4.259 -2.455,0.815 -4.08,2.007 -4.403,3.488 -0.354,1.612 0.885,3.283 3.209,4.755 2.906,1.837 7.517,3.357 12.897,4.046 7.241,0.926 13.813,0.078 17.001,-1.923 1.079,-0.675 1.773,-1.481 1.973,-2.396 0.312,-1.423 -0.627,-2.894 -2.453,-4.233 -3.376,1.763 -10.038,2.071 -17.166,0.522 z"
   id="path184"
   inkscape:connector-curvature="0"
   style="fill:#bdccd4" />
		<path
   d="m 1032.152,456.749 c -1.894,0 -3.849,-0.127 -5.812,-0.378 -5.246,-0.672 -10.021,-2.173 -13.102,-4.119 -2.636,-1.67 -3.822,-3.497 -3.43,-5.285 0.352,-1.61 1.988,-2.943 4.734,-3.855 l 0.227,-0.075 0.201,0.13 c 2.757,1.774 6.625,3.263 10.894,4.19 2.978,0.646 6.004,0.988 8.751,0.988 3.399,0 6.268,-0.521 8.077,-1.466 l 0.276,-0.145 0.251,0.185 c 2.077,1.524 2.992,3.165 2.646,4.744 -0.224,1.028 -0.963,1.942 -2.196,2.713 -2.401,1.508 -6.6,2.373 -11.517,2.373 z m -17.517,-12.612 c -2.227,0.778 -3.59,1.854 -3.85,3.044 -0.29,1.322 0.771,2.822 2.988,4.226 2.96,1.871 7.587,3.319 12.693,3.973 1.922,0.246 3.835,0.37 5.686,0.37 4.733,0 8.738,-0.81 10.986,-2.221 0.996,-0.623 1.585,-1.322 1.75,-2.079 0.302,-1.373 -0.877,-2.655 -2.019,-3.542 -1.954,0.929 -4.867,1.438 -8.255,1.438 -2.817,0 -5.917,-0.35 -8.964,-1.012 -4.277,-0.931 -8.177,-2.417 -11.015,-4.197 z"
   id="path186"
   inkscape:connector-curvature="0"
   style="fill:#b3b3b3" />
		<path
   d="m 1026.766,439.462 c -4.489,-1.247 -8.275,-3.044 -10.831,-4.96 -2.708,0.592 -4.588,1.676 -5.105,3.189 -0.634,1.858 0.911,3.99 3.871,5.895 2.692,1.733 6.552,3.279 11.058,4.259 7.128,1.549 13.79,1.241 17.166,-0.522 1.104,-0.578 1.858,-1.309 2.159,-2.184 0.518,-1.516 -0.411,-3.211 -2.371,-4.816 -3.705,1.101 -9.696,0.876 -15.947,-0.861 z"
   id="path188"
   inkscape:connector-curvature="0"
   style="fill:#bdccd4" />
		<path
   d="m 1034.615,449.345 c -2.817,0 -5.917,-0.35 -8.964,-1.012 -4.382,-0.952 -8.367,-2.489 -11.222,-4.327 -3.322,-2.137 -4.77,-4.437 -4.074,-6.476 0.562,-1.642 2.454,-2.857 5.473,-3.517 l 0.224,-0.049 0.183,0.137 c 2.618,1.963 6.405,3.695 10.665,4.879 3.567,0.991 7.143,1.516 10.339,1.516 2.052,0 3.896,-0.227 5.331,-0.653 l 0.254,-0.075 0.205,0.168 c 2.816,2.307 2.929,4.19 2.528,5.364 -0.337,0.978 -1.144,1.807 -2.4,2.466 -1.952,1.018 -4.984,1.579 -8.542,1.579 z m -18.794,-14.305 c -2.495,0.581 -4.096,1.576 -4.52,2.813 -0.524,1.538 0.812,3.475 3.669,5.312 2.757,1.775 6.625,3.264 10.894,4.191 2.978,0.646 6.004,0.988 8.751,0.988 3.399,0 6.268,-0.521 8.077,-1.466 1.022,-0.535 1.668,-1.176 1.918,-1.902 0.406,-1.19 -0.309,-2.641 -2.016,-4.101 -1.499,0.411 -3.299,0.62 -5.356,0.62 -3.285,0 -6.953,-0.537 -10.606,-1.553 -4.278,-1.186 -8.106,-2.923 -10.811,-4.902 z"
   id="path190"
   inkscape:connector-curvature="0"
   style="fill:#b3b3b3" />
		<path
   d="m 1028.121,430.734 c -3.97,-1.455 -7.306,-3.328 -9.63,-5.257 -3.015,0.401 -5.177,1.412 -5.848,2.992 -0.767,1.802 0.562,3.986 3.291,6.032 2.556,1.916 6.342,3.713 10.831,4.96 6.251,1.737 12.242,1.962 15.946,0.86 1.794,-0.535 3.059,-1.375 3.543,-2.516 0.646,-1.524 -0.195,-3.324 -2.123,-5.08 -3.767,0.925 -9.838,0.269 -16.01,-1.991 z"
   id="path192"
   inkscape:connector-curvature="0"
   style="fill:#bdccd4" />
		<path
   d="m 1037.238,441.496 c -3.285,0 -6.953,-0.537 -10.606,-1.553 -4.377,-1.216 -8.282,-3.006 -10.997,-5.041 -3.066,-2.299 -4.292,-4.652 -3.451,-6.628 0.725,-1.707 2.883,-2.846 6.241,-3.293 l 0.218,-0.028 0.168,0.14 c 2.361,1.959 5.729,3.796 9.482,5.172 4.168,1.526 8.433,2.366 12.009,2.366 1.406,0 2.655,-0.131 3.711,-0.39 l 0.259,-0.063 0.197,0.179 c 2.158,1.967 2.956,3.972 2.246,5.646 -0.531,1.252 -1.83,2.194 -3.86,2.8 -1.549,0.459 -3.439,0.693 -5.617,0.693 z m -18.895,-15.493 c -2.825,0.409 -4.683,1.352 -5.239,2.662 -0.633,1.489 0.508,3.471 3.131,5.437 2.618,1.963 6.405,3.695 10.665,4.879 3.567,0.991 7.143,1.516 10.339,1.516 2.052,0 3.896,-0.227 5.331,-0.653 1.706,-0.509 2.821,-1.28 3.226,-2.231 0.675,-1.592 -0.759,-3.337 -1.809,-4.338 -1.074,0.237 -2.312,0.357 -3.685,0.357 -3.691,0 -8.078,-0.861 -12.353,-2.427 -3.769,-1.383 -7.17,-3.225 -9.606,-5.202 z"
   id="path194"
   inkscape:connector-curvature="0"
   style="fill:#b3b3b3" />
		<path
   d="m 1031.609,422.445 c -4.168,-1.809 -7.55,-4.071 -9.713,-6.295 -3.281,0.105 -5.733,0.955 -6.608,2.562 -1.02,1.87 0.305,4.359 3.203,6.765 2.324,1.929 5.66,3.802 9.63,5.257 6.172,2.26 12.243,2.916 16.011,1.992 1.682,-0.412 2.906,-1.139 3.472,-2.177 0.782,-1.435 0.181,-3.235 -1.446,-5.079 -3.81,0.333 -9.187,-0.698 -14.549,-3.025 z"
   id="path196"
   inkscape:connector-curvature="0"
   style="fill:#bdccd4" />
		<path
   d="m 1040.302,433.631 c -3.691,0 -8.078,-0.861 -12.353,-2.427 -3.858,-1.414 -7.331,-3.312 -9.777,-5.342 -3.217,-2.669 -4.428,-5.362 -3.323,-7.389 0.929,-1.704 3.426,-2.707 7.032,-2.823 l 0.22,-0.007 0.154,0.158 c 2.214,2.275 5.606,4.473 9.554,6.185 5.049,2.192 10.44,3.319 14.306,2.986 l 0.251,-0.022 0.167,0.189 c 1.83,2.074 2.366,4.08 1.511,5.649 -0.623,1.144 -1.899,1.959 -3.792,2.423 -1.135,0.279 -2.464,0.42 -3.95,0.42 z m -18.607,-16.973 c -3.118,0.133 -5.233,0.944 -5.968,2.294 -0.854,1.567 0.269,3.806 3.083,6.141 2.361,1.959 5.729,3.796 9.482,5.172 4.168,1.526 8.433,2.366 12.009,2.366 1.406,0 2.655,-0.131 3.711,-0.39 1.586,-0.389 2.676,-1.057 3.151,-1.931 0.812,-1.489 -0.343,-3.278 -1.22,-4.321 -4.002,0.286 -9.443,-0.875 -14.534,-3.085 -3.971,-1.723 -7.411,-3.936 -9.714,-6.246 z"
   id="path198"
   inkscape:connector-curvature="0"
   style="fill:#b3b3b3" />
		<path
   d="m 1026.83,407.529 c -3.435,-0.129 -6.067,0.592 -7.092,2.201 -1.078,1.693 -0.161,4.035 2.158,6.42 2.163,2.224 5.545,4.486 9.713,6.295 5.361,2.327 10.738,3.357 14.548,3.025 2.331,-0.205 4.079,-0.918 4.869,-2.158 0.846,-1.33 0.453,-3.061 -0.87,-4.898 -0.899,-0.018 -1.86,-0.113 -2.868,-0.28 -9.247,-0.125 -17.122,-3.514 -20.458,-10.605 z"
   id="path200"
   inkscape:connector-curvature="0"
   style="fill:#bdccd4" />
		<path
   d="m 1044.693,426.031 0,0 c -3.863,0 -8.704,-1.14 -13.283,-3.127 -4.063,-1.764 -7.569,-4.038 -9.872,-6.405 -2.612,-2.686 -3.401,-5.185 -2.222,-7.037 1.097,-1.722 3.757,-2.571 7.532,-2.433 l 0.305,0.012 0.129,0.275 c 3.023,6.426 10.317,10.187 20.013,10.317 1.069,0.172 2.01,0.264 2.871,0.28 l 0.25,0.005 0.146,0.203 c 1.912,2.656 1.537,4.435 0.886,5.459 -0.851,1.335 -2.665,2.16 -5.247,2.388 -0.479,0.043 -0.983,0.063 -1.508,0.063 z m -18.63,-18.016 c -2.992,0 -5.089,0.705 -5.903,1.984 -0.893,1.401 -0.129,3.517 2.095,5.803 2.214,2.275 5.606,4.473 9.554,6.185 4.458,1.936 9.154,3.045 12.885,3.045 l 0,0 c 0.494,0 0.969,-0.02 1.421,-0.059 2.261,-0.199 3.813,-0.866 4.49,-1.929 0.832,-1.309 0.108,-2.936 -0.713,-4.137 -0.838,-0.029 -1.74,-0.124 -2.686,-0.28 -9.88,-0.128 -17.427,-3.991 -20.694,-10.607 -0.152,-0.003 -0.301,-0.005 -0.449,-0.005 z"
   id="path202"
   inkscape:connector-curvature="0"
   style="fill:#b3b3b3" />
		<path
   d="m 1047.816,375.961 c -12.537,0 -22.697,10.459 -22.697,23.36 0,0.595 0.044,1.159 0.087,1.724 0.067,0.886 0.172,1.744 0.338,2.559 0.289,1.416 0.722,2.725 1.286,3.926 3.336,7.091 11.211,10.479 20.458,10.604 0.178,0.003 0.35,0.016 0.528,0.016 3.937,0 6.627,-0.585 8.468,-1.786 1.346,-0.879 2.235,-2.092 2.825,-3.643 0.382,-1.004 0.64,-2.148 0.811,-3.443 0.354,-2.68 0.349,-5.986 0.349,-9.956 0,-12.902 0.081,-23.361 -12.453,-23.361 z"
   id="path204"
   inkscape:connector-curvature="0"
   style="fill:#0066a6" />
		<path
   d="m 1274.14,460.932 c -2.852,1.066 -6.47,1.851 -10.488,2.156 -5.89,0.445 -11.252,-0.235 -14.721,-1.638 -2.34,1.428 -3.442,4.336 -3.64,8.827 5.341,1.65 9.11,5.619 9.11,10.26 0,4.577 -3.528,8.502 -8.748,10.193 1.021,5.655 5.181,9.882 9.998,9.882 0,0 22.65,-2.813 24.521,-10.581 l 1.059,-19.046 c -10e-4,-5.467 -3.085,-8.832 -7.091,-10.053 z"
   id="path206"
   inkscape:connector-curvature="0"
   style="fill:#0066a6" />
		<path
   d="m 1231.76,408.829 c -0.073,0.853 0.031,1.613 0.367,2.229 -0.128,-0.56 -0.233,-1.15 -0.316,-1.78 -0.02,-0.146 -0.034,-0.3 -0.051,-0.449 z"
   id="path208"
   inkscape:connector-curvature="0"
   style="fill:#ffffff" />
		<path
   d="m 1263.651,463.088 c 4.019,-0.306 7.637,-1.09 10.488,-2.156 4.104,-1.534 6.601,-3.656 6.285,-5.815 -0.188,-1.283 -1.358,-2.402 -3.202,-3.287 -2.906,1.837 -7.515,3.357 -12.896,4.046 -7.241,0.926 -13.812,0.078 -17.001,-1.923 -1.69,1.184 -2.587,2.516 -2.39,3.86 0.214,1.459 1.692,2.705 3.995,3.638 3.469,1.402 8.832,2.082 14.721,1.637 z"
   id="path210"
   inkscape:connector-curvature="0"
   style="fill:#bdccd4" />
		<path
   d="m 1260.103,463.724 0,0 c -4.438,0 -8.473,-0.643 -11.359,-1.81 -2.582,-1.046 -4.069,-2.439 -4.303,-4.029 -0.219,-1.497 0.679,-2.999 2.598,-4.342 l 0.272,-0.19 0.28,0.176 c 2.249,1.412 6.254,2.221 10.986,2.221 1.852,0 3.764,-0.124 5.686,-0.37 5.105,-0.653 9.731,-2.101 12.692,-3.973 l 0.234,-0.147 0.25,0.119 c 2.07,0.994 3.273,2.262 3.48,3.666 0.342,2.342 -2.065,4.659 -6.605,6.356 -3.026,1.132 -6.7,1.888 -10.625,2.187 -1.201,0.09 -2.407,0.136 -3.586,0.136 z m -12.751,-9.173 c -1.037,0.776 -2.109,1.91 -1.921,3.189 0.176,1.201 1.485,2.354 3.688,3.246 2.77,1.12 6.671,1.737 10.984,1.737 l 0,0 c 1.154,0 2.335,-0.046 3.511,-0.135 3.832,-0.291 7.411,-1.026 10.352,-2.126 3.999,-1.495 6.229,-3.467 5.965,-5.274 -0.147,-1.01 -1.073,-1.971 -2.68,-2.788 -3.085,1.874 -7.749,3.316 -12.86,3.971 -1.964,0.251 -3.919,0.378 -5.812,0.378 -4.725,0 -8.784,-0.798 -11.227,-2.198 z"
   id="path212"
   inkscape:connector-curvature="0"
   style="fill:#b3b3b3" />
		<path
   d="m 1264.326,455.875 c 5.382,-0.688 9.99,-2.209 12.896,-4.046 2.327,-1.472 3.563,-3.143 3.211,-4.755 -0.323,-1.481 -1.949,-2.673 -4.403,-3.488 -2.693,1.733 -6.552,3.279 -11.057,4.259 -7.129,1.549 -13.792,1.241 -17.166,-0.522 -1.827,1.34 -2.768,2.811 -2.455,4.233 0.2,0.915 0.895,1.722 1.973,2.396 3.189,2.001 9.76,2.849 17.001,1.923 z"
   id="path214"
   inkscape:connector-curvature="0"
   style="fill:#bdccd4" />
		<path
   d="m 1258.578,456.749 0,0 c -4.917,0 -9.115,-0.865 -11.519,-2.373 -1.231,-0.771 -1.971,-1.684 -2.195,-2.714 -0.347,-1.578 0.568,-3.219 2.647,-4.743 l 0.251,-0.185 0.276,0.145 c 1.809,0.945 4.677,1.466 8.076,1.466 2.748,0 5.774,-0.342 8.752,-0.988 4.267,-0.928 8.135,-2.416 10.893,-4.191 l 0.201,-0.129 0.227,0.075 c 2.746,0.912 4.383,2.246 4.734,3.856 0.392,1.789 -0.795,3.616 -3.432,5.284 -3.08,1.946 -7.855,3.448 -13.101,4.119 -1.962,0.251 -3.917,0.378 -5.81,0.378 z m -10.717,-8.842 c -1.143,0.887 -2.322,2.169 -2.021,3.541 0.166,0.758 0.754,1.457 1.75,2.08 2.249,1.411 6.253,2.221 10.986,2.221 1.851,0 3.764,-0.124 5.686,-0.37 5.105,-0.653 9.731,-2.101 12.692,-3.973 2.218,-1.402 3.279,-2.902 2.99,-4.226 -0.26,-1.189 -1.623,-2.266 -3.85,-3.044 -2.84,1.78 -6.739,3.267 -11.016,4.196 -3.047,0.662 -6.146,1.012 -8.965,1.012 -3.386,0.001 -6.299,-0.508 -8.252,-1.437 z"
   id="path216"
   inkscape:connector-curvature="0"
   style="fill:#b3b3b3" />
		<path
   d="m 1264.974,447.845 c 4.505,-0.979 8.363,-2.525 11.057,-4.259 2.96,-1.904 4.505,-4.036 3.871,-5.895 -0.519,-1.514 -2.397,-2.598 -5.106,-3.189 -2.556,1.916 -6.341,3.713 -10.83,4.96 -6.252,1.737 -12.242,1.962 -15.946,0.86 -1.96,1.605 -2.89,3.301 -2.371,4.816 0.301,0.875 1.056,1.605 2.16,2.184 3.373,1.764 10.036,2.072 17.165,0.523 z"
   id="path218"
   inkscape:connector-curvature="0"
   style="fill:#bdccd4" />
		<path
   d="m 1256.116,449.345 0,0 c -3.559,0 -6.592,-0.561 -8.54,-1.579 -1.258,-0.658 -2.065,-1.487 -2.401,-2.465 -0.402,-1.174 -0.29,-3.059 2.527,-5.365 l 0.205,-0.168 0.254,0.075 c 1.436,0.428 3.279,0.653 5.33,0.653 3.196,0 6.771,-0.524 10.34,-1.516 4.259,-1.184 8.046,-2.916 10.664,-4.879 l 0.183,-0.137 0.224,0.049 c 3.019,0.659 4.911,1.875 5.473,3.516 0.696,2.04 -0.751,4.34 -4.073,6.478 -2.855,1.837 -6.841,3.374 -11.221,4.326 -3.048,0.662 -6.147,1.012 -8.965,1.012 z m -7.98,-8.469 c -1.707,1.46 -2.423,2.91 -2.016,4.101 0.25,0.727 0.896,1.367 1.919,1.902 1.809,0.945 4.677,1.466 8.076,1.466 h 10e-4 c 2.747,0 5.773,-0.342 8.751,-0.988 4.267,-0.928 8.135,-2.416 10.893,-4.191 2.856,-1.837 4.193,-3.773 3.668,-5.312 -0.424,-1.237 -2.025,-2.232 -4.52,-2.812 -2.706,1.979 -6.533,3.716 -10.81,4.903 -3.653,1.016 -7.321,1.553 -10.607,1.553 -2.056,-0.002 -3.856,-0.211 -5.355,-0.622 z"
   id="path220"
   inkscape:connector-curvature="0"
   style="fill:#b3b3b3" />
		<path
   d="m 1263.965,439.462 c 4.489,-1.247 8.274,-3.044 10.83,-4.96 2.73,-2.046 4.059,-4.23 3.292,-6.032 -0.671,-1.58 -2.833,-2.591 -5.849,-2.992 -2.324,1.929 -5.659,3.802 -9.63,5.257 -6.171,2.26 -12.242,2.916 -16.01,1.992 -1.928,1.756 -2.771,3.556 -2.123,5.08 0.483,1.141 1.749,1.98 3.543,2.516 3.705,1.101 9.695,0.876 15.947,-0.861 z"
   id="path222"
   inkscape:connector-curvature="0"
   style="fill:#bdccd4" />
		<path
   d="m 1253.492,441.496 0,0 c -2.178,0 -4.067,-0.234 -5.616,-0.694 -2.031,-0.606 -3.33,-1.548 -3.86,-2.8 -0.711,-1.673 0.087,-3.678 2.246,-5.646 l 0.197,-0.179 0.259,0.063 c 1.056,0.259 2.305,0.39 3.711,0.39 3.577,0 7.841,-0.84 12.008,-2.366 3.753,-1.375 7.12,-3.212 9.482,-5.172 l 0.168,-0.14 0.218,0.028 c 3.359,0.447 5.518,1.586 6.242,3.293 0.841,1.976 -0.385,4.33 -3.452,6.628 -2.715,2.035 -6.62,3.826 -10.996,5.041 -3.654,1.017 -7.322,1.554 -10.607,1.554 z m -6.748,-8.223 c -1.05,1.001 -2.484,2.746 -1.809,4.338 0.403,0.951 1.519,1.723 3.226,2.231 1.436,0.427 3.279,0.653 5.33,0.653 h 10e-4 c 3.195,0 6.771,-0.524 10.339,-1.516 4.259,-1.184 8.046,-2.916 10.664,-4.879 2.624,-1.966 3.766,-3.947 3.132,-5.437 -0.557,-1.311 -2.414,-2.253 -5.24,-2.662 -2.438,1.978 -5.838,3.82 -9.606,5.201 -4.273,1.564 -8.66,2.427 -12.352,2.427 -1.372,0.002 -2.611,-0.118 -3.685,-0.356 z"
   id="path224"
   inkscape:connector-curvature="0"
   style="fill:#b3b3b3" />
		<path
   d="m 1262.608,430.734 c 3.971,-1.455 7.306,-3.328 9.63,-5.257 2.898,-2.405 4.224,-4.895 3.204,-6.765 -0.875,-1.607 -3.326,-2.457 -6.608,-2.562 -2.163,2.224 -5.546,4.486 -9.713,6.295 -5.361,2.327 -10.738,3.357 -14.548,3.025 -1.627,1.844 -2.229,3.645 -1.447,5.079 0.566,1.038 1.791,1.765 3.473,2.177 3.767,0.924 9.839,0.268 16.009,-1.992 z"
   id="path226"
   inkscape:connector-curvature="0"
   style="fill:#bdccd4" />
		<path
   d="m 1250.43,433.631 0,0 c -1.488,0 -2.816,-0.141 -3.95,-0.419 -1.893,-0.464 -3.168,-1.278 -3.792,-2.423 -0.856,-1.569 -0.319,-3.575 1.511,-5.649 l 0.167,-0.189 0.251,0.022 c 3.866,0.334 9.257,-0.794 14.306,-2.986 3.948,-1.713 7.341,-3.909 9.554,-6.185 l 0.154,-0.158 0.22,0.007 c 3.606,0.116 6.104,1.119 7.032,2.823 1.104,2.026 -0.107,4.719 -3.324,7.389 -2.447,2.031 -5.92,3.928 -9.777,5.342 -4.276,1.564 -8.662,2.426 -12.352,2.426 z m -5.644,-7.642 c -0.878,1.043 -2.033,2.833 -1.221,4.321 0.477,0.874 1.566,1.542 3.152,1.931 1.056,0.259 2.305,0.39 3.711,0.39 3.576,0 7.841,-0.84 12.008,-2.366 3.753,-1.375 7.12,-3.212 9.482,-5.172 2.814,-2.336 3.938,-4.573 3.084,-6.141 -0.734,-1.35 -2.85,-2.161 -5.968,-2.294 -2.303,2.309 -5.742,4.521 -9.715,6.246 -5.09,2.209 -10.527,3.369 -14.533,3.085 z"
   id="path228"
   inkscape:connector-curvature="0"
   style="fill:#b3b3b3" />
		<path
   d="m 1259.121,422.445 c 4.167,-1.809 7.55,-4.071 9.713,-6.295 2.319,-2.385 3.236,-4.727 2.157,-6.42 -1.024,-1.609 -3.656,-2.33 -7.092,-2.201 -3.335,7.091 -11.21,10.479 -20.457,10.604 -1.009,0.167 -1.969,0.263 -2.868,0.28 -1.324,1.838 -1.716,3.568 -0.87,4.898 0.791,1.24 2.538,1.953 4.869,2.158 3.81,0.334 9.187,-0.697 14.548,-3.024 z"
   id="path230"
   inkscape:connector-curvature="0"
   style="fill:#bdccd4" />
		<path
   d="m 1246.038,426.031 0,0 c -0.525,0 -1.029,-0.021 -1.508,-0.062 -2.582,-0.228 -4.396,-1.053 -5.248,-2.388 -0.651,-1.025 -1.026,-2.804 0.887,-5.459 l 0.146,-0.203 0.25,-0.005 c 0.86,-0.017 1.801,-0.108 2.796,-0.273 9.771,-0.138 17.064,-3.898 20.087,-10.324 l 0.129,-0.275 0.305,-0.012 c 3.791,-0.141 6.437,0.711 7.532,2.433 1.18,1.852 0.392,4.352 -2.221,7.037 -2.302,2.366 -5.808,4.641 -9.872,6.405 -4.58,1.987 -9.422,3.126 -13.283,3.126 z m -5.199,-7.124 c -0.821,1.2 -1.546,2.827 -0.713,4.137 0.678,1.062 2.23,1.729 4.491,1.929 3.857,0.334 9.256,-0.794 14.305,-2.986 3.948,-1.713 7.341,-3.909 9.554,-6.185 2.224,-2.286 2.987,-4.401 2.094,-5.803 -0.854,-1.343 -3.123,-2.046 -6.352,-1.979 -3.267,6.616 -10.814,10.479 -20.769,10.614 -0.878,0.15 -1.773,0.244 -2.61,0.273 z"
   id="path232"
   inkscape:connector-curvature="0"
   style="fill:#b3b3b3" />
		<path
   d="m 1263.899,407.529 c 0.565,-1.201 0.999,-2.51 1.287,-3.926 0.166,-0.814 0.271,-1.673 0.338,-2.559 0.042,-0.564 0.086,-1.129 0.086,-1.724 0,-12.901 -10.159,-23.36 -22.696,-23.36 -12.534,0 -12.453,10.459 -12.453,23.36 0,3.755 0,6.908 0.299,9.508 0.018,0.148 0.031,0.303 0.051,0.448 0.083,0.63 0.188,1.221 0.316,1.78 0.136,0.591 0.297,1.147 0.493,1.663 0.591,1.551 1.479,2.764 2.825,3.643 1.842,1.201 4.532,1.786 8.469,1.786 0.179,0 0.351,-0.013 0.528,-0.016 9.247,-0.123 17.122,-3.512 20.457,-10.603 z"
   id="path234"
   inkscape:connector-curvature="0"
   style="fill:#0066a6" />
	</g>
</g>
<g
   id="Layer_7"
   transform="translate(-71.75,-238)">
	<g
   id="g237">
		<path
   d="m 885.461,315.467 c -0.686,-2.269 -1.652,-4.577 -3.429,-6.413 -0.429,-0.447 -0.954,-0.892 -1.44,-1.231 -0.477,-0.354 -0.972,-0.684 -1.473,-1.005 -1.004,-0.638 -2.04,-1.228 -3.11,-1.755 -2.128,-1.034 -4.424,-1.813 -6.881,-1.752 -0.011,-0.094 -0.021,-0.187 -0.032,-0.281 -0.422,-3.729 -0.595,-6.641 -2.281,-6.502 -1.686,0.139 -2.71,3.275 -2.288,7.006 0.421,3.729 2.124,6.642 3.81,6.502 1.493,-0.122 1.271,-2.585 0.907,-5.727 1.993,0.808 3.967,1.641 5.892,2.562 1.007,0.483 1.987,1.044 2.939,1.636 0.472,0.302 0.945,0.633 1.408,0.952 0.469,0.31 0.835,0.669 1.221,1.042 1.486,1.473 2.565,3.583 3.307,5.685 0.097,0.277 0.19,0.547 0.28,0.814 h 1.538 c -0.107,-0.532 -0.225,-1.058 -0.368,-1.533 z"
   id="path239"
   inkscape:connector-curvature="0" />
		<path
   d="m 909.215,316.187 c 0.741,-2.102 1.819,-4.338 3.306,-5.81 0.386,-0.373 0.752,-0.67 1.222,-0.98 0.462,-0.318 0.936,-0.619 1.407,-0.921 0.952,-0.591 1.932,-1.137 2.939,-1.621 1.925,-0.923 3.897,-1.748 5.892,-2.555 -0.362,3.146 -0.587,5.612 0.907,5.735 1.686,0.14 3.387,-2.772 3.811,-6.502 0.422,-3.73 -0.604,-6.867 -2.289,-7.006 -1.687,-0.139 -1.859,2.773 -2.283,6.502 -0.011,0.096 -0.021,0.189 -0.032,0.285 -2.457,-0.061 -4.752,0.722 -6.88,1.756 -1.069,0.527 -2.105,1.125 -3.11,1.763 -0.5,0.321 -0.995,0.667 -1.472,1.021 -0.486,0.34 -1.012,0.815 -1.44,1.263 -1.775,1.836 -2.743,4.207 -3.428,6.476 -0.135,0.449 -0.239,0.929 -0.342,1.407 h 1.513 c 0.088,-0.267 0.182,-0.537 0.279,-0.813 z"
   id="path241"
   inkscape:connector-curvature="0" />
		<path
   d="M 925,421.029 V 406 h -57 v 15.017 c 0.071,0.003 0,0.011 0,0.013 V 444.772 484 h 57 v -39.229 -23.742 z"
   id="path243"
   inkscape:connector-curvature="0"
   style="fill:#fac8d0" />
		<path
   d="m 868,421.017 c -0.02,-10e-4 -0.045,-0.002 -0.092,-0.002 -13.562,0 -29.127,1.108 -38.63,8.124 -11.478,8.473 -15.104,24.127 -15.227,38.114 -4.774,0.266 -8.552,3.709 -8.552,7.86 0,4.324 4.097,7.887 9.151,7.887 h 22.572 c 0,-1 0.436,-16.603 0.982,-21.597 1.768,-16.129 11.146,-16.743 27.177,-16.743 0.867,0 1.617,0.043 2.617,0.111 v -23.742 c 0.002,-0.002 0.073,-0.009 0.002,-0.012 z"
   id="path245"
   inkscape:connector-curvature="0"
   style="fill:#ff7bac" />
		<path
   d="m 928.919,444.66 c 16.034,0 26.062,0.614 27.829,16.743 0.551,4.994 1.637,20.597 1.637,21.597 h 22.572 c 5.055,0 9.15,-3.562 9.15,-7.887 0,-4.151 -3.777,-7.595 -8.551,-7.86 -0.123,-13.987 -3.749,-29.642 -15.227,-38.114 -9.504,-7.016 -26.373,-8.124 -39.935,-8.124 -0.218,0 -1.396,0.013 -1.396,0.015 v 23.742 c 2.002,-0.069 3.057,-0.112 3.921,-0.112 z"
   id="path247"
   inkscape:connector-curvature="0"
   style="fill:#ff7bac" />
		<path
   d="m 853.924,594 h 95.152 c 6.828,0 12.405,-4.854 12.878,-11 H 841.046 c 0.473,6.146 6.05,11 12.878,11 z"
   id="path249"
   inkscape:connector-curvature="0"
   style="fill:#666666" />
		<polygon
   points="841.046,583 961.954,583 974.676,583 986.774,574.836 952.41,484 925,484 868,484 843.216,484 813.919,574.836 827.526,583 "
   id="polygon251"
   style="fill:#d4145a" />
		<path
   d="M 939.571,406 C 951.764,401 961,391.668 965,381.236 V 342.598 C 961,332.168 951.764,317 939.571,317 h -30.637 -1.513 -21.594 -1.538 -30.875 C 841.223,317 831,332.168 827,342.599 v 38.638 C 831,391.668 841.223,401 853.415,406 H 868 h 57 14.571 z m -34.268,-49.847 c 0.35,-3.302 1.857,-5.882 3.369,-5.766 1.511,0.117 2.451,2.89 2.1,6.19 -0.35,3.301 -1.857,5.883 -3.369,5.766 -1.51,-0.116 -2.45,-2.888 -2.1,-6.19 z m -25.964,-5.765 c 1.512,-0.116 3.02,2.464 3.37,5.766 0.349,3.302 -0.59,6.073 -2.1,6.19 -1.511,0.117 -3.02,-2.465 -3.37,-5.766 -0.35,-3.301 0.59,-6.073 2.1,-6.19 z m -4.356,24.882 c 1.572,0.846 3.27,1.361 5.021,1.704 1.746,0.356 3.531,0.548 5.321,0.692 3.588,0.262 7.206,0.257 10.848,0.242 3.653,-0.013 7.266,0.04 10.844,-0.243 3.572,-0.277 7.106,-0.898 10.531,-2.073 l 0.293,0.693 c -3.297,1.686 -6.96,2.693 -10.643,3.14 -3.687,0.467 -7.386,0.486 -11.024,0.468 -3.652,-0.012 -7.343,-0.08 -11.019,-0.55 -1.837,-0.23 -3.672,-0.562 -5.469,-1.084 -1.779,-0.54 -3.581,-1.228 -5.095,-2.347 l 0.392,-0.642 z"
   id="path253"
   inkscape:connector-curvature="0"
   style="fill:#ff7bac" />
		<path
   d="m 885.156,379.343 c 3.676,0.47 7.366,0.538 11.019,0.55 3.639,0.019 7.338,-10e-4 11.024,-0.468 3.683,-0.446 7.346,-1.454 10.643,-3.14 l -0.293,-0.693 c -3.425,1.175 -6.959,1.796 -10.531,2.073 -3.578,0.283 -7.19,0.23 -10.844,0.243 -3.642,0.015 -7.26,0.02 -10.848,-0.242 -1.79,-0.145 -3.575,-0.336 -5.321,-0.692 -1.752,-0.343 -3.449,-0.858 -5.021,-1.704 l -0.391,0.643 c 1.514,1.119 3.315,1.807 5.095,2.347 1.796,0.52 3.631,0.852 5.468,1.083 z"
   id="path255"
   inkscape:connector-curvature="0" />
		<path
   d="m 880.609,362.344 c 1.51,-0.117 2.448,-2.889 2.1,-6.19 -0.351,-3.302 -1.858,-5.882 -3.37,-5.766 -1.51,0.117 -2.45,2.89 -2.1,6.19 0.35,3.3 1.86,5.883 3.37,5.766 z"
   id="path257"
   inkscape:connector-curvature="0"
   style="fill:#ffffff" />
		<path
   d="m 907.402,362.344 c 1.512,0.117 3.02,-2.465 3.369,-5.766 0.352,-3.301 -0.589,-6.073 -2.1,-6.19 -1.512,-0.116 -3.02,2.464 -3.369,5.766 -0.349,3.302 0.591,6.073 2.1,6.19 z"
   id="path259"
   inkscape:connector-curvature="0"
   style="fill:#ffffff" />
	</g>
</g>
<g
   id="Layer_8"
   transform="translate(-71.75,-238)">
	<g
   id="g262">
		<path
   d="m 1364.85,562 h 24.862 c -6.733,-0.125 -16.964,-0.342 -25.295,-0.523 0.145,0.173 0.29,0.348 0.433,0.523 z"
   id="path264"
   inkscape:connector-curvature="0"
   style="fill:none" />
		<path
   d="m 1427.307,562 c 0.171,-0.206 0.342,-0.412 0.516,-0.616 -8.581,0.219 -18.928,0.477 -25.399,0.616 h 24.883 z"
   id="path266"
   inkscape:connector-curvature="0"
   style="fill:none" />
		<path
   d="m 1381.5,448.508 c 0,-5.527 6.156,-10.008 13.75,-10.008 7.594,0 13.75,4.48 13.75,10.008 0,0.204 -0.025,0.403 -0.042,0.604 1.324,0.02 2.68,0.043 4.042,0.07 v -21.066 c 1,-1.076 -7.809,-13.115 -18.164,-13.115 -10.355,0 -17.836,12.655 -17.836,13.99 v 20.657 c 1.539,-0.07 3.074,-0.136 4.565,-0.195 -0.04,-0.311 -0.065,-0.626 -0.065,-0.945 z"
   id="path268"
   inkscape:connector-curvature="0"
   style="fill:#ff1d25" />
		<path
   d="m 1395.25,438.5 c -7.594,0 -13.75,4.48 -13.75,10.008 0,0.319 0.025,0.634 0.065,0.945 7.346,-0.295 13.59,-0.453 13.59,-0.453 0,0 6.364,0 13.803,0.111 0.017,-0.2 0.042,-0.399 0.042,-0.604 0,-5.527 -6.156,-10.007 -13.75,-10.007 z"
   id="path270"
   inkscape:connector-curvature="0" />
		<path
   d="m 1328.723,584.295 c 0.409,2.394 1.463,6.871 3.777,8.205 3.501,2.018 6.968,1.883 10.499,2 4.114,0.137 10.502,-0.5 13.501,-2 2.491,-1.246 3.601,-7.136 3.906,-9.1 -7.155,1.314 -15.113,2.267 -16.664,2.267 -1.203,0 -10.746,-0.68 -15.019,-1.372 z"
   id="path272"
   inkscape:connector-curvature="0"
   style="fill:#0066a6" />
		<path
   d="m 1364.417,561.477 c 8.331,0.182 18.562,0.398 25.295,0.523 h 12.711 c 6.472,-0.14 16.818,-0.397 25.399,-0.616 5.423,-6.369 12.569,-11.835 19.67,-12.266 3.748,-9.205 8.634,-21.189 10.663,-26.118 3.5,-8.5 3.463,-8.901 3.5,-14 0.038,-5.166 -18,-42 -19.5,-46.485 -1.5,-4.485 -4.5,-11.515 -12,-12.515 -3.251,-0.434 -10.258,-0.679 -17.155,-0.818 -1.362,-0.027 -2.718,-0.051 -4.042,-0.07 C 1401.52,449 1395.155,449 1395.155,449 c 0,0 -6.244,0.158 -13.59,0.453 -1.491,0.06 -3.026,0.125 -4.565,0.195 -6.797,0.312 -13.643,0.73 -16.833,1.239 -7.473,1.189 -10.293,8.292 -11.679,12.814 -1.386,4.521 -18.484,41.801 -18.315,46.965 0.167,5.096 0.14,5.498 3.854,13.906 2.038,4.612 6.782,15.171 10.653,23.77 7.18,0.962 14.396,6.732 19.737,13.135 z M 1424,491.414 c 0,8.514 -3.806,15.415 -8.5,15.415 -4.694,0 -8.5,-6.901 -8.5,-15.415 0,-8.513 3.806,-15.414 8.5,-15.414 4.694,0 8.5,6.901 8.5,15.414 z M 1379.5,476 c 4.694,0 8.5,6.901 8.5,15.414 0,8.514 -3.806,15.415 -8.5,15.415 -4.694,0 -8.5,-6.901 -8.5,-15.415 0,-8.513 3.806,-15.414 8.5,-15.414 z m -14.405,54.839 c 4.524,2.397 9.402,3.952 14.354,5.052 4.957,1.097 10.016,1.697 15.081,1.906 5.069,0.196 10.146,-0.046 15.167,-0.703 5.013,-0.688 9.988,-1.799 14.718,-3.76 l 0.17,0.332 c -4.441,2.686 -9.504,4.275 -14.61,5.191 -5.123,0.925 -10.349,1.139 -15.531,0.89 -5.184,-0.258 -10.346,-1.031 -15.358,-2.378 -4.995,-1.365 -9.89,-3.319 -14.18,-6.208 l 0.189,-0.322 z"
   id="path274"
   inkscape:connector-curvature="0"
   style="fill:#ffec9d" />
		<ellipse
   cx="1379.5"
   cy="491.41501"
   rx="8.5"
   ry="15.415"
   id="ellipse276"
   sodipodi:cx="1379.5"
   sodipodi:cy="491.41501"
   sodipodi:rx="8.5"
   sodipodi:ry="15.415"
   style="fill:#ffffff"
   d="m 1388,491.41501 c 0,8.51347 -3.8056,15.415 -8.5,15.415 -4.6944,0 -8.5,-6.90153 -8.5,-15.415 0,-8.51347 3.8056,-15.415 8.5,-15.415 4.6944,0 8.5,6.90153 8.5,15.415 z" />
		<ellipse
   cx="1415.5"
   cy="491.414"
   rx="8.5"
   ry="15.415"
   id="ellipse278"
   sodipodi:cx="1415.5"
   sodipodi:cy="491.414"
   sodipodi:rx="8.5"
   sodipodi:ry="15.415"
   style="fill:#ffffff"
   d="m 1424,491.414 c 0,8.51347 -3.8056,15.415 -8.5,15.415 -4.6944,0 -8.5,-6.90153 -8.5,-15.415 0,-8.51347 3.8056,-15.415 8.5,-15.415 4.6944,0 8.5,6.90153 8.5,15.415 z" />
		<path
   d="m 1394.443,539.747 c 5.183,0.249 10.408,0.035 15.531,-0.89 5.106,-0.916 10.169,-2.506 14.61,-5.191 l -0.17,-0.332 c -4.729,1.961 -9.705,3.071 -14.718,3.76 -5.021,0.657 -10.098,0.899 -15.167,0.703 -5.065,-0.209 -10.124,-0.81 -15.081,-1.906 -4.952,-1.1 -9.83,-2.654 -14.354,-5.052 l -0.189,0.322 c 4.29,2.889 9.185,4.843 14.18,6.208 5.013,1.347 10.175,2.12 15.358,2.378 z"
   id="path280"
   inkscape:connector-curvature="0" />
		<path
   d="m 1427.307,562 h -24.884 -12.711 -24.862 c 5.975,7.342 9.438,15.354 7.515,17.829 -0.044,0.057 -0.111,0.114 -0.174,0.171 h 46.359 c -0.435,-3.648 3.17,-11.242 8.757,-18 z"
   id="path282"
   inkscape:connector-curvature="0"
   style="fill:#ff1d25" />
		<path
   d="m 1364.85,562 c -0.143,-0.175 -0.287,-0.35 -0.433,-0.523 -5.341,-6.402 -12.557,-12.173 -19.736,-13.134 -0.538,-0.072 -1.075,-0.121 -1.612,-0.138 -0.336,-0.012 -1.743,0 -2.126,0 -11.873,0 -19.609,8.604 -19.609,19.217 0,3.651 -0.344,13.698 5.509,16.438 0.303,0.142 0.977,0.288 1.881,0.436 4.273,0.692 13.816,1.372 15.02,1.372 1.551,0 9.509,-0.952 16.664,-2.267 5.496,-1.009 10.507,-2.23 11.784,-3.4 0.062,-0.057 0.13,-0.114 0.174,-0.171 1.921,-2.476 -1.542,-10.488 -7.516,-17.83 z"
   id="path284"
   inkscape:connector-curvature="0"
   style="fill:#f15a24" />
		<path
   d="m 1431.166,584.739 c 0.409,2.215 1.67,7.854 4.099,8.992 3.036,1.424 9.438,1.897 13.548,1.656 3.526,-0.207 6.996,-0.16 10.444,-2.266 2.216,-1.353 3.164,-5.771 3.533,-8.292 -4.271,0.8 -13.746,1.717 -14.945,1.746 -1.548,0.04 -9.502,-0.707 -16.679,-1.836 z"
   id="path286"
   inkscape:connector-curvature="0"
   style="fill:#0066a6" />
		<path
   d="m 1469.784,567.769 c -0.269,-10.609 -8.222,-19.014 -20.091,-18.712 -0.383,0.01 -1.789,0.033 -2.125,0.054 -0.025,10e-4 -0.051,0.007 -0.076,0.008 -7.101,0.431 -14.247,5.896 -19.67,12.266 -0.174,0.204 -0.345,0.41 -0.516,0.616 -5.587,6.758 -9.191,14.352 -8.757,18 0.071,0.598 0.237,1.103 0.535,1.467 0.981,1.198 6.277,2.359 12.081,3.272 7.177,1.129 15.131,1.876 16.679,1.837 1.199,-0.029 10.674,-0.946 14.945,-1.746 0.919,-0.172 1.601,-0.338 1.904,-0.489 5.783,-2.887 5.184,-12.923 5.091,-16.573 z"
   id="path288"
   inkscape:connector-curvature="0"
   style="fill:#f15a24" />
	</g>
</g>
<g
   id="Layer_9"
   transform="translate(-71.75,-238)">
	
	
	
	
	
</g>
<path
   id="path4325"
   d="m 674.25,190.87 v 60.068 c 1.59,-1.526 4.078,-2.617 6.971,-2.925 2.534,-6.229 2.585,-14.233 1.945,-23.385 -0.591,-8.525 -3.644,-20.685 -4.375,-29.579 -2.061,-1.051 -3.652,-2.496 -4.541,-4.179 z"
   inkscape:connector-curvature="0"
   style="fill:none" /><path
   id="path4327"
   d="m 562.829,195.632 c -0.796,8.85 -3.756,20.74 -4.337,29.118 -0.639,9.151 -0.589,17.158 1.947,23.386 2.799,0.297 5.216,1.33 6.811,2.779 v -63.15 l -0.053,1.387 c -0.097,2.579 -1.765,4.872 -4.368,6.48 z"
   inkscape:connector-curvature="0"
   style="fill:none" /></svg>