<?xml version="1.0" encoding="UTF-8" standalone="no"?>
<!-- Created with Inkscape (http://www.inkscape.org/) -->

<svg
   xmlns:dc="http://purl.org/dc/elements/1.1/"
   xmlns:cc="http://creativecommons.org/ns#"
   xmlns:rdf="http://www.w3.org/1999/02/22-rdf-syntax-ns#"
   xmlns:svg="http://www.w3.org/2000/svg"
   xmlns="http://www.w3.org/2000/svg"
   xmlns:sodipodi="http://sodipodi.sourceforge.net/DTD/sodipodi-0.dtd"
   xmlns:inkscape="http://www.inkscape.org/namespaces/inkscape"
   width="297mm"
   height="210mm"
   id="svg4151"
   version="1.1"
   inkscape:version="0.48.4 r9939"
   sodipodi:docname="New document 12">
  <defs
     id="defs4153">
    <inkscape:path-effect
       effect="spiro"
       id="path-effect4674"
       is_visible="true" />
    <inkscape:path-effect
       effect="spiro"
       id="path-effect4162"
       is_visible="true" />
  </defs>
  <sodipodi:namedview
     inkscape:document-units="mm"
     pagecolor="#ffffff"
     bordercolor="#666666"
     borderopacity="1.0"
     inkscape:pageopacity="0.0"
     inkscape:pageshadow="2"
     inkscape:zoom="0.43415836"
     inkscape:cx="130.6841"
     inkscape:cy="380"
     inkscape:current-layer="layer1"
     id="namedview4155"
     showgrid="false"
     inkscape:window-width="1440"
     inkscape:window-height="838"
     inkscape:window-x="-8"
     inkscape:window-y="-8"
     inkscape:window-maximized="1" />
  <metadata
     id="metadata4157">
    <rdf:RDF>
      <cc:Work
         rdf:about="">
        <dc:format>image/svg+xml</dc:format>
        <dc:type
           rdf:resource="http://purl.org/dc/dcmitype/StillImage" />
        <dc:title></dc:title>
      </cc:Work>
    </rdf:RDF>
  </metadata>
  <g
     inkscape:label="Layer 1"
     inkscape:groupmode="layer"
     id="layer1">
    <path
       style="fill:#ff6600;stroke:#000000;stroke-width:10.62992126;stroke-linecap:butt;stroke-linejoin:miter;stroke-opacity:1;fill-opacity:1;stroke-miterlimit:4;stroke-dasharray:none"
       d="m 281.00345,299.55622 c 22.85518,-29.73986 53.78077,-52.72542 87.52567,-69.0992 66.59188,-32.31188 145.23175,-38.99472 216.32109,-18.38302 71.08934,20.6117 133.95795,68.32362 172.9378,131.24506 12.32834,-15.95147 25.39924,-31.32901 39.15622,-46.06614 31.25611,-33.48304 66.06321,-63.64919 103.64882,-89.82897 l -64.4926,200.38771 62.18929,175.05133 c -31.80881,-11.17786 -61.12113,-29.39904 -85.22236,-52.97606 -24.4027,-23.87194 -43.43092,-53.20712 -55.27937,-85.22236 -36.65086,54.98354 -91.0103,97.96125 -152.96619,120.93827 -61.95588,22.97701 -131.19355,25.83664 -194.83317,8.04692 -48.54884,-13.57127 -94.44024,-39.56137 -126.68189,-78.31243 -18.68876,-22.46191 -32.69617,-49.38964 -36.85291,-78.31244 -5.96364,-41.4953 9.00471,-84.22888 34.5496,-117.46867"
       id="path4160"
       inkscape:path-effect="#path-effect4162"
       inkscape:original-d="m 281.00345,299.55622 c 33.89072,-34.65106 16.22671,-64.41135 87.52567,-69.0992 132.50755,-8.71227 280.47947,32.45986 389.25889,112.86204 0,0 24.97442,-31.74759 39.15622,-46.06614 32.17296,-32.48321 103.64882,-89.82897 103.64882,-89.82897 l -64.4926,200.38771 62.18929,175.05133 c 0,0 -61.34394,-29.55313 -85.22236,-52.97606 -24.17226,-23.71117 -55.27937,-85.22236 -55.27937,-85.22236 0,0 -222.51422,127.44279 -347.79936,128.98519 -79.87514,0.98335 -93.63183,-41.26835 -126.68189,-78.31243 -19.20656,-21.52763 -111.26877,-49.21232 -36.85291,-78.31244 26.86882,-10.50699 0.65888,-82.81761 34.5496,-117.46867 z"
       inkscape:connector-curvature="0"
       sodipodi:nodetypes="cscacccacsasc" />
    <path
       style="fill:none;stroke:#000000;stroke-width:10.62992096;stroke-linecap:butt;stroke-linejoin:miter;stroke-miterlimit:4;stroke-opacity:1;stroke-dasharray:none"
       d="m 248.75716,414.72158 c 34.58084,-8.81547 71.37128,-8.81547 105.95212,0 3.91744,0.99865 7.83204,2.1177 11.45896,3.90351 3.62692,1.78581 6.97943,4.28236 9.2708,7.61302 2.43821,3.54411 3.56318,7.89049 3.62764,12.19181 0.0644,4.30133 -0.88689,8.56976 -2.31719,12.62682 -2.86061,8.11413 -7.60815,15.45626 -10.52367,23.55082 -4.59679,12.7624 -4.34552,27.2058 0.69239,39.80058 5.03792,12.59479 14.81693,23.22709 26.94729,29.29863"
       id="path4672"
       inkscape:path-effect="#path-effect4674"
       inkscape:original-d="m 248.75716,414.72158 c 0,0 71.42118,7.41154 105.95212,0 16.46354,-3.53365 9.94728,-1.41687 20.72976,11.51653 17.31938,20.77428 -7.01715,21.41192 -9.21322,48.36945 -2.48186,30.46554 27.63968,69.09921 27.63968,69.09921"
       inkscape:connector-curvature="0"
       sodipodi:nodetypes="csssc" />
    <path
       sodipodi:type="arc"
       style="fill:#000000;fill-opacity:1;fill-rule:evenodd;stroke:none"
       id="path4676"
       sodipodi:cx="352.40598"
       sodipodi:cy="286.88803"
       sodipodi:rx="16.12315"
       sodipodi:ry="12.668189"
       d="m 337.31379,282.43075 a 16.12315,12.668189 0 1 1 -0.0182,0.0382"
       sodipodi:start="3.501138"
       sodipodi:end="9.7811068"
       sodipodi:open="true"
       transform="translate(-52.976062,23.03307)" />
    <path
       transform="translate(-13.819867,8.0615815)"
       sodipodi:type="arc"
       style="fill:#000000;fill-opacity:1;fill-rule:evenodd;stroke:none"
       id="path4676-2"
       sodipodi:cx="352.40598"
       sodipodi:cy="286.88803"
       sodipodi:rx="16.12315"
       sodipodi:ry="12.668189"
       d="m 337.31379,282.43075 a 16.12315,12.668189 0 1 1 -0.0182,0.0382"
       sodipodi:start="3.501138"
       sodipodi:end="9.7811068"
       sodipodi:open="true" />
  </g>
</svg>
