<?xml version="1.0" encoding="UTF-8" standalone="no"?>
<!-- Created with Inkscape (http://www.inkscape.org/) -->
<svg
   xmlns:dc="http://purl.org/dc/elements/1.1/"
   xmlns:cc="http://web.resource.org/cc/"
   xmlns:rdf="http://www.w3.org/1999/02/22-rdf-syntax-ns#"
   xmlns:svg="http://www.w3.org/2000/svg"
   xmlns="http://www.w3.org/2000/svg"
   xmlns:sodipodi="http://sodipodi.sourceforge.net/DTD/sodipodi-0.dtd"
   xmlns:inkscape="http://www.inkscape.org/namespaces/inkscape"
   width="110"
   height="110"
   id="svg9098"
   sodipodi:version="0.32"
   inkscape:version="0.45.1"
   version="1.0"
   sodipodi:docbase="/home/eric/graphique/svg/publication"
   sodipodi:docname="linuxien_lion.svg"
   inkscape:output_extension="org.inkscape.output.svg.inkscape">
  <defs
     id="defs9100" />
  <sodipodi:namedview
     id="base"
     pagecolor="#ffffff"
     bordercolor="#666666"
     borderopacity="1.0"
     inkscape:pageopacity="0.0"
     inkscape:pageshadow="2"
     inkscape:zoom="3.2163554"
     inkscape:cx="55.767563"
     inkscape:cy="51.215765"
     inkscape:document-units="px"
     inkscape:current-layer="layer1"
     width="110px"
     height="110px"
     inkscape:showpageshadow="true"
     showguides="false"
     inkscape:guide-bbox="true"
     inkscape:window-width="1018"
     inkscape:window-height="684"
     inkscape:window-x="0"
     inkscape:window-y="30"
     showgrid="false">
    <sodipodi:guide
       orientation="vertical"
       position="0"
       id="guide9106" />
    <sodipodi:guide
       orientation="horizontal"
       position="100"
       id="guide9108" />
    <sodipodi:guide
       orientation="vertical"
       position="100"
       id="guide9110" />
    <sodipodi:guide
       orientation="horizontal"
       position="0"
       id="guide9112" />
    <sodipodi:guide
       orientation="horizontal"
       position="75"
       id="guide11077" />
    <sodipodi:guide
       orientation="vertical"
       position="25"
       id="guide11079" />
    <sodipodi:guide
       orientation="vertical"
       position="75.003827"
       id="guide11081" />
    <sodipodi:guide
       orientation="vertical"
       position="50.002551"
       id="guide11083" />
    <sodipodi:guide
       orientation="vertical"
       position="37.5"
       id="guide11085" />
    <sodipodi:guide
       orientation="vertical"
       position="62.5"
       id="guide11087" />
    <sodipodi:guide
       orientation="horizontal"
       position="95"
       id="guide11089" />
    <sodipodi:guide
       orientation="vertical"
       position="43.75"
       id="guide11091" />
    <sodipodi:guide
       orientation="vertical"
       position="56.25"
       id="guide11093" />
    <sodipodi:guide
       orientation="horizontal"
       position="97.5"
       id="guide11095" />
    <sodipodi:guide
       orientation="vertical"
       position="2.5"
       id="guide12068" />
    <sodipodi:guide
       orientation="vertical"
       position="97.5"
       id="guide12070" />
    <sodipodi:guide
       orientation="vertical"
       position="92"
       id="guide12074" />
    <sodipodi:guide
       orientation="horizontal"
       position="92"
       id="guide12076" />
    <sodipodi:guide
       orientation="vertical"
       position="30"
       id="guide14036" />
    <sodipodi:guide
       orientation="vertical"
       position="45"
       id="guide14038" />
    <sodipodi:guide
       orientation="horizontal"
       position="70"
       id="guide14040" />
    <sodipodi:guide
       orientation="horizontal"
       position="55"
       id="guide14042" />
    <sodipodi:guide
       orientation="vertical"
       position="70"
       id="guide14045" />
    <sodipodi:guide
       orientation="horizontal"
       position="51"
       id="guide14063" />
    <sodipodi:guide
       orientation="vertical"
       position="60"
       id="guide14067" />
    <sodipodi:guide
       orientation="vertical"
       position="40"
       id="guide14069" />
    <sodipodi:guide
       orientation="horizontal"
       position="40"
       id="guide14071" />
    <sodipodi:guide
       orientation="vertical"
       position="8"
       id="guide2266" />
  </sodipodi:namedview>
  <metadata
     id="metadata9103">
    <rdf:RDF>
      <cc:Work
         rdf:about="">
        <dc:format>image/svg+xml</dc:format>
        <dc:type
           rdf:resource="http://purl.org/dc/dcmitype/StillImage" />
        <dc:title>Lion</dc:title>
        <dc:date>2008, Apr 10</dc:date>
        <dc:creator>
          <cc:Agent>
            <dc:title>Eric Madrange</dc:title>
          </cc:Agent>
        </dc:creator>
        <dc:rights>
          <cc:Agent>
            <dc:title>Eric Madrange</dc:title>
          </cc:Agent>
        </dc:rights>
        <dc:publisher>
          <cc:Agent>
            <dc:title>Eric Madrange</dc:title>
          </cc:Agent>
        </dc:publisher>
        <dc:source>http://perso.dolphweb.com/publication/linuxien_lion.svg</dc:source>
        <dc:language>fr_FR</dc:language>
        <dc:subject>
          <rdf:Bag>
            <rdf:li>lion</rdf:li>
            <rdf:li>animal</rdf:li>
          </rdf:Bag>
        </dc:subject>
        <dc:description>Le lion de la savane</dc:description>
      </cc:Work>
    </rdf:RDF>
  </metadata>
  <g
     inkscape:label="Calque 1"
     inkscape:groupmode="layer"
     id="layer1">
    <g
       id="g4255"
       transform="translate(5.2854856,4.9745746)"
       inkscape:export-filename="/home/eric/graphique/svg/publication/linuxien_lion.png"
       inkscape:export-xdpi="90"
       inkscape:export-ydpi="90">
      <g
         inkscape:export-ydpi="18.9"
         inkscape:export-xdpi="18.9"
         inkscape:export-filename="/home/eric/graphique/png/tigre.png"
         transform="matrix(-1,0,0,1,100.00383,-7.4561783e-8)"
         id="g14030">
        <path
           style="fill:#ffa72a;fill-opacity:1;fill-rule:evenodd;stroke:#000000;stroke-width:2.33661318;stroke-linecap:butt;stroke-linejoin:miter;stroke-miterlimit:4;stroke-dasharray:none;stroke-opacity:1"
           d="M 76.172134,9.3389133 C 82.563596,5.8417041 88.621832,3.3441733 96.721078,1.3464814 C 97.357283,1.1492897 98.365292,1.0763441 98.629691,1.3347214 C 98.977742,1.6037325 98.809396,2.7424663 98.620394,3.1978465 C 96.873538,10.707497 94.304589,17.241375 91.130547,23.831693 L 76.172134,9.3389133 z "
           id="path14032"
           sodipodi:nodetypes="cccccc" />
        <path
           style="fill:#ffd5d5;fill-rule:evenodd;stroke:#000000;stroke-width:1px;stroke-linecap:butt;stroke-linejoin:miter;stroke-opacity:1"
           d="M 79.700634,10.933216 C 84.11863,8.2627832 93.720406,4.7087514 94.427285,5.5138082 C 95.448333,6.2206875 90.93216,17.412942 89.243504,20.240459 L 79.700634,10.933216 z "
           id="path14034"
           sodipodi:nodetypes="cccc" />
      </g>
      <g
         inkscape:export-ydpi="18.9"
         inkscape:export-xdpi="18.9"
         inkscape:export-filename="/home/eric/graphique/png/tigre.png"
         id="g14026">
        <path
           style="fill:#ffa72a;fill-opacity:1;fill-rule:evenodd;stroke:#000000;stroke-width:2.33661318;stroke-linecap:butt;stroke-linejoin:miter;stroke-miterlimit:4;stroke-dasharray:none;stroke-opacity:1"
           d="M 76.172134,9.3389133 C 82.563596,5.8417041 88.621832,3.3441733 96.721078,1.3464814 C 97.357283,1.1492897 98.365292,1.0763441 98.629691,1.3347214 C 98.977742,1.6037325 98.809396,2.7424663 98.620394,3.1978465 C 96.873538,10.707497 94.304589,17.241375 91.130547,23.831693 L 76.172134,9.3389133 z "
           id="path12078"
           sodipodi:nodetypes="cccccc" />
        <path
           style="fill:#ffd5d5;fill-rule:evenodd;stroke:#000000;stroke-width:1px;stroke-linecap:butt;stroke-linejoin:miter;stroke-opacity:1"
           d="M 79.700634,10.933216 C 84.11863,8.2627832 93.720406,4.7087514 94.427285,5.5138082 C 95.448333,6.2206875 90.93216,17.412942 89.243504,20.240459 L 79.700634,10.933216 z "
           id="path13055"
           sodipodi:nodetypes="cccc" />
      </g>
      <path
         inkscape:export-ydpi="18.9"
         inkscape:export-xdpi="18.9"
         inkscape:export-filename="/home/eric/graphique/png/tigre.png"
         transform="matrix(0.9730737,0,0,0.9804829,1.2209641,0.9783567)"
         d="M 100.25764 49.997448 A 50.128819 49.750011 0 1 1  0,49.997448 A 50.128819 49.750011 0 1 1  100.25764 49.997448 z"
         sodipodi:ry="49.750011"
         sodipodi:rx="50.128819"
         sodipodi:cy="49.997448"
         sodipodi:cx="50.128819"
         id="path9114"
         style="opacity:1;fill:#ffa72a;fill-opacity:1;fill-rule:nonzero;stroke:#000000;stroke-width:2.5;stroke-linecap:round;stroke-linejoin:miter;stroke-miterlimit:4;stroke-dasharray:none;stroke-dashoffset:0;stroke-opacity:1"
         sodipodi:type="arc" />
      <path
         transform="matrix(1.8076521,0,0,1.807652,119.12831,24.913989)"
         d="M -24.25105,37.195996 C -26.350539,38.455689 -34.841071,15.227859 -37.035115,16.314528 C -39.229159,17.401198 -25.898381,38.231744 -28.172751,39.138343 C -30.447121,40.044942 -35.101697,15.755928 -37.441643,16.476577 C -39.781588,17.197225 -29.964896,39.896428 -32.355242,40.426452 C -34.745588,40.956476 -35.443656,16.235352 -37.8689,16.571315 C -40.294144,16.907277 -34.245784,40.887239 -36.690197,41.026961 C -39.134611,41.166683 -35.858092,16.653714 -38.305822,16.596289 C -40.753552,16.538864 -38.630173,41.178518 -41.065345,40.924319 C -43.500517,40.67012 -36.334271,17.000177 -38.741092,16.550853 C -41.147913,16.101528 -43.004509,40.762719 -45.36737,40.121182 C -47.730231,39.479646 -36.859861,17.26577 -39.163437,16.436183 C -41.467014,15.606595 -47.255501,39.650611 -49.484853,38.638353 C -51.714206,37.626095 -37.421248,17.443612 -39.561919,16.255248 C -41.702589,15.066885 -51.273048,37.870998 -53.311154,36.514235 C -55.349259,35.157472 -38.003893,17.529099 -39.926216,16.012736 C -41.848539,14.496374 -54.953099,35.46997 -56.747172,33.803842 C -58.541244,32.137714 -38.592707,17.520016 -40.246894,15.714928 C -41.901081,13.909839 -58.200343,32.509714 -59.703917,30.577372 C -61.207491,28.64503 -39.172438,17.416598 -40.515647,15.369535 C -41.858857,13.322472 -60.930677,29.066897 -62.104811,26.918388 C -63.278944,24.76988 -39.728072,17.221524 -40.725516,14.985504 C -41.722959,12.749484 -63.073388,25.230688 -63.887671,22.921657 C -64.701955,20.612627 -40.24522,16.939846 -40.871063,14.572781 C -41.496907,12.205715 -64.572979,21.100442 -65.006324,18.690692 C -65.439668,16.280943 -40.710485,16.57886 -40.948521,14.142055 C -41.186556,11.70525 -65.390613,16.783129 -65.431795,14.335072 C -65.472977,11.887015 -41.11182,16.147914 -40.955882,13.704481 C -40.799943,11.261049 -65.505114,12.390567 -65.153066,9.967606 C -64.801019,7.5446444 -41.438829,15.65817 -40.892956,13.271394 C -40.347083,10.884617 -64.913515,8.036521 -64.177356,5.7014085 C -63.441198,3.3662961 -41.683042,15.122313 -40.761372,12.854009 C -39.839702,10.585704 -63.631139,3.8337573 -62.529935,1.6469722 C -61.428731,-0.53981303 -41.838136,14.55422 -40.56454,12.463136 C -39.290944,10.372052 -61.691199,-0.10887405 -60.25347,-2.0906954 C -58.815741,-4.0725167 -41.900093,13.968605 -40.307556,12.108899 C -38.715019,10.249193 -59.143938,-3.6892611 -57.406921,-5.4147905 C -55.669904,-7.1403198 -41.867308,13.380635 -39.997076,11.800473 C -38.126844,10.220311 -56.055329,-6.8146737 -54.064011,-8.2392208 C -52.072694,-9.6637678 -41.74063,12.805538 -39.641142,11.545845 C -37.541653,10.286152 -52.505365,-9.4041653 -50.311321,-10.490835 C -48.117277,-11.577505 -41.523341,12.258209 -39.248972,11.35161 C -36.974602,10.445011 -48.585989,-11.390669 -46.246043,-12.111318 C -43.906097,-12.831966 -41.221069,11.752823 -38.830723,11.222799 C -36.440376,10.692775 -44.39871,-12.722737 -41.973465,-13.058699 C -39.548221,-13.394661 -40.841641,11.30247 -38.397227,11.162748 C -35.952813,11.023026 -40.051976,-13.365867 -37.604246,-13.308442 C -35.156516,-13.251018 -40.394884,10.918814 -37.959712,11.173013 C -35.52454,11.427212 -35.658366,-13.303404 -33.251545,-12.854079 C -30.844724,-12.404755 -39.89237,10.61179 -37.52951,11.253326 C -35.166649,11.894862 -31.331672,-12.536965 -29.028095,-11.707378 C -26.724519,-10.877791 -39.347114,10.389351 -37.117761,11.401609 C -34.888409,12.413867 -27.183953,-11.086401 -25.043282,-9.8980372 C -22.902611,-8.7096733 -38.773237,10.257258 -36.735131,11.614021 C -34.697026,12.970784 -23.322632,-8.9892806 -21.40031,-7.4729179 C -19.477987,-5.9565552 -38.185602,10.218932 -36.391529,11.88506 C -34.597457,13.551189 -19.847717,-6.2999178 -18.193529,-4.4948294 C -16.539342,-2.6897409 -37.599429,10.275366 -36.095855,12.207707 C -34.592281,14.140049 -16.849205,-3.0879659 -15.505995,-1.0409026 C -14.162786,1.0061607 -37.029899,10.425097 -35.855766,12.573606 C -34.681632,14.722115 -14.404756,0.56338723 -13.407313,2.7994076 C -12.409869,5.0354279 -36.491764,10.664249 -35.677479,12.973279 C -34.863195,15.282309 -12.57768,4.5595735 -11.951836,6.9266391 C -11.325993,9.2937047 -35.998959,10.986626 -35.565614,13.396376 C -35.13227,15.806125 -11.415298,8.7970937 -11.177263,11.233899 C -10.939228,13.670704 -35.564249,11.38388 -35.523067,13.831938 C -35.481885,16.279995 -10.947714,13.166198 -11.103653,15.609631 C -11.259591,18.053064 -35.198893,11.845723 -35.55094,14.268684 C -35.902987,16.691646 -11.18704,17.55373 -11.732913,19.940507 C -12.278786,22.327283 -34.912352,12.360191 -35.648511,14.695304 C -36.38467,17.030416 -12.127075,21.846054 -13.048745,24.114358 C -13.970415,26.382662 -34.712049,12.913962 -35.813253,15.100748 C -36.914457,17.287533 -13.743475,25.932001 -15.017071,28.023085 C -16.290667,30.114169 -34.603171,13.492693 -36.0409,15.474514 C -37.478628,17.456336 -15.994374,29.705747 -17.586911,31.565453 C -19.179448,33.425159 -34.588538,14.081394 -36.325555,15.806924 C -38.062572,17.532453 -18.821477,33.069555 -20.691709,34.649717 C -22.56194,36.229879 -34.668528,14.66482 -36.659846,16.089367 C -38.651163,17.513914 -22.151562,35.936303 -24.25105,37.195996 z "
         inkscape:randomized="0"
         inkscape:rounded="0.1"
         inkscape:flatsided="false"
         sodipodi:arg2="1.1109305"
         sodipodi:arg1="1.0303768"
         sodipodi:r2="2.7193601"
         sodipodi:r1="27.1936"
         sodipodi:cy="13.877677"
         sodipodi:cx="-38.242043"
         sodipodi:sides="39"
         id="path3239"
         style="opacity:1;fill:#ffca7d;fill-opacity:1;fill-rule:nonzero;stroke:#000000;stroke-width:0.55320382;stroke-linecap:round;stroke-linejoin:miter;stroke-miterlimit:4;stroke-dasharray:none;stroke-dashoffset:0;stroke-opacity:1"
         sodipodi:type="star" />
      <path
         inkscape:export-ydpi="18.9"
         inkscape:export-xdpi="18.9"
         inkscape:export-filename="/home/eric/graphique/png/singe.png"
         sodipodi:nodetypes="ccccccccc"
         id="path24407"
         d="M 29.851928,9.9785072 C 40.160383,5.115416 59.680091,5.2070758 70.235863,9.9315823 C 89.958793,25.184979 91.843771,40.159548 89.892187,46.525017 C 86.621839,55.621767 80.938995,58.370808 79.058261,63.379743 C 76.823864,72.173662 75.148239,79.98862 70.213201,88.199752 C 65.009919,97.616735 35.095556,97.644743 29.883144,88.183342 C 24.828472,80.161853 23.424456,72.384983 21.309226,63.65431 C 19.069737,58.20392 13.353441,55.720131 10.16296,46.499253 C 8.1924451,40.170403 10.108607,25.019298 29.851928,9.9785072 z "
         style="fill:#ffca7d;fill-opacity:1;fill-rule:evenodd;stroke:#000000;stroke-width:1.1462692px;stroke-linecap:butt;stroke-linejoin:miter;stroke-opacity:1" />
      <g
         inkscape:export-ydpi="18.9"
         inkscape:export-xdpi="18.9"
         inkscape:export-filename="/home/eric/graphique/png/tigre.png"
         transform="translate(-86.553455,-1.2505499)"
         id="g14051">
        <path
           sodipodi:type="arc"
           style="opacity:1;fill:#ffffff;fill-opacity:1;fill-rule:nonzero;stroke:#000000;stroke-width:1.00112331;stroke-linecap:round;stroke-linejoin:miter;stroke-miterlimit:4;stroke-dasharray:none;stroke-dashoffset:0;stroke-opacity:1"
           id="path8062"
           sodipodi:cx="35.008099"
           sodipodi:cy="35.002998"
           sodipodi:rx="7.0395007"
           sodipodi:ry="6.976366"
           d="M 42.047599 35.002998 A 7.0395007 6.976366 0 1 1  27.968598,35.002998 A 7.0395007 6.976366 0 1 1  42.047599 35.002998 z"
           transform="matrix(0.9943886,0,0,1.0033876,89.241802,3.6289746)"
           inkscape:export-filename="/home/eric/graphique/png/cochon.png"
           inkscape:export-xdpi="18.9"
           inkscape:export-ydpi="18.9" />
        <path
           sodipodi:type="arc"
           style="opacity:1;fill:#000000;fill-opacity:1;fill-rule:nonzero;stroke:none;stroke-width:2.5;stroke-linecap:butt;stroke-linejoin:miter;stroke-miterlimit:4;stroke-dasharray:none;stroke-dashoffset:0;stroke-opacity:1"
           id="path8408"
           sodipodi:cx="35.008099"
           sodipodi:cy="35.097698"
           sodipodi:rx="5.0191956"
           sodipodi:ry="4.987628"
           d="M 40.027294 35.097698 A 5.0191956 4.987628 0 1 1  29.988903,35.097698 A 5.0191956 4.987628 0 1 1  40.027294 35.097698 z"
           transform="matrix(0.9961755,0,0,1.0024806,89.179247,3.5657866)"
           inkscape:export-filename="/home/eric/graphique/png/cochon.png"
           inkscape:export-xdpi="18.9"
           inkscape:export-ydpi="18.9" />
      </g>
      <path
         inkscape:export-ydpi="18.9"
         inkscape:export-xdpi="18.9"
         inkscape:export-filename="/home/eric/graphique/png/tigre.png"
         transform="matrix(0.9943886,0,0,1.0033876,27.688347,2.3784247)"
         d="M 42.047599 35.002998 A 7.0395007 6.976366 0 1 1  27.968598,35.002998 A 7.0395007 6.976366 0 1 1  42.047599 35.002998 z"
         sodipodi:ry="6.976366"
         sodipodi:rx="7.0395007"
         sodipodi:cy="35.002998"
         sodipodi:cx="35.008099"
         id="path14055"
         style="fill:#ffffff;fill-opacity:1;fill-rule:nonzero;stroke:#000000;stroke-width:1.00112331;stroke-linecap:round;stroke-linejoin:miter;stroke-miterlimit:4;stroke-dasharray:none;stroke-dashoffset:0;stroke-opacity:1"
         sodipodi:type="arc" />
      <path
         inkscape:export-ydpi="18.9"
         inkscape:export-xdpi="18.9"
         inkscape:export-filename="/home/eric/graphique/png/tigre.png"
         transform="matrix(0.9961755,0,0,1.0024806,27.625793,2.3152365)"
         d="M 40.027294 35.097698 A 5.0191956 4.987628 0 1 1  29.988903,35.097698 A 5.0191956 4.987628 0 1 1  40.027294 35.097698 z"
         sodipodi:ry="4.987628"
         sodipodi:rx="5.0191956"
         sodipodi:cy="35.097698"
         sodipodi:cx="35.008099"
         id="path14057"
         style="fill:#000000;fill-opacity:1;fill-rule:nonzero;stroke:none;stroke-width:2.5;stroke-linecap:butt;stroke-linejoin:miter;stroke-miterlimit:4;stroke-dasharray:none;stroke-dashoffset:0;stroke-opacity:1"
         sodipodi:type="arc" />
      <path
         inkscape:export-ydpi="18.9"
         inkscape:export-xdpi="18.9"
         inkscape:export-filename="/home/eric/graphique/png/tigre.png"
         sodipodi:nodetypes="ccccc"
         id="path14065"
         d="M 40.386852,50.365275 C 40.305805,49.079919 59.616725,49.04097 59.613401,50.365275 C 58.079122,53.861345 56.233947,59.538622 52.912032,59.568127 L 47.168,59.613402 C 43.78063,59.607754 41.870002,53.915386 40.386852,50.365275 z "
         style="fill:#4d4d4d;fill-rule:evenodd;stroke:#000000;stroke-width:0.77319598px;stroke-linecap:butt;stroke-linejoin:miter;stroke-opacity:1" />
      <path
         inkscape:export-ydpi="18.9"
         inkscape:export-xdpi="18.9"
         inkscape:export-filename="/home/eric/graphique/png/tigre.png"
         id="path14073"
         d="M 50.002551,60 L 50.002551,75.282582"
         style="fill:none;fill-rule:evenodd;stroke:#000000;stroke-width:2.5;stroke-linecap:butt;stroke-linejoin:miter;stroke-miterlimit:4;stroke-dasharray:none;stroke-opacity:1" />
      <path
         inkscape:export-ydpi="18.9"
         inkscape:export-xdpi="18.9"
         inkscape:export-filename="/home/eric/graphique/png/tigre.png"
         sodipodi:nodetypes="ccc"
         id="path6430"
         d="M 31.149954,68.33675 C 36.963001,72.292407 42.523509,75.806123 50.104323,76.036842 C 57.545038,75.797241 62.965448,72.337777 68.8278,68.310104"
         style="fill:none;fill-rule:evenodd;stroke:#000000;stroke-width:2.29990888;stroke-linecap:round;stroke-linejoin:miter;stroke-miterlimit:4;stroke-dasharray:none;stroke-opacity:1" />
    </g>
  </g>
</svg>
