<?xml version="1.0" encoding="UTF-8" standalone="no"?>
<!-- Created with Inkscape (http://www.inkscape.org/) -->
<svg
   xmlns:dc="http://purl.org/dc/elements/1.1/"
   xmlns:cc="http://web.resource.org/cc/"
   xmlns:rdf="http://www.w3.org/1999/02/22-rdf-syntax-ns#"
   xmlns:svg="http://www.w3.org/2000/svg"
   xmlns="http://www.w3.org/2000/svg"
   xmlns:sodipodi="http://sodipodi.sourceforge.net/DTD/sodipodi-0.dtd"
   xmlns:inkscape="http://www.inkscape.org/namespaces/inkscape"
   width="1513.5858"
   height="349.5"
   id="svg1906"
   sodipodi:version="0.32"
   inkscape:version="0.44.1"
   version="1.0"
   sodipodi:docbase="/home/lok/pygameLesson/racingKiller/data"
   sodipodi:docname="robot2.svg"
   inkscape:export-filename="/home/lok/pygameLesson/racingKiller/data/robot_all.png"
   inkscape:export-xdpi="31.977079"
   inkscape:export-ydpi="31.977079">
  <defs
     id="defs1908" />
  <sodipodi:namedview
     id="base"
     pagecolor="#ffffff"
     bordercolor="#666666"
     borderopacity="1.0"
     gridtolerance="10000"
     guidetolerance="10"
     objecttolerance="10"
     inkscape:pageopacity="0.0"
     inkscape:pageshadow="2"
     inkscape:zoom="0.5"
     inkscape:cx="904.60186"
     inkscape:cy="280"
     inkscape:document-units="px"
     inkscape:current-layer="layer1"
     inkscape:window-width="1024"
     inkscape:window-height="693"
     inkscape:window-x="0"
     inkscape:window-y="25"
     showguides="true"
     inkscape:guide-bbox="true" />
  <metadata
     id="metadata1911">
    <rdf:RDF>
      <cc:Work
         rdf:about="">
        <dc:format>image/svg+xml</dc:format>
        <dc:type
           rdf:resource="http://purl.org/dc/dcmitype/StillImage" />
      </cc:Work>
    </rdf:RDF>
  </metadata>
  <g
     inkscape:label="Layer 1"
     inkscape:groupmode="layer"
     id="layer1"
     transform="translate(554.0256,-169.8622)">
    <g
       id="g2027"
       transform="translate(208,344.25)">
      <path
         sodipodi:nodetypes="ccczczczczczczczccc"
         id="path1931"
         d="M 32.91274,-14.2618 L 212.77248,-59.50071 L 380.63852,-1.26271 C 380.63852,-1.26271 328.6464,104.60924 360.65428,86.48118 C 391.84132,68.81802 340.67004,174.22507 340.67004,174.22507 C 340.67004,174.22507 278.67459,169.99934 319.68659,99.48028 C 361.19486,28.10789 298.70314,24.73549 298.70314,24.73549 C 298.70314,24.73549 243.73965,58.83138 274.72205,99.48028 C 304.7315,138.85267 250.74095,174.22507 250.74095,174.22507 C 250.74095,174.22507 268.2508,44.41534 227.76066,116.60561 C 188.12094,187.27965 200.78036,14.98616 200.78036,14.98616 C 200.78036,14.98616 215.90814,64.08696 165.79533,97.35584 C 114.30282,131.54069 162.81031,167.72553 162.81031,167.72553 C 162.81031,167.72553 53.31937,147.04114 135.82843,68.35675 C 217.29619,-9.33461 116.84655,-11.01203 116.84655,-11.01203 C 116.84655,-11.01203 76.856,23.23503 92.86546,73.48209 C 109.45443,125.54804 68.88436,157.97621 68.88436,157.97621 L 50.89855,71.85721 L 32.91274,-14.2618 z "
         style="fill:#d40000;fill-rule:evenodd;stroke:black;stroke-width:1.27420831px;stroke-linecap:butt;stroke-linejoin:miter;stroke-opacity:1" />
      <g
         transform="translate(-228,-258)"
         id="g1922">
        <path
           sodipodi:type="arc"
           style="fill:navy;fill-opacity:1"
           id="path1916"
           sodipodi:cx="421.42856"
           sodipodi:cy="249.50504"
           sodipodi:rx="138.57143"
           sodipodi:ry="105.71429"
           d="M 559.99998,249.50504 A 138.57143,105.71429 0 1 1 559.99989,249.38268"
           sodipodi:start="0"
           sodipodi:end="6.2820279"
           sodipodi:open="true"
           transform="matrix(1.082474,0,0,0.945946,-23.32843,19.20105)" />
        <path
           sodipodi:type="arc"
           style="fill:yellow;fill-opacity:1"
           id="path1918"
           sodipodi:cx="-397.14285"
           sodipodi:cy="135.21933"
           sodipodi:rx="62.857143"
           sodipodi:ry="71.428574"
           d="M -334.28571,135.21933 A 62.857143,71.428574 0 1 1 -334.28575,135.13666"
           sodipodi:start="0"
           sodipodi:end="6.2820279"
           sodipodi:open="true"
           transform="matrix(0.795455,0,0,1.05,693.9091,113.239)" />
        <path
           sodipodi:type="arc"
           style="fill:yellow;fill-opacity:1"
           id="path1920"
           sodipodi:cx="-397.14285"
           sodipodi:cy="135.21933"
           sodipodi:rx="62.857143"
           sodipodi:ry="71.428574"
           d="M -334.28571,135.21933 A 62.857143,71.428574 0 1 1 -334.28572,135.17591 L -397.14285,135.21933 z"
           sodipodi:start="0"
           sodipodi:end="6.2825774"
           transform="matrix(0.795455,0,0,1.05,799.9093,113.239)" />
      </g>
      <path
         sodipodi:nodetypes="ccczczczccczcsczc"
         id="path1988"
         d="M 380.68977,14.98618 L 210.83003,36.22509 L 32.963993,1.98709 C 32.963993,1.98709 30.234243,-84.75307 52.948233,-85.7568 C 75.662223,-86.76053 72.956473,-173.52469 72.932473,-173.50069 C 72.932473,-173.50069 125.7174,-155.95972 96.209123,-90.58733 C 67.029733,-25.94355 114.89937,-24.01111 114.89937,-24.01111 C 114.89937,-24.01111 160.54833,-52.11873 138.88046,-98.7559 C 116.87101,-146.12829 178.86156,-165.50069 178.86156,-165.50069 L 212.82215,-14.26178 L 212.7922,-131.00115 C 212.7922,-131.00115 262.28314,-122.31676 273.77408,-77.63237 C 285.26502,-32.94798 296.75596,11.73641 296.75596,11.73641 C 296.75596,11.73641 361.05391,-67.74714 312.54446,-65.4942 C 270.69683,-63.55066 310.71815,-155.25183 310.71815,-155.25183 C 310.71815,-155.25183 329.71105,-82.19233 352.70396,-75.13283 C 373.8766,-68.6322 380.68977,14.98618 380.68977,14.98618 z "
         style="fill:#d40000;fill-opacity:1;fill-rule:evenodd;stroke:black;stroke-width:1.27420831px;stroke-linecap:butt;stroke-linejoin:miter;stroke-opacity:1" />
    </g>
    <g
       id="g2061"
       transform="translate(38,98.49999)">
      <path
         sodipodi:nodetypes="ccczczczccczcsczc"
         id="path1990"
         d="M -591.38851,231.73822 L -419.52877,178.49931 L -243.66273,244.73731 C -243.66273,244.73731 -240.93299,331.47747 -263.64697,332.4812 C -286.36097,333.48493 -283.65521,420.24909 -283.63121,420.22509 C -283.63121,420.22509 -336.41615,402.68412 -306.90787,337.31173 C -277.72848,272.66795 -325.59812,270.73551 -325.59812,270.73551 C -325.59812,270.73551 -371.24707,298.84313 -349.57921,345.4803 C -327.56975,392.85269 -389.56031,412.22509 -389.56031,412.22509 L -423.52089,260.98618 L -423.49095,377.72555 C -423.49095,377.72555 -472.98189,369.04116 -484.47283,324.35677 C -495.96377,279.67238 -507.4547,234.98799 -507.4547,234.98799 C -507.4547,234.98799 -571.75266,314.47154 -523.2432,312.2186 C -481.39558,310.27506 -521.41689,401.97623 -521.41689,401.97623 C -521.41689,401.97623 -540.4098,328.91673 -563.4027,321.85723 C -584.57534,315.3566 -591.38851,231.73822 -591.38851,231.73822 z "
         style="fill:#d40000;fill-opacity:1;fill-rule:evenodd;stroke:black;stroke-width:1.27420831px;stroke-linecap:butt;stroke-linejoin:miter;stroke-opacity:1" />
      <g
         transform="translate(-18,42)"
         id="g1996">
        <path
           sodipodi:type="arc"
           style="fill:navy;fill-opacity:1"
           id="path1946"
           sodipodi:cx="421.42856"
           sodipodi:cy="249.50504"
           sodipodi:rx="138.57143"
           sodipodi:ry="105.71429"
           d="M 559.99998,249.50504 A 138.57143,105.71429 0 1 1 559.99989,249.38268"
           sodipodi:start="0"
           sodipodi:end="6.2820279"
           sodipodi:open="true"
           transform="matrix(1.082474,0,0,0.945946,-864.1342,-31.6561)" />
        <g
           id="g1992"
           transform="translate(-0.948675,-1.857106)">
          <path
             transform="matrix(0.795455,0,0,1.05,-146.0909,64.239)"
             sodipodi:open="true"
             sodipodi:end="6.2820279"
             sodipodi:start="0"
             d="M -334.28571,135.21933 A 62.857143,71.428574 0 1 1 -334.28575,135.13666"
             sodipodi:ry="71.428574"
             sodipodi:rx="62.857143"
             sodipodi:cy="135.21933"
             sodipodi:cx="-397.14285"
             id="path1948"
             style="fill:yellow;fill-opacity:1"
             sodipodi:type="arc" />
          <path
             transform="matrix(0.795455,0,0,1.05,-36.0907,64.239)"
             sodipodi:end="6.2825774"
             sodipodi:start="0"
             d="M -334.28571,135.21933 A 62.857143,71.428574 0 1 1 -334.28572,135.17591 L -397.14285,135.21933 z"
             sodipodi:ry="71.428574"
             sodipodi:rx="62.857143"
             sodipodi:cy="135.21933"
             sodipodi:cx="-397.14285"
             id="path1950"
             style="fill:yellow;fill-opacity:1"
             sodipodi:type="arc" />
        </g>
      </g>
      <path
         sodipodi:nodetypes="ccczczczczczczczccc"
         id="path2016"
         d="M -591.33726,260.48618 L -411.47752,305.72509 L -243.61148,247.48709 C -243.61148,247.48709 -295.6036,141.61514 -263.59572,159.7432 C -232.40868,177.40636 -283.57996,71.99931 -283.57996,71.99931 C -283.57996,71.99931 -345.57541,76.22504 -304.56341,146.7441 C -263.05514,218.11649 -325.54686,221.48889 -325.54686,221.48889 C -325.54686,221.48889 -380.51035,187.393 -349.52795,146.7441 C -319.5185,107.37171 -373.50905,71.99931 -373.50905,71.99931 C -373.50905,71.99931 -355.9992,201.80904 -396.48934,129.61877 C -436.12906,58.94473 -423.46964,231.23822 -423.46964,231.23822 C -423.46964,231.23822 -408.34186,182.13742 -458.45467,148.86854 C -509.94718,114.68369 -461.43969,78.49885 -461.43969,78.49885 C -461.43969,78.49885 -570.93063,99.18324 -488.42157,177.86763 C -406.95381,255.55899 -507.40345,257.23641 -507.40345,257.23641 C -507.40345,257.23641 -547.394,222.98935 -531.38454,172.74229 C -514.79557,120.67634 -555.36564,88.24817 -555.36564,88.24817 L -573.35145,174.36717 L -591.33726,260.48618 z "
         style="fill:#d40000;fill-rule:evenodd;stroke:black;stroke-width:1.27420831px;stroke-linecap:butt;stroke-linejoin:miter;stroke-opacity:1" />
    </g>
    <g
       id="g2079"
       transform="translate(0,18.25001)">
      <path
         sodipodi:nodetypes="ccczczczczczczczczc"
         id="path1966"
         d="M 615.19732,317.7382 L 775.05706,296.49929 L 958.9231,324.73729 C 958.9231,324.73729 902.93098,384.60924 938.93886,412.48118 C 973.70956,439.39548 918.95462,500.22507 918.95462,500.22507 C 918.95462,500.22507 868.4629,482.85267 897.97117,425.48028 C 927.07243,368.89924 876.98772,350.73549 876.98772,350.73549 C 868.99402,375.65042 824.99718,404.10789 853.00663,425.48028 C 882.00816,447.60967 837.01923,475.31014 829.02553,500.22507 C 829.02553,500.22507 780.06747,433.58594 804.04523,420.60561 C 829.55508,406.79588 779.06494,340.98616 779.06494,340.98616 C 779.06494,340.98616 718.14662,352.06503 760.07991,417.35584 C 802.5874,483.54068 741.09489,493.72553 741.09489,493.72553 C 741.09489,493.72553 697.60395,455.04114 718.11301,404.35675 C 737.92865,355.38603 695.13113,314.98797 695.13113,314.98797 C 695.13113,314.98797 647.70122,317.73315 649.15004,365.48209 C 650.65949,415.22915 693.16894,449.97621 693.16894,449.97621 C 693.16894,449.97621 659.67603,448.41671 629.18313,397.85721 C 599.56991,348.75629 615.19732,317.7382 615.19732,317.7382 z "
         style="fill:#d40000;fill-rule:evenodd;stroke:black;stroke-width:1.27420831px;stroke-linecap:butt;stroke-linejoin:miter;stroke-opacity:1" />
      <g
         transform="translate(352.143,62)"
         id="g1968">
        <path
           sodipodi:type="arc"
           style="fill:navy;fill-opacity:1"
           id="path1970"
           sodipodi:cx="421.42856"
           sodipodi:cy="249.50504"
           sodipodi:rx="138.57143"
           sodipodi:ry="105.71429"
           d="M 559.99998,249.50504 A 138.57143,105.71429 0 1 1 559.99989,249.38268"
           sodipodi:start="0"
           sodipodi:end="6.2820279"
           sodipodi:open="true"
           transform="matrix(1.082474,0,0,0.945946,-23.32843,19.20105)" />
        <path
           sodipodi:type="arc"
           style="fill:yellow;fill-opacity:1"
           id="path1972"
           sodipodi:cx="-397.14285"
           sodipodi:cy="135.21933"
           sodipodi:rx="62.857143"
           sodipodi:ry="71.428574"
           d="M -334.28571,135.21933 A 62.857143,71.428574 0 1 1 -334.28575,135.13666"
           sodipodi:start="0"
           sodipodi:end="6.2820279"
           sodipodi:open="true"
           transform="matrix(0.795455,0,0,1.05,693.9091,113.239)" />
        <path
           sodipodi:type="arc"
           style="fill:yellow;fill-opacity:1"
           id="path1974"
           sodipodi:cx="-397.14285"
           sodipodi:cy="135.21933"
           sodipodi:rx="62.857143"
           sodipodi:ry="71.428574"
           d="M -334.28571,135.21933 A 62.857143,71.428574 0 1 1 -334.28572,135.17591 L -397.14285,135.21933 z"
           sodipodi:start="0"
           sodipodi:end="6.2825774"
           transform="matrix(0.795455,0,0,1.05,799.9093,113.239)" />
      </g>
      <path
         sodipodi:nodetypes="ccczczczccczcsczc"
         id="path1942"
         d="M 611.08586,340.98616 L 788.9456,350.22507 L 958.81164,327.98707 C 958.81164,327.98707 961.54139,241.24691 938.8274,240.24318 C 916.11341,239.23945 918.81916,152.47529 918.84316,152.49929 C 918.84316,152.49929 866.05823,170.04026 895.56651,235.41265 C 924.7459,300.05643 876.87626,301.98887 876.87626,301.98887 C 876.87626,301.98887 831.2273,273.88125 852.89517,227.24408 C 874.90462,179.87169 812.91407,160.49929 812.91407,160.49929 L 778.95348,311.7382 L 778.98343,194.99883 C 778.98343,194.99883 729.49249,203.68322 718.00155,248.36761 C 706.51061,293.052 695.01967,337.73639 695.01967,337.73639 C 695.01967,337.73639 630.72172,258.25284 679.23117,260.50578 C 721.0788,262.44932 681.05748,170.74815 681.05748,170.74815 C 681.05748,170.74815 662.06458,243.80765 639.07167,250.86715 C 617.89903,257.36778 611.08586,340.98616 611.08586,340.98616 z "
         style="fill:#d40000;fill-opacity:1;fill-rule:evenodd;stroke:black;stroke-width:1.27420831px;stroke-linecap:butt;stroke-linejoin:miter;stroke-opacity:1" />
    </g>
    <g
       id="g2070"
       transform="translate(0,-18.25002)">
      <path
         sodipodi:nodetypes="ccczczczczczczczccc"
         id="path2049"
         d="M -171.33279,348.23822 L 8.5269542,302.99931 L 176.39299,361.23731 C 176.39299,361.23731 124.40087,467.10926 156.40875,448.9812 C 187.59579,431.31804 136.42451,536.72509 136.42451,536.72509 C 136.42451,536.72509 74.429064,532.49936 115.44106,461.9803 C 156.94933,390.60791 94.457614,387.23551 94.457614,387.23551 C 94.457614,387.23551 39.494124,421.3314 70.476524,461.9803 C 100.48597,501.35269 46.495424,536.72509 46.495424,536.72509 C 46.495424,536.72509 64.005274,406.91536 23.515134,479.10563 C -16.124586,549.77967 -3.4651658,377.48618 -3.4651658,377.48618 C -3.4651658,377.48618 11.662614,426.58698 -38.450196,459.85586 C -89.942706,494.04071 -41.435216,530.22555 -41.435216,530.22555 C -41.435216,530.22555 -150.92616,509.54116 -68.417096,430.85677 C 13.050664,353.16541 -87.398976,351.48799 -87.398976,351.48799 C -87.398976,351.48799 -127.38953,385.73505 -111.38007,435.98211 C -94.791096,488.04806 -135.36117,520.47623 -135.36117,520.47623 L -153.34698,434.35723 L -171.33279,348.23822 z "
         style="fill:#d40000;fill-rule:evenodd;stroke:black;stroke-width:1.27420831px;stroke-linecap:butt;stroke-linejoin:miter;stroke-opacity:1" />
      <g
         transform="matrix(1,0,0,-1,410.4788,571.2244)"
         id="g2051">
        <path
           sodipodi:type="arc"
           style="fill:navy;fill-opacity:1"
           id="path2053"
           sodipodi:cx="421.42856"
           sodipodi:cy="249.50504"
           sodipodi:rx="138.57143"
           sodipodi:ry="105.71429"
           d="M 559.99998,249.50504 A 138.57143,105.71429 0 1 1 559.99989,249.38268"
           sodipodi:start="0"
           sodipodi:end="6.2820279"
           sodipodi:open="true"
           transform="matrix(1.082474,0,0,0.945946,-864.1342,-31.6561)" />
        <g
           id="g2055"
           transform="translate(-0.948675,-1.857106)">
          <path
             transform="matrix(0.795455,0,0,1.05,-146.0909,64.239)"
             sodipodi:open="true"
             sodipodi:end="6.2820279"
             sodipodi:start="0"
             d="M -334.28571,135.21933 A 62.857143,71.428574 0 1 1 -334.28575,135.13666"
             sodipodi:ry="71.428574"
             sodipodi:rx="62.857143"
             sodipodi:cy="135.21933"
             sodipodi:cx="-397.14285"
             id="path2057"
             style="fill:yellow;fill-opacity:1"
             sodipodi:type="arc" />
          <path
             transform="matrix(0.795455,0,0,1.05,-36.0907,64.239)"
             sodipodi:end="6.2825774"
             sodipodi:start="0"
             d="M -334.28571,135.21933 A 62.857143,71.428574 0 1 1 -334.28572,135.17591 L -397.14285,135.21933 z"
             sodipodi:ry="71.428574"
             sodipodi:rx="62.857143"
             sodipodi:cy="135.21933"
             sodipodi:cx="-397.14285"
             id="path2059"
             style="fill:yellow;fill-opacity:1"
             sodipodi:type="arc" />
        </g>
      </g>
      <path
         sodipodi:nodetypes="ccczczczczczczczczc"
         id="path2040"
         d="M 172.33278,371.48619 L 12.473042,392.7251 L -171.393,364.4871 C -171.393,364.4871 -115.40088,304.61515 -151.40876,276.74321 C -186.17946,249.82891 -131.42452,188.99932 -131.42452,188.99932 C -131.42452,188.99932 -80.932798,206.37172 -110.44107,263.74411 C -139.54233,320.32515 -89.457618,338.4889 -89.457618,338.4889 C -81.463918,313.57397 -37.467078,285.1165 -65.476528,263.74411 C -94.478058,241.61472 -49.489128,213.91425 -41.495428,188.99932 C -41.495428,188.99932 7.4626316,255.63845 -16.515128,268.61878 C -42.024978,282.42851 8.4651616,348.23823 8.4651616,348.23823 C 8.4651616,348.23823 69.383482,337.15936 27.450192,271.86855 C -15.057298,205.68371 46.435212,195.49886 46.435212,195.49886 C 46.435212,195.49886 89.926152,234.18325 69.417092,284.86764 C 49.601452,333.83836 92.398972,374.23642 92.398972,374.23642 C 92.398972,374.23642 139.82888,371.49124 138.38006,323.7423 C 136.87061,273.99524 94.361162,239.24818 94.361162,239.24818 C 94.361162,239.24818 127.85407,240.80768 158.34697,291.36718 C 187.96019,340.4681 172.33278,371.48619 172.33278,371.48619 z "
         style="fill:#d40000;fill-rule:evenodd;stroke:black;stroke-width:1.27420831px;stroke-linecap:butt;stroke-linejoin:miter;stroke-opacity:1" />
    </g>
  </g>
</svg>
