<?xml version="1.0" encoding="UTF-8" standalone="no"?>
<!-- Created with Inkscape (http://www.inkscape.org/) -->

<svg
   xmlns:dc="http://purl.org/dc/elements/1.1/"
   xmlns:cc="http://creativecommons.org/ns#"
   xmlns:rdf="http://www.w3.org/1999/02/22-rdf-syntax-ns#"
   xmlns:svg="http://www.w3.org/2000/svg"
   xmlns="http://www.w3.org/2000/svg"
   xmlns:sodipodi="http://sodipodi.sourceforge.net/DTD/sodipodi-0.dtd"
   xmlns:inkscape="http://www.inkscape.org/namespaces/inkscape"
   width="186.10336"
   height="144.02969"
   id="svg8260"
   version="1.1"
   inkscape:version="0.48.0 r9654"
   sodipodi:docname="New document 4">
  <defs
     id="defs8262" />
  <sodipodi:namedview
     id="base"
     pagecolor="#ffffff"
     bordercolor="#666666"
     borderopacity="1.0"
     inkscape:pageopacity="0.0"
     inkscape:pageshadow="2"
     inkscape:zoom="0.35"
     inkscape:cx="-29.09117"
     inkscape:cy="-159.41373"
     inkscape:document-units="px"
     inkscape:current-layer="layer1"
     showgrid="false"
     fit-margin-top="0"
     fit-margin-left="0"
     fit-margin-right="0"
     fit-margin-bottom="0"
     inkscape:window-width="1366"
     inkscape:window-height="706"
     inkscape:window-x="-8"
     inkscape:window-y="-8"
     inkscape:window-maximized="1" />
  <metadata
     id="metadata8265">
    <rdf:RDF>
      <cc:Work
         rdf:about="">
        <dc:format>image/svg+xml</dc:format>
        <dc:type
           rdf:resource="http://purl.org/dc/dcmitype/StillImage" />
        <dc:title></dc:title>
      </cc:Work>
    </rdf:RDF>
  </metadata>
  <g
     inkscape:label="Layer 1"
     inkscape:groupmode="layer"
     id="layer1"
     transform="translate(-404.09117,-228.91876)">
    <g
       id="g6645"
       transform="matrix(1.25,0,0,-1.25,527.8228,278.22932)">
      <path
         d="m 0,0 c 0,-13.435 -10.892,-24.325 -24.325,-24.325 -13.434,0 -24.325,10.89 -24.325,24.325 0,13.434 10.891,24.325 24.325,24.325 C -10.892,24.325 0,13.434 0,0"
         style="fill:#bec0c2;fill-opacity:1;fill-rule:nonzero;stroke:none"
         id="path6647"
         inkscape:connector-curvature="0" />
    </g>
    <g
       id="g6649"
       transform="matrix(1.25,0,0,-1.25,467.11605,275.78795)">
      <path
         d="M 0,0 C 0,0 20.59,18.615 48.478,0.029 48.478,0.029 25.356,-30.06 0,0"
         style="fill:#7495a6;fill-opacity:1;fill-rule:nonzero;stroke:none"
         id="path6651"
         inkscape:connector-curvature="0" />
    </g>
    <g
       id="g6653"
       transform="matrix(1.25,0,0,-1.25,510.79517,279.13757)">
      <path
         d="m 0,0 c 0,-5.93 -4.845,-10.738 -10.819,-10.738 -5.976,0 -10.82,4.808 -10.82,10.738 0,5.93 4.844,10.737 10.82,10.737 C -4.845,10.737 0,5.93 0,0"
         style="fill:#373535;fill-opacity:1;fill-rule:nonzero;stroke:none"
         id="path6655"
         inkscape:connector-curvature="0" />
    </g>
    <g
       id="g6657"
       transform="matrix(1.25,0,0,-1.25,565.46805,259.4067)">
      <path
         d="m 0,0 c 0,-11.515 -5.186,-20.85 -11.583,-20.85 -6.397,0 -11.583,9.335 -11.583,20.85 0,11.515 5.186,20.85 11.583,20.85 C -5.186,20.85 0,11.515 0,0"
         style="fill:#7495a6;fill-opacity:1;fill-rule:nonzero;stroke:none"
         id="path6659"
         inkscape:connector-curvature="0" />
    </g>
    <g
       id="g6661"
       transform="matrix(1.25,0,0,-1.25,551.68142,231.79807)">
      <path
         d="M 0,0 C 0,0 -15.683,2.619 -31.582,0.369 -31.582,0.369 -9.928,-0.648 0,0"
         style="fill:#f89734;fill-opacity:1;fill-rule:nonzero;stroke:none"
         id="path6663"
         inkscape:connector-curvature="0" />
    </g>
    <g
       id="g6665"
       transform="matrix(1.25,0,0,-1.25,550.71704,231.79807)">
      <path
         d="M 0,0 C 0,0 15.682,2.619 31.582,0.369 31.582,0.369 9.928,-0.648 0,0"
         style="fill:#f89734;fill-opacity:1;fill-rule:nonzero;stroke:none"
         id="path6667"
         inkscape:connector-curvature="0" />
    </g>
    <g
       id="g6669"
       transform="matrix(1.25,0,0,-1.25,548.26955,233.94895)">
      <path
         d="M 0,0 C 0,0 2.394,9.049 5.066,0.008 5.066,0.008 3.236,-1.662 0,0"
         style="fill:#f89734;fill-opacity:1;fill-rule:nonzero;stroke:none"
         id="path6671"
         inkscape:connector-curvature="0" />
    </g>
    <g
       id="g6673"
       transform="matrix(1.25,0,0,-1.25,525.94042,267.6807)">
      <path
         d="m 0,0 c 0,0 25.336,1.276 1.259,-11.883 0,0 10.749,8.738 -1.259,11.883"
         style="fill:#f89734;fill-opacity:1;fill-rule:nonzero;stroke:none"
         id="path6675"
         inkscape:connector-curvature="0" />
    </g>
    <g
       id="g6677"
       transform="matrix(1.25,0,0,-1.25,530.71829,296.08707)">
      <path
         d="m 0,0 c 0,-2.346 -2.247,-4.248 -5.02,-4.248 -2.772,0 -5.019,1.902 -5.019,4.248 0,2.346 2.247,4.247 5.019,4.247 C -2.247,4.247 0,2.346 0,0"
         style="fill:#f89734;fill-opacity:1;fill-rule:nonzero;stroke:none"
         id="path6679"
         inkscape:connector-curvature="0" />
    </g>
    <g
       id="g6681"
       transform="matrix(1.25,0,0,-1.25,529.43417,299.29632)">
      <path
         d="m 0,0 c 0,0 14.928,-7.472 14.928,-25.619 0,0 3.089,8.881 6.177,5.792 0,0 -10.709,20.281 -20.078,22.394 L 0,0 z"
         style="fill:#bec0c2;fill-opacity:1;fill-rule:nonzero;stroke:none"
         id="path6683"
         inkscape:connector-curvature="0" />
    </g>
    <g
       id="g6685"
       transform="matrix(1.25,0,0,-1.25,559.55617,326.13095)">
      <path
         d="m 0,0 c 0,0 -5.405,-7.723 -8.108,-7.723 0,0 -0.194,-13.321 -3.475,-16.603 l 3.281,3.282 c 0,0 2.897,5.687 2.897,10.231 0,0 1.544,-14.671 -2.703,-18.918 0,0 1.498,-2.135 -0.773,-7.723 0,0 12.276,18.41 8.881,29.345 0,0 5.405,-17.375 3.476,-23.939 0,0 3.474,10.038 3.474,13.128 0,0 -3.74,15.709 -6.95,18.92"
         style="fill:#bec0c2;fill-opacity:1;fill-rule:nonzero;stroke:none"
         id="path6687"
         inkscape:connector-curvature="0" />
    </g>
    <g
       id="g6689"
       transform="matrix(1.25,0,0,-1.25,560.0018,249.75407)">
      <path
         d="m 0,0 c 0,-3.98 -3.227,-7.208 -7.207,-7.208 -3.981,0 -7.208,3.228 -7.208,7.208 0,3.981 3.227,7.208 7.208,7.208 C -3.227,7.208 0,3.981 0,0"
         style="fill:#ee3338;fill-opacity:1;fill-rule:nonzero;stroke:none"
         id="path6691"
         inkscape:connector-curvature="0" />
    </g>
    <g
       id="g6693"
       transform="matrix(1.25,0,0,-1.25,555.77329,266.2152)">
      <path
         d="m 0,0 c 0,-2.165 -1.756,-3.92 -3.921,-3.92 -2.165,0 -3.92,1.755 -3.92,3.92 0,2.166 1.755,3.921 3.92,3.921 C -1.756,3.921 0,2.166 0,0"
         style="fill:#ee3338;fill-opacity:1;fill-rule:nonzero;stroke:none"
         id="path6695"
         inkscape:connector-curvature="0" />
    </g>
    <g
       id="g6697"
       transform="matrix(1.25,0,0,-1.25,555.77329,277.79845)">
      <path
         d="m 0,0 c 0,-2.166 -1.756,-3.92 -3.921,-3.92 -2.165,0 -3.92,1.754 -3.92,3.92 0,2.166 1.755,3.921 3.92,3.921 C -1.756,3.921 0,2.166 0,0"
         style="fill:#ee3338;fill-opacity:1;fill-rule:nonzero;stroke:none"
         id="path6699"
         inkscape:connector-curvature="0" />
    </g>
    <g
       id="g6701"
       transform="matrix(1.25,0,0,-1.25,428.81767,259.4067)">
      <path
         d="m 0,0 c 0,-11.515 5.186,-20.85 11.583,-20.85 6.397,0 11.583,9.335 11.583,20.85 0,11.515 -5.186,20.85 -11.583,20.85 C 5.186,20.85 0,11.515 0,0"
         style="fill:#7495a6;fill-opacity:1;fill-rule:nonzero;stroke:none"
         id="path6703"
         inkscape:connector-curvature="0" />
    </g>
    <g
       id="g6705"
       transform="matrix(1.25,0,0,-1.25,442.60429,231.79807)">
      <path
         d="M 0,0 C 0,0 15.683,2.619 31.582,0.369 31.582,0.369 9.928,-0.648 0,0"
         style="fill:#f89734;fill-opacity:1;fill-rule:nonzero;stroke:none"
         id="path6707"
         inkscape:connector-curvature="0" />
    </g>
    <g
       id="g6709"
       transform="matrix(1.25,0,0,-1.25,443.56867,231.79807)">
      <path
         d="M 0,0 C 0,0 -15.682,2.619 -31.582,0.369 -31.582,0.369 -9.928,-0.648 0,0"
         style="fill:#f89734;fill-opacity:1;fill-rule:nonzero;stroke:none"
         id="path6711"
         inkscape:connector-curvature="0" />
    </g>
    <g
       id="g6713"
       transform="matrix(1.25,0,0,-1.25,446.01617,233.94895)">
      <path
         d="m 0,0 c 0,0 -2.394,9.049 -5.066,0.008 0,0 1.83,-1.67 5.066,-0.008"
         style="fill:#f89734;fill-opacity:1;fill-rule:nonzero;stroke:none"
         id="path6715"
         inkscape:connector-curvature="0" />
    </g>
    <g
       id="g6717"
       transform="matrix(1.25,0,0,-1.25,468.34529,267.6807)">
      <path
         d="m 0,0 c 0,0 -25.336,1.276 -1.259,-11.883 0,0 -10.749,8.738 1.259,11.883"
         style="fill:#f89734;fill-opacity:1;fill-rule:nonzero;stroke:none"
         id="path6719"
         inkscape:connector-curvature="0" />
    </g>
    <g
       id="g6721"
       transform="matrix(1.25,0,0,-1.25,463.56742,296.08707)">
      <path
         d="m 0,0 c 0,-2.346 2.247,-4.248 5.02,-4.248 2.772,0 5.019,1.902 5.019,4.248 0,2.346 -2.247,4.247 -5.019,4.247 C 2.247,4.247 0,2.346 0,0"
         style="fill:#f89734;fill-opacity:1;fill-rule:nonzero;stroke:none"
         id="path6723"
         inkscape:connector-curvature="0" />
    </g>
    <g
       id="g6725"
       transform="matrix(1.25,0,0,-1.25,464.85167,299.29632)">
      <path
         d="m 0,0 c 0,0 -14.928,-7.472 -14.928,-25.619 0,0 -3.089,8.881 -6.177,5.792 0,0 10.709,20.281 20.078,22.394 L 0,0 z"
         style="fill:#bec0c2;fill-opacity:1;fill-rule:nonzero;stroke:none"
         id="path6727"
         inkscape:connector-curvature="0" />
    </g>
    <g
       id="g6729"
       transform="matrix(1.25,0,0,-1.25,434.72954,326.13095)">
      <path
         d="m 0,0 c 0,0 5.405,-7.723 8.108,-7.723 0,0 0.194,-13.321 3.475,-16.603 l -3.281,3.282 c 0,0 -2.897,5.687 -2.897,10.231 0,0 -1.544,-14.671 2.703,-18.918 0,0 -1.498,-2.135 0.773,-7.723 0,0 -12.276,18.41 -8.881,29.345 0,0 -5.405,-17.375 -3.476,-23.939 0,0 -3.474,10.038 -3.474,13.128 0,0 3.74,15.709 6.95,18.92"
         style="fill:#bec0c2;fill-opacity:1;fill-rule:nonzero;stroke:none"
         id="path6731"
         inkscape:connector-curvature="0" />
    </g>
    <g
       id="g6733"
       transform="matrix(1.25,0,0,-1.25,434.28405,249.75407)">
      <path
         d="m 0,0 c 0,-3.98 3.227,-7.208 7.207,-7.208 3.981,0 7.208,3.228 7.208,7.208 0,3.981 -3.227,7.208 -7.208,7.208 C 3.227,7.208 0,3.981 0,0"
         style="fill:#ee3338;fill-opacity:1;fill-rule:nonzero;stroke:none"
         id="path6735"
         inkscape:connector-curvature="0" />
    </g>
    <g
       id="g6737"
       transform="matrix(1.25,0,0,-1.25,438.51255,266.2152)">
      <path
         d="m 0,0 c 0,-2.165 1.756,-3.92 3.921,-3.92 2.165,0 3.92,1.755 3.92,3.92 0,2.166 -1.755,3.921 -3.92,3.921 C 1.756,3.921 0,2.166 0,0"
         style="fill:#ee3338;fill-opacity:1;fill-rule:nonzero;stroke:none"
         id="path6739"
         inkscape:connector-curvature="0" />
    </g>
    <g
       id="g6741"
       transform="matrix(1.25,0,0,-1.25,438.51255,277.79845)">
      <path
         d="m 0,0 c 0,-2.166 1.756,-3.92 3.921,-3.92 2.165,0 3.92,1.754 3.92,3.92 0,2.166 -1.755,3.921 -3.92,3.921 C 1.756,3.921 0,2.166 0,0"
         style="fill:#ee3338;fill-opacity:1;fill-rule:nonzero;stroke:none"
         id="path6743"
         inkscape:connector-curvature="0" />
    </g>
  </g>
</svg>
