<?xml version="1.0" encoding="UTF-8" standalone="no"?>
<!-- Created with Inkscape (http://www.inkscape.org/) -->

<svg
   xmlns:dc="http://purl.org/dc/elements/1.1/"
   xmlns:cc="http://creativecommons.org/ns#"
   xmlns:rdf="http://www.w3.org/1999/02/22-rdf-syntax-ns#"
   xmlns:svg="http://www.w3.org/2000/svg"
   xmlns="http://www.w3.org/2000/svg"
   xmlns:sodipodi="http://sodipodi.sourceforge.net/DTD/sodipodi-0.dtd"
   xmlns:inkscape="http://www.inkscape.org/namespaces/inkscape"
   width="1463.1506"
   height="2135.4023"
   id="svg5844"
   version="1.1"
   inkscape:version="0.48.0 r9654"
   sodipodi:docname="Robô.svg"
   style="display:inline">
  <sodipodi:namedview
     id="base"
     pagecolor="#ffffff"
     bordercolor="#666666"
     borderopacity="1.0"
     inkscape:pageopacity="0.0"
     inkscape:pageshadow="2"
     inkscape:zoom="0.27395397"
     inkscape:cx="731.54431"
     inkscape:cy="1067.7062"
     inkscape:document-units="mm"
     inkscape:current-layer="g3745"
     showgrid="false"
     inkscape:window-width="1152"
     inkscape:window-height="790"
     inkscape:window-x="0"
     inkscape:window-y="24"
     inkscape:window-maximized="1"
     showguides="true"
     inkscape:guide-bbox="true"
     units="mm"
     inkscape:snap-center="false"
     inkscape:snap-object-midpoints="false"
     inkscape:snap-grids="false"
     inkscape:snap-to-guides="false"
     fit-margin-top="0"
     fit-margin-left="0"
     fit-margin-right="0"
     fit-margin-bottom="0" />
  <defs
     id="defs5846">
    <inkscape:perspective
       id="perspective5852"
       inkscape:persp3d-origin="372.04724 : 350.78739 : 1"
       inkscape:vp_z="744.09448 : 526.18109 : 1"
       inkscape:vp_y="0 : 1000 : 0"
       inkscape:vp_x="0 : 526.18109 : 1"
       sodipodi:type="inkscape:persp3d" />
    <inkscape:perspective
       sodipodi:type="inkscape:persp3d"
       inkscape:vp_x="0 : 0.5 : 1"
       inkscape:vp_y="0 : 1000 : 0"
       inkscape:vp_z="1 : 0.5 : 1"
       inkscape:persp3d-origin="0.5 : 0.33333333 : 1"
       id="perspective5862" />
    <inkscape:perspective
       sodipodi:type="inkscape:persp3d"
       inkscape:vp_x="0 : 0.5 : 1"
       inkscape:vp_y="0 : 1000 : 0"
       inkscape:vp_z="1 : 0.5 : 1"
       inkscape:persp3d-origin="0.5 : 0.33333333 : 1"
       id="perspective3753" />
    <inkscape:perspective
       sodipodi:type="inkscape:persp3d"
       inkscape:vp_x="0 : 0.5 : 1"
       inkscape:vp_y="0 : 1000 : 0"
       inkscape:vp_z="1 : 0.5 : 1"
       inkscape:persp3d-origin="0.5 : 0.33333333 : 1"
       id="perspective3767" />
    <inkscape:perspective
       sodipodi:type="inkscape:persp3d"
       inkscape:vp_x="0 : 0.5 : 1"
       inkscape:vp_y="0 : 1000 : 0"
       inkscape:vp_z="1 : 0.5 : 1"
       inkscape:persp3d-origin="0.5 : 0.33333333 : 1"
       id="perspective3783" />
    <inkscape:perspective
       sodipodi:type="inkscape:persp3d"
       inkscape:vp_x="0 : 0.5 : 1"
       inkscape:vp_y="0 : 1000 : 0"
       inkscape:vp_z="1 : 0.5 : 1"
       inkscape:persp3d-origin="0.5 : 0.33333333 : 1"
       id="perspective5726" />
    <inkscape:perspective
       sodipodi:type="inkscape:persp3d"
       inkscape:vp_x="0 : 0.5 : 1"
       inkscape:vp_y="0 : 1000 : 0"
       inkscape:vp_z="1 : 0.5 : 1"
       inkscape:persp3d-origin="0.5 : 0.33333333 : 1"
       id="perspective7701" />
    <inkscape:perspective
       sodipodi:type="inkscape:persp3d"
       inkscape:vp_x="0 : 0.5 : 1"
       inkscape:vp_y="0 : 1000 : 0"
       inkscape:vp_z="1 : 0.5 : 1"
       inkscape:persp3d-origin="0.5 : 0.33333333 : 1"
       id="perspective3075" />
    <inkscape:perspective
       sodipodi:type="inkscape:persp3d"
       inkscape:vp_x="0 : 0.5 : 1"
       inkscape:vp_y="0 : 1000 : 0"
       inkscape:vp_z="1 : 0.5 : 1"
       inkscape:persp3d-origin="0.5 : 0.33333333 : 1"
       id="perspective5210" />
  </defs>
  <metadata
     id="metadata5849">
    <rdf:RDF>
      <cc:Work
         rdf:about="">
        <dc:format>image/svg+xml</dc:format>
        <dc:type
           rdf:resource="http://purl.org/dc/dcmitype/StillImage" />
        <dc:title />
      </cc:Work>
    </rdf:RDF>
  </metadata>
  <g
     style="display:inline"
     inkscape:groupmode="layer"
     id="g3745"
     inkscape:label="Robô"
     transform="translate(-203.3241,1598.219)"
     sodipodi:insensitive="true">
    <g
       id="g3321"
       transform="matrix(5.3747405,0,0,5.3747405,-889.22368,-2350.0006)">
      <g
         inkscape:export-ydpi="300"
         inkscape:export-xdpi="300"
         id="g23838"
         style="display:inline;enable-background:new"
         transform="matrix(0.21759986,0,0,0.21759986,321.48296,33.230232)">
        <path
           id="path4510"
           d="M 155,91.303574 C 155,118.0598 123.04432,139.75 83.625,139.75 44.205676,139.75 12.25,118.0598 12.25,91.303574 c 0,-26.756225 31.955676,-48.446431 71.375,-48.446431 39.41932,0 71.375,21.690206 71.375,48.446431 z"
           style="fill:none;stroke:#000000;stroke-width:0.93628347;stroke-miterlimit:4;stroke-opacity:1"
           transform="matrix(0.98100568,0,0,1.1628234,0.22825576,842.8034)"
           inkscape:connector-curvature="0" />
        <path
           id="path4512"
           d="m 118.5,45.476467 c 0,20.240043 -16.40779,36.647839 -36.647835,36.647839 -20.240042,0 -36.647838,-16.407796 -36.647838,-36.647839 0,-20.240042 16.407796,-36.6478385 36.647838,-36.6478385 20.240045,0 36.647835,16.4077965 36.647835,36.6478385 z"
           style="fill:#ffff00;stroke:#000000;stroke-width:1.02631533;stroke-miterlimit:4;stroke-opacity:1"
           transform="matrix(1.0003028,0,0,0.94908895,-0.02478952,853.6831)"
           inkscape:connector-curvature="0" />
        <g
           transform="translate(0.47709924,0)"
           id="g4514">
          <path
             id="path4516"
             d="m 365.71427,218.27328 c 0,66.38287 -33.25885,120.19681 -74.28571,120.19681 -41.02687,0 -74.28571,-53.81394 -74.28571,-120.19681 0,-66.38286 33.25884,-120.196803 74.28571,-120.196803 41.02686,0 74.28571,53.813943 74.28571,120.196803 z"
             style="fill:#ffffff;stroke:#000000;stroke-width:4.55735874;stroke-miterlimit:4;stroke-opacity:1"
             transform="matrix(0.21942535,0,0,0.21942535,17.114541,849.87889)"
             inkscape:connector-curvature="0" />
          <path
             inkscape:connector-curvature="0"
             style="fill:#000000;stroke:#000000;stroke-width:0.99999994;stroke-miterlimit:4;stroke-opacity:1;stroke-dasharray:none"
             d="m 81.064457,871.35957 c -7.191668,0 -13.291326,7.53528 -15.455773,17.99287 l 30.904689,0 c -2.16445,-10.45759 -8.257248,-17.99287 -15.448916,-17.99287 z"
             id="path4518" />
        </g>
        <path
           inkscape:connector-curvature="0"
           id="path4520"
           d="m 69.4,896.02289 8.92857,8.125"
           style="fill:none;stroke:#000000;stroke-width:1px;stroke-linecap:butt;stroke-linejoin:miter;stroke-opacity:1" />
        <path
           id="path4522"
           d="M 155,91.303574 C 155,118.0598 123.04432,139.75 83.625,139.75 44.205676,139.75 12.25,118.0598 12.25,91.303574 c 0,-26.756225 31.955676,-48.446431 71.375,-48.446431 39.41932,0 71.375,21.690206 71.375,48.446431 z"
           style="fill:#ff7f2a;stroke:#000000;stroke-width:1.86629891;stroke-miterlimit:4;stroke-opacity:1"
           transform="matrix(0.67397501,0,0,0.42598449,26.506939,955.17267)"
           inkscape:connector-curvature="0" />
        <path
           id="path4524"
           d="m 112.25,103.5 c 0,20.02032 -13.655315,36.25 -30.5,36.25 -16.844685,0 -30.5,-16.22968 -30.5,-36.25 0,-20.020322 13.655315,-36.25 30.5,-36.25 16.571724,0 30.11132,15.726669 30.49195,35.41737"
           style="fill:#ff7f2a;stroke:#000000;stroke-width:1.10622585;stroke-miterlimit:4;stroke-opacity:1"
           transform="matrix(0.93710746,0,0,0.87201318,4.9716097,866.48719)"
           inkscape:connector-curvature="0" />
        <path
           id="path4534"
           d="m 95.25,149.21875 c 0,7.16244 -5.988191,12.96875 -13.375,12.96875 -7.386809,0 -13.375,-5.80631 -13.375,-12.96875 0,-7.16244 5.988191,-12.96875 13.375,-12.96875 7.386809,0 13.375,5.80631 13.375,12.96875 z"
           style="fill:#ffffff;stroke:#000000;stroke-width:1.68066621;stroke-miterlimit:4;stroke-opacity:1"
           transform="matrix(0.60962443,0,0,0.58073058,32.087001,894.00388)"
           inkscape:connector-curvature="0" />
        <path
           id="path4532"
           d="m 95.25,149.21875 c 0,7.16244 -5.988191,12.96875 -13.375,12.96875 -7.386809,0 -13.375,-5.80631 -13.375,-12.96875 0,-7.16244 5.988191,-12.96875 13.375,-12.96875 7.386809,0 13.375,5.80631 13.375,12.96875 z"
           style="fill:#ffffff;stroke:#000000;stroke-opacity:1"
           transform="matrix(0.97017736,0,0,1.0005685,2.535479,852.27686)"
           inkscape:connector-curvature="0" />
        <path
           inkscape:connector-curvature="0"
           id="path4526"
           d="m 81.995976,925.31595 0,89.38935"
           style="fill:none;stroke:#000000;stroke-width:0.99528992;stroke-linecap:butt;stroke-linejoin:miter;stroke-miterlimit:4;stroke-opacity:1;stroke-dasharray:none" />
        <path
           inkscape:connector-curvature="0"
           id="path4528"
           d="m 81.995976,907.26001 0,11.99374"
           style="fill:none;stroke:#000000;stroke-width:1;stroke-linecap:butt;stroke-linejoin:miter;stroke-miterlimit:4;stroke-opacity:1;stroke-dasharray:none" />
        <path
           inkscape:connector-curvature="0"
           id="path4530"
           d="m 85.178571,904.14789 8.125,-8.92857"
           style="fill:none;stroke:#000000;stroke-width:1px;stroke-linecap:butt;stroke-linejoin:miter;stroke-opacity:1" />
        <path
           inkscape:connector-curvature="0"
           id="path4536"
           d="m 67,956.65989 c 0,0 14,37.75 30,0"
           style="fill:none;stroke:#000000;stroke-width:1px;stroke-linecap:butt;stroke-linejoin:miter;stroke-opacity:1" />
        <path
           inkscape:connector-curvature="0"
           id="path4538"
           d="m 54.577434,985.82056 c 0,0 21.125,6.125 53.749996,0"
           style="fill:none;stroke:#000000;stroke-width:1px;stroke-linecap:butt;stroke-linejoin:miter;stroke-opacity:1" />
        <path
           inkscape:connector-curvature="0"
           id="path4540"
           d="m 76.49585,931.70593 11.1333,0"
           style="fill:none;stroke:#000000;stroke-width:1;stroke-linecap:butt;stroke-linejoin:miter;stroke-miterlimit:4;stroke-opacity:1;stroke-dasharray:none" />
        <path
           inkscape:connector-curvature="0"
           id="path4542"
           d="m 76.4021,939.67468 11.1333,0"
           style="fill:none;stroke:#000000;stroke-width:1;stroke-linecap:butt;stroke-linejoin:miter;stroke-miterlimit:4;stroke-opacity:1;stroke-dasharray:none" />
        <path
           inkscape:connector-curvature="0"
           id="path4544"
           d="m 76.4021,946.67468 11.1333,0"
           style="fill:none;stroke:#000000;stroke-width:1;stroke-linecap:butt;stroke-linejoin:miter;stroke-miterlimit:4;stroke-opacity:1;stroke-dasharray:none" />
        <path
           inkscape:connector-curvature="0"
           id="path4546"
           d="m 76.375,953.70593 11.1333,0"
           style="fill:none;stroke:#000000;stroke-width:1;stroke-linecap:butt;stroke-linejoin:miter;stroke-miterlimit:4;stroke-opacity:1;stroke-dasharray:none" />
        <path
           inkscape:connector-curvature="0"
           id="path4548"
           d="m 76.375,961.70593 11.1333,0"
           style="fill:none;stroke:#000000;stroke-width:1;stroke-linecap:butt;stroke-linejoin:miter;stroke-miterlimit:4;stroke-opacity:1;stroke-dasharray:none" />
        <path
           inkscape:connector-curvature="0"
           id="path4550"
           d="m 76.375,967.70593 11.1333,0"
           style="fill:none;stroke:#000000;stroke-width:1;stroke-linecap:butt;stroke-linejoin:miter;stroke-miterlimit:4;stroke-opacity:1;stroke-dasharray:none" />
        <path
           inkscape:connector-curvature="0"
           sodipodi:nodetypes="ccccc"
           id="path4552"
           d="M 58.778251,937.98766 24.984373,916.79968 c 0,0 7.722581,-9.9013 20.375666,-15.59008 0.921779,1.17906 0.852089,17.99795 22.168659,27.76245 -5.712979,3.90147 -8.927224,8.92722 -8.750447,9.01561 z"
           style="fill:#0066ff;stroke:#000000;stroke-width:1;stroke-linecap:butt;stroke-linejoin:miter;stroke-miterlimit:4;stroke-opacity:1;stroke-dasharray:none" />
        <path
           inkscape:connector-curvature="0"
           sodipodi:nodetypes="ccscc"
           id="path4554"
           d="m 19.890652,974.38074 33.937852,-9.78819 c 2.87037,10.09259 5.659765,11.54778 5.126524,11.66726 -20.365116,4.5631 -23.553858,14.4073 -23.553858,14.4073 0,0 -10.939998,-7.58268 -15.510518,-16.28637 z"
           style="fill:#00ff00;stroke:#000000;stroke-width:0.991;stroke-linecap:butt;stroke-linejoin:miter;stroke-miterlimit:4;stroke-opacity:1;stroke-dasharray:none" />
        <path
           inkscape:connector-curvature="0"
           sodipodi:nodetypes="ccccc"
           id="path4556"
           d="m 105.62643,939.44551 34.92088,-21.3381 c -0.45831,-1.70229 -9.49725,-11.35333 -22.21581,-17.43495 -2.13095,17.61931 -15.96223,25.91182 -22.844403,28.46115 5.630663,3.73195 8.279723,7.57966 10.139333,10.3119 z"
           style="fill:#0066ff;stroke:#000000;stroke-width:1;stroke-linecap:butt;stroke-linejoin:miter;stroke-miterlimit:4;stroke-opacity:1;stroke-dasharray:none" />
        <path
           inkscape:connector-curvature="0"
           sodipodi:nodetypes="cccccc"
           id="path4558"
           d="m 105.65383,939.43368 34.81551,-21.50959 c 1.31146,1.17809 12.11673,13.14535 11.79462,32.23946 -18.53309,0 -34.71107,0.0116 -42.78285,0.0116 -1.34031,-6.61682 -2.69322,-7.84786 -3.82728,-10.74144 l 0,-3e-5 z"
           style="fill:#00ff00;stroke:#000000;stroke-width:1;stroke-linecap:butt;stroke-linejoin:miter;stroke-miterlimit:4;stroke-opacity:1;stroke-dasharray:none" />
        <path
           inkscape:connector-curvature="0"
           sodipodi:nodetypes="ccscc"
           id="path4560"
           d="m 144.67835,974.3713 -34.9339,-12.04043 c -2.01923,10.35448 -5.66023,13.18669 -5.12652,13.30408 20.29964,4.46489 24.53594,12.41038 25.4853,14.53825 0,0 9.76846,-7.19875 14.57512,-15.8019 z"
           style="fill:#00ff00;stroke:#000000;stroke-width:1;stroke-linecap:butt;stroke-linejoin:miter;stroke-miterlimit:4;stroke-opacity:1;stroke-dasharray:none" />
        <path
           inkscape:connector-curvature="0"
           sodipodi:nodetypes="cccccc"
           id="path4562"
           d="M 58.586372,937.88512 24.974565,916.69961 c -1.172571,1.08549 -13.320433,14.30275 -12.720546,33.44316 18.53309,0 33.229589,0.0116 41.301369,0.0116 1.34031,-6.61682 3.156183,-8.86641 5.030984,-12.26925 l 0,0 z"
           style="fill:#00ff00;fill-opacity:1;stroke:#000000;stroke-width:1;stroke-linecap:butt;stroke-linejoin:miter;stroke-miterlimit:4;stroke-opacity:1;stroke-dasharray:none" />
        <path
           inkscape:connector-curvature="0"
           sodipodi:nodetypes="cccccccc"
           id="path4564"
           d="m 109.57307,950.18656 c 24.60492,-0.0917 32.26268,-0.0104 42.70398,-0.0562 -0.25798,8.94338 -3.20896,17.64135 -7.54476,24.30447 -13.73783,-4.78551 -29.01995,-10.1117 -35.00324,-12.19595 0.76133,-5.20457 0.0764,-10.91087 -0.15599,-12.0523 l 1e-5,-2e-5 -2e-5,0 2e-5,0 z"
           style="fill:#0066ff;stroke:#000000;stroke-width:1;stroke-linecap:butt;stroke-linejoin:miter;stroke-miterlimit:4;stroke-opacity:1;stroke-dasharray:none" />
        <path
           inkscape:connector-curvature="0"
           sodipodi:nodetypes="cccccccc"
           id="path4566"
           d="m 53.398323,950.20067 c -24.60492,-0.0917 -30.691332,-0.0104 -41.132632,-0.0562 0.25798,8.94338 3.274433,17.64135 7.610233,24.30447 14.523504,-4.45815 27.972385,-7.88562 33.955675,-9.96987 -1.154167,-5.1391 -0.665656,-13.13695 -0.433266,-14.27838 l -1e-5,-2e-5 2e-5,0 -2e-5,0 z"
           style="fill:#0066ff;fill-opacity:1;stroke:#000000;stroke-width:1;stroke-linecap:butt;stroke-linejoin:miter;stroke-miterlimit:4;stroke-opacity:1;stroke-dasharray:none" />
      </g>
      <g
         id="text5365"
         style="font-size:8.04177094px;font-style:normal;font-variant:normal;font-weight:normal;font-stretch:normal;text-align:center;line-height:125%;letter-spacing:0px;word-spacing:0px;writing-mode:lr-tb;text-anchor:middle;fill:#000000;fill-opacity:1;stroke:none;display:inline;enable-background:new;font-family:Sans;-inkscape-font-specification:Sans"
         transform="translate(239.37774,168.11363)">
        <g
           id="g5531">
          <path
             inkscape:connector-curvature="0"
             d="m 66.844098,89.38606 c 0.170151,0.05759 0.33507,0.180628 0.494758,0.369105 0.162297,0.188481 0.324598,0.447639 0.486904,0.777476 l 0.804962,1.602071 -0.852082,0 -0.749989,-1.503905 c -0.193718,-0.392663 -0.382197,-0.65313 -0.565437,-0.781403 -0.180629,-0.128268 -0.428008,-0.192403 -0.742137,-0.192405 l -0.863862,0 0,2.477713 -0.793182,0 0,-5.862482 1.79055,0 c 0.670145,6e-6 1.170137,0.140056 1.499979,0.420151 0.329834,0.280106 0.494753,0.702874 0.494758,1.268307 -5e-6,0.369108 -0.08639,0.675386 -0.259159,0.918835 -0.170159,0.243455 -0.418846,0.4123 -0.746063,0.506537 m -1.986883,-2.462007 0,2.081122 0.997368,0 c 0.382191,4e-6 0.670145,-0.08769 0.863863,-0.263085 0.196328,-0.178004 0.294494,-0.438472 0.294498,-0.781402 -4e-6,-0.342923 -0.09817,-0.600772 -0.294498,-0.77355 -0.193718,-0.175385 -0.481672,-0.26308 -0.863863,-0.263085 l -0.997368,0"
             id="path5407" />
          <path
             inkscape:connector-curvature="0"
             d="m 69.624163,87.736869 0.722503,0 0,4.397843 -0.722503,0 0,-4.397843 m 0,-1.712018 0.722503,0 0,0.914909 -0.722503,0 0,-0.914909"
             id="path5409" />
          <path
             inkscape:connector-curvature="0"
             d="m 75.019375,87.905715 0,0.675383 c -0.204189,-0.112561 -0.409684,-0.196329 -0.616484,-0.251306 -0.204188,-0.05759 -0.410991,-0.08638 -0.62041,-0.08639 -0.468582,4e-6 -0.83245,0.149216 -1.091607,0.447638 -0.25916,0.29581 -0.388739,0.712034 -0.388738,1.248673 -10e-7,0.536643 0.129578,0.954176 0.388738,1.2526 0.259157,0.295808 0.623025,0.443712 1.091607,0.443711 0.209419,10e-7 0.416222,-0.02749 0.62041,-0.08246 0.2068,-0.05759 0.412295,-0.142668 0.616484,-0.255232 l 0,0.667529 c -0.201572,0.09424 -0.410993,0.16492 -0.628264,0.212039 -0.214659,0.04712 -0.443713,0.07068 -0.687163,0.07068 -0.662296,0 -1.188466,-0.208112 -1.578511,-0.624337 -0.390048,-0.416223 -0.585071,-0.977733 -0.585071,-1.684531 0,-0.717264 0.196332,-1.281392 0.588997,-1.692384 0.395281,-0.410985 0.935849,-0.616479 1.621705,-0.616484 0.222507,5e-6 0.439781,0.02357 0.651823,0.07068 0.212036,0.04451 0.41753,0.112568 0.616484,0.204186"
             id="path5411" />
          <path
             inkscape:connector-curvature="0"
             d="m 78.282417,89.924011 c -0.583763,2e-6 -0.988207,0.06676 -1.213333,0.200258 -0.225129,0.133508 -0.337693,0.361254 -0.337692,0.683237 -10e-7,0.256542 0.08377,0.460727 0.251306,0.612557 0.170153,0.149213 0.400516,0.223819 0.691089,0.223818 0.400516,1e-6 0.721191,-0.141358 0.962029,-0.424077 0.243448,-0.285335 0.365174,-0.663602 0.365178,-1.134801 l 0,-0.160992 -0.718577,0 m 1.441079,-0.298426 0,2.509127 -0.722502,0 0,-0.66753 c -0.164923,0.267013 -0.370417,0.464654 -0.616484,0.592924 -0.246072,0.125653 -0.547115,0.188479 -0.903128,0.188479 -0.450257,0 -0.808891,-0.125653 -1.075901,-0.376958 -0.264395,-0.253923 -0.396592,-0.592923 -0.396592,-1.017001 0,-0.494756 0.164919,-0.867787 0.494758,-1.119094 0.332454,-0.251303 0.827211,-0.376956 1.484272,-0.376958 l 1.013075,0 0,-0.07068 c -4e-6,-0.332453 -0.10995,-0.588994 -0.329839,-0.769623 -0.217277,-0.183239 -0.523555,-0.274861 -0.918835,-0.274865 -0.251307,4e-6 -0.496068,0.03011 -0.734283,0.09031 -0.238217,0.06021 -0.467271,0.150525 -0.687163,0.270938 l 0,-0.667529 c 0.264393,-0.102089 0.520934,-0.178004 0.769623,-0.227746 0.248686,-0.05235 0.490829,-0.07853 0.726429,-0.07853 0.636114,5e-6 1.111238,0.164924 1.425373,0.494758 0.314128,0.329842 0.471193,0.829834 0.471197,1.499978"
             id="path5413" />
          <path
             inkscape:connector-curvature="0"
             d="m 83.764015,88.412252 c -0.08115,-0.04712 -0.170157,-0.08115 -0.267011,-0.102093 -0.09424,-0.02356 -0.198953,-0.03534 -0.314132,-0.03534 -0.408374,4e-6 -0.722505,0.13351 -0.942395,0.400518 -0.217276,0.264397 -0.325913,0.645282 -0.325912,1.142654 l 0,2.316721 -0.726429,0 0,-4.397843 0.726429,0 0,0.683236 c 0.151829,-0.267008 0.34947,-0.464649 0.592924,-0.592923 0.243449,-0.130884 0.539257,-0.196328 0.887422,-0.196333 0.04973,5e-6 0.104707,0.0039 0.164919,0.01178 0.0602,0.0052 0.126958,0.0144 0.200259,0.02749 l 0.0039,0.742136"
             id="path5415" />
          <path
             inkscape:connector-curvature="0"
             d="m 87.28229,88.404399 0,-2.379548 0.722503,0 0,6.109861 -0.722503,0 0,-0.659676 c -0.151834,0.261776 -0.344239,0.4568 -0.577217,0.58507 -0.230366,0.125653 -0.507849,0.188479 -0.832449,0.188479 -0.531408,0 -0.964647,-0.212039 -1.29972,-0.636117 -0.332457,-0.424077 -0.498684,-0.98166 -0.498684,-1.672751 0,-0.691087 0.166227,-1.24867 0.498684,-1.672751 0.335073,-0.424074 0.768312,-0.636112 1.29972,-0.636117 0.3246,5e-6 0.602083,0.06414 0.832449,0.192406 0.232978,0.125657 0.425383,0.319371 0.577217,0.581144 m -2.462007,1.535318 c -10e-7,0.531408 0.108636,0.948941 0.325911,1.2526 0.219891,0.301044 0.520933,0.451565 0.903129,0.451564 0.382191,1e-6 0.683233,-0.15052 0.903129,-0.451564 0.219888,-0.303659 0.329834,-0.721192 0.329838,-1.2526 -4e-6,-0.531403 -0.10995,-0.947627 -0.329838,-1.248673 -0.219896,-0.303657 -0.520938,-0.455487 -0.903129,-0.455491 -0.382196,4e-6 -0.683238,0.151834 -0.903129,0.455491 -0.217275,0.301046 -0.325912,0.71727 -0.325911,1.248673"
             id="path5417" />
          <path
             inkscape:connector-curvature="0"
             d="m 91.197155,88.243406 c -0.387431,4e-6 -0.693709,0.151834 -0.918835,0.455491 -0.225129,0.301046 -0.337693,0.714652 -0.337692,1.24082 -10e-7,0.526172 0.111254,0.941088 0.333765,1.244747 0.225126,0.301043 0.532713,0.451565 0.922762,0.451564 0.384809,10e-7 0.689778,-0.151829 0.914909,-0.455491 0.225124,-0.303659 0.337687,-0.717265 0.337691,-1.24082 -4e-6,-0.520932 -0.112567,-0.93323 -0.337691,-1.236893 -0.225131,-0.306275 -0.5301,-0.459414 -0.914909,-0.459418 m 0,-0.612557 c 0.62826,5e-6 1.121708,0.20419 1.480346,0.612557 0.358629,0.408375 0.537946,0.973811 0.53795,1.696311 -4e-6,0.719887 -0.179321,1.285323 -0.53795,1.696311 -0.358638,0.408371 -0.852086,0.612557 -1.480346,0.612557 -0.630883,0 -1.12564,-0.204186 -1.484272,-0.612557 -0.356017,-0.410988 -0.534024,-0.976424 -0.534024,-1.696311 0,-0.7225 0.178007,-1.287936 0.534024,-1.696311 0.358632,-0.408367 0.853389,-0.612552 1.484272,-0.612557"
             id="path5419" />
          <path
             inkscape:connector-curvature="0"
             d="m 98.960136,87.053632 -1.075901,2.917498 2.155725,0 -1.079824,-2.917498 m -0.447638,-0.781402 0.899202,0 2.23426,5.862482 -0.82459,0 -0.53403,-1.503905 -2.642631,0 -0.534023,1.503905 -0.836376,0 2.238188,-5.862482"
             id="path5421" />
          <path
             inkscape:connector-curvature="0"
             d="m 102.46663,86.024851 0.7225,0 0,6.109861 -0.7225,0 0,-6.109861"
             id="path5423" />
          <path
             inkscape:connector-curvature="0"
             d="m 108.45869,89.755165 0,0.353398 -3.32194,0 c 0.0314,0.497377 0.18062,0.876952 0.44764,1.138727 0.26962,0.259159 0.64396,0.388739 1.12302,0.388738 0.27748,10e-7 0.5458,-0.03403 0.80496,-0.102093 0.26177,-0.06806 0.52093,-0.170154 0.77748,-0.306278 l 0,0.683236 c -0.25917,0.109947 -0.52487,0.193715 -0.79711,0.251306 -0.27225,0.05759 -0.54843,0.08639 -0.82853,0.08639 -0.70156,0 -1.25783,-0.204186 -1.66882,-0.612557 -0.40837,-0.40837 -0.61256,-0.960718 -0.61256,-1.657044 0,-0.719883 0.19372,-1.290555 0.58115,-1.712018 0.39004,-0.424074 0.9149,-0.636112 1.57458,-0.636117 0.59161,5e-6 1.05888,0.191101 1.40181,0.573291 0.34554,0.379579 0.51832,0.896587 0.51832,1.551025 m -0.7225,-0.212039 c -0.005,-0.395279 -0.1165,-0.71072 -0.33377,-0.946322 -0.21466,-0.235595 -0.49999,-0.353394 -0.85601,-0.353398 -0.40313,4e-6 -0.72643,0.113877 -0.96988,0.341618 -0.24083,0.227749 -0.37957,0.548425 -0.41622,0.962029 l 2.57588,-0.0039"
             id="path5425" />
          <path
             inkscape:connector-curvature="0"
             d="m 113.15889,87.736869 -1.5903,2.140022 1.67275,2.257821 -0.85208,0 -1.28008,-1.727724 -1.28009,1.727724 -0.85208,0 1.70809,-2.301014 -1.56281,-2.096829 0.85209,0 1.16621,1.566731 1.16621,-1.566731 0.85209,0"
             id="path5427" />
          <path
             inkscape:connector-curvature="0"
             d="m 116.26094,89.924011 c -0.58376,2e-6 -0.98821,0.06676 -1.21333,0.200258 -0.22513,0.133508 -0.3377,0.361254 -0.3377,0.683237 0,0.256542 0.0838,0.460727 0.25131,0.612557 0.17015,0.149213 0.40051,0.223819 0.69109,0.223818 0.40051,1e-6 0.72119,-0.141358 0.96203,-0.424077 0.24345,-0.285335 0.36517,-0.663602 0.36517,-1.134801 l 0,-0.160992 -0.71857,0 m 1.44108,-0.298426 0,2.509127 -0.72251,0 0,-0.66753 c -0.16492,0.267013 -0.37041,0.464654 -0.61648,0.592924 -0.24607,0.125653 -0.54711,0.188479 -0.90313,0.188479 -0.45025,0 -0.80889,-0.125653 -1.0759,-0.376958 -0.26439,-0.253923 -0.39659,-0.592923 -0.39659,-1.017001 0,-0.494756 0.16492,-0.867787 0.49476,-1.119094 0.33245,-0.251303 0.82721,-0.376956 1.48427,-0.376958 l 1.01307,0 0,-0.07068 c 0,-0.332453 -0.10994,-0.588994 -0.32983,-0.769623 -0.21728,-0.183239 -0.52356,-0.274861 -0.91884,-0.274865 -0.25131,4e-6 -0.49607,0.03011 -0.73428,0.09031 -0.23822,0.06021 -0.46727,0.150525 -0.68716,0.270938 l 0,-0.667529 c 0.26439,-0.102089 0.52093,-0.178004 0.76962,-0.227746 0.24868,-0.05235 0.49083,-0.07853 0.72643,-0.07853 0.63611,5e-6 1.11124,0.164924 1.42537,0.494758 0.31413,0.329842 0.47119,0.829834 0.4712,1.499978"
             id="path5429" />
          <path
             inkscape:connector-curvature="0"
             d="m 122.84985,89.4803 0,2.654412 -0.7225,0 0,-2.630853 c -1e-5,-0.416221 -0.0812,-0.727735 -0.24346,-0.934541 -0.1623,-0.2068 -0.40575,-0.310201 -0.73035,-0.310205 -0.39005,4e-6 -0.69764,0.124347 -0.92276,0.373031 -0.22513,0.248691 -0.3377,0.587691 -0.3377,1.017001 l 0,2.485567 -0.72642,0 0,-4.397843 0.72642,0 0,0.683236 c 0.17278,-0.26439 0.37565,-0.462031 0.60863,-0.592923 0.2356,-0.130884 0.50654,-0.196328 0.81282,-0.196333 0.50523,5e-6 0.88742,0.15707 1.14658,0.471198 0.25916,0.311517 0.38873,0.770935 0.38874,1.378253"
             id="path5431" />
          <path
             inkscape:connector-curvature="0"
             d="m 127.19272,88.404399 0,-2.379548 0.7225,0 0,6.109861 -0.7225,0 0,-0.659676 c -0.15183,0.261776 -0.34424,0.4568 -0.57722,0.58507 -0.23036,0.125653 -0.50785,0.188479 -0.83245,0.188479 -0.5314,0 -0.96464,-0.212039 -1.29972,-0.636117 -0.33245,-0.424077 -0.49868,-0.98166 -0.49868,-1.672751 0,-0.691087 0.16623,-1.24867 0.49868,-1.672751 0.33508,-0.424074 0.76832,-0.636112 1.29972,-0.636117 0.3246,5e-6 0.60209,0.06414 0.83245,0.192406 0.23298,0.125657 0.42539,0.319371 0.57722,0.581144 m -2.46201,1.535318 c 0,0.531408 0.10864,0.948941 0.32592,1.2526 0.21989,0.301044 0.52093,0.451565 0.90312,0.451564 0.38219,1e-6 0.68324,-0.15052 0.90313,-0.451564 0.21989,-0.303659 0.32984,-0.721192 0.32984,-1.2526 0,-0.531403 -0.10995,-0.947627 -0.32984,-1.248673 -0.21989,-0.303657 -0.52094,-0.455487 -0.90313,-0.455491 -0.38219,4e-6 -0.68323,0.151834 -0.90312,0.455491 -0.21728,0.301046 -0.32592,0.71727 -0.32592,1.248673"
             id="path5433" />
          <path
             inkscape:connector-curvature="0"
             d="m 131.95182,88.412252 c -0.0812,-0.04712 -0.17016,-0.08115 -0.26702,-0.102093 -0.0942,-0.02356 -0.19895,-0.03534 -0.31413,-0.03534 -0.40837,4e-6 -0.7225,0.13351 -0.94239,0.400518 -0.21728,0.264397 -0.32591,0.645282 -0.32591,1.142654 l 0,2.316721 -0.72643,0 0,-4.397843 0.72643,0 0,0.683236 c 0.15183,-0.267008 0.34947,-0.464649 0.59292,-0.592923 0.24345,-0.130884 0.53926,-0.196328 0.88742,-0.196333 0.0497,5e-6 0.10471,0.0039 0.16492,0.01178 0.0602,0.0052 0.12696,0.0144 0.20026,0.02749 l 0.004,0.742136"
             id="path5435" />
          <path
             inkscape:connector-curvature="0"
             d="m 136.30646,89.755165 0,0.353398 -3.32194,0 c 0.0314,0.497377 0.18062,0.876952 0.44764,1.138727 0.26962,0.259159 0.64396,0.388739 1.12302,0.388738 0.27748,10e-7 0.5458,-0.03403 0.80496,-0.102093 0.26177,-0.06806 0.52093,-0.170154 0.77748,-0.306278 l 0,0.683236 c -0.25917,0.109947 -0.52487,0.193715 -0.79711,0.251306 -0.27225,0.05759 -0.54843,0.08639 -0.82853,0.08639 -0.70156,0 -1.25783,-0.204186 -1.66882,-0.612557 -0.40837,-0.40837 -0.61256,-0.960718 -0.61256,-1.657044 0,-0.719883 0.19372,-1.290555 0.58115,-1.712018 0.39004,-0.424074 0.9149,-0.636112 1.57458,-0.636117 0.59161,5e-6 1.05888,0.191101 1.40181,0.573291 0.34555,0.379579 0.51832,0.896587 0.51832,1.551025 m -0.7225,-0.212039 c -0.005,-0.395279 -0.11649,-0.71072 -0.33377,-0.946322 -0.21466,-0.235595 -0.49999,-0.353394 -0.856,-0.353398 -0.40314,4e-6 -0.72644,0.113877 -0.96989,0.341618 -0.24083,0.227749 -0.37957,0.548425 -0.41622,0.962029 l 2.57588,-0.0039"
             id="path5437" />
          <path
             inkscape:connector-curvature="0"
             d="m 81.10175,96.077065 1.664898,0 0,0.56151 -0.942395,0 0,6.047035 0.942395,0 0,0.56151 -1.664898,0 0,-7.170055"
             id="path5439" />
          <path
             inkscape:connector-curvature="0"
             d="m 87.121298,99.438274 c 0.170151,0.05759 0.33507,0.180628 0.494758,0.369104 0.162297,0.188482 0.324598,0.447642 0.486904,0.777472 l 0.804962,1.60208 -0.852082,0 -0.74999,-1.50391 c -0.193718,-0.39266 -0.382196,-0.65313 -0.565437,-0.781402 -0.180628,-0.128268 -0.428007,-0.192403 -0.742136,-0.192406 l -0.863862,0 0,2.477718 -0.793182,0 0,-5.862487 1.79055,0 c 0.670145,6e-6 1.170137,0.140057 1.499979,0.420152 0.329834,0.280105 0.494753,0.702874 0.494757,1.268306 -4e-6,0.369109 -0.08639,0.675387 -0.259158,0.918835 -0.170159,0.243455 -0.418846,0.412301 -0.746063,0.506538 m -1.986883,-2.462007 0,2.081122 0.997368,0 c 0.382191,3e-6 0.670145,-0.08769 0.863862,-0.263085 0.196329,-0.178005 0.294495,-0.438472 0.294499,-0.781403 -4e-6,-0.342922 -0.09817,-0.600772 -0.294499,-0.773549 -0.193717,-0.175385 -0.481671,-0.26308 -0.863862,-0.263085 l -0.997368,0"
             id="path5441" />
          <path
             inkscape:connector-curvature="0"
             d="m 89.901363,97.789082 0.722503,0 0,4.397848 -0.722503,0 0,-4.397848 m 0,-1.712017 0.722503,0 0,0.914908 -0.722503,0 0,-0.914908"
             id="path5443" />
          <path
             inkscape:connector-curvature="0"
             d="m 95.296575,97.957928 0,0.675383 c -0.204189,-0.11256 -0.409683,-0.196328 -0.616483,-0.251305 -0.204189,-0.05759 -0.410992,-0.08638 -0.62041,-0.08639 -0.468582,4e-6 -0.832451,0.149216 -1.091608,0.447637 -0.25916,0.295811 -0.388739,0.712035 -0.388738,1.248674 -10e-7,0.536643 0.129578,0.954183 0.388738,1.252603 0.259157,0.29581 0.623026,0.44371 1.091608,0.44371 0.209418,0 0.416221,-0.0275 0.62041,-0.0825 0.2068,-0.0576 0.412294,-0.14267 0.616483,-0.25523 l 0,0.66753 c -0.201571,0.0942 -0.410992,0.16492 -0.628263,0.21204 -0.21466,0.0471 -0.443714,0.0707 -0.687163,0.0707 -0.662296,0 -1.188466,-0.20811 -1.578512,-0.62434 -0.390047,-0.41622 -0.585071,-0.97773 -0.58507,-1.684533 -10e-7,-0.717265 0.196332,-1.281392 0.588997,-1.692385 0.395281,-0.410984 0.935848,-0.616479 1.621705,-0.616483 0.222507,4e-6 0.439781,0.02356 0.651823,0.07068 0.212035,0.04451 0.417529,0.112568 0.616483,0.204185"
             id="path5445" />
          <path
             inkscape:connector-curvature="0"
             d="m 96.30965,96.324443 0.852082,0 1.456785,2.179289 1.464643,-2.179289 0.85208,0 -1.884791,2.815406 2.010441,3.047081 -0.85208,0 -1.649192,-2.493424 -1.660971,2.493424 -0.856009,0 2.092902,-3.129541 -1.82589,-2.732946"
             id="path5447" />
          <path
             inkscape:connector-curvature="0"
             d="m 104.07263,99.976224 c -0.58377,2e-6 -0.98821,0.06676 -1.21334,0.200256 -0.22512,0.13351 -0.33769,0.36126 -0.33769,0.68324 0,0.25654 0.0838,0.46073 0.25131,0.61256 0.17015,0.14921 0.40051,0.22382 0.69109,0.22382 0.40051,0 0.72119,-0.14136 0.96203,-0.42408 0.24344,-0.28534 0.36517,-0.6636 0.36517,-1.1348 l 0,-0.160996 -0.71857,0 m 1.44108,-0.298425 0,2.509131 -0.72251,0 0,-0.66753 c -0.16492,0.26701 -0.37041,0.46465 -0.61648,0.59292 -0.24607,0.12565 -0.54711,0.18848 -0.90313,0.18848 -0.45025,0 -0.80889,-0.12565 -1.0759,-0.37696 -0.26439,-0.25392 -0.39659,-0.59292 -0.39659,-1.017 0,-0.49476 0.16492,-0.86779 0.49476,-1.119095 0.33245,-0.251302 0.82721,-0.376955 1.48427,-0.376958 l 1.01307,0 0,-0.07068 c 0,-0.332453 -0.10995,-0.588994 -0.32983,-0.769623 -0.21728,-0.18324 -0.52356,-0.274861 -0.91884,-0.274865 -0.25131,4e-6 -0.49607,0.03011 -0.73428,0.09031 -0.23822,0.06021 -0.46727,0.150525 -0.68717,0.270938 l 0,-0.66753 c 0.2644,-0.102088 0.52094,-0.178003 0.76963,-0.227745 0.24868,-0.05235 0.49083,-0.07853 0.72643,-0.07853 0.63611,4e-6 1.11123,0.164923 1.42537,0.494757 0.31413,0.329842 0.47119,0.829835 0.4712,1.499979"
             id="path5449" />
          <path
             inkscape:connector-curvature="0"
             d="m 110.66154,99.532513 0,2.654417 -0.7225,0 0,-2.630857 c -1e-5,-0.416221 -0.0812,-0.727735 -0.24345,-0.934542 -0.16231,-0.206799 -0.40576,-0.310201 -0.73036,-0.310205 -0.39005,4e-6 -0.69764,0.124348 -0.92276,0.373032 -0.22513,0.248691 -0.3377,0.587691 -0.33769,1.017001 l 0,2.485571 -0.72643,0 0,-4.397848 0.72643,0 0,0.683237 c 0.17277,-0.26439 0.37564,-0.462031 0.60863,-0.592924 0.23559,-0.130883 0.50653,-0.196328 0.81281,-0.196332 0.50523,4e-6 0.88742,0.15707 1.14658,0.471197 0.25916,0.311518 0.38874,0.770935 0.38874,1.378253"
             id="path5451" />
          <path
             inkscape:connector-curvature="0"
             d="m 115.00441,98.456612 0,-2.379547 0.7225,0 0,6.109865 -0.7225,0 0,-0.65968 c -0.15183,0.26178 -0.34424,0.4568 -0.57722,0.58507 -0.23036,0.12565 -0.50785,0.18848 -0.83245,0.18848 -0.5314,0 -0.96464,-0.21204 -1.29972,-0.63612 -0.33245,-0.42407 -0.49868,-0.98166 -0.49868,-1.672749 0,-0.691087 0.16623,-1.24867 0.49868,-1.672751 0.33508,-0.424074 0.76832,-0.636113 1.29972,-0.636117 0.3246,4e-6 0.60209,0.06414 0.83245,0.192406 0.23298,0.125656 0.42539,0.319371 0.57722,0.581143 m -2.46201,1.535319 c 0,0.531409 0.10864,0.948939 0.32591,1.252599 0.21989,0.30104 0.52094,0.45157 0.90313,0.45157 0.38219,0 0.68324,-0.15053 0.90313,-0.45157 0.21989,-0.30366 0.32984,-0.72119 0.32984,-1.252599 0,-0.531404 -0.10995,-0.947628 -0.32984,-1.248674 -0.21989,-0.303656 -0.52094,-0.455487 -0.90313,-0.455491 -0.38219,4e-6 -0.68324,0.151835 -0.90313,0.455491 -0.21727,0.301046 -0.32591,0.71727 -0.32591,1.248674"
             id="path5453" />
          <path
             inkscape:connector-curvature="0"
             d="m 118.90357,96.077065 0,7.170055 -1.6649,0 0,-0.56151 0.93847,0 0,-6.047035 -0.93847,0 0,-0.56151 1.6649,0"
             id="path5455" />
          <path
             inkscape:connector-curvature="0"
             d="m 25.359084,109.58473 0,2.65441 -0.722503,0 0,-2.63085 c -4e-6,-0.41622 -0.08115,-0.72774 -0.243452,-0.93454 -0.162305,-0.2068 -0.405757,-0.31021 -0.730356,-0.31021 -0.39005,0 -0.697637,0.12435 -0.922762,0.37303 -0.225129,0.24869 -0.337693,0.58769 -0.337692,1.017 l 0,2.48557 -0.726429,0 0,-6.10986 0.726429,0 0,2.39525 c 0.172771,-0.26439 0.375648,-0.46203 0.60863,-0.59292 0.235597,-0.13088 0.506535,-0.19633 0.812816,-0.19633 0.505225,0 0.887418,0.15707 1.146581,0.47119 0.259154,0.31152 0.388733,0.77094 0.388738,1.37826"
             id="path5457" />
          <path
             inkscape:connector-curvature="0"
             d="m 27.522665,106.59262 0,1.24868 1.488199,0 0,0.56151 -1.488199,0 0,2.3874 c -1e-6,0.35863 0.04843,0.58899 0.145286,0.69109 0.09947,0.10209 0.299732,0.15314 0.600777,0.15314 l 0.742136,0 0,0.6047 -0.742136,0 c -0.557585,0 -0.942396,-0.1034 -1.154434,-0.31021 -0.21204,-0.20942 -0.318059,-0.58899 -0.318058,-1.13872 l 0,-2.3874 -0.530097,0 0,-0.56151 0.530097,0 0,-1.24868 0.726429,0"
             id="path5459" />
          <path
             inkscape:connector-curvature="0"
             d="m 30.679689,106.59262 0,1.24868 1.488199,0 0,0.56151 -1.488199,0 0,2.3874 c -1e-6,0.35863 0.04843,0.58899 0.145286,0.69109 0.09947,0.10209 0.299732,0.15314 0.600777,0.15314 l 0.742136,0 0,0.6047 -0.742136,0 c -0.557585,0 -0.942396,-0.1034 -1.154434,-0.31021 -0.21204,-0.20942 -0.318059,-0.58899 -0.318058,-1.13872 l 0,-2.3874 -0.530097,0 0,-0.56151 0.530097,0 0,-1.24868 0.726429,0"
             id="path5461" />
          <path
             inkscape:connector-curvature="0"
             d="m 33.821005,111.57946 0,2.33243 -0.726429,0 0,-6.07059 0.726429,0 0,0.66753 c 0.151829,-0.26178 0.342925,-0.45549 0.57329,-0.58115 0.232979,-0.12826 0.510462,-0.1924 0.832449,-0.1924 0.534021,0 0.96726,0.21204 1.29972,0.63611 0.335069,0.42408 0.502606,0.98167 0.502611,1.67275 -5e-6,0.6911 -0.167542,1.24868 -0.502611,1.67276 -0.33246,0.42407 -0.765699,0.63611 -1.29972,0.63611 -0.321987,0 -0.59947,-0.0628 -0.832449,-0.18848 -0.230365,-0.12827 -0.421461,-0.32329 -0.57329,-0.58507 m 2.458081,-1.53532 c -4e-6,-0.5314 -0.10995,-0.94762 -0.329839,-1.24867 -0.217278,-0.30366 -0.517011,-0.45549 -0.899202,-0.45549 -0.382196,0 -0.683238,0.15183 -0.903128,0.45549 -0.217276,0.30105 -0.325913,0.71727 -0.325912,1.24867 -10e-7,0.53141 0.108636,0.94895 0.325912,1.2526 0.21989,0.30105 0.520932,0.45157 0.903128,0.45157 0.382191,0 0.681924,-0.15052 0.899202,-0.45157 0.219889,-0.30365 0.329835,-0.72119 0.329839,-1.2526"
             id="path5463" />
          <path
             inkscape:connector-curvature="0"
             d="m 38.411255,111.24177 0.828523,0 0,0.99737 -0.828523,0 0,-0.99737 m 0,-3.16095 0.828523,0 0,0.99737 -0.828523,0 0,-0.99737"
             id="path5465" />
          <path
             inkscape:connector-curvature="0"
             d="m 42.227954,106.37666 0.66753,0 -2.041856,6.60854 -0.66753,0 2.041856,-6.60854"
             id="path5467" />
          <path
             inkscape:connector-curvature="0"
             d="m 44.945193,106.37666 0.66753,0 -2.041856,6.60854 -0.66753,0 2.041856,-6.60854"
             id="path5469" />
          <path
             inkscape:connector-curvature="0"
             d="m 45.958268,107.8413 0.722503,0 0.903129,3.43188 0.899202,-3.43188 0.852082,0 0.903128,3.43188 0.899202,-3.43188 0.722503,0 -1.150507,4.39784 -0.852082,0 -0.946322,-3.60466 -0.950248,3.60466 -0.852083,0 -1.150507,-4.39784"
             id="path5471" />
          <path
             inkscape:connector-curvature="0"
             d="m 52.539327,107.8413 0.722503,0 0.903128,3.43188 0.899202,-3.43188 0.852082,0 0.903129,3.43188 0.899202,-3.43188 0.722503,0 -1.150508,4.39784 -0.852082,0 -0.946322,-3.60466 -0.950248,3.60466 -0.852082,0 -1.150507,-4.39784"
             id="path5473" />
          <path
             inkscape:connector-curvature="0"
             d="m 59.120383,107.8413 0.722503,0 0.903129,3.43188 0.899202,-3.43188 0.852082,0 0.903128,3.43188 0.899202,-3.43188 0.722503,0 -1.150507,4.39784 -0.852082,0 -0.946322,-3.60466 -0.950248,3.60466 -0.852082,0 -1.150508,-4.39784"
             id="path5475" />
          <path
             inkscape:connector-curvature="0"
             d="m 65.485477,111.24177 0.828522,0 0,0.99737 -0.828522,0 0,-0.99737"
             id="path5477" />
          <path
             inkscape:connector-curvature="0"
             d="m 70.837495,109.98917 c -3e-6,-0.52355 -0.10864,-0.9293 -0.325911,-1.21726 -0.21466,-0.28795 -0.517012,-0.43193 -0.907056,-0.43193 -0.387431,0 -0.689782,0.14398 -0.907055,0.43193 -0.214658,0.28796 -0.321986,0.69371 -0.321985,1.21726 -10e-7,0.52094 0.107327,0.92538 0.321985,1.21334 0.217273,0.28795 0.519624,0.43193 0.907055,0.43193 0.390044,0 0.692396,-0.14398 0.907056,-0.43193 0.217271,-0.28796 0.325908,-0.6924 0.325911,-1.21334 m 0.722503,1.70417 c -4e-6,0.74868 -0.166232,1.30495 -0.498684,1.66882 -0.332459,0.36649 -0.841614,0.54973 -1.527465,0.54973 -0.253925,0 -0.493451,-0.0196 -0.718576,-0.0589 -0.225129,-0.0367 -0.443713,-0.0942 -0.65575,-0.17277 l 0,-0.70287 c 0.212037,0.11518 0.421458,0.20026 0.628263,0.25523 0.206802,0.055 0.417531,0.0825 0.63219,0.0825 0.473813,0 0.828519,-0.12434 1.064121,-0.37303 0.235595,-0.24607 0.353395,-0.6191 0.353398,-1.11909 l 0,-0.35733 c -0.149216,0.25916 -0.340312,0.45287 -0.57329,0.58114 -0.232984,0.12827 -0.511775,0.19241 -0.836376,0.19241 -0.539261,0 -0.973809,-0.20549 -1.303646,-0.61648 -0.329839,-0.41099 -0.494758,-0.95549 -0.494757,-1.63349 -10e-7,-0.68061 0.164918,-1.22642 0.494757,-1.63741 0.329837,-0.41098 0.764385,-0.61648 1.303646,-0.61648 0.324601,0 0.603392,0.0641 0.836376,0.1924 0.232978,0.12828 0.424074,0.32199 0.57329,0.58115 l 0,-0.66753 0.722503,0 0,3.85204"
             id="path5479" />
          <path
             inkscape:connector-curvature="0"
             d="m 74.752363,108.34783 c -0.387432,1e-5 -0.69371,0.15184 -0.918836,0.45549 -0.225129,0.30105 -0.337692,0.71466 -0.337691,1.24082 -10e-7,0.52618 0.111253,0.94109 0.333765,1.24475 0.225126,0.30104 0.532713,0.45157 0.922762,0.45157 0.384808,0 0.689777,-0.15183 0.914908,-0.4555 0.225124,-0.30365 0.337688,-0.71726 0.337692,-1.24082 -4e-6,-0.52093 -0.112568,-0.93323 -0.337692,-1.23689 -0.225131,-0.30627 -0.5301,-0.45941 -0.914908,-0.45942 m 0,-0.61255 c 0.62826,0 1.121708,0.20419 1.480345,0.61255 0.358629,0.40838 0.537946,0.97381 0.537951,1.69631 -5e-6,0.71989 -0.179322,1.28533 -0.537951,1.69632 -0.358637,0.40837 -0.852085,0.61255 -1.480345,0.61255 -0.630883,0 -1.12564,-0.20418 -1.484273,-0.61255 -0.356016,-0.41099 -0.534024,-0.97643 -0.534024,-1.69632 0,-0.7225 0.178008,-1.28793 0.534024,-1.69631 0.358633,-0.40836 0.85339,-0.61255 1.484273,-0.61255"
             id="path5481" />
          <path
             inkscape:connector-curvature="0"
             d="m 79.668523,108.34783 c -0.387431,1e-5 -0.693709,0.15184 -0.918835,0.45549 -0.225129,0.30105 -0.337693,0.71466 -0.337692,1.24082 -10e-7,0.52618 0.111254,0.94109 0.333765,1.24475 0.225126,0.30104 0.532713,0.45157 0.922762,0.45157 0.384809,0 0.689778,-0.15183 0.914909,-0.4555 0.225124,-0.30365 0.337687,-0.71726 0.337691,-1.24082 -4e-6,-0.52093 -0.112567,-0.93323 -0.337691,-1.23689 -0.225131,-0.30627 -0.5301,-0.45941 -0.914909,-0.45942 m 0,-0.61255 c 0.62826,0 1.121708,0.20419 1.480346,0.61255 0.358629,0.40838 0.537946,0.97381 0.53795,1.69631 -4e-6,0.71989 -0.179321,1.28533 -0.53795,1.69632 -0.358638,0.40837 -0.852086,0.61255 -1.480346,0.61255 -0.630883,0 -1.12564,-0.20418 -1.484272,-0.61255 -0.356017,-0.41099 -0.534024,-0.97643 -0.534024,-1.69632 0,-0.7225 0.178007,-1.28793 0.534024,-1.69631 0.358632,-0.40836 0.853389,-0.61255 1.484272,-0.61255"
             id="path5483" />
          <path
             inkscape:connector-curvature="0"
             d="m 85.774457,109.98917 c -3e-6,-0.52355 -0.10864,-0.9293 -0.325911,-1.21726 -0.21466,-0.28795 -0.517011,-0.43193 -0.907055,-0.43193 -0.387432,0 -0.689783,0.14398 -0.907056,0.43193 -0.214658,0.28796 -0.321986,0.69371 -0.321985,1.21726 -10e-7,0.52094 0.107327,0.92538 0.321985,1.21334 0.217273,0.28795 0.519624,0.43193 0.907056,0.43193 0.390044,0 0.692395,-0.14398 0.907055,-0.43193 0.217271,-0.28796 0.325908,-0.6924 0.325911,-1.21334 m 0.722503,1.70417 c -4e-6,0.74868 -0.166232,1.30495 -0.498684,1.66882 -0.332459,0.36649 -0.841614,0.54973 -1.527465,0.54973 -0.253925,0 -0.49345,-0.0196 -0.718576,-0.0589 -0.225129,-0.0367 -0.443712,-0.0942 -0.65575,-0.17277 l 0,-0.70287 c 0.212038,0.11518 0.421458,0.20026 0.628263,0.25523 0.206802,0.055 0.417532,0.0825 0.63219,0.0825 0.473813,0 0.828519,-0.12434 1.064121,-0.37303 0.235595,-0.24607 0.353395,-0.6191 0.353398,-1.11909 l 0,-0.35733 c -0.149216,0.25916 -0.340312,0.45287 -0.57329,0.58114 -0.232984,0.12827 -0.511775,0.19241 -0.836375,0.19241 -0.539262,0 -0.97381,-0.20549 -1.303647,-0.61648 -0.329839,-0.41099 -0.494758,-0.95549 -0.494757,-1.63349 -10e-7,-0.68061 0.164918,-1.22642 0.494757,-1.63741 0.329837,-0.41098 0.764385,-0.61648 1.303647,-0.61648 0.3246,0 0.603391,0.0641 0.836375,0.1924 0.232978,0.12828 0.424074,0.32199 0.57329,0.58115 l 0,-0.66753 0.722503,0 0,3.85204"
             id="path5485" />
          <path
             inkscape:connector-curvature="0"
             d="m 87.98516,106.12928 0.722503,0 0,6.10986 -0.722503,0 0,-6.10986"
             id="path5487" />
          <path
             inkscape:connector-curvature="0"
             d="m 93.977219,109.85959 0,0.3534 -3.321943,0 c 0.03141,0.49738 0.180624,0.87695 0.447638,1.13873 0.269627,0.25916 0.643967,0.38874 1.12302,0.38874 0.27748,0 0.545801,-0.034 0.804963,-0.1021 0.261772,-0.0681 0.520931,-0.17015 0.777476,-0.30628 l 0,0.68324 c -0.259163,0.10995 -0.524866,0.19372 -0.797109,0.25131 -0.272251,0.0576 -0.548425,0.0864 -0.828523,0.0864 -0.701562,0 -1.257837,-0.20418 -1.668824,-0.61255 -0.408372,-0.40837 -0.612557,-0.96072 -0.612557,-1.65705 0,-0.71988 0.193714,-1.29055 0.581144,-1.71202 0.390045,-0.42407 0.914906,-0.63611 1.574585,-0.63611 0.591611,0 1.058882,0.1911 1.401812,0.57329 0.345541,0.37958 0.518313,0.89658 0.518318,1.55102 m -0.722503,-0.21204 c -0.0052,-0.39528 -0.116494,-0.71072 -0.333765,-0.94632 -0.21466,-0.23559 -0.499996,-0.35339 -0.856009,-0.3534 -0.403138,1e-5 -0.726431,0.11388 -0.969882,0.34162 -0.240835,0.22775 -0.379577,0.54843 -0.416224,0.96203 l 2.57588,-0.004"
             id="path5489" />
          <path
             inkscape:connector-curvature="0"
             d="m 95.265163,111.24177 0.828522,0 0,0.99737 -0.828522,0 0,-0.99737"
             id="path5491" />
          <path
             inkscape:connector-curvature="0"
             d="m 100.88812,108.01014 0,0.67538 c -0.20419,-0.11256 -0.40968,-0.19632 -0.61648,-0.2513 -0.20419,-0.0576 -0.410995,-0.0864 -0.620414,-0.0864 -0.468582,1e-5 -0.83245,0.14922 -1.091607,0.44764 -0.25916,0.29581 -0.388739,0.71204 -0.388738,1.24867 -10e-7,0.53665 0.129578,0.95418 0.388738,1.2526 0.259157,0.29581 0.623025,0.44372 1.091607,0.44372 0.209419,0 0.416224,-0.0275 0.620414,-0.0825 0.2068,-0.0576 0.41229,-0.14267 0.61648,-0.25524 l 0,0.66753 c -0.20157,0.0942 -0.41099,0.16492 -0.62826,0.21204 -0.21466,0.0471 -0.443717,0.0707 -0.687167,0.0707 -0.662296,0 -1.188466,-0.20811 -1.578511,-0.62433 -0.390048,-0.41623 -0.585071,-0.97774 -0.58507,-1.68454 -10e-7,-0.71726 0.196331,-1.28139 0.588996,-1.69238 0.395281,-0.41098 0.935849,-0.61648 1.621705,-0.61648 0.222507,0 0.439777,0.0236 0.651827,0.0707 0.21203,0.0445 0.41753,0.11256 0.61648,0.20418"
             id="path5493" />
          <path
             inkscape:connector-curvature="0"
             d="m 103.85666,108.34783 c -0.38743,1e-5 -0.69371,0.15184 -0.91884,0.45549 -0.22512,0.30105 -0.33769,0.71466 -0.33769,1.24082 0,0.52618 0.11126,0.94109 0.33377,1.24475 0.22512,0.30104 0.53271,0.45157 0.92276,0.45157 0.38481,0 0.68978,-0.15183 0.91491,-0.4555 0.22512,-0.30365 0.33769,-0.71726 0.33769,-1.24082 0,-0.52093 -0.11257,-0.93323 -0.33769,-1.23689 -0.22513,-0.30627 -0.5301,-0.45941 -0.91491,-0.45942 m 0,-0.61255 c 0.62826,0 1.12171,0.20419 1.48035,0.61255 0.35863,0.40838 0.53794,0.97381 0.53795,1.69631 -1e-5,0.71989 -0.17932,1.28533 -0.53795,1.69632 -0.35864,0.40837 -0.85209,0.61255 -1.48035,0.61255 -0.63088,0 -1.12564,-0.20418 -1.48427,-0.61255 -0.35602,-0.41099 -0.53403,-0.97643 -0.53403,-1.69632 0,-0.7225 0.17801,-1.28793 0.53403,-1.69631 0.35863,-0.40836 0.85339,-0.61255 1.48427,-0.61255"
             id="path5495" />
          <path
             inkscape:connector-curvature="0"
             d="m 110.49269,108.68552 c 0.18062,-0.32459 0.39659,-0.56412 0.6479,-0.71857 0.2513,-0.15444 0.54711,-0.23167 0.88742,-0.23167 0.4581,0 0.8115,0.16099 1.06019,0.48297 0.24869,0.31937 0.37303,0.77487 0.37304,1.36648 l 0,2.65441 -0.72643,0 0,-2.63085 c -10e-6,-0.42146 -0.0746,-0.73428 -0.22382,-0.93847 -0.14922,-0.20418 -0.37697,-0.30628 -0.68324,-0.30628 -0.37434,0 -0.67015,0.12435 -0.88742,0.37303 -0.21728,0.24869 -0.32592,0.58769 -0.32591,1.017 l 0,2.48557 -0.72643,0 0,-2.63085 c -1e-5,-0.42408 -0.0746,-0.7369 -0.22382,-0.93847 -0.14922,-0.20418 -0.37958,-0.30628 -0.69109,-0.30628 -0.36911,0 -0.6623,0.12566 -0.87957,0.37696 -0.21727,0.24869 -0.32591,0.58638 -0.32591,1.01307 l 0,2.48557 -0.72643,0 0,-4.39784 0.72643,0 0,0.68323 c 0.16492,-0.26962 0.36256,-0.46857 0.59292,-0.59685 0.23036,-0.12826 0.50392,-0.1924 0.82067,-0.1924 0.31937,0 0.5903,0.0811 0.81282,0.24345 0.22512,0.1623 0.39135,0.3979 0.49868,0.70679"
             id="path5497" />
          <path
             inkscape:connector-curvature="0"
             d="m 116.19026,106.37666 0.66752,0 -2.04185,6.60854 -0.66753,0 2.04186,-6.60854"
             id="path5499" />
          <path
             inkscape:connector-curvature="0"
             d="m 118.32242,111.57946 0,2.33243 -0.72643,0 0,-6.07059 0.72643,0 0,0.66753 c 0.15183,-0.26178 0.34293,-0.45549 0.57329,-0.58115 0.23298,-0.12826 0.51047,-0.1924 0.83245,-0.1924 0.53402,0 0.96726,0.21204 1.29972,0.63611 0.33507,0.42408 0.50261,0.98167 0.50261,1.67275 0,0.6911 -0.16754,1.24868 -0.50261,1.67276 -0.33246,0.42407 -0.7657,0.63611 -1.29972,0.63611 -0.32198,0 -0.59947,-0.0628 -0.83245,-0.18848 -0.23036,-0.12827 -0.42146,-0.32329 -0.57329,-0.58507 m 2.45808,-1.53532 c 0,-0.5314 -0.10995,-0.94762 -0.32983,-1.24867 -0.21728,-0.30366 -0.51702,-0.45549 -0.89921,-0.45549 -0.38219,0 -0.68323,0.15183 -0.90312,0.45549 -0.21728,0.30105 -0.32592,0.71727 -0.32592,1.24867 0,0.53141 0.10864,0.94895 0.32592,1.2526 0.21989,0.30105 0.52093,0.45157 0.90312,0.45157 0.38219,0 0.68193,-0.15052 0.89921,-0.45157 0.21988,-0.30365 0.32983,-0.72119 0.32983,-1.2526"
             id="path5501" />
          <path
             inkscape:connector-curvature="0"
             d="m 125.27651,108.51668 c -0.0812,-0.0471 -0.17016,-0.0811 -0.26701,-0.10209 -0.0942,-0.0236 -0.19895,-0.0353 -0.31413,-0.0353 -0.40838,0 -0.72251,0.13351 -0.9424,0.40051 -0.21727,0.2644 -0.32591,0.64529 -0.32591,1.14266 l 0,2.31672 -0.72643,0 0,-4.39784 0.72643,0 0,0.68323 c 0.15183,-0.26701 0.34947,-0.46465 0.59292,-0.59292 0.24345,-0.13088 0.53926,-0.19633 0.88743,-0.19633 0.0497,0 0.1047,0.004 0.16492,0.0118 0.0602,0.005 0.12695,0.0144 0.20025,0.0275 l 0.004,0.74214"
             id="path5503" />
          <path
             inkscape:connector-curvature="0"
             d="m 127.5736,108.34783 c -0.38743,1e-5 -0.69371,0.15184 -0.91883,0.45549 -0.22513,0.30105 -0.3377,0.71466 -0.33769,1.24082 -1e-5,0.52618 0.11125,0.94109 0.33376,1.24475 0.22513,0.30104 0.53271,0.45157 0.92276,0.45157 0.38481,0 0.68978,-0.15183 0.91491,-0.4555 0.22512,-0.30365 0.33769,-0.71726 0.33769,-1.24082 0,-0.52093 -0.11257,-0.93323 -0.33769,-1.23689 -0.22513,-0.30627 -0.5301,-0.45941 -0.91491,-0.45942 m 0,-0.61255 c 0.62826,0 1.12171,0.20419 1.48035,0.61255 0.35863,0.40838 0.53794,0.97381 0.53795,1.69631 -1e-5,0.71989 -0.17932,1.28533 -0.53795,1.69632 -0.35864,0.40837 -0.85209,0.61255 -1.48035,0.61255 -0.63088,0 -1.12564,-0.20418 -1.48427,-0.61255 -0.35602,-0.41099 -0.53402,-0.97643 -0.53402,-1.69632 0,-0.7225 0.178,-1.28793 0.53402,-1.69631 0.35863,-0.40836 0.85339,-0.61255 1.48427,-0.61255"
             id="path5505" />
          <path
             inkscape:connector-curvature="0"
             d="m 134.33921,107.8413 0,4.39784 -0.72643,0 0,-3.83633 -1.98295,0 0,3.83633 -0.72643,0 0,-3.83633 -0.69109,0 0,-0.56151 0.69109,0 0,-0.30628 c 0,-0.47905 0.11256,-0.83245 0.33769,-1.0602 0.22774,-0.23035 0.57591,-0.34554 1.04449,-0.34554 l 0.72643,0 0,0.60078 -0.69109,0 c -0.25916,0 -0.43979,0.0524 -0.54188,0.15706 -0.0995,0.10472 -0.14921,0.2932 -0.14921,0.56544 l 0,0.38874 2.70938,0 m -0.72643,-1.70417 0.72643,0 0,0.91491 -0.72643,0 0,-0.91491"
             id="path5507" />
          <path
             inkscape:connector-curvature="0"
             d="m 135.85883,106.12928 0.7225,0 0,6.10986 -0.7225,0 0,-6.10986"
             id="path5509" />
          <path
             inkscape:connector-curvature="0"
             d="m 141.85089,109.85959 0,0.3534 -3.32194,0 c 0.0314,0.49738 0.18062,0.87695 0.44764,1.13873 0.26962,0.25916 0.64396,0.38874 1.12302,0.38874 0.27748,0 0.5458,-0.034 0.80496,-0.1021 0.26177,-0.0681 0.52093,-0.17015 0.77748,-0.30628 l 0,0.68324 c -0.25917,0.10995 -0.52487,0.19372 -0.79711,0.25131 -0.27225,0.0576 -0.54843,0.0864 -0.82853,0.0864 -0.70156,0 -1.25783,-0.20418 -1.66882,-0.61255 -0.40837,-0.40837 -0.61256,-0.96072 -0.61256,-1.65705 0,-0.71988 0.19372,-1.29055 0.58115,-1.71202 0.39004,-0.42407 0.9149,-0.63611 1.57458,-0.63611 0.59161,0 1.05888,0.1911 1.40181,0.57329 0.34554,0.37958 0.51832,0.89658 0.51832,1.55102 m -0.7225,-0.21204 c -0.005,-0.39528 -0.1165,-0.71072 -0.33377,-0.94632 -0.21466,-0.23559 -0.49999,-0.35339 -0.85601,-0.3534 -0.40313,1e-5 -0.72643,0.11388 -0.96988,0.34162 -0.24083,0.22775 -0.37957,0.54843 -0.41622,0.96203 l 2.57588,-0.004"
             id="path5511" />
          <path
             inkscape:connector-curvature="0"
             d="m 145.84036,107.97088 0,0.68323 c -0.20419,-0.10471 -0.41623,-0.18324 -0.63612,-0.2356 -0.21989,-0.0524 -0.44764,-0.0785 -0.68323,-0.0785 -0.35864,0 -0.62827,0.055 -0.80889,0.16492 -0.17801,0.10995 -0.26701,0.27487 -0.26701,0.49476 0,0.16754 0.0641,0.29973 0.1924,0.39659 0.12827,0.0942 0.38612,0.18455 0.77355,0.27094 l 0.24738,0.055 c 0.51308,0.10995 0.87695,0.2657 1.09161,0.46727 0.21727,0.19895 0.32591,0.47774 0.32591,0.83638 0,0.40837 -0.16231,0.73166 -0.48691,0.96988 -0.32198,0.23821 -0.76569,0.35732 -1.33113,0.35732 -0.2356,0 -0.48167,-0.0236 -0.73821,-0.0707 -0.25392,-0.0445 -0.52224,-0.11256 -0.80496,-0.20418 l 0,-0.74607 c 0.26701,0.13875 0.5301,0.24346 0.78926,0.31414 0.25915,0.0681 0.51569,0.10209 0.76962,0.10209 0.34031,0 0.60208,-0.0576 0.78533,-0.17277 0.18324,-0.1178 0.27486,-0.28272 0.27486,-0.49476 0,-0.19633 -0.0668,-0.34685 -0.20026,-0.45157 -0.13089,-0.1047 -0.42015,-0.20549 -0.86778,-0.30235 l -0.25131,-0.0589 c -0.44764,-0.0942 -0.77093,-0.23821 -0.96988,-0.43193 -0.19895,-0.19633 -0.29843,-0.46465 -0.29843,-0.80496 0,-0.4136 0.1466,-0.73297 0.43979,-0.9581 0.29319,-0.22513 0.70941,-0.33769 1.24867,-0.33769 0.26701,0 0.51832,0.0196 0.75392,0.0589 0.23559,0.0393 0.45287,0.0982 0.65182,0.1767"
             id="path5513" />
          <path
             inkscape:connector-curvature="0"
             d="m 148.51441,106.37666 0.66752,0 -2.04185,6.60854 -0.66753,0 2.04186,-6.60854"
             id="path5515" />
          <path
             inkscape:connector-curvature="0"
             d="m 152.49603,108.51668 c -0.0811,-0.0471 -0.17016,-0.0811 -0.26701,-0.10209 -0.0942,-0.0236 -0.19895,-0.0353 -0.31413,-0.0353 -0.40837,0 -0.72251,0.13351 -0.9424,0.40051 -0.21727,0.2644 -0.32591,0.64529 -0.32591,1.14266 l 0,2.31672 -0.72643,0 0,-4.39784 0.72643,0 0,0.68323 c 0.15183,-0.26701 0.34947,-0.46465 0.59293,-0.59292 0.24345,-0.13088 0.53925,-0.19633 0.88742,-0.19633 0.0497,0 0.1047,0.004 0.16492,0.0118 0.0602,0.005 0.12695,0.0144 0.20026,0.0275 l 0.004,0.74214"
             id="path5517" />
          <path
             inkscape:connector-curvature="0"
             d="m 153.26173,107.8413 0.7225,0 0,4.39784 -0.7225,0 0,-4.39784 m 0,-1.71202 0.7225,0 0,0.91491 -0.7225,0 0,-0.91491"
             id="path5519" />
          <path
             inkscape:connector-curvature="0"
             d="m 158.65693,108.01014 0,0.67538 c -0.20419,-0.11256 -0.40968,-0.19632 -0.61648,-0.2513 -0.20419,-0.0576 -0.41099,-0.0864 -0.62041,-0.0864 -0.46858,1e-5 -0.83245,0.14922 -1.09161,0.44764 -0.25916,0.29581 -0.38874,0.71204 -0.38874,1.24867 0,0.53665 0.12958,0.95418 0.38874,1.2526 0.25916,0.29581 0.62303,0.44372 1.09161,0.44372 0.20942,0 0.41622,-0.0275 0.62041,-0.0825 0.2068,-0.0576 0.41229,-0.14267 0.61648,-0.25524 l 0,0.66753 c -0.20157,0.0942 -0.41099,0.16492 -0.62826,0.21204 -0.21466,0.0471 -0.44371,0.0707 -0.68716,0.0707 -0.6623,0 -1.18847,-0.20811 -1.57851,-0.62433 -0.39005,-0.41623 -0.58507,-0.97774 -0.58507,-1.68454 0,-0.71726 0.19633,-1.28139 0.58899,-1.69238 0.39528,-0.41098 0.93585,-0.61648 1.62171,-0.61648 0.2225,0 0.43978,0.0236 0.65182,0.0707 0.21204,0.0445 0.41753,0.11256 0.61648,0.20418"
             id="path5521" />
          <path
             inkscape:connector-curvature="0"
             d="m 163.57702,107.8413 -1.59029,2.14002 1.67275,2.25782 -0.85208,0 -1.28008,-1.72772 -1.28009,1.72772 -0.85208,0 1.70809,-2.30101 -1.56281,-2.09683 0.85209,0 1.16621,1.56673 1.16621,-1.56673 0.85208,0"
             id="path5523" />
          <path
             inkscape:connector-curvature="0"
             d="m 166.67907,110.02844 c -0.58376,0 -0.9882,0.0667 -1.21333,0.20026 -0.22513,0.1335 -0.33769,0.36125 -0.33769,0.68323 0,0.25655 0.0838,0.46073 0.2513,0.61256 0.17016,0.14921 0.40052,0.22382 0.69109,0.22382 0.40052,0 0.7212,-0.14136 0.96203,-0.42408 0.24345,-0.28533 0.36518,-0.6636 0.36518,-1.1348 l 0,-0.16099 -0.71858,0 m 1.44108,-0.29843 0,2.50913 -0.7225,0 0,-0.66753 c -0.16492,0.26701 -0.37042,0.46465 -0.61648,0.59292 -0.24608,0.12566 -0.54712,0.18848 -0.90313,0.18848 -0.45026,0 -0.80889,-0.12565 -1.0759,-0.37696 -0.2644,-0.25392 -0.39659,-0.59292 -0.39659,-1.017 0,-0.49475 0.16492,-0.86778 0.49475,-1.11909 0.33246,-0.2513 0.82722,-0.37696 1.48428,-0.37696 l 1.01307,0 0,-0.0707 c 0,-0.33245 -0.10995,-0.58899 -0.32984,-0.76962 -0.21727,-0.18324 -0.52355,-0.27486 -0.91883,-0.27487 -0.25131,1e-5 -0.49607,0.0301 -0.73429,0.0903 -0.23821,0.0602 -0.46727,0.15052 -0.68716,0.27093 l 0,-0.66752 c 0.26439,-0.10209 0.52094,-0.17801 0.76962,-0.22775 0.24869,-0.0524 0.49083,-0.0785 0.72643,-0.0785 0.63612,0 1.11124,0.16492 1.42538,0.49475 0.31412,0.32985 0.47119,0.82984 0.47119,1.49998"
             id="path5525" />
          <path
             inkscape:connector-curvature="0"
             d="m 173.26799,109.58473 0,2.65441 -0.7225,0 0,-2.63085 c -1e-5,-0.41622 -0.0812,-0.72774 -0.24346,-0.93454 -0.1623,-0.2068 -0.40575,-0.31021 -0.73035,-0.31021 -0.39005,0 -0.69764,0.12435 -0.92276,0.37303 -0.22513,0.24869 -0.3377,0.58769 -0.3377,1.017 l 0,2.48557 -0.72643,0 0,-4.39784 0.72643,0 0,0.68323 c 0.17278,-0.26439 0.37565,-0.46203 0.60863,-0.59292 0.2356,-0.13088 0.50654,-0.19633 0.81282,-0.19633 0.50523,0 0.88742,0.15707 1.14658,0.47119 0.25916,0.31152 0.38873,0.77094 0.38874,1.37826"
             id="path5527" />
          <path
             inkscape:connector-curvature="0"
             d="m 177.61085,108.50883 0,-2.37955 0.7225,0 0,6.10986 -0.7225,0 0,-0.65968 c -0.15183,0.26178 -0.34424,0.4568 -0.57722,0.58507 -0.23036,0.12566 -0.50785,0.18848 -0.83245,0.18848 -0.5314,0 -0.96464,-0.21204 -1.29972,-0.63611 -0.33245,-0.42408 -0.49868,-0.98166 -0.49868,-1.67276 0,-0.69108 0.16623,-1.24867 0.49868,-1.67275 0.33508,-0.42407 0.76832,-0.63611 1.29972,-0.63611 0.3246,0 0.60209,0.0641 0.83245,0.1924 0.23298,0.12566 0.42539,0.31937 0.57722,0.58115 m -2.46201,1.53531 c 0,0.53141 0.10864,0.94895 0.32591,1.2526 0.21989,0.30105 0.52094,0.45157 0.90313,0.45157 0.38219,0 0.68324,-0.15052 0.90313,-0.45157 0.21989,-0.30365 0.32984,-0.72119 0.32984,-1.2526 0,-0.5314 -0.10995,-0.94762 -0.32984,-1.24867 -0.21989,-0.30366 -0.52094,-0.45549 -0.90313,-0.45549 -0.38219,0 -0.68324,0.15183 -0.90313,0.45549 -0.21727,0.30105 -0.32591,0.71727 -0.32591,1.24867"
             id="path5529" />
        </g>
      </g>
    </g>
    <g
       id="g3511"
       transform="matrix(5.3747405,0,0,5.3747405,-889.22368,-2350.0006)">
      <path
         inkscape:connector-curvature="0"
         style="fill:#000000;stroke:#000000;stroke-width:0.35433072;stroke-linecap:round;stroke-linejoin:round;stroke-miterlimit:4;stroke-opacity:1;stroke-dasharray:none;stroke-dashoffset:0"
         d="m 295.5991,525.22987 c 3.33946,-12.74867 23.87767,-24.85664 25.90013,-28.19407 0.60576,-0.99963 0.53594,-1.66615 0.30106,-1.95035 -10.1973,-6.45464 -14.04228,-20.54596 -14.04228,-20.54596 0,0 -2.19644,-42.72476 25.55356,-80.47476 -20.15562,-2.35022 -27.86949,-17.7765 -27.86949,-17.7765 -12.36881,13.28159 -27.07399,63.06386 -10.90884,97.07665 1.17987,2.48255 0.38636,4.09087 -0.61926,5.65934 -4.03951,5.745 -31.40321,14.65159 -44.61979,26.85675 -5.44317,16.83721 -13.27013,25.92498 -6.17382,26.1301 12.41834,-0.60652 23.35313,-8.95632 25.71252,-7.56515 3.79384,2.23695 -0.76677,15.09231 6.46221,12.10361 8.42445,-3.48294 16.85485,-9.33851 20.304,-11.31966 z"
         id="path3782"
         sodipodi:nodetypes="csccccscccssc" />
      <path
         sodipodi:nodetypes="cscsccc"
         inkscape:connector-curvature="0"
         id="path3786"
         d="m 249.43192,505.76864 c 0,0 35.88567,-1.76776 41.36574,5.3033 5.48008,7.07107 27.0239,-19.06503 27.0239,-19.06503 0,0 -5.49864,-4.95471 -9.12213,-14.72447 -1.88742,-5.08894 -13.38222,-1.33794 -13.94931,-0.0615 -0.74532,6.46965 -32.20772,16.05848 -45.3182,28.54774 z"
         style="fill:#666666;stroke:#000000;stroke-width:0.35433072;stroke-linecap:round;stroke-linejoin:round;stroke-miterlimit:4;stroke-opacity:1;stroke-dasharray:none;stroke-dashoffset:0" />
      <path
         inkscape:connector-curvature="0"
         style="fill:#333333;stroke:#000000;stroke-width:0.35433072;stroke-linecap:round;stroke-linejoin:round;stroke-miterlimit:4;stroke-opacity:1;stroke-dasharray:none;stroke-dashoffset:0"
         d="m 422.27532,383.21652 c 0,0 5.71492,7.10179 1.73744,11.78637 -3.97748,4.68458 -9.72272,10.16466 -14.93763,9.72272 -5.21491,-0.44194 -1.41421,3.97747 -0.61872,4.24264 0.7955,0.26516 10.65633,7.86656 24.5333,-0.97227 0,0 8.47444,-5.34719 3.97444,-16.47219 -4.5,-11.125 -14.625,-9.5 -14.625,-9.5 l -0.0638,1.19273 -3e-5,0 z"
         id="path3862"
         sodipodi:nodetypes="cssscsccc" />
      <path
         inkscape:connector-curvature="0"
         sodipodi:nodetypes="ccccc"
         id="path3751"
         d="m 229.89277,375.20318 c 6.90894,-5.2906 10.65891,-8.44038 10.65891,-8.44038 0,0 -24.48213,-63.43463 11.26787,-93.43463 -7.77145,-25.82583 -3.32323,-56.5 -3.32323,-56.5 -38.14348,40.95834 -69.3051,104.46225 -18.60355,158.37501 z"
         style="fill:#000000;stroke:#000000;stroke-width:0.35433072;stroke-linecap:round;stroke-linejoin:round;stroke-miterlimit:4;stroke-opacity:1;stroke-dasharray:none;stroke-dashoffset:0" />
      <path
         inkscape:connector-curvature="0"
         sodipodi:nodetypes="cscsc"
         id="path3753"
         d="m 225.63021,378.70187 c 0,0 13.04804,-10.4861 17.88756,-14.2487 3.73353,-2.90273 9.09728,5.4192 7.10854,6.52405 -2.78424,1.4584 -13.84055,7.26732 -21.10854,15.35095 -1.6819,1.87065 -9.11634,-4.01647 -3.88756,-7.6263 z"
         style="fill:#ff0000;stroke:#000000;stroke-width:0.35433072;stroke-linecap:round;stroke-linejoin:round;stroke-miterlimit:4;stroke-opacity:1;stroke-dasharray:none;stroke-dashoffset:0" />
      <path
         inkscape:connector-curvature="0"
         sodipodi:nodetypes="cssscsccc"
         id="path3776"
         d="m 256.56383,383.30491 c 0,0 -5.71492,7.10179 -1.73744,11.78637 3.97748,4.68458 9.72272,10.16466 14.93763,9.72272 5.21491,-0.44194 1.41421,3.97747 0.61872,4.24264 -0.7955,0.26516 -10.65633,7.86656 -24.5333,-0.97227 0,0 -8.47444,-5.34719 -3.97444,-16.47219 4.5,-11.125 14.625,-9.5 14.625,-9.5 l 0.0638,1.19273 3e-5,0 z"
         style="fill:#333333;stroke:#000000;stroke-width:0.35433072;stroke-linecap:round;stroke-linejoin:round;stroke-miterlimit:4;stroke-opacity:1;stroke-dasharray:none;stroke-dashoffset:0" />
      <path
         inkscape:connector-curvature="0"
         sodipodi:nodetypes="ccsccccccccccc"
         id="path3774"
         d="m 225.48146,385.89889 -6.18718,6.62913 c 0,0 -2.65166,3.35876 0.44194,8.3085 3.09359,4.94975 12.37437,21.92031 40.21669,21.74354 1.59099,-2.82843 -0.53033,-3.35876 -0.53033,-3.35876 0,0 -11.93242,-5.03814 -17.58928,-17.85445 -1.06065,-4.24264 0.97228,-7.24784 0.97228,-7.24784 l 7.86656,-10.16466 c 0,0 16.7054,-6.36396 19.79899,17.4125 5.03813,4.24265 7.15945,-0.79549 7.15945,-0.79549 0.44194,-19.26866 -1.32583,-28.8367 -2.34229,-31.9082 -0.97227,-2.05502 -1.37002,-6.18718 -9.23658,-5.92201 -9.45755,0.88388 -15.55635,5.03813 -15.55635,5.03813 l -25.0139,18.11961 z"
         style="fill:#666666;fill-opacity:1;stroke:#000000;stroke-width:0.35433072;stroke-linecap:round;stroke-linejoin:round;stroke-miterlimit:4;stroke-opacity:1;stroke-dasharray:none;stroke-dashoffset:0" />
      <path
         inkscape:connector-curvature="0"
         id="path3784"
         d="m 294.81933,477.2634 c 0,0 6.40816,3.44715 13.96536,0.39775"
         style="fill:none;stroke:#000000;stroke-width:0.35433072;stroke-linecap:round;stroke-linejoin:round;stroke-miterlimit:4;stroke-opacity:1;stroke-dasharray:none;stroke-dashoffset:0" />
      <path
         inkscape:connector-curvature="0"
         sodipodi:nodetypes="cc"
         id="path3788"
         d="m 269.43371,505.97201 c 0,0 -2.12121,14.57767 -0.62121,18.45267"
         style="fill:none;stroke:#000000;stroke-width:0.35433072;stroke-linecap:round;stroke-linejoin:round;stroke-miterlimit:4;stroke-opacity:1;stroke-dasharray:none;stroke-dashoffset:0" />
      <path
         sodipodi:nodetypes="ccccccccc"
         inkscape:connector-curvature="0"
         d="m 250.64616,206.95749 c 90,-19 177.5,0 177.5,0 l 0.0109,-4.1e-4 c 0,0 23.10884,83.67128 -49.72315,130.69388 -26.00924,0 -38.9949,0 -38.9949,0 l -0.11331,0 c 0,0 -12.98566,0 -38.9949,0 -72.83199,-47.0226 -49.72315,-130.69388 -49.72315,-130.69388 l 0.0109,4.1e-4"
         style="fill:#666666;stroke:#000000;stroke-width:0.35433072;stroke-linecap:round;stroke-linejoin:round;stroke-miterlimit:4;stroke-opacity:1;stroke-dasharray:none;stroke-dashoffset:0"
         id="path3815" />
      <path
         inkscape:connector-curvature="0"
         style="fill:#000000;stroke:#000000;stroke-width:0.35433072;stroke-linecap:round;stroke-linejoin:round;stroke-miterlimit:4;stroke-opacity:1;stroke-dasharray:none;stroke-dashoffset:0"
         d="m 448.87194,375.20318 c -6.90894,-5.2906 -10.65891,-8.44038 -10.65891,-8.44038 0,0 24.48213,-63.43463 -11.26787,-93.43463 7.77145,-25.82583 3.32323,-56.5 3.32323,-56.5 38.14348,40.95834 69.3051,104.46225 18.60355,158.37501 z"
         id="path3817"
         sodipodi:nodetypes="ccccc" />
      <path
         inkscape:connector-curvature="0"
         style="fill:#ff0000;stroke:#000000;stroke-width:0.35433072;stroke-linecap:round;stroke-linejoin:round;stroke-miterlimit:4;stroke-opacity:1;stroke-dasharray:none;stroke-dashoffset:0"
         d="m 453.1345,378.70187 c 0,0 -13.04804,-10.4861 -17.88756,-14.2487 -3.73353,-2.90273 -9.09728,5.4192 -7.10854,6.52405 2.78424,1.4584 13.84055,7.26732 21.10854,15.35095 1.6819,1.87065 9.11634,-4.01647 3.88756,-7.6263 z"
         id="path3819"
         sodipodi:nodetypes="cscsc" />
      <path
         inkscape:connector-curvature="0"
         style="fill:#666666;fill-opacity:1;stroke:#000000;stroke-width:0.35433072;stroke-linecap:round;stroke-linejoin:round;stroke-miterlimit:4;stroke-opacity:1;stroke-dasharray:none;stroke-dashoffset:0"
         d="m 453.28325,385.89889 6.18718,6.62913 c 0,0 2.65166,3.35876 -0.44194,8.3085 -3.09359,4.94975 -12.37437,21.92031 -40.21669,21.74354 -1.59099,-2.82843 0.53033,-3.35876 0.53033,-3.35876 0,0 11.93242,-5.03814 17.58928,-17.85445 1.06065,-4.24264 -0.97228,-7.24784 -0.97228,-7.24784 l -7.86656,-10.16466 c 0,0 -16.7054,-6.36396 -19.79899,17.4125 -5.03813,4.24265 -7.15945,-0.79549 -7.15945,-0.79549 -0.44194,-19.26866 1.32583,-28.8367 2.34229,-31.9082 0.97227,-2.05502 1.37002,-6.18718 9.23658,-5.92201 9.45755,0.88388 15.55635,5.03813 15.55635,5.03813 l 25.0139,18.11961 z"
         id="path3823"
         sodipodi:nodetypes="ccsccccccccccc" />
      <path
         inkscape:connector-curvature="0"
         id="path3829"
         style="fill:#ff0000;stroke:#000000;stroke-width:0.35433072;stroke-linecap:round;stroke-linejoin:round;stroke-miterlimit:4;stroke-opacity:1;stroke-dasharray:none;stroke-dashoffset:0"
         d="m 339.31268,362.29919 -39.14306,0 0,0 c 2.91065,15.46648 14.59815,32.02898 39.22315,32.15398 23.45285,0.11256 36.9134,-16.58247 39.20235,-32.15398 l 0,0 -39.28244,0 z"
         sodipodi:nodetypes="ccccccc" />
      <path
         inkscape:connector-curvature="0"
         id="path3827"
         style="fill:#000000;stroke:#000000;stroke-width:0.35433072;stroke-linecap:round;stroke-linejoin:round;stroke-miterlimit:4;stroke-opacity:1;stroke-dasharray:none;stroke-dashoffset:0"
         d="m 364.49694,337.67468 0,24.40349 c 0,0 -4.8125,3.17956 -26,2.24205 m 0.0208,0 c -21.1875,0.93751 -26,-2.24205 -26,-2.24205 l 0,-24.40625 51.98473,-10e-4"
         sodipodi:nodetypes="cccccc" />
      <path
         inkscape:connector-curvature="0"
         sodipodi:nodetypes="csccccscccssc"
         id="path3831"
         d="m 383.16561,525.22987 c -3.33946,-12.74867 -23.87767,-24.85664 -25.90013,-28.19407 -0.60576,-0.99963 -0.53594,-1.66615 -0.30106,-1.95035 10.1973,-6.45464 14.04228,-20.54596 14.04228,-20.54596 0,0 2.19644,-42.72476 -25.55356,-80.47476 20.15562,-2.35022 27.86949,-17.7765 27.86949,-17.7765 12.36881,13.28159 27.07399,63.06386 10.90884,97.07665 -1.17987,2.48255 -0.38636,4.09087 0.61926,5.65934 4.03951,5.745 31.40321,14.65159 44.61979,26.85675 5.44317,16.83721 13.27013,25.92498 6.17382,26.1301 -12.41834,-0.60652 -23.35313,-8.95632 -25.71252,-7.56515 -3.79384,2.23695 0.76677,15.09231 -6.46221,12.10361 -8.42445,-3.48294 -16.85485,-9.33851 -20.304,-11.31966 z"
         style="fill:#000000;stroke:#000000;stroke-width:0.35433072;stroke-linecap:round;stroke-linejoin:round;stroke-miterlimit:4;stroke-opacity:1;stroke-dasharray:none;stroke-dashoffset:0" />
      <path
         style="fill:#666666;stroke:#000000;stroke-width:0.35433072;stroke-linecap:round;stroke-linejoin:round;stroke-miterlimit:4;stroke-opacity:1;stroke-dasharray:none;stroke-dashoffset:0"
         d="m 429.29487,505.76864 c 0,0 -35.88567,-1.76776 -41.36574,5.3033 -5.48008,7.07107 -27.0239,-19.06503 -27.0239,-19.06503 0,0 5.49864,-4.95471 9.12213,-14.72447 1.88742,-5.08894 13.38222,-1.33794 13.94931,-0.0615 0.74532,6.46965 32.20772,16.05848 45.3182,28.54774 z"
         id="path3051"
         inkscape:connector-curvature="0"
         sodipodi:nodetypes="cscsccc" />
      <path
         inkscape:connector-curvature="0"
         style="fill:none;stroke:#000000;stroke-width:0.35433072;stroke-linecap:round;stroke-linejoin:round;stroke-miterlimit:4;stroke-opacity:1;stroke-dasharray:none;stroke-dashoffset:0"
         d="m 383.94538,477.2634 c 0,0 -6.40816,3.44715 -13.96536,0.39775"
         id="path3833" />
      <path
         inkscape:connector-curvature="0"
         style="fill:none;stroke:#000000;stroke-width:0.35433072;stroke-linecap:round;stroke-linejoin:round;stroke-miterlimit:4;stroke-opacity:1;stroke-dasharray:none;stroke-dashoffset:0"
         d="m 429.33279,505.76864 c 0,0 -35.88567,-1.76776 -41.36574,5.3033 -5.48008,7.07107 -26.87006,-19.00349 -26.87006,-19.00349"
         id="path3835" />
      <path
         inkscape:connector-curvature="0"
         style="fill:none;stroke:#000000;stroke-width:0.35433072;stroke-linecap:round;stroke-linejoin:round;stroke-miterlimit:4;stroke-opacity:1;stroke-dasharray:none;stroke-dashoffset:0"
         d="m 409.331,505.97201 c 0,0 2.12121,14.57767 0.62121,18.45267"
         id="path3837"
         sodipodi:nodetypes="cc" />
      <path
         transform="matrix(1.2435229,0,0,1.2324136,107.23242,-56.205219)"
         sodipodi:open="true"
         sodipodi:end="8.3869389"
         sodipodi:start="2.1049171"
         d="m 162.37774,248.09777 a 47.729706,47.729706 0 1 1 0.0478,0.0282"
         sodipodi:ry="47.729706"
         sodipodi:rx="47.729706"
         sodipodi:cy="207.01602"
         sodipodi:cx="186.67619"
         id="path3749"
         style="fill:#b3b3b3;stroke:#000000;stroke-width:0.35433072;stroke-linecap:round;stroke-linejoin:round;stroke-miterlimit:4;stroke-opacity:1;stroke-dasharray:none;stroke-dashoffset:0"
         sodipodi:type="arc" />
      <path
         transform="matrix(0.830539,0,0,0.830539,84.667347,20.293184)"
         sodipodi:open="true"
         sodipodi:end="8.3869389"
         sodipodi:start="2.1049171"
         d="m 267.80876,205.03837 a 15.46796,15.46796 0 1 1 0.0155,0.009"
         sodipodi:ry="15.46796"
         sodipodi:rx="15.46796"
         sodipodi:cy="191.72484"
         sodipodi:cx="275.68326"
         id="path3757"
         style="fill:#666666;stroke:#000000;stroke-width:0.35433072;stroke-linecap:round;stroke-linejoin:round;stroke-miterlimit:4;stroke-opacity:1;stroke-dasharray:none;stroke-dashoffset:0"
         sodipodi:type="arc" />
      <path
         sodipodi:type="arc"
         style="fill:#ff0000;stroke:#000000;stroke-width:0.35433072;stroke-linecap:round;stroke-linejoin:round;stroke-miterlimit:4;stroke-opacity:1;stroke-dasharray:none;stroke-dashoffset:0"
         id="path3759"
         sodipodi:cx="275.68326"
         sodipodi:cy="191.72484"
         sodipodi:rx="15.46796"
         sodipodi:ry="15.46796"
         d="m 267.80876,205.03837 a 15.46796,15.46796 0 1 1 0.0155,0.009"
         sodipodi:start="2.1049171"
         sodipodi:end="8.3869389"
         sodipodi:open="true"
         transform="matrix(0.5594014,0,0,0.5594014,159.41544,72.276996)" />
      <path
         transform="matrix(0.830539,0,0,0.830539,136.13836,20.293184)"
         sodipodi:open="true"
         sodipodi:end="8.3869389"
         sodipodi:start="2.1049171"
         d="m 267.80876,205.03837 a 15.46796,15.46796 0 1 1 0.0155,0.009"
         sodipodi:ry="15.46796"
         sodipodi:rx="15.46796"
         sodipodi:cy="191.72484"
         sodipodi:cx="275.68326"
         id="path3761"
         style="fill:#666666;stroke:#000000;stroke-width:0.35433072;stroke-linecap:round;stroke-linejoin:round;stroke-miterlimit:4;stroke-opacity:1;stroke-dasharray:none;stroke-dashoffset:0"
         sodipodi:type="arc" />
      <path
         sodipodi:type="arc"
         style="fill:#ff0000;stroke:#000000;stroke-width:0.35433072;stroke-linecap:round;stroke-linejoin:round;stroke-miterlimit:4;stroke-opacity:1;stroke-dasharray:none;stroke-dashoffset:0"
         id="path3763"
         sodipodi:cx="275.68326"
         sodipodi:cy="191.72484"
         sodipodi:rx="15.46796"
         sodipodi:ry="15.46796"
         d="m 267.80876,205.03837 a 15.46796,15.46796 0 1 1 0.0155,0.009"
         sodipodi:start="2.1049171"
         sodipodi:end="8.3869389"
         sodipodi:open="true"
         transform="matrix(0.5594014,0,0,0.5594014,210.88645,72.276996)" />
      <path
         inkscape:connector-curvature="0"
         id="path3765"
         d="m 313.11742,170.87655 c -2.77269,0.16665 -5.41699,1.67925 -6.9375,4.25 -0.0435,0.0735 -0.084,0.14451 -0.125,0.21875 l 15.15625,0 c -0.72129,-1.31239 -1.77391,-2.43239 -3.15625,-3.25 -1.54245,-0.91231 -3.27389,-1.31874 -4.9375,-1.21875 z"
         style="fill:#000000;stroke:#000000;stroke-width:0.1982131;stroke-linecap:round;stroke-linejoin:round;stroke-miterlimit:4;stroke-opacity:1;stroke-dasharray:none;stroke-dashoffset:0" />
      <path
         inkscape:connector-curvature="0"
         style="fill:#000000;stroke:#000000;stroke-width:0.1982131;stroke-linecap:round;stroke-linejoin:round;stroke-miterlimit:4;stroke-opacity:1;stroke-dasharray:none;stroke-dashoffset:0"
         d="m 364.58843,170.87655 c -2.77269,0.16665 -5.41699,1.67925 -6.9375,4.25 -0.0435,0.0735 -0.084,0.14451 -0.125,0.21875 l 15.15625,0 c -0.72129,-1.31239 -1.77391,-2.43239 -3.15625,-3.25 -1.54245,-0.91231 -3.27389,-1.31874 -4.9375,-1.21875 z"
         id="path3767" />
      <path
         inkscape:connector-curvature="0"
         sodipodi:nodetypes="ccccccccc"
         id="path3769"
         d="m 323.82999,218.33864 c 16.24916,4.16888 31.07712,0 31.07712,0 1.36474,0 2.46343,1.09869 2.46343,2.46343 l 0,13.07513 c 0,1.36474 -1.09869,2.46343 -2.46343,2.46343 0,0 -15.30169,-3.45828 -31.07712,0 -1.36474,0 -2.46343,-1.09869 -2.46343,-2.46343 l 0,-13.07513 c 0,-1.36474 1.09869,-2.46343 2.46343,-2.46343 z"
         style="fill:#666666;stroke:#000000;stroke-width:0.18991126;stroke-linecap:round;stroke-linejoin:round;stroke-miterlimit:4;stroke-opacity:1;stroke-dashoffset:0" />
      <path
         inkscape:connector-curvature="0"
         sodipodi:nodetypes="ccccscc"
         id="path3854"
         d="m 308.8127,477.62543 c 0,0 -0.47397,-1.07919 -1.03769,-3.04438 -0.46908,-9.68966 1.61473,-48.30288 25.53656,-80.51632 -20.15562,-2.35022 -27.86949,-17.7765 -27.86949,-17.7765 -12.42495,13.83959 -27.19171,61.62297 -10.7478,97.45916 0.52282,1.13939 0.62596,2.28051 0.12622,3.46238 3.01938,1.69499 8.99841,2.57798 13.9922,0.41566 z"
         style="fill:#000000;stroke:#000000;stroke-width:0.35433072;stroke-linecap:round;stroke-linejoin:round;stroke-miterlimit:4;stroke-opacity:1;stroke-dasharray:none;stroke-dashoffset:0" />
      <path
         inkscape:connector-curvature="0"
         style="fill:#000000;stroke:#000000;stroke-width:0.35433072;stroke-linecap:round;stroke-linejoin:round;stroke-miterlimit:4;stroke-opacity:1;stroke-dasharray:none;stroke-dashoffset:0"
         d="m 369.89514,477.62543 c 0,0 0.47397,-1.07919 1.03769,-3.04438 0.46908,-9.68966 -1.61473,-48.30288 -25.53656,-80.51632 20.15562,-2.35022 27.86949,-17.7765 27.86949,-17.7765 12.42495,13.83959 27.19171,61.62297 10.7478,97.45916 -0.52282,1.13939 -0.62596,2.28051 -0.12622,3.46238 -3.01938,1.69499 -8.99841,2.57798 -13.9922,0.41566 z"
         id="path3864"
         sodipodi:nodetypes="ccccscc" />
    </g>
  </g>
</svg>
