<?xml version="1.0" encoding="UTF-8" standalone="no"?>
<!-- Created with Inkscape (http://www.inkscape.org/) -->

<svg
   xmlns:dc="http://purl.org/dc/elements/1.1/"
   xmlns:cc="http://creativecommons.org/ns#"
   xmlns:rdf="http://www.w3.org/1999/02/22-rdf-syntax-ns#"
   xmlns:svg="http://www.w3.org/2000/svg"
   xmlns="http://www.w3.org/2000/svg"
   xmlns:xlink="http://www.w3.org/1999/xlink"
   xmlns:sodipodi="http://sodipodi.sourceforge.net/DTD/sodipodi-0.dtd"
   xmlns:inkscape="http://www.inkscape.org/namespaces/inkscape"
   width="210mm"
   height="297mm"
   id="svg3161"
   version="1.1"
   inkscape:version="0.48.1 "
   sodipodi:docname="robot_green_black_white_line_art_coloring_book_colouring.svg">
  <defs
     id="defs3">
    <linearGradient
       inkscape:collect="always"
       xlink:href="#linearGradient3241"
       id="linearGradient3942"
       gradientUnits="userSpaceOnUse"
       x1="502.04581"
       y1="736.18445"
       x2="538.41132"
       y2="783.66162" />
    <linearGradient
       inkscape:collect="always"
       id="linearGradient3241">
      <stop
         style="stop-color:#222b00;stop-opacity:1;"
         offset="0"
         id="stop3243" />
      <stop
         style="stop-color:#222b00;stop-opacity:0;"
         offset="1"
         id="stop3245" />
    </linearGradient>
    <filter
       color-interpolation-filters="sRGB"
       inkscape:collect="always"
       id="filter3237"
       x="-0.16270667"
       width="1.3254133"
       y="-0.093638502"
       height="1.187277">
      <feGaussianBlur
         inkscape:collect="always"
         stdDeviation="5.723858"
         id="feGaussianBlur3239" />
    </filter>
    <linearGradient
       inkscape:collect="always"
       xlink:href="#linearGradient3279"
       id="linearGradient3944"
       gradientUnits="userSpaceOnUse"
       x1="414.28571"
       y1="446.64789"
       x2="388.57144"
       y2="691.64789" />
    <linearGradient
       inkscape:collect="always"
       id="linearGradient3279">
      <stop
         style="stop-color:#668000;stop-opacity:1;"
         offset="0"
         id="stop3281" />
      <stop
         style="stop-color:#668000;stop-opacity:0;"
         offset="1"
         id="stop3283" />
    </linearGradient>
    <filter
       color-interpolation-filters="sRGB"
       inkscape:collect="always"
       id="filter3275"
       x="-0.18233159"
       width="1.3646632"
       y="-0.060245246"
       height="1.1204906">
      <feGaussianBlur
         inkscape:collect="always"
         stdDeviation="4.8213575"
         id="feGaussianBlur3277" />
    </filter>
    <filter
       color-interpolation-filters="sRGB"
       inkscape:collect="always"
       id="filter3553"
       x="-0.62319374"
       width="2.2463875"
       y="-0.31544375"
       height="1.6308875">
      <feGaussianBlur
         inkscape:collect="always"
         stdDeviation="7.6044476"
         id="feGaussianBlur3555" />
    </filter>
    <linearGradient
       inkscape:collect="always"
       xlink:href="#linearGradient3685"
       id="linearGradient3946"
       gradientUnits="userSpaceOnUse"
       x1="495.47983"
       y1="921.0423"
       x2="457.59909"
       y2="980.13629" />
    <linearGradient
       inkscape:collect="always"
       id="linearGradient3685">
      <stop
         style="stop-color:#222b00;stop-opacity:1;"
         offset="0"
         id="stop3687" />
      <stop
         style="stop-color:#222b00;stop-opacity:0;"
         offset="1"
         id="stop3689" />
    </linearGradient>
    <filter
       color-interpolation-filters="sRGB"
       inkscape:collect="always"
       id="filter3681"
       x="-0.21689971"
       width="1.4337994"
       y="-0.27726725"
       height="1.5545346">
      <feGaussianBlur
         inkscape:collect="always"
         stdDeviation="6.527407"
         id="feGaussianBlur3683" />
    </filter>
    <linearGradient
       inkscape:collect="always"
       xlink:href="#linearGradient3241"
       id="linearGradient3331"
       gradientUnits="userSpaceOnUse"
       x1="502.04581"
       y1="736.18445"
       x2="538.41132"
       y2="783.66162" />
    <linearGradient
       inkscape:collect="always"
       xlink:href="#linearGradient3279"
       id="linearGradient3333"
       gradientUnits="userSpaceOnUse"
       x1="414.28571"
       y1="446.64789"
       x2="388.57144"
       y2="691.64789" />
    <linearGradient
       inkscape:collect="always"
       xlink:href="#linearGradient3685"
       id="linearGradient3335"
       gradientUnits="userSpaceOnUse"
       x1="495.47983"
       y1="921.0423"
       x2="457.59909"
       y2="980.13629" />
    <linearGradient
       inkscape:collect="always"
       xlink:href="#linearGradient3241"
       id="linearGradient3048"
       gradientUnits="userSpaceOnUse"
       x1="502.04581"
       y1="736.18445"
       x2="538.41132"
       y2="783.66162" />
    <linearGradient
       inkscape:collect="always"
       xlink:href="#linearGradient3279"
       id="linearGradient3050"
       gradientUnits="userSpaceOnUse"
       x1="414.28571"
       y1="446.64789"
       x2="388.57144"
       y2="691.64789" />
    <linearGradient
       inkscape:collect="always"
       xlink:href="#linearGradient3685"
       id="linearGradient3052"
       gradientUnits="userSpaceOnUse"
       x1="495.47983"
       y1="921.0423"
       x2="457.59909"
       y2="980.13629" />
  </defs>
  <sodipodi:namedview
     inkscape:document-units="mm"
     id="base"
     pagecolor="#ffffff"
     bordercolor="#666666"
     borderopacity="1.0"
     inkscape:pageopacity="0.0"
     inkscape:pageshadow="2"
     inkscape:zoom="0.7"
     inkscape:cx="529.12254"
     inkscape:cy="748.7584"
     inkscape:current-layer="layer1"
     showgrid="false"
     inkscape:window-width="1181"
     inkscape:window-height="686"
     inkscape:window-x="595"
     inkscape:window-y="162"
     inkscape:window-maximized="0" />
  <metadata
     id="metadata4">
    <rdf:RDF>
      <cc:Work
         rdf:about="">
        <dc:format>image/svg+xml</dc:format>
        <dc:type
           rdf:resource="http://purl.org/dc/dcmitype/StillImage" />
        <dc:title />
      </cc:Work>
    </rdf:RDF>
  </metadata>
  <g
     inkscape:label="Layer 1"
     inkscape:groupmode="layer"
     id="layer1">
    <path
       style="fill:#ffffff;fill-rule:evenodd;stroke:#000000"
       d="m 383.50289,358.25111 c 0,0 -18.9253,-41.29156 10.32288,-103.22889 C 450.06418,135.92908 471.24745,86.415036 409.31012,45.123482 347.37278,3.831927 280.67344,57.028472 226.93906,191.36441 185.6475,294.5933 213.17522,373.73545 213.17522,373.73545 c 0,0 79.14214,79.14214 170.32767,-15.48434 z"
       id="path2383"
       sodipodi:nodetypes="cssscc"
       inkscape:connector-curvature="0" />
    <path
       inkscape:transform-center-y="74.788215"
       inkscape:transform-center-x="9.343145"
       id="path3293"
       d="m 417.32456,580.58508 -31.43465,243.81824 -13.67125,-2.3453 32.99668,-240.30253 12.10922,-1.17041 z"
       style="fill:#222b00;fill-opacity:1;fill-rule:evenodd;stroke:none"
       inkscape:connector-curvature="0" />
    <path
       style="fill:#ffffff;fill-rule:evenodd;stroke:#000000"
       d="m 366.12075,460.51234 c 8.41461,-12.88405 127.00298,-19.98001 159.93593,9.79949 32.93294,29.77948 79.07826,80.13481 75.52759,110.89926 -3.55067,30.76444 -80.53068,127.52586 -135.74995,155.79078 -55.21927,28.26492 -119.77192,17.35076 -137.51991,-8.94425 -17.748,-26.29501 2.4424,-213.39777 37.80634,-267.54528 z"
       id="path2395"
       sodipodi:nodetypes="csssss"
       inkscape:connector-curvature="0" />
    <path
       style="opacity:0.80769228;fill:#808080;fill-opacity:1;fill-rule:evenodd;stroke:none;filter:url(#filter3237)"
       d="m 506.08643,834.16923 c 0,0 -39.39595,26.26397 -34.34519,6.06092 5.05076,-20.20305 21.2132,-149.50258 43.43656,-138.3909 22.22335,11.11168 42.42641,27.27412 40.4061,44.44671 -2.02031,17.17259 -22.22336,58.58885 -49.49747,87.88327 z"
       id="path2397"
       transform="matrix(1.6919581,0.19527718,-0.19527718,1.6919581,-223.30558,-795.41859)"
       inkscape:connector-curvature="0" />
    <path
       style="fill:#000000;fill-opacity:1;fill-rule:evenodd;stroke:none"
       d="m 346.19201,288.89211 130.75659,208.17827 -12.04335,6.88192 -127.31564,-206.45777 8.6024,-8.60242 z"
       id="path2389"
       inkscape:connector-curvature="0" />
    <path
       id="path2393"
       d="m 385.22337,292.87281 106.66984,172.04816 -12.04336,6.88192 -103.22888,-170.32766 8.6024,-8.60242 z"
       style="fill:#000000;fill-opacity:1;fill-rule:evenodd;stroke:none"
       sodipodi:nodetypes="ccccc"
       inkscape:connector-curvature="0" />
    <path
       style="fill:#ffffff;fill-rule:evenodd;stroke:#000000"
       d="m 337.04989,394.38121 c 0,0 -82.58311,89.46506 -139.35901,89.46506 -56.77588,0 -12.04336,-39.57108 6.88192,-55.05543 18.9253,-15.48433 48.1735,-34.40963 48.1735,-34.40963 l -13.76385,-6.88192 c 0,0 -61.93735,43.01205 -80.86263,63.65782 -18.9253,20.64578 -10.3229,39.57108 0,63.65781 10.32288,24.08675 25.80721,72.26023 67.09876,75.70119 41.29157,3.44097 158.28431,-91.18552 180.65057,-118.71322 22.36627,-27.5277 5.16144,-68.81926 -6.88193,-89.46503 -12.04337,-20.64578 -15.48433,-61.93735 -39.57108,-34.40965 -24.08673,27.52772 -32.68915,12.04338 -22.36625,46.453 z"
       id="path2385"
       inkscape:connector-curvature="0" />
    <path
       sodipodi:type="arc"
       style="fill:#ffffff;fill-opacity:1;stroke:#000000"
       id="path2387"
       sodipodi:cx="415.1727"
       sodipodi:cy="559.91284"
       sodipodi:rx="18.182745"
       sodipodi:ry="24.748737"
       d="m 433.35544,559.91284 a 18.182745,24.748737 0 1 1 -36.36549,0 18.182745,24.748737 0 1 1 36.36549,0 z"
       transform="matrix(1.6476207,0.4315108,-0.4315108,1.6476207,-67.538216,-823.42672)" />
    <path
       sodipodi:type="arc"
       style="opacity:0.80769228000000004;fill:#cccccc;fill-opacity:1;stroke:none"
       id="path3287"
       sodipodi:cx="351.07144"
       sodipodi:cy="537.7193"
       sodipodi:rx="14.642858"
       sodipodi:ry="28.928572"
       d="m 365.7143,537.7193 a 14.642858,28.928572 0 1 1 -29.28572,0 14.642858,28.928572 0 1 1 29.28572,0 z"
       transform="matrix(1.7031898,0,0,1.7031898,-332.21742,-675.38908)" />
    <path
       transform="matrix(1.2065502,0.4315108,-0.31599468,1.6476207,183.50878,-502.25377)"
       d="m 433.35544,559.91284 a 18.182745,24.748737 0 1 1 -36.36549,0 18.182745,24.748737 0 1 1 36.36549,0 z"
       sodipodi:ry="24.748737"
       sodipodi:rx="18.182745"
       sodipodi:cy="559.91284"
       sodipodi:cx="415.1727"
       id="path3289"
       style="fill:#222b00;fill-opacity:1;stroke:none"
       sodipodi:type="arc" />
    <path
       style="fill:#222b00;fill-opacity:1;fill-rule:evenodd;stroke:none"
       d="m 519.51595,595.18385 -31.43465,243.81825 -13.67125,-2.34531 32.99668,-240.30252 12.10922,-1.17042 z"
       id="path3291"
       inkscape:transform-center-x="9.343145"
       inkscape:transform-center-y="74.788215"
       inkscape:connector-curvature="0" />
    <path
       id="path3297"
       d="m 405.02045,820.14181 -53.52882,2.43312 c 0,0 -58.39508,19.46503 -90.02575,68.1276 -31.63067,48.66256 -31.63067,75.42696 -31.63067,75.42696 0,0 158.15334,7.2994 204.38278,-34.06379 46.22944,-41.36317 -26.7644,-114.35702 -29.19754,-111.92389 z"
       style="fill:#ffffff;fill-rule:evenodd;stroke:#000000"
       inkscape:connector-curvature="0" />
    <path
       style="fill:#ffffff;fill-rule:evenodd;stroke:#000000"
       d="m 512.07809,832.30745 -53.52882,2.43313 c 0,0 -58.39508,19.46502 -90.02575,68.12759 -31.63067,48.66257 -31.63067,75.42697 -31.63067,75.42697 0,0 152.13166,30.52586 204.38278,-34.06379 39.01482,-48.22777 -26.7644,-114.35702 -29.19754,-111.9239 z"
       id="path3295"
       sodipodi:nodetypes="ccscsc"
       inkscape:connector-curvature="0" />
    <path
       style="fill:none;stroke:#445500;stroke-width:1.70318985px;stroke-linecap:butt;stroke-linejoin:miter;stroke-opacity:1"
       d="m 206.72049,584.12836 c 0,0 -27.98097,-45.01287 -27.98097,-60.82821 0,-15.81533 9.73252,-40.14661 9.73252,-40.14661"
       id="path3299"
       inkscape:connector-curvature="0" />
    <path
       d="m 365.7143,537.7193 a 14.642858,28.928572 0 1 1 -29.28572,0 14.642858,28.928572 0 1 1 29.28572,0 z"
       sodipodi:ry="28.928572"
       sodipodi:rx="14.642858"
       sodipodi:cy="537.7193"
       sodipodi:cx="351.07144"
       id="path3321"
       style="opacity:0.80769228000000004;fill:#666666;fill-opacity:1;stroke:none"
       sodipodi:type="arc"
       transform="matrix(1.0385304,0,0,1.0385304,-104.95729,-319.20546)" />
    <path
       sodipodi:type="arc"
       style="fill:#222b00;fill-opacity:1;stroke:none"
       id="path3557"
       sodipodi:cx="346.60715"
       sodipodi:cy="537.36218"
       sodipodi:rx="2.3214285"
       sodipodi:ry="6.7857141"
       d="m 348.92858,537.36218 a 2.3214285,6.7857141 0 1 1 -4.64286,0 2.3214285,6.7857141 0 1 1 4.64286,0 z"
       transform="matrix(1.7031898,0,0,1.7031898,-332.21742,-675.38908)" />
    <path
       sodipodi:type="arc"
       style="fill:#ffffff;fill-opacity:1;stroke:#000000"
       id="path3855"
       sodipodi:cx="411.13208"
       sodipodi:cy="810.25513"
       sodipodi:rx="7.0710678"
       sodipodi:ry="11.441228"
       d="m 418.20315,810.25513 a 7.0710678,11.441228 0 1 1 -14.14214,0 7.0710678,11.441228 0 1 1 14.14214,0 z"
       transform="matrix(1.7031898,0,0,1.7031898,-332.21742,-675.38908)" />
  </g>
</svg>
