<?xml version="1.0" encoding="UTF-8" standalone="no"?>
<!-- Created with Inkscape (http://www.inkscape.org/) -->
<svg
   xmlns:dc="http://purl.org/dc/elements/1.1/"
   xmlns:cc="http://web.resource.org/cc/"
   xmlns:rdf="http://www.w3.org/1999/02/22-rdf-syntax-ns#"
   xmlns:svg="http://www.w3.org/2000/svg"
   xmlns="http://www.w3.org/2000/svg"
   xmlns:sodipodi="http://sodipodi.sourceforge.net/DTD/sodipodi-0.dtd"
   xmlns:inkscape="http://www.inkscape.org/namespaces/inkscape"
   width="1127"
   height="349"
   id="svg1906"
   sodipodi:version="0.32"
   inkscape:version="0.44.1"
   version="1.0"
   sodipodi:docbase="/home/lok/pygameLesson/racingKiller/data"
   sodipodi:docname="robot.svg">
  <defs
     id="defs1908" />
  <sodipodi:namedview
     id="base"
     pagecolor="#ffffff"
     bordercolor="#666666"
     borderopacity="1.0"
     gridtolerance="10000"
     guidetolerance="10"
     objecttolerance="10"
     inkscape:pageopacity="0.0"
     inkscape:pageshadow="2"
     inkscape:zoom="0.5"
     inkscape:cx="375"
     inkscape:cy="280"
     inkscape:document-units="px"
     inkscape:current-layer="layer1"
     inkscape:window-width="1024"
     inkscape:window-height="693"
     inkscape:window-x="0"
     inkscape:window-y="25" />
  <metadata
     id="metadata1911">
    <rdf:RDF>
      <cc:Work
         rdf:about="">
        <dc:format>image/svg+xml</dc:format>
        <dc:type
           rdf:resource="http://purl.org/dc/dcmitype/StillImage" />
      </cc:Work>
    </rdf:RDF>
  </metadata>
  <g
     inkscape:label="Layer 1"
     inkscape:groupmode="layer"
     id="layer1"
     transform="translate(162.5,-137.8622)">
    <g
       id="g1933"
       transform="translate(-26,12)">
      <path
         sodipodi:nodetypes="ccczczczczczczczccc"
         id="path1931"
         d="M 262.13711,285.7382 L 439.99685,126.49929 L 609.86289,298.73729 C 609.86289,298.73729 557.87077,404.60924 589.87865,386.48118 C 621.06569,368.81802 569.89441,474.22507 569.89441,474.22507 C 569.89441,474.22507 507.89896,469.99934 548.91096,399.48028 C 590.41923,328.10789 527.92751,324.73549 527.92751,324.73549 C 527.92751,324.73549 472.96402,358.83138 503.94642,399.48028 C 533.95587,438.85267 479.96532,474.22507 479.96532,474.22507 C 479.96532,474.22507 497.47517,344.41534 456.98503,416.60561 C 417.34531,487.27965 430.00473,314.98616 430.00473,314.98616 C 430.00473,314.98616 445.13251,364.08696 395.0197,397.35584 C 343.52719,431.54069 392.03468,467.72553 392.03468,467.72553 C 392.03468,467.72553 282.54374,447.04114 365.0528,368.35675 C 446.52056,290.66539 346.07092,288.98797 346.07092,288.98797 C 346.07092,288.98797 306.08037,323.23503 322.08983,373.48209 C 338.6788,425.54804 298.10873,457.97621 298.10873,457.97621 L 280.12292,371.85721 L 262.13711,285.7382 z "
         style="fill:#d40000;fill-rule:evenodd;stroke:black;stroke-width:1.27420831px;stroke-linecap:butt;stroke-linejoin:miter;stroke-opacity:1" />
      <g
         id="g1922">
        <path
           sodipodi:type="arc"
           style="fill:navy;fill-opacity:1"
           id="path1916"
           sodipodi:cx="421.42856"
           sodipodi:cy="249.50504"
           sodipodi:rx="138.57143"
           sodipodi:ry="105.71429"
           d="M 559.99998,249.50504 A 138.57143,105.71429 0 1 1 559.99989,249.38268"
           sodipodi:start="0"
           sodipodi:end="6.2820279"
           sodipodi:open="true"
           transform="matrix(1.082474,0,0,0.945946,-23.32843,19.20105)" />
        <path
           sodipodi:type="arc"
           style="fill:yellow;fill-opacity:1"
           id="path1918"
           sodipodi:cx="-397.14285"
           sodipodi:cy="135.21933"
           sodipodi:rx="62.857143"
           sodipodi:ry="71.428574"
           d="M -334.28571,135.21933 A 62.857143,71.428574 0 1 1 -334.28575,135.13666"
           sodipodi:start="0"
           sodipodi:end="6.2820279"
           sodipodi:open="true"
           transform="matrix(0.795455,0,0,1.05,693.9091,113.239)" />
        <path
           sodipodi:type="arc"
           style="fill:yellow;fill-opacity:1"
           id="path1920"
           sodipodi:cx="-397.14285"
           sodipodi:cy="135.21933"
           sodipodi:rx="62.857143"
           sodipodi:ry="71.428574"
           d="M -334.28571,135.21933 A 62.857143,71.428574 0 1 1 -334.28572,135.17591 L -397.14285,135.21933 z"
           sodipodi:start="0"
           sodipodi:end="6.2825774"
           transform="matrix(0.795455,0,0,1.05,799.9093,113.239)" />
      </g>
    </g>
    <g
       id="g1957"
       transform="translate(-438,-362)">
      <path
         sodipodi:nodetypes="ccczczczccczcsczc"
         id="path1942"
         d="M 276.13711,659.7382 L 453.99685,500.49929 L 623.86289,672.73729 C 623.86289,672.73729 626.59264,759.47745 603.87865,760.48118 C 581.16466,761.48491 583.87041,848.24907 583.89441,848.22507 C 583.89441,848.22507 531.10948,830.6841 560.61776,765.31171 C 589.79715,700.66793 541.92751,698.73549 541.92751,698.73549 C 541.92751,698.73549 496.27855,726.84311 517.94642,773.48028 C 539.95587,820.85267 477.96532,840.22507 477.96532,840.22507 L 444.00473,688.98616 L 444.03468,805.72553 C 444.03468,805.72553 394.54374,797.04114 383.0528,752.35675 C 371.56186,707.67236 360.07092,662.98797 360.07092,662.98797 C 360.07092,662.98797 295.77297,742.47152 344.28242,740.21858 C 386.13005,738.27504 346.10873,829.97621 346.10873,829.97621 C 346.10873,829.97621 327.11583,756.91671 304.12292,749.85721 C 282.95028,743.35658 276.13711,659.7382 276.13711,659.7382 z "
         style="fill:#d40000;fill-opacity:1;fill-rule:evenodd;stroke:black;stroke-width:1.27420831px;stroke-linecap:butt;stroke-linejoin:miter;stroke-opacity:1" />
      <g
         transform="translate(14,374)"
         id="g1944">
        <path
           sodipodi:type="arc"
           style="fill:navy;fill-opacity:1"
           id="path1946"
           sodipodi:cx="421.42856"
           sodipodi:cy="249.50504"
           sodipodi:rx="138.57143"
           sodipodi:ry="105.71429"
           d="M 559.99998,249.50504 A 138.57143,105.71429 0 1 1 559.99989,249.38268"
           sodipodi:start="0"
           sodipodi:end="6.2820279"
           sodipodi:open="true"
           transform="matrix(1.082474,0,0,0.945946,-23.32843,19.20105)" />
        <path
           sodipodi:type="arc"
           style="fill:yellow;fill-opacity:1"
           id="path1948"
           sodipodi:cx="-397.14285"
           sodipodi:cy="135.21933"
           sodipodi:rx="62.857143"
           sodipodi:ry="71.428574"
           d="M -334.28571,135.21933 A 62.857143,71.428574 0 1 1 -334.28575,135.13666"
           sodipodi:start="0"
           sodipodi:end="6.2820279"
           sodipodi:open="true"
           transform="matrix(0.795455,0,0,1.05,693.9091,113.239)" />
        <path
           sodipodi:type="arc"
           style="fill:yellow;fill-opacity:1"
           id="path1950"
           sodipodi:cx="-397.14285"
           sodipodi:cy="135.21933"
           sodipodi:rx="62.857143"
           sodipodi:ry="71.428574"
           d="M -334.28571,135.21933 A 62.857143,71.428574 0 1 1 -334.28572,135.17591 L -397.14285,135.21933 z"
           sodipodi:start="0"
           sodipodi:end="6.2825774"
           transform="matrix(0.795455,0,0,1.05,799.9093,113.239)" />
      </g>
    </g>
    <g
       id="g1964"
       transform="translate(354,12)">
      <path
         sodipodi:nodetypes="ccczczczczczczczczc"
         id="path1966"
         d="M 266.13711,291.7382 L 439.99685,126.49929 L 609.86289,298.73729 C 609.86289,298.73729 553.87077,358.60924 589.87865,386.48118 C 624.64935,413.39548 569.89441,474.22507 569.89441,474.22507 C 569.89441,474.22507 519.40269,456.85267 548.91096,399.48028 C 578.01222,342.89924 527.92751,324.73549 527.92751,324.73549 C 519.93381,349.65042 475.93697,378.10789 503.94642,399.48028 C 532.94795,421.60967 487.95902,449.31014 479.96532,474.22507 C 479.96532,474.22507 431.00726,407.58594 454.98502,394.60561 C 480.49487,380.79588 430.00473,314.98616 430.00473,314.98616 C 430.00473,314.98616 369.08641,326.06503 411.0197,391.35584 C 453.52719,457.54068 392.03468,467.72553 392.03468,467.72553 C 392.03468,467.72553 348.54374,429.04114 369.0528,378.35675 C 388.86844,329.38603 346.07092,288.98797 346.07092,288.98797 C 346.07092,288.98797 298.64101,291.73315 300.08983,339.48209 C 301.59928,389.22915 344.10873,423.97621 344.10873,423.97621 C 344.10873,423.97621 310.61582,422.41671 280.12292,371.85721 C 250.5097,322.75629 266.13711,291.7382 266.13711,291.7382 z "
         style="fill:#d40000;fill-rule:evenodd;stroke:black;stroke-width:1.27420831px;stroke-linecap:butt;stroke-linejoin:miter;stroke-opacity:1" />
      <g
         id="g1968">
        <path
           sodipodi:type="arc"
           style="fill:navy;fill-opacity:1"
           id="path1970"
           sodipodi:cx="421.42856"
           sodipodi:cy="249.50504"
           sodipodi:rx="138.57143"
           sodipodi:ry="105.71429"
           d="M 559.99998,249.50504 A 138.57143,105.71429 0 1 1 559.99989,249.38268"
           sodipodi:start="0"
           sodipodi:end="6.2820279"
           sodipodi:open="true"
           transform="matrix(1.082474,0,0,0.945946,-23.32843,19.20105)" />
        <path
           sodipodi:type="arc"
           style="fill:yellow;fill-opacity:1"
           id="path1972"
           sodipodi:cx="-397.14285"
           sodipodi:cy="135.21933"
           sodipodi:rx="62.857143"
           sodipodi:ry="71.428574"
           d="M -334.28571,135.21933 A 62.857143,71.428574 0 1 1 -334.28575,135.13666"
           sodipodi:start="0"
           sodipodi:end="6.2820279"
           sodipodi:open="true"
           transform="matrix(0.795455,0,0,1.05,693.9091,113.239)" />
        <path
           sodipodi:type="arc"
           style="fill:yellow;fill-opacity:1"
           id="path1974"
           sodipodi:cx="-397.14285"
           sodipodi:cy="135.21933"
           sodipodi:rx="62.857143"
           sodipodi:ry="71.428574"
           d="M -334.28571,135.21933 A 62.857143,71.428574 0 1 1 -334.28572,135.17591 L -397.14285,135.21933 z"
           sodipodi:start="0"
           sodipodi:end="6.2825774"
           transform="matrix(0.795455,0,0,1.05,799.9093,113.239)" />
      </g>
    </g>
  </g>
</svg>
