<?xml version="1.0" encoding="UTF-8" standalone="no"?>
<!-- Created with Inkscape (http://www.inkscape.org/) -->
<svg
   xmlns:dc="http://purl.org/dc/elements/1.1/"
   xmlns:cc="http://web.resource.org/cc/"
   xmlns:rdf="http://www.w3.org/1999/02/22-rdf-syntax-ns#"
   xmlns:svg="http://www.w3.org/2000/svg"
   xmlns="http://www.w3.org/2000/svg"
   xmlns:sodipodi="http://sodipodi.sourceforge.net/DTD/sodipodi-0.dtd"
   xmlns:inkscape="http://www.inkscape.org/namespaces/inkscape"
   width="1276.0658"
   height="299.58676"
   id="svg2434"
   sodipodi:version="0.32"
   inkscape:version="0.44.1"
   version="1.0"
   sodipodi:docbase="/home/lok"
   sodipodi:docname="robot_sea_nettle.svg">
  <defs
     id="defs2436" />
  <sodipodi:namedview
     id="base"
     pagecolor="#ffffff"
     bordercolor="#666666"
     borderopacity="1.0"
     gridtolerance="10000"
     guidetolerance="10"
     objecttolerance="10"
     inkscape:pageopacity="0.0"
     inkscape:pageshadow="2"
     inkscape:zoom="0.35"
     inkscape:cx="375"
     inkscape:cy="520"
     inkscape:document-units="px"
     inkscape:current-layer="layer1"
     inkscape:window-width="782"
     inkscape:window-height="613"
     inkscape:window-x="5"
     inkscape:window-y="73" />
  <metadata
     id="metadata2439">
    <rdf:RDF>
      <cc:Work
         rdf:about="">
        <dc:format>image/svg+xml</dc:format>
        <dc:type
           rdf:resource="http://purl.org/dc/dcmitype/StillImage" />
      </cc:Work>
    </rdf:RDF>
  </metadata>
  <g
     inkscape:label="Layer 1"
     inkscape:groupmode="layer"
     id="layer1"
     transform="translate(880.8901,114.5741)">
    <g
       id="g2423"
       transform="translate(-339.1207,410.3818)">
      <g
         transform="translate(-409.5066,-373.6973)"
         id="g2240">
        <path
           sodipodi:type="arc"
           style="fill:green;fill-opacity:1"
           id="path2242"
           sodipodi:cx="421.42856"
           sodipodi:cy="249.50504"
           sodipodi:rx="138.57143"
           sodipodi:ry="105.71429"
           d="M 559.99998,249.50504 A 138.57143,105.71429 0 1 1 559.99989,249.38268"
           sodipodi:start="0"
           sodipodi:end="6.2820279"
           sodipodi:open="true"
           transform="matrix(1.082474,0,0,-0.945946,-438.4483,235.2555)" />
        <g
           id="g2244"
           transform="matrix(1,0,0,-1,424.7372,205.4565)">
          <path
             transform="matrix(0.795455,0,0,1.05,-146.0909,64.239)"
             sodipodi:open="true"
             sodipodi:end="6.2820279"
             sodipodi:start="0"
             d="M -334.28571,135.21933 A 62.857143,71.428574 0 1 1 -334.28575,135.13666"
             sodipodi:ry="71.428574"
             sodipodi:rx="62.857143"
             sodipodi:cy="135.21933"
             sodipodi:cx="-397.14285"
             id="path2246"
             style="fill:yellow;fill-opacity:1"
             sodipodi:type="arc" />
          <path
             transform="matrix(0.795455,0,0,1.05,-36.0907,64.239)"
             sodipodi:end="6.2825774"
             sodipodi:start="0"
             d="M -334.28571,135.21933 A 62.857143,71.428574 0 1 1 -334.28572,135.17591 L -397.14285,135.21933 z"
             sodipodi:ry="71.428574"
             sodipodi:rx="62.857143"
             sodipodi:cy="135.21933"
             sodipodi:cx="-397.14285"
             id="path2248"
             style="fill:yellow;fill-opacity:1"
             sodipodi:type="arc" />
        </g>
      </g>
      <path
         sodipodi:open="true"
         sodipodi:end="6.2820279"
         sodipodi:start="0"
         transform="matrix(0.769231,0,0,0.714286,-757.2812,-283.6565)"
         d="M 402,-127.125 A 39,28 0 1 1 401.99997,-127.15741"
         sodipodi:ry="28"
         sodipodi:rx="39"
         sodipodi:cy="-127.125"
         sodipodi:cx="363"
         id="path2250"
         style="fill:green;fill-opacity:1"
         sodipodi:type="arc" />
      <path
         sodipodi:nodetypes="ccczczczczczczczczc"
         id="path2252"
         d="M -296.23224,-471.10936 L -378.72752,-464.9058 L -473.6112,-473.1537 C -473.6112,-473.1537 -444.71659,-490.64141 -463.29838,-498.78238 C -481.24171,-506.64367 -452.98555,-524.41109 -452.98555,-524.41109 C -452.98555,-524.41109 -426.92943,-519.33687 -442.15705,-502.57925 C -457.17472,-486.05276 -431.32863,-480.7474 -431.32863,-480.7474 C -427.20351,-488.02468 -404.49902,-496.33668 -418.95322,-502.57925 C -433.91944,-509.04291 -410.70296,-517.13381 -406.57786,-524.41109 C -406.57786,-524.41109 -381.31312,-504.94679 -393.68677,-501.15543 C -406.85111,-497.1218 -380.79576,-477.89974 -380.79576,-477.89974 C -380.79576,-477.89974 -349.35901,-481.13573 -370.9986,-500.20621 C -392.93452,-519.53783 -361.20142,-522.51266 -361.20142,-522.51266 C -361.20142,-522.51266 -338.758,-511.21354 -349.34166,-496.40936 C -359.5675,-482.10575 -337.48191,-470.30606 -337.48191,-470.30606 C -337.48191,-470.30606 -313.00585,-471.10789 -313.7535,-485.05465 C -314.53241,-499.58505 -336.4693,-509.73414 -336.4693,-509.73414 C -336.4693,-509.73414 -319.18538,-509.27863 -303.44958,-494.51095 C -288.16775,-480.1693 -296.23224,-471.10936 -296.23224,-471.10936 z "
         style="fill:#d40000;fill-rule:evenodd;stroke:black;stroke-width:0.49469811px;stroke-linecap:butt;stroke-linejoin:miter;stroke-opacity:1" />
      <path
         sodipodi:nodetypes="ccczczczczczczczccc"
         id="path2260"
         d="M -481.28629,-273.91178 L -388.42105,-285.43566 L -301.7484,-270.60047 C -301.7484,-270.60047 -328.59298,-243.63129 -312.06666,-248.24912 C -295.96416,-252.74853 -322.38494,-225.89777 -322.38494,-225.89777 C -322.38494,-225.89777 -354.39445,-226.97421 -333.21912,-244.93781 C -311.78756,-263.11878 -344.0533,-263.97784 -344.0533,-263.97784 C -344.0533,-263.97784 -372.43207,-255.29246 -356.43523,-244.93781 C -340.94074,-234.90832 -368.81715,-225.89777 -368.81715,-225.89777 C -368.81715,-225.89777 -359.77647,-258.96472 -380.68235,-240.5754 C -401.14914,-222.57233 -394.61282,-266.46133 -394.61282,-266.46133 C -394.61282,-266.46133 -386.80204,-253.95369 -412.67631,-245.47897 C -439.26294,-236.77093 -414.21753,-227.55343 -414.21753,-227.55343 C -414.21753,-227.55343 -470.74994,-232.82244 -428.14882,-252.86603 C -386.08536,-272.65665 -437.94956,-273.08395 -437.94956,-273.08395 C -437.94956,-273.08395 -458.59749,-264.36006 -450.33149,-251.56043 C -441.76626,-238.29746 -462.71341,-230.03691 -462.71341,-230.03691 L -471.99985,-251.97434 L -481.28629,-273.91178 z "
         style="fill:#d40000;fill-rule:evenodd;stroke:black;stroke-width:0.46210799px;stroke-linecap:butt;stroke-linejoin:miter;stroke-opacity:1" />
      <path
         sodipodi:open="true"
         sodipodi:end="6.2820279"
         sodipodi:start="0"
         transform="matrix(0.769231,0,0,0.714286,-588.1779,-285.2392)"
         d="M 402,-127.125 A 39,28 0 1 1 401.99997,-127.15741"
         sodipodi:ry="28"
         sodipodi:rx="39"
         sodipodi:cy="-127.125"
         sodipodi:cx="363"
         id="path2287"
         style="fill:green;fill-opacity:1"
         sodipodi:type="arc" />
    </g>
    <g
       id="g2412"
       transform="translate(-496.3018,413.1918)">
      <path
         sodipodi:nodetypes="ccczczczczczczczczc"
         id="path2331"
         d="M 179.13996,-281.7282 L 96.644681,-287.93176 L 1.761005,-279.68386 C 1.761005,-279.68386 30.655615,-262.19615 12.073825,-254.05518 C -5.869505,-246.19389 22.386655,-228.42647 22.386655,-228.42647 C 22.386655,-228.42647 48.442775,-233.50069 33.215155,-250.25831 C 18.197485,-266.7848 44.043575,-272.09016 44.043575,-272.09016 C 48.168695,-264.81288 70.873185,-256.50088 56.418985,-250.25831 C 41.452765,-243.79465 64.669245,-235.70375 68.794345,-228.42647 C 68.794345,-228.42647 94.059081,-247.89077 81.685435,-251.68213 C 68.521095,-255.71576 94.576441,-274.93782 94.576441,-274.93782 C 94.576441,-274.93782 126.01319,-271.70183 104.3736,-252.63135 C 82.437685,-233.29973 114.17078,-230.3249 114.17078,-230.3249 C 114.17078,-230.3249 136.6142,-241.62402 126.03054,-256.4282 C 115.8047,-270.73181 137.89029,-282.5315 137.89029,-282.5315 C 137.89029,-282.5315 162.36635,-281.72967 161.6187,-267.78291 C 160.83979,-253.25251 138.9029,-243.10342 138.9029,-243.10342 C 138.9029,-243.10342 156.18682,-243.55893 171.92262,-258.32661 C 187.20445,-272.66826 179.13996,-281.7282 179.13996,-281.7282 z "
         style="fill:#d40000;fill-rule:evenodd;stroke:black;stroke-width:0.49469811px;stroke-linecap:butt;stroke-linejoin:miter;stroke-opacity:1" />
      <path
         sodipodi:nodetypes="ccczczczczczczczccc"
         id="path2333"
         d="M 1.744712,-479.52082 L 94.609953,-467.99694 L 181.28259,-482.83213 C 181.28259,-482.83213 154.43801,-509.80131 170.96433,-505.18348 C 187.06683,-500.68407 160.64605,-527.53483 160.64605,-527.53483 C 160.64605,-527.53483 128.63654,-526.45839 149.81187,-508.49479 C 171.24343,-490.31382 138.97769,-489.45476 138.97769,-489.45476 C 138.97769,-489.45476 110.59892,-498.14014 126.59576,-508.49479 C 142.09025,-518.52428 114.21384,-527.53483 114.21384,-527.53483 C 114.21384,-527.53483 123.25452,-494.46788 102.34864,-512.8572 C 81.881863,-530.86027 88.418183,-486.97127 88.418183,-486.97127 C 88.418183,-486.97127 96.228963,-499.47891 70.354693,-507.95363 C 43.768063,-516.66167 68.813473,-525.87917 68.813473,-525.87917 C 68.813473,-525.87917 12.281062,-520.61016 54.882183,-500.56657 C 96.945643,-480.77595 45.081443,-480.34865 45.081443,-480.34865 C 45.081443,-480.34865 24.433512,-489.07254 32.699512,-501.87217 C 41.264743,-515.13514 20.317592,-523.39569 20.317592,-523.39569 L 11.031152,-501.45826 L 1.744712,-479.52082 z "
         style="fill:#d40000;fill-rule:evenodd;stroke:black;stroke-width:0.46210799px;stroke-linecap:butt;stroke-linejoin:miter;stroke-opacity:1" />
      <g
         transform="translate(73.77649,-376.5072)"
         id="g2319">
        <path
           sodipodi:type="arc"
           style="fill:green;fill-opacity:1"
           id="path2321"
           sodipodi:cx="421.42856"
           sodipodi:cy="249.50504"
           sodipodi:rx="138.57143"
           sodipodi:ry="105.71429"
           d="M 559.99998,249.50504 A 138.57143,105.71429 0 1 1 559.99989,249.38268"
           sodipodi:start="0"
           sodipodi:end="6.2820279"
           sodipodi:open="true"
           transform="matrix(1.082474,0,0,-0.945946,-438.4483,235.2555)" />
        <g
           id="g2323"
           transform="matrix(1,0,0,-1,424.7372,205.4565)">
          <path
             transform="matrix(0.795455,0,0,1.05,-146.0909,64.239)"
             sodipodi:open="true"
             sodipodi:end="6.2820279"
             sodipodi:start="0"
             d="M -334.28571,135.21933 A 62.857143,71.428574 0 1 1 -334.28575,135.13666"
             sodipodi:ry="71.428574"
             sodipodi:rx="62.857143"
             sodipodi:cy="135.21933"
             sodipodi:cx="-397.14285"
             id="path2325"
             style="fill:yellow;fill-opacity:1"
             sodipodi:type="arc" />
          <path
             transform="matrix(0.795455,0,0,1.05,-36.0907,64.239)"
             sodipodi:end="6.2825774"
             sodipodi:start="0"
             d="M -334.28571,135.21933 A 62.857143,71.428574 0 1 1 -334.28572,135.17591 L -397.14285,135.21933 z"
             sodipodi:ry="71.428574"
             sodipodi:rx="62.857143"
             sodipodi:cy="135.21933"
             sodipodi:cx="-397.14285"
             id="path2327"
             style="fill:yellow;fill-opacity:1"
             sodipodi:type="arc" />
        </g>
      </g>
      <path
         sodipodi:open="true"
         sodipodi:end="6.2820279"
         sodipodi:start="0"
         transform="matrix(0.769231,0,0,0.714286,-273.9981,-286.4664)"
         d="M 402,-127.125 A 39,28 0 1 1 401.99997,-127.15741"
         sodipodi:ry="28"
         sodipodi:rx="39"
         sodipodi:cy="-127.125"
         sodipodi:cx="363"
         id="path2329"
         style="fill:green;fill-opacity:1"
         sodipodi:type="arc" />
      <path
         sodipodi:open="true"
         sodipodi:end="6.2820279"
         sodipodi:start="0"
         transform="matrix(0,0.769231,-0.714286,0,58.72091,-703.598)"
         d="M 402,-127.125 A 39,28 0 1 1 401.99997,-127.15741"
         sodipodi:ry="28"
         sodipodi:rx="39"
         sodipodi:cy="-127.125"
         sodipodi:cx="363"
         id="path2335"
         style="fill:green;fill-opacity:1"
         sodipodi:type="arc" />
    </g>
    <g
       id="g2401"
       transform="translate(-612.1194,483.8964)">
      <g
         transform="translate(514.6876,-448.6106)"
         id="g2348">
        <path
           sodipodi:type="arc"
           style="fill:green;fill-opacity:1"
           id="path2350"
           sodipodi:cx="421.42856"
           sodipodi:cy="249.50504"
           sodipodi:rx="138.57143"
           sodipodi:ry="105.71429"
           d="M 559.99998,249.50504 A 138.57143,105.71429 0 1 1 559.99989,249.38268"
           sodipodi:start="0"
           sodipodi:end="6.2820279"
           sodipodi:open="true"
           transform="matrix(1.082474,0,0,-0.945946,-438.4483,235.2555)" />
        <g
           id="g2352"
           transform="matrix(1,0,0,-1,424.7372,205.4565)">
          <path
             transform="matrix(0.795455,0,0,1.05,-146.0909,64.239)"
             sodipodi:open="true"
             sodipodi:end="6.2820279"
             sodipodi:start="0"
             d="M -334.28571,135.21933 A 62.857143,71.428574 0 1 1 -334.28575,135.13666"
             sodipodi:ry="71.428574"
             sodipodi:rx="62.857143"
             sodipodi:cy="135.21933"
             sodipodi:cx="-397.14285"
             id="path2354"
             style="fill:yellow;fill-opacity:1"
             sodipodi:type="arc" />
          <path
             transform="matrix(0.795455,0,0,1.05,-36.0907,64.239)"
             sodipodi:end="6.2825774"
             sodipodi:start="0"
             d="M -334.28571,135.21933 A 62.857143,71.428574 0 1 1 -334.28572,135.17591 L -397.14285,135.21933 z"
             sodipodi:ry="71.428574"
             sodipodi:rx="62.857143"
             sodipodi:cy="135.21933"
             sodipodi:cx="-397.14285"
             id="path2356"
             style="fill:yellow;fill-opacity:1"
             sodipodi:type="arc" />
        </g>
      </g>
      <path
         sodipodi:nodetypes="ccczczczccczcsczc"
         id="path2312"
         d="M 448.8876,-352.83659 L 536.55133,-358.8634 L 628.34708,-349.14793 C 628.34708,-349.14793 629.7559,-324.53429 618.03332,-324.24947 C 606.31075,-323.96465 607.70718,-299.34421 607.71954,-299.35101 C 607.71954,-299.35101 580.47753,-304.32849 595.70662,-322.87875 C 610.76593,-341.22225 586.06064,-341.7706 586.06064,-341.7706 C 586.06064,-341.7706 562.50145,-333.7947 573.68415,-320.56081 C 585.04311,-307.11828 553.05008,-301.62112 553.05008,-301.62112 L 535.52322,-344.5371 L 535.53867,-311.4108 C 535.53867,-311.4108 509.99664,-313.87512 504.06624,-326.55488 C 498.13582,-339.23465 492.2054,-351.91442 492.2054,-351.91442 C 492.2054,-351.91442 459.02157,-329.35995 484.05703,-329.99924 C 505.65437,-330.55075 484.99959,-304.52937 484.99959,-304.52937 C 484.99959,-304.52937 475.19745,-325.26094 463.33093,-327.26416 C 452.40383,-329.10879 448.8876,-352.83659 448.8876,-352.83659 z "
         style="fill:#d40000;fill-opacity:1;fill-rule:evenodd;stroke:black;stroke-width:0.48762169px;stroke-linecap:butt;stroke-linejoin:miter;stroke-opacity:1" />
      <path
         sodipodi:nodetypes="ccczczczczczczczczc"
         id="path2316"
         d="M 619.62135,-544.69794 L 537.12608,-538.49436 L 442.24239,-546.74227 C 442.24239,-546.74227 471.13702,-564.22998 452.55524,-572.37097 C 434.61186,-580.23224 462.86806,-597.99966 462.86806,-597.99966 C 462.86806,-597.99966 488.92421,-592.92544 473.69651,-576.16782 C 458.67888,-559.64132 484.52497,-554.33597 484.52497,-554.33597 C 488.65011,-561.61324 511.35458,-569.92526 496.90038,-576.16782 C 481.93418,-582.63148 505.15064,-590.72238 509.27576,-597.99966 C 509.27576,-597.99966 534.54047,-578.53535 522.1668,-574.74399 C 509.00251,-570.71037 535.05781,-551.48833 535.05781,-551.48833 C 535.05781,-551.48833 566.49459,-554.72429 544.855,-573.79477 C 522.9191,-593.1264 554.65219,-596.10125 554.65219,-596.10125 C 554.65219,-596.10125 577.09561,-584.80211 566.51194,-569.99794 C 556.28611,-555.69432 578.37169,-543.89464 578.37169,-543.89464 C 578.37169,-543.89464 602.84778,-544.69646 602.10014,-558.64322 C 601.32118,-573.17362 579.38428,-583.32272 579.38428,-583.32272 C 579.38428,-583.32272 596.66822,-582.86721 612.40401,-568.09952 C 627.68584,-553.75787 619.62135,-544.69794 619.62135,-544.69794 z "
         style="fill:#d40000;fill-rule:evenodd;stroke:black;stroke-width:0.49469814px;stroke-linecap:butt;stroke-linejoin:miter;stroke-opacity:1" />
      <path
         sodipodi:open="true"
         sodipodi:end="6.2820279"
         sodipodi:start="0"
         transform="matrix(0,-0.769231,-0.714286,0,386.2162,-218.3864)"
         d="M 402,-127.125 A 39,28 0 1 1 401.99997,-127.15741"
         sodipodi:ry="28"
         sodipodi:rx="39"
         sodipodi:cy="-127.125"
         sodipodi:cx="363"
         id="path2358"
         style="fill:green;fill-opacity:1"
         sodipodi:type="arc" />
      <path
         sodipodi:open="true"
         sodipodi:end="6.2820279"
         sodipodi:start="0"
         transform="matrix(0,0.769231,-0.714286,0,501.2865,-678.0837)"
         d="M 402,-127.125 A 39,28 0 1 1 401.99997,-127.15741"
         sodipodi:ry="28"
         sodipodi:rx="39"
         sodipodi:cy="-127.125"
         sodipodi:cx="363"
         id="path2360"
         style="fill:green;fill-opacity:1"
         sodipodi:type="arc" />
    </g>
    <g
       id="g2390"
       transform="translate(-622.0467,473.4888)">
      <path
         sodipodi:nodetypes="ccczczczccczcsczc"
         id="path2277"
         d="M 776.8167,-534.07766 L 864.48043,-528.05085 L 956.27618,-537.76632 C 956.27618,-537.76632 957.685,-562.37996 945.96242,-562.66478 C 934.23985,-562.9496 935.63628,-587.57004 935.64864,-587.56324 C 935.64864,-587.56324 908.40663,-582.58576 923.63572,-564.0355 C 938.69503,-545.692 913.98974,-545.14365 913.98974,-545.14365 C 913.98974,-545.14365 890.43055,-553.11955 901.61325,-566.35344 C 912.97221,-579.79597 880.97918,-585.29313 880.97918,-585.29313 L 863.45232,-542.37715 L 863.46777,-575.50345 C 863.46777,-575.50345 837.92574,-573.03913 831.99534,-560.35937 C 826.06492,-547.6796 820.1345,-534.99983 820.1345,-534.99983 C 820.1345,-534.99983 786.95067,-557.5543 811.98613,-556.91501 C 833.58347,-556.3635 812.92869,-582.38488 812.92869,-582.38488 C 812.92869,-582.38488 803.12655,-561.65331 791.26003,-559.65009 C 780.33293,-557.80546 776.8167,-534.07766 776.8167,-534.07766 z "
         style="fill:#d40000;fill-opacity:1;fill-rule:evenodd;stroke:black;stroke-width:0.48762169px;stroke-linecap:butt;stroke-linejoin:miter;stroke-opacity:1" />
      <path
         sodipodi:nodetypes="ccczczczczczczczczc"
         id="path2294"
         d="M 776.72078,-342.28109 L 859.21605,-348.48466 L 954.09974,-340.23676 C 954.09974,-340.23676 925.20511,-322.74905 943.78689,-314.60806 C 961.73027,-306.74679 933.47407,-288.97937 933.47407,-288.97937 C 933.47407,-288.97937 907.41792,-294.05358 922.64562,-310.81121 C 937.66325,-327.3377 911.81716,-332.64306 911.81716,-332.64306 C 907.69202,-325.36578 884.98755,-317.05377 899.44175,-310.81121 C 914.40795,-304.34755 891.19149,-296.25665 887.06637,-288.97937 C 887.06637,-288.97937 861.80166,-308.44367 874.17533,-312.23504 C 887.33962,-316.26866 861.28432,-335.49069 861.28432,-335.49069 C 861.28432,-335.49069 829.84754,-332.25473 851.48713,-313.18425 C 873.42303,-293.85263 841.68994,-290.87778 841.68994,-290.87778 C 841.68994,-290.87778 819.24652,-302.17692 829.83019,-316.98109 C 840.05602,-331.28471 817.97044,-343.08439 817.97044,-343.08439 C 817.97044,-343.08439 793.49435,-342.28256 794.24199,-328.33581 C 795.02095,-313.80541 816.95785,-303.65631 816.95785,-303.65631 C 816.95785,-303.65631 799.67391,-304.11182 783.93812,-318.87951 C 768.65629,-333.22116 776.72078,-342.28109 776.72078,-342.28109 z "
         style="fill:#d40000;fill-rule:evenodd;stroke:black;stroke-width:0.49469811px;stroke-linecap:butt;stroke-linejoin:miter;stroke-opacity:1" />
      <g
         transform="translate(849.4853,-436.1979)"
         id="g2369">
        <path
           sodipodi:type="arc"
           style="fill:green;fill-opacity:1"
           id="path2371"
           sodipodi:cx="421.42856"
           sodipodi:cy="249.50504"
           sodipodi:rx="138.57143"
           sodipodi:ry="105.71429"
           d="M 559.99998,249.50504 A 138.57143,105.71429 0 1 1 559.99989,249.38268"
           sodipodi:start="0"
           sodipodi:end="6.2820279"
           sodipodi:open="true"
           transform="matrix(1.082474,0,0,-0.945946,-438.4483,235.2555)" />
        <g
           id="g2373"
           transform="matrix(1,0,0,-1,424.7372,205.4565)">
          <path
             transform="matrix(0.795455,0,0,1.05,-146.0909,64.239)"
             sodipodi:open="true"
             sodipodi:end="6.2820279"
             sodipodi:start="0"
             d="M -334.28571,135.21933 A 62.857143,71.428574 0 1 1 -334.28575,135.13666"
             sodipodi:ry="71.428574"
             sodipodi:rx="62.857143"
             sodipodi:cy="135.21933"
             sodipodi:cx="-397.14285"
             id="path2375"
             style="fill:yellow;fill-opacity:1"
             sodipodi:type="arc" />
          <path
             transform="matrix(0.795455,0,0,1.05,-36.0907,64.239)"
             sodipodi:end="6.2825774"
             sodipodi:start="0"
             d="M -334.28571,135.21933 A 62.857143,71.428574 0 1 1 -334.28572,135.17591 L -397.14285,135.21933 z"
             sodipodi:ry="71.428574"
             sodipodi:rx="62.857143"
             sodipodi:cy="135.21933"
             sodipodi:cx="-397.14285"
             id="path2377"
             style="fill:yellow;fill-opacity:1"
             sodipodi:type="arc" />
        </g>
      </g>
      <path
         sodipodi:open="true"
         sodipodi:end="6.2820279"
         sodipodi:start="0"
         transform="matrix(-0.769231,0,0,-0.714286,1118.326,-529.4189)"
         d="M 402,-127.125 A 39,28 0 1 1 401.99997,-127.15741"
         sodipodi:ry="28"
         sodipodi:rx="39"
         sodipodi:cy="-127.125"
         sodipodi:cx="363"
         id="path2379"
         style="fill:green;fill-opacity:1"
         sodipodi:type="arc" />
      <path
         sodipodi:open="true"
         sodipodi:end="6.2820279"
         sodipodi:start="0"
         transform="matrix(-0.769231,0,0,-0.714286,1179.544,-524.4552)"
         d="M 402,-127.125 A 39,28 0 1 1 401.99997,-127.15741"
         sodipodi:ry="28"
         sodipodi:rx="39"
         sodipodi:cy="-127.125"
         sodipodi:cx="363"
         id="path2381"
         style="fill:green;fill-opacity:1"
         sodipodi:type="arc" />
    </g>
  </g>
</svg>
