<?xml version="1.0" encoding="UTF-8" standalone="no"?>
<!-- Created with Inkscape (http://www.inkscape.org/) -->
<svg
   xmlns:dc="http://purl.org/dc/elements/1.1/"
   xmlns:cc="http://web.resource.org/cc/"
   xmlns:rdf="http://www.w3.org/1999/02/22-rdf-syntax-ns#"
   xmlns:svg="http://www.w3.org/2000/svg"
   xmlns="http://www.w3.org/2000/svg"
   xmlns:sodipodi="http://sodipodi.sourceforge.net/DTD/sodipodi-0.dtd"
   xmlns:inkscape="http://www.inkscape.org/namespaces/inkscape"
   width="64px"
   height="64px"
   id="svg2134"
   sodipodi:version="0.32"
   inkscape:version="0.44"
   sodipodi:docbase="C:\Documents and Settings\salvor\Desktop"
   sodipodi:docname="salcat1.svg">
  <defs
     id="defs2136" />
  <sodipodi:namedview
     id="base"
     pagecolor="#ffffff"
     bordercolor="#666666"
     borderopacity="1.0"
     inkscape:pageopacity="0.0"
     inkscape:pageshadow="2"
     inkscape:zoom="1.9445436"
     inkscape:cx="32"
     inkscape:cy="12.716893"
     inkscape:current-layer="layer1"
     showgrid="true"
     inkscape:document-units="px"
     inkscape:grid-bbox="true"
     inkscape:window-width="853"
     inkscape:window-height="573"
     inkscape:window-x="36"
     inkscape:window-y="9" />
  <metadata
     id="metadata2139">
    <rdf:RDF>
      <cc:Work
         rdf:about="">
        <dc:format>image/svg+xml</dc:format>
        <dc:type
           rdf:resource="http://purl.org/dc/dcmitype/StillImage" />
        <cc:license
           rdf:resource="http://web.resource.org/cc/PublicDomain" />
      </cc:Work>
      <cc:License
         rdf:about="http://web.resource.org/cc/PublicDomain">
        <cc:permits
           rdf:resource="http://web.resource.org/cc/Reproduction" />
        <cc:permits
           rdf:resource="http://web.resource.org/cc/Distribution" />
        <cc:permits
           rdf:resource="http://web.resource.org/cc/DerivativeWorks" />
      </cc:License>
    </rdf:RDF>
  </metadata>
  <g
     id="layer1"
     inkscape:label="Layer 1"
     inkscape:groupmode="layer">
    <path
       style="fill:#ffc200;fill-opacity:1;fill-rule:evenodd;stroke:black;stroke-width:1.00002956;stroke-linecap:butt;stroke-linejoin:round;stroke-miterlimit:4;stroke-dasharray:none;stroke-dashoffset:0;stroke-opacity:1"
       d="M 47.015591,39.702737 C 50.189216,40.067333 55.901741,39.33814 56.80849,34.416084 C 57.738394,29.368338 54.654292,26.212658 54.654292,26.212658 L 57.706127,24.172304 C 57.706127,24.172304 59.342267,31.228287 59.438065,33.139995 C 59.503003,34.435845 60.2591,38.852612 54.071578,41.671374 L 49.726728,44.326545 L 47.015591,39.702737 z "
       id="path3158"
       sodipodi:nodetypes="csccsccc" />
    <g
       transform="matrix(-0.997425,0,0,1.002641,46.22442,1.374505)"
       id="g3150">
      <path
         style="opacity:1;fill:#ffc200;fill-opacity:1;fill-rule:evenodd;stroke:black;stroke-width:1;stroke-linecap:butt;stroke-linejoin:round;stroke-miterlimit:4;stroke-dasharray:none;stroke-dashoffset:0;stroke-opacity:1"
         d="M 17.272727,5.4545455 C 17.272727,5.4545455 9.1818182,-0.90909091 7.0909091,-0.54545455 C 5,-0.18181818 9.4545455,9.6363636 9.4545455,9.6363636 L 17.272727,5.4545455 z "
         id="path3152" />
      <path
         style="opacity:1;fill:white;fill-opacity:1;fill-rule:evenodd;stroke:none;stroke-width:1;stroke-linecap:butt;stroke-linejoin:round;stroke-miterlimit:4;stroke-dasharray:none;stroke-dashoffset:0;stroke-opacity:1"
         d="M 14.545455,6 L 8.9090909,1.8181818 L 10.727273,7.6363637 L 14.545455,6 z "
         id="path3154" />
    </g>
    <g
       id="g3146"
       transform="matrix(0.997425,0,0,1.002641,-1.062597,2.574496)">
      <path
         id="path3142"
         d="M 17.272727,5.4545455 C 17.272727,5.4545455 9.1818182,-0.90909091 7.0909091,-0.54545455 C 5,-0.18181818 9.4545455,9.6363636 9.4545455,9.6363636 L 17.272727,5.4545455 z "
         style="opacity:1;fill:#ffc200;fill-opacity:1;fill-rule:evenodd;stroke:black;stroke-width:1;stroke-linecap:butt;stroke-linejoin:round;stroke-miterlimit:4;stroke-dasharray:none;stroke-dashoffset:0;stroke-opacity:1" />
      <path
         id="path3144"
         d="M 14.545455,6 L 8.9090909,1.8181818 L 10.727273,7.6363637 L 14.545455,6 z "
         style="opacity:1;fill:white;fill-opacity:1;fill-rule:evenodd;stroke:none;stroke-width:1;stroke-linecap:butt;stroke-linejoin:round;stroke-miterlimit:4;stroke-dasharray:none;stroke-dashoffset:0;stroke-opacity:1" />
    </g>
    <g
       id="g3068"
       transform="matrix(0.997425,0,0,1.002641,-2.209733,-4.778064)">
      <path
         transform="translate(-1.454545,-3.09091)"
         d="M 30.363636 54.909092 A 4 7.818182 0 1 1  22.363636,54.909092 A 4 7.818182 0 1 1  30.363636 54.909092 z"
         sodipodi:ry="7.818182"
         sodipodi:rx="4"
         sodipodi:cy="54.909092"
         sodipodi:cx="26.363636"
         id="path3070"
         style="opacity:1;color:black;fill:#ffc200;fill-opacity:1;fill-rule:nonzero;stroke:black;stroke-width:1.25026679;stroke-linecap:butt;stroke-linejoin:round;marker:none;marker-start:none;marker-mid:none;marker-end:none;stroke-miterlimit:4;stroke-dasharray:none;stroke-dashoffset:0;stroke-opacity:1;visibility:visible;display:inline;overflow:visible"
         sodipodi:type="arc" />
      <path
         d="M 30.363637 59.81818 A 4.909091 3.2727273 0 1 1  20.545455,59.81818 A 4.909091 3.2727273 0 1 1  30.363637 59.81818 z"
         sodipodi:ry="3.2727273"
         sodipodi:rx="4.909091"
         sodipodi:cy="59.81818"
         sodipodi:cx="25.454546"
         id="path3072"
         style="opacity:1;color:black;fill:#ffc200;fill-opacity:1;fill-rule:nonzero;stroke:black;stroke-width:1.25026679;stroke-linecap:butt;stroke-linejoin:round;marker:none;marker-start:none;marker-mid:none;marker-end:none;stroke-miterlimit:4;stroke-dasharray:none;stroke-dashoffset:0;stroke-opacity:1;visibility:visible;display:inline;overflow:visible"
         sodipodi:type="arc" />
    </g>
    <g
       transform="matrix(0.997425,0,0,1.002641,23.17927,-4.413467)"
       id="g3062">
      <path
         sodipodi:type="arc"
         style="opacity:1;color:black;fill:#ffc200;fill-opacity:1;fill-rule:nonzero;stroke:black;stroke-width:1.25026679;stroke-linecap:butt;stroke-linejoin:round;marker:none;marker-start:none;marker-mid:none;marker-end:none;stroke-miterlimit:4;stroke-dasharray:none;stroke-dashoffset:0;stroke-opacity:1;visibility:visible;display:inline;overflow:visible"
         id="path3064"
         sodipodi:cx="26.363636"
         sodipodi:cy="54.909092"
         sodipodi:rx="4"
         sodipodi:ry="7.818182"
         d="M 30.363636 54.909092 A 4 7.818182 0 1 1  22.363636,54.909092 A 4 7.818182 0 1 1  30.363636 54.909092 z"
         transform="translate(-1.454545,-3.09091)" />
      <path
         sodipodi:type="arc"
         style="opacity:1;color:black;fill:#ffc200;fill-opacity:1;fill-rule:nonzero;stroke:black;stroke-width:1.25026679;stroke-linecap:butt;stroke-linejoin:round;marker:none;marker-start:none;marker-mid:none;marker-end:none;stroke-miterlimit:4;stroke-dasharray:none;stroke-dashoffset:0;stroke-opacity:1;visibility:visible;display:inline;overflow:visible"
         id="path3066"
         sodipodi:cx="25.454546"
         sodipodi:cy="59.81818"
         sodipodi:rx="4.909091"
         sodipodi:ry="3.2727273"
         d="M 30.363637 59.81818 A 4.909091 3.2727273 0 1 1  20.545455,59.81818 A 4.909091 3.2727273 0 1 1  30.363637 59.81818 z" />
    </g>
    <path
       sodipodi:type="arc"
       style="color:black;fill:#ffc200;fill-opacity:1;fill-rule:nonzero;stroke:black;stroke-width:1.25026679;stroke-linecap:butt;stroke-linejoin:round;marker:none;marker-start:none;marker-mid:none;marker-end:none;stroke-miterlimit:4;stroke-dasharray:none;stroke-dashoffset:0;stroke-opacity:1;visibility:visible;display:inline;overflow:visible"
       id="path3046"
       sodipodi:cx="30.363636"
       sodipodi:cy="41.090908"
       sodipodi:rx="13.818182"
       sodipodi:ry="18.727272"
       d="M 44.181818 41.090908 A 13.818182 18.727272 0 1 1  16.545454,41.090908 A 13.818182 18.727272 0 1 1  44.181818 41.090908 z"
       transform="matrix(1.080358,-0.24074,0.214029,0.970565,-6.007714,6.637635)" />
    <path
       sodipodi:type="arc"
       style="color:black;fill:#ffc200;fill-opacity:1;fill-rule:nonzero;stroke:black;stroke-width:1;stroke-linecap:butt;stroke-linejoin:round;marker:none;marker-start:none;marker-mid:none;marker-end:none;stroke-miterlimit:4;stroke-dasharray:none;stroke-dashoffset:0;stroke-opacity:1;visibility:visible;display:inline;overflow:visible"
       id="path2142"
       sodipodi:cx="23.09091"
       sodipodi:cy="21"
       sodipodi:rx="10.727273"
       sodipodi:ry="10.090909"
       d="M 33.818183 21 A 10.727273 10.090909 0 1 1  12.363637,21 A 10.727273 10.090909 0 1 1  33.818183 21 z"
       transform="matrix(1.493683,0,0,1.343264,-11.16152,-9.561276)" />
    <g
       id="g3036"
       transform="matrix(0.699136,0,0,0.58804,-11.70048,4.576213)">
      <path
         d="M 48.181818 17.454546 A 5.4545455 2.1818182 0 1 1  37.272727,17.454546 A 5.4545455 2.1818182 0 1 1  48.181818 17.454546 z"
         sodipodi:ry="2.1818182"
         sodipodi:rx="5.4545455"
         sodipodi:cy="17.454546"
         sodipodi:cx="42.727272"
         id="path3032"
         style="opacity:0.86111109;color:black;fill:white;fill-opacity:1;fill-rule:nonzero;stroke:black;stroke-width:1.25026679;stroke-linecap:butt;stroke-linejoin:round;marker:none;marker-start:none;marker-mid:none;marker-end:none;stroke-miterlimit:4;stroke-dasharray:none;stroke-dashoffset:0;stroke-opacity:1;visibility:visible;display:inline;overflow:visible"
         sodipodi:type="arc" />
      <path
         transform="matrix(1.5,0,0,3.111111,-21.63637,-35.63636)"
         d="M 44.727274 17.181818 A 1.8181819 0.81818181 0 1 1  41.09091,17.181818 A 1.8181819 0.81818181 0 1 1  44.727274 17.181818 z"
         sodipodi:ry="0.81818181"
         sodipodi:rx="1.8181819"
         sodipodi:cy="17.181818"
         sodipodi:cx="42.909092"
         id="path3034"
         style="opacity:0.86111109;color:black;fill:black;fill-opacity:1;fill-rule:nonzero;stroke:none;stroke-width:1.25026679;stroke-linecap:butt;stroke-linejoin:round;marker:none;marker-start:none;marker-mid:none;marker-end:none;stroke-miterlimit:4;stroke-dasharray:none;stroke-dashoffset:0;stroke-opacity:1;visibility:visible;display:inline;overflow:visible"
         sodipodi:type="arc" />
    </g>
    <g
       transform="matrix(0.609847,0,0,0.651535,1.721377,3.283218)"
       id="g3040">
      <path
         sodipodi:type="arc"
         style="opacity:0.86111109;color:black;fill:white;fill-opacity:1;fill-rule:nonzero;stroke:black;stroke-width:1.25026679;stroke-linecap:butt;stroke-linejoin:round;marker:none;marker-start:none;marker-mid:none;marker-end:none;stroke-miterlimit:4;stroke-dasharray:none;stroke-dashoffset:0;stroke-opacity:1;visibility:visible;display:inline;overflow:visible"
         id="path3042"
         sodipodi:cx="42.727272"
         sodipodi:cy="17.454546"
         sodipodi:rx="5.4545455"
         sodipodi:ry="2.1818182"
         d="M 48.181818 17.454546 A 5.4545455 2.1818182 0 1 1  37.272727,17.454546 A 5.4545455 2.1818182 0 1 1  48.181818 17.454546 z" />
      <path
         sodipodi:type="arc"
         style="opacity:0.86111109;color:black;fill:black;fill-opacity:1;fill-rule:nonzero;stroke:none;stroke-width:1.25026679;stroke-linecap:butt;stroke-linejoin:round;marker:none;marker-start:none;marker-mid:none;marker-end:none;stroke-miterlimit:4;stroke-dasharray:none;stroke-dashoffset:0;stroke-opacity:1;visibility:visible;display:inline;overflow:visible"
         id="path3044"
         sodipodi:cx="42.909092"
         sodipodi:cy="17.181818"
         sodipodi:rx="1.8181819"
         sodipodi:ry="0.81818181"
         d="M 44.727274 17.181818 A 1.8181819 0.81818181 0 1 1  41.09091,17.181818 A 1.8181819 0.81818181 0 1 1  44.727274 17.181818 z"
         transform="matrix(1.5,0,0,3.111111,-21.63637,-35.63636)" />
    </g>
    <g
       id="g3052"
       transform="matrix(1.179096,0,0,1.122527,-9.47161,-9.668215)">
      <path
         transform="matrix(0.888504,0.448246,-0.469744,0.888504,27.27812,-8.786154)"
         d="M 30.363636 54.909092 A 4 7.818182 0 1 1  22.363636,54.909092 A 4 7.818182 0 1 1  30.363636 54.909092 z"
         sodipodi:ry="7.818182"
         sodipodi:rx="4"
         sodipodi:cy="54.909092"
         sodipodi:cx="26.363636"
         id="path3048"
         style="opacity:1;color:black;fill:#ffc200;fill-opacity:1;fill-rule:nonzero;stroke:black;stroke-width:1.25026679;stroke-linecap:butt;stroke-linejoin:round;marker:none;marker-start:none;marker-mid:none;marker-end:none;stroke-miterlimit:4;stroke-dasharray:none;stroke-dashoffset:0;stroke-opacity:1;visibility:visible;display:inline;overflow:visible"
         sodipodi:type="arc" />
      <path
         d="M 30.363637 59.81818 A 4.909091 3.2727273 0 1 1  20.545455,59.81818 A 4.909091 3.2727273 0 1 1  30.363637 59.81818 z"
         sodipodi:ry="3.2727273"
         sodipodi:rx="4.909091"
         sodipodi:cy="59.81818"
         sodipodi:cx="25.454546"
         id="path3050"
         style="opacity:1;color:black;fill:#ffc200;fill-opacity:1;fill-rule:nonzero;stroke:black;stroke-width:1.25026679;stroke-linecap:butt;stroke-linejoin:round;marker:none;marker-start:none;marker-mid:none;marker-end:none;stroke-miterlimit:4;stroke-dasharray:none;stroke-dashoffset:0;stroke-opacity:1;visibility:visible;display:inline;overflow:visible"
         sodipodi:type="arc"
         transform="translate(-2.041401,-1.196485)" />
    </g>
    <g
       transform="matrix(1.259575,0,0,1.070414,6.872393,-5.812598)"
       id="g3056">
      <path
         sodipodi:type="arc"
         style="opacity:1;color:black;fill:#ffc200;fill-opacity:1;fill-rule:nonzero;stroke:black;stroke-width:1.25026679;stroke-linecap:butt;stroke-linejoin:round;marker:none;marker-start:none;marker-mid:none;marker-end:none;stroke-miterlimit:4;stroke-dasharray:none;stroke-dashoffset:0;stroke-opacity:1;visibility:visible;display:inline;overflow:visible"
         id="path3058"
         sodipodi:cx="26.363636"
         sodipodi:cy="54.909092"
         sodipodi:rx="4"
         sodipodi:ry="7.818182"
         d="M 30.363636 54.909092 A 4 7.818182 0 1 1  22.363636,54.909092 A 4 7.818182 0 1 1  30.363636 54.909092 z"
         transform="translate(-1.454545,-3.09091)" />
      <path
         sodipodi:type="arc"
         style="opacity:1;color:black;fill:#ffc200;fill-opacity:1;fill-rule:nonzero;stroke:black;stroke-width:1.25026679;stroke-linecap:butt;stroke-linejoin:round;marker:none;marker-start:none;marker-mid:none;marker-end:none;stroke-miterlimit:4;stroke-dasharray:none;stroke-dashoffset:0;stroke-opacity:1;visibility:visible;display:inline;overflow:visible"
         id="path3060"
         sodipodi:cx="25.454546"
         sodipodi:cy="59.81818"
         sodipodi:rx="4.909091"
         sodipodi:ry="3.2727273"
         d="M 30.363637 59.81818 A 4.909091 3.2727273 0 1 1  20.545455,59.81818 A 4.909091 3.2727273 0 1 1  30.363637 59.81818 z" />
    </g>
    <path
       style="fill:white;fill-opacity:1;fill-rule:evenodd;stroke:black;stroke-width:0.66627032;stroke-linecap:butt;stroke-linejoin:round;stroke-miterlimit:4;stroke-dasharray:none;stroke-dashoffset:0;stroke-opacity:1"
       d="M 23.555236,17.841915 C 25.985408,19.587081 26.409015,21.640215 24.264746,21.640215 C 22.120476,21.640215 20.69957,21.565679 21.064308,20.498573 C 21.136898,20.2862 21.436449,20.063262 21.583056,19.715465 C 22.004011,18.716829 23.446827,17.864542 23.555236,17.841915 z "
       id="path3118"
       sodipodi:nodetypes="csssc" />
    <path
       style="fill:none;fill-opacity:1;fill-rule:evenodd;stroke:black;stroke-width:1.00002956;stroke-linecap:butt;stroke-linejoin:round;stroke-miterlimit:4;stroke-dasharray:none;stroke-dashoffset:0;stroke-opacity:1"
       d="M 17.916923,23.570673 C 22.771258,24.309028 22.814155,22.129822 22.814155,22.129822 C 24.029447,22.26556 23.104919,24.660798 26.20402,24.460049"
       id="path3120"
       sodipodi:nodetypes="ccs" />
    <path
       style="fill:none;fill-opacity:1;fill-rule:evenodd;stroke:black;stroke-width:0.57658148;stroke-linecap:butt;stroke-linejoin:round;stroke-miterlimit:4;stroke-dasharray:none;stroke-dashoffset:0;stroke-opacity:1"
       d="M 17.433811,19.778863 L 11.05803,17.113336"
       id="path3122"
       sodipodi:nodetypes="cc" />
    <path
       sodipodi:nodetypes="cc"
       id="path3130"
       d="M 17.219789,20.296154 L 8.6030314,19.866357"
       style="fill:none;fill-opacity:1;fill-rule:evenodd;stroke:black;stroke-width:0.61357701;stroke-linecap:butt;stroke-linejoin:round;stroke-miterlimit:4;stroke-dasharray:none;stroke-dashoffset:0;stroke-opacity:1" />
    <path
       style="fill:none;fill-opacity:1;fill-rule:evenodd;stroke:black;stroke-width:0.89440525;stroke-linecap:butt;stroke-linejoin:round;stroke-miterlimit:4;stroke-dasharray:none;stroke-dashoffset:0;stroke-opacity:1"
       d="M 17.036861,21.214 L 10.407107,23.120961"
       id="path3134"
       sodipodi:nodetypes="cc" />
    <path
       style="fill:none;fill-opacity:1;fill-rule:evenodd;stroke:black;stroke-width:1.00002956;stroke-linecap:butt;stroke-linejoin:round;stroke-miterlimit:4;stroke-dasharray:none;stroke-dashoffset:0;stroke-opacity:1"
       d="M 28.922382,19.802279 L 30.488311,19.035401 C 33.213065,17.783401 34.166899,17.236294 35.995033,16.33861"
       id="path3136"
       sodipodi:nodetypes="ccc" />
    <path
       style="fill:none;fill-opacity:1;fill-rule:evenodd;stroke:black;stroke-width:1.00002956;stroke-linecap:butt;stroke-linejoin:round;stroke-miterlimit:4;stroke-dasharray:none;stroke-dashoffset:0;stroke-opacity:1"
       d="M 29.993591,21.062729 L 37.066241,18.510551"
       id="path3138" />
    <path
       style="fill:none;fill-opacity:1;fill-rule:evenodd;stroke:black;stroke-width:1.00002956;stroke-linecap:butt;stroke-linejoin:round;stroke-miterlimit:4;stroke-dasharray:none;stroke-dashoffset:0;stroke-opacity:1"
       d="M 30.129604,21.56405 L 35.932803,23.113586"
       id="path3140" />
  </g>
</svg>
